<?xml version="1.0" encoding="UTF-8"?>
<svg version="1.1" xmlns="http://www.w3.org/2000/svg" width="1264" height="398">
<path d="M0 0 C417.12 0 834.24 0 1264 0 C1264 131.34 1264 262.68 1264 398 C846.88 398 429.76 398 0 398 C0 266.66 0 135.32 0 0 Z " fill="#FEFEFE" transform="translate(0,0)"/>
<path d="M0 0 C1.09049509 -0.00297112 2.18099017 -0.00594224 3.30453056 -0.0090034 C6.95375552 -0.01766568 10.60294758 -0.01919657 14.25218201 -0.02069092 C16.87086049 -0.02532087 19.4895383 -0.03034577 22.10821533 -0.03573608 C29.22008257 -0.04928875 36.33194415 -0.05533948 43.44382215 -0.05974674 C47.88984562 -0.06251465 52.33586694 -0.06675302 56.78188896 -0.07125092 C69.10667185 -0.08344012 81.43145302 -0.09373977 93.7562418 -0.09712601 C94.93831995 -0.09745536 94.93831995 -0.09745536 96.14427846 -0.09779136 C96.93415139 -0.09800964 97.72402432 -0.09822791 98.5378328 -0.09845281 C100.13825389 -0.09889626 101.73867498 -0.09934283 103.33909607 -0.09979248 C104.13294997 -0.10001391 104.92680387 -0.10023534 105.74471395 -0.10046348 C118.59675838 -0.10440822 131.448746 -0.12185392 144.3007685 -0.145152 C157.51542498 -0.16891283 170.73005301 -0.18133002 183.94473118 -0.18249393 C191.35629844 -0.18340809 198.76779168 -0.18909479 206.17933846 -0.20731354 C212.49264844 -0.22277862 218.80586154 -0.2277975 225.11918689 -0.21957543 C228.33515144 -0.21569129 231.5508822 -0.21814861 234.76683044 -0.23063278 C256.76687943 -0.3109931 276.2888863 0.93905023 293.01634216 16.8147583 C302.79319238 26.63314145 310.18092497 40.80432582 310.21233082 54.88920593 C310.21678866 55.82121071 310.22124651 56.75321548 310.22583944 57.71346283 C310.22556289 59.23663998 310.22556289 59.23663998 310.22528076 60.79058838 C310.22895745 61.87599663 310.23263414 62.96140488 310.23642224 64.07970428 C310.24745189 67.72365285 310.25130174 71.36757289 310.25511169 75.01153564 C310.26137694 77.62168976 310.26802379 80.23184299 310.27502441 82.84199524 C310.29476254 90.67986017 310.30485214 98.51772633 310.3137522 106.35560989 C310.31813987 110.05081516 310.32350548 113.746019 310.32874107 117.44122314 C310.3457515 129.73246971 310.36024396 142.0237154 310.36748981 154.31497192 C310.36939957 157.50272625 310.37131992 160.69048057 310.37327576 163.87823486 C310.3737595 164.67049146 310.37424324 165.46274806 310.37474164 166.27901244 C310.3830356 179.10277872 310.40836261 191.92645153 310.44085643 204.75017703 C310.47397833 217.92973458 310.49194324 231.10924473 310.49513406 244.28884411 C310.49729452 251.68311041 310.50597491 259.07724045 310.53159523 266.47146606 C310.55565715 273.43182364 310.55909578 280.3919329 310.54883385 287.35232353 C310.54833916 289.9011663 310.5546396 292.45002125 310.56838989 294.99882698 C310.67633668 316.2017722 308.54938639 332.90300084 293.28123474 348.92950439 C292.55420349 349.65911377 291.82717224 350.38872314 291.07810974 351.14044189 C290.53670349 351.70505127 289.99529724 352.26966064 289.43748474 352.85137939 C278.36476413 363.42079452 262.46640414 367.61998005 247.59254456 367.52139282 C246.4897591 367.52607279 245.38697365 367.53075277 244.25077045 367.53557456 C240.58387949 367.54746693 236.91736625 367.5380896 233.25047302 367.52862549 C230.60986757 367.53269379 227.96928747 367.53792934 225.32868958 367.54455566 C218.91756582 367.55785117 212.50654781 367.55503375 206.09542002 367.54631774 C200.88077757 367.53952388 195.66616462 367.53863182 190.45151901 367.54188919 C189.70741526 367.54234889 188.96331152 367.54280859 188.19665917 367.54328222 C186.68468054 367.54424147 185.17270192 367.54521411 183.66072331 367.54619999 C169.50321243 367.55474194 155.34575994 367.54493917 141.18825863 367.52879889 C129.06248313 367.51540233 116.93679384 367.51772066 104.8110199 367.53155518 C90.70492698 367.54764171 76.5988852 367.55391227 62.49278438 367.54471838 C60.98596693 367.54376282 59.47914947 367.5428197 57.972332 367.54188919 C56.86047853 367.54119495 56.86047853 367.54119495 55.72616336 367.54048669 C50.52385693 367.53790559 45.32158315 367.54224884 40.11928177 367.54932785 C33.77052622 367.55777754 27.42188181 367.55539056 21.07313885 367.53948562 C17.83905406 367.53164834 14.60519038 367.53007163 11.37110138 367.53843307 C-11.24802726 367.59150197 -29.86588542 365.7875699 -46.92189026 349.14044189 C-57.84511711 336.33257379 -63.41002984 322.50432743 -63.30957031 305.69284058 C-63.31764862 304.04478772 -63.31764862 304.04478772 -63.32589012 302.36344087 C-63.34010888 298.71037807 -63.33308085 295.05768074 -63.32594299 291.40460205 C-63.33164973 288.77385672 -63.33861516 286.14311385 -63.34674072 283.51237488 C-63.36387705 277.12532129 -63.3647795 270.73836631 -63.35952782 264.35129572 C-63.35547513 259.15619809 -63.35694268 253.96112944 -63.36227608 248.76603317 C-63.3630245 248.02470479 -63.36377292 247.2833764 -63.36454402 246.51958352 C-63.36607561 245.01324189 -63.36761396 243.50690027 -63.36915899 242.00055866 C-63.3828654 227.8959866 -63.3774595 213.79147012 -63.36597378 199.68689935 C-63.35604389 186.80530525 -63.36898112 173.92385484 -63.39290797 161.04228289 C-63.41733607 147.79020153 -63.42689771 134.53818699 -63.42025524 121.28608358 C-63.41677118 113.85615254 -63.41894109 106.42633193 -63.43650627 98.996418 C-63.45127482 92.67142836 -63.45180335 86.34662693 -63.43443536 80.02164079 C-63.4259608 76.79964382 -63.42588211 73.57804907 -63.43908691 70.35605812 C-63.51960445 49.07828825 -61.37640713 33.04834327 -46.29689026 16.82794189 C-33.10564541 4.34808929 -17.7552129 -0.01518962 0 0 Z " fill="#2AB62C" transform="translate(80.92189025878906,17.85955810546875)"/>
<path d="M0 0 C1.02035591 -0.0098568 1.02035591 -0.0098568 2.06132507 -0.01991272 C4.30618413 -0.0395766 6.55097647 -0.05129338 8.79589844 -0.0612793 C9.56555687 -0.06535482 10.3352153 -0.06943035 11.12819672 -0.07362938 C15.20281198 -0.09446162 19.27739385 -0.10877507 23.35205078 -0.11816406 C27.5461804 -0.12921699 31.73977782 -0.16361168 35.93371964 -0.20333576 C39.17151837 -0.22956413 42.40919149 -0.23786142 45.6470871 -0.24144554 C47.19235576 -0.24629619 48.73761938 -0.25786656 50.28278351 -0.27648354 C67.33618828 -0.46916714 67.33618828 -0.46916714 73.69342041 5.65995789 C77.80187895 10.29745192 78.28275328 13.81995109 78.34472656 19.83569336 C78.35716652 20.84343559 78.35716652 20.84343559 78.36985779 21.87153625 C78.38723768 23.32838226 78.40241011 24.78525589 78.41563416 26.24214554 C78.43667061 28.54467297 78.46369009 30.84706076 78.49230957 33.14950562 C78.56212203 38.8654079 78.6216378 44.58140902 78.68133545 50.29742432 C78.7321867 55.13113802 78.78697269 59.96477496 78.84715271 64.79838181 C78.87380472 67.07240294 78.89456845 69.34643098 78.91516113 71.62051392 C78.93175605 73.006046 78.94862717 74.39157482 78.96582031 75.77709961 C78.97834839 76.99160797 78.99087646 78.20611633 79.00378418 79.45742798 C78.84738079 82.09133766 78.84738079 82.09133766 80.15527344 83.17700195 C82.55587349 83.28604945 84.92876023 83.33122196 87.33032227 83.3347168 C88.08172485 83.33979752 88.83312744 83.34487823 89.6072998 83.35011292 C91.24642062 83.36084412 92.88555633 83.36945342 94.52469826 83.37623215 C97.12833416 83.38801198 99.73180348 83.40746868 102.33537292 83.42935181 C109.74102115 83.49095371 117.1466581 83.54476383 124.55249023 83.57836914 C129.07958358 83.59946582 133.60638269 83.63490195 138.1333065 83.67912674 C139.85103546 83.69318568 141.56881659 83.70198606 143.28660011 83.70518112 C166.65024529 83.75318056 166.65024529 83.75318056 174.28027344 89.55200195 C178.30678687 95.18912076 178.43013576 99.92161959 178.35058594 106.6340332 C178.34634109 107.98847786 178.34634109 107.98847786 178.3420105 109.37028503 C178.33084951 112.2434943 178.30575241 115.1163875 178.28027344 117.98950195 C178.27023836 119.9419714 178.26111343 121.89444575 178.25292969 123.84692383 C178.23092352 128.62373761 178.19642175 133.40031626 178.15527344 138.17700195 C167.82764722 139.48946693 157.52569929 139.54700577 147.1262207 139.63696289 C144.76859341 139.66367821 142.41108537 139.70472006 140.05395508 139.76000977 C136.62761993 139.83922035 133.20348394 139.87226834 129.77636719 139.89575195 C128.73032822 139.9287439 127.68428925 139.96173584 126.60655212 139.99572754 C119.95767247 139.9776268 116.51699833 138.75062528 111.78320312 134.02401733 C109.29500689 131.2009613 106.9325963 128.34430236 104.71777344 125.30200195 C103.86524543 124.15852177 103.01239791 123.01527971 102.15917969 121.87231445 C101.49789062 120.98286133 100.83660156 120.0934082 100.15527344 119.17700195 C98.59603566 117.61776417 97.0667462 117.82014584 94.90527344 117.67700195 C94.13699219 117.60481445 93.36871094 117.53262695 92.57714844 117.45825195 C88.59463619 118.64015881 87.08628808 121.73013725 85.15527344 125.17700195 C82.99321741 129.53235115 81.03437282 133.97035255 79.09277344 138.42700195 C78.53079265 139.70102059 77.96803627 140.97469736 77.40454102 142.24804688 C76.23873884 144.88524987 75.077193 147.52426561 73.91894531 150.16479492 C72.17188631 154.14459726 70.40818172 158.11685939 68.63964844 162.0871582 C68.22006615 163.02919601 68.22006615 163.02919601 67.79200745 163.99026489 C67.51751266 164.60650726 67.24301788 165.22274963 66.96020508 165.85766602 C64.68702145 170.96194975 62.42087844 176.06935086 60.15527344 181.17700195 C59.49527344 181.17700195 58.83527344 181.17700195 58.15527344 181.17700195 C52.82564465 154.92321479 47.50940185 128.67166659 42.78027344 102.30200195 C42.455216 100.49356081 42.13010294 98.68512966 41.80493164 96.87670898 C41.64878891 96.00813263 41.49264618 95.13955627 41.33177185 94.24465942 C41.17942581 93.39733246 41.02707977 92.55000549 40.87011719 91.67700195 C40.72224258 90.85424774 40.57436798 90.03149353 40.42201233 89.18380737 C39.10708573 81.88105699 37.75847214 74.58601775 36.34277344 67.30200195 C36.1598877 66.32763184 35.97700195 65.35326172 35.78857422 64.34936523 C34.3437229 56.64570495 34.3437229 56.64570495 30.15527344 50.17700195 C28.15918917 49.86137643 28.15918917 49.86137643 25.84277344 49.80200195 C25.06289062 49.75301758 24.28300781 49.7040332 23.47949219 49.65356445 C19.92124433 50.45491775 19.15658665 52.13692432 17.15527344 55.17700195 C15.8281787 58.62376754 14.87165031 62.1537234 13.90527344 65.71606445 C13.60935303 66.76839264 13.31343262 67.82072083 13.00854492 68.90493774 C12.37456927 71.16321745 11.74574037 73.4229472 11.12158203 75.68395996 C10.16341647 79.14756626 9.18778673 82.60574981 8.20605469 86.06274414 C6.51829821 92.00955596 4.84420621 97.9600915 3.17578125 103.91235352 C2.15785846 107.54278245 1.13715292 111.17242106 0.11621094 114.80200195 C-0.55857233 117.20556243 -1.23305344 119.60920776 -1.90722656 122.01293945 C-2.23537354 123.18177673 -2.56352051 124.35061401 -2.90161133 125.55487061 C-4.58810474 131.58776945 -6.23766833 137.62810521 -7.83300781 143.68579102 C-8.15068115 144.88805328 -8.46835449 146.09031555 -8.7956543 147.32901001 C-9.39900738 149.6221303 -9.99644579 151.91681728 -10.5871582 154.21322632 C-10.85520264 155.23203888 -11.12324707 156.25085144 -11.39941406 157.30053711 C-11.63128418 158.19713043 -11.8631543 159.09372375 -12.10205078 160.01748657 C-12.84472656 162.17700195 -12.84472656 162.17700195 -14.84472656 164.17700195 C-15.61816406 163.12641602 -16.39160156 162.07583008 -17.18847656 160.9934082 C-25.80536236 147.41781337 -25.80536236 147.41781337 -37.84472656 138.17700195 C-40.06750238 138.0589979 -42.29356207 138.0000587 -44.51928711 137.97167969 C-45.19272156 137.96178009 -45.86615601 137.95188049 -46.55999756 137.94168091 C-48.78377783 137.91011807 -51.00757946 137.88532921 -53.23144531 137.8605957 C-54.77416028 137.84002166 -56.31686967 137.81902507 -57.85957336 137.79762268 C-61.91850259 137.74244845 -65.97748229 137.6930187 -70.03649902 137.64477539 C-74.17900074 137.59452641 -78.32142922 137.53885808 -82.46386719 137.48364258 C-90.59075837 137.37611787 -98.71771086 137.2746603 -106.84472656 137.17700195 C-106.94382827 131.16305312 -107.01630573 125.1495828 -107.06445312 119.13500977 C-107.08453076 117.09032915 -107.11179881 115.04570569 -107.14648438 113.0012207 C-107.19517175 110.05706659 -107.217734 107.11367362 -107.23535156 104.16918945 C-107.2559967 103.25958466 -107.27664185 102.34997986 -107.2979126 101.41281128 C-107.29987806 95.81525255 -106.60559202 92.60814648 -102.84472656 88.17700195 C-95.90471894 82.42670992 -84.23430195 83.99932607 -75.73135567 83.91664124 C-73.55829421 83.89535685 -71.38536651 83.86836718 -69.21238708 83.83996582 C-63.82584467 83.77066162 -58.43920828 83.71056053 -53.05255127 83.65093994 C-48.47765263 83.60003258 -43.90283352 83.54527709 -39.3280468 83.48512268 C-37.18645963 83.45856602 -35.04486466 83.43775625 -32.9032135 83.41711426 C-31.61104416 83.40039673 -30.31887482 83.3836792 -28.98754883 83.36645508 C-27.27620506 83.34766296 -27.27620506 83.34766296 -25.5302887 83.32849121 C-22.87361647 83.35650121 -22.87361647 83.35650121 -20.84472656 82.17700195 C-20.84108093 81.35982697 -20.8374353 80.54265198 -20.8336792 79.70071411 C-20.79565938 71.96287532 -20.73864979 64.22551059 -20.66082382 56.48797798 C-20.62147767 52.51093123 -20.58922679 48.53410163 -20.57373047 44.55688477 C-20.55847822 40.71162444 -20.52388377 36.86696161 -20.47641754 33.02196884 C-20.4616913 31.56217547 -20.45369063 30.10229675 -20.45284271 28.64242935 C-20.44180015 19.15497233 -20.3315915 9.77603851 -13.34472656 2.61450195 C-8.92130512 0.07103462 -5.06896842 0.04062539 0 0 Z " fill="#FDFEFD" transform="translate(164.8447265625,65.822998046875)"/>
<path d="M0 0 C0.66 0 1.32 0 2 0 C2.235979 1.29583008 2.47195801 2.59166016 2.71508789 3.92675781 C10.85657721 50.50141524 10.85657721 50.50141524 20.625 96.75 C20.79483398 97.49999268 20.96466797 98.24998535 21.13964844 99.02270508 C22.55229626 104.64370179 24.8651956 111.10079535 30.02172852 114.22485352 C32.44610026 115.17479555 33.99705109 115.04779147 36.5625 114.6875 C37.32691406 114.58824219 38.09132812 114.48898437 38.87890625 114.38671875 C41.17759623 114.0191013 41.17759623 114.0191013 44 113 C45.06594668 110.74229248 45.06594668 110.74229248 46 108 C47.02109393 105.94930881 48.05939818 103.90714775 49.109375 101.87109375 C53.5555644 93.10938562 57.38907957 84.09314265 61.25 75.0625 C61.96316488 73.40283283 62.6767048 71.74332677 63.390625 70.08398438 C64.98350976 66.37942724 66.57257861 62.67325968 68.15881348 58.96585083 C69.43788414 55.97666585 70.71902554 52.98836955 72 50 C72.639375 50.66 73.27875 51.32 73.9375 52 C74.9579531 53.00038801 75.97885029 54.00032307 77 55 C77.98226562 56.01126953 77.98226562 56.01126953 78.984375 57.04296875 C79.71140625 57.75066406 80.4384375 58.45835937 81.1875 59.1875 C81.86167969 59.86167969 82.53585937 60.53585938 83.23046875 61.23046875 C90.82842158 66.08501407 100.96763986 65.33152453 109.6640625 65.4140625 C110.93728363 65.43342865 112.21050476 65.4527948 113.52230835 65.4727478 C116.87260638 65.522071 120.22280404 65.56347454 123.57324219 65.60089111 C127.0059554 65.64122672 130.43851019 65.69218257 133.87109375 65.7421875 C140.58062647 65.83780698 147.29022946 65.92297102 154 66 C154.08789644 69.83318619 154.14069087 73.66610928 154.1875 77.5 C154.22520508 79.11648437 154.22520508 79.11648437 154.26367188 80.765625 C154.33167001 88.20008727 154.05856386 94.5816051 148.875 100.375 C142.61572233 103.9128526 135.53002108 104.29730021 128.46679688 104.30297852 C127.66729614 104.31141785 126.86779541 104.31985718 126.04406738 104.32855225 C123.4356214 104.35407578 120.82728782 104.36640535 118.21875 104.37890625 C116.3955396 104.39509875 114.57233773 104.41228056 112.74914551 104.43040466 C107.97554458 104.47586813 103.20193205 104.51080181 98.42822266 104.54260254 C90.75983967 104.59470969 83.0915809 104.65946976 75.4233551 104.73081779 C72.74379617 104.75369244 70.06425341 104.76992757 67.38464355 104.78553772 C65.7557761 104.7989351 64.1269104 104.81254908 62.49804688 104.82641602 C61.749021 104.82902939 60.99999512 104.83164276 60.22827148 104.83433533 C56.82612948 104.56762293 56.82612948 104.56762293 54 106 C53.89202702 107.98750978 53.85371277 109.97883061 53.84228516 111.96923828 C53.83202301 113.24791779 53.82176086 114.52659729 53.81118774 115.84402466 C53.80774982 116.53223423 53.8043119 117.2204438 53.80076981 117.92950821 C53.78899683 120.08232128 53.76954483 122.23493226 53.74765015 124.38766479 C53.68600586 130.51032716 53.6321248 136.63297338 53.59863281 142.75585938 C53.57760809 146.49841802 53.54223388 150.24061581 53.49787521 153.98296738 C53.4837661 155.40617477 53.47500432 156.82944611 53.47182083 158.25271988 C53.44739428 168.1349433 53.19950794 175.59479184 46 183 C38.17101052 187.98208421 28.74219957 187.14920072 19.79296875 187.1328125 C18.63179031 187.13376923 17.47061188 187.13472595 16.27424622 187.13571167 C13.82597804 187.13638986 11.37770804 187.13456084 8.92944336 187.13037109 C5.21008191 187.12503241 1.49084202 187.13032091 -2.22851562 187.13671875 C-4.61718776 187.13605762 -7.00585983 187.13477574 -9.39453125 187.1328125 C-10.49384476 187.13483673 -11.59315826 187.13686096 -12.7257843 187.13894653 C-33.65644448 187.07637774 -33.65644448 187.07637774 -39 182 C-43.96249181 173.10173882 -43.17709179 162.8067703 -43.28125 152.91015625 C-43.29931847 151.55634357 -43.31792279 150.20253795 -43.33703613 148.84873962 C-43.40637813 143.85911481 -43.46648749 138.86938827 -43.52606201 133.87963867 C-43.57692405 129.64184651 -43.63166033 125.40414138 -43.69187927 121.16647148 C-43.71847709 119.1805335 -43.73921281 117.19451983 -43.7598877 115.20851135 C-43.77660522 114.01314255 -43.79332275 112.81777374 -43.81054688 111.58618164 C-43.82307495 110.52887344 -43.83560303 109.47156525 -43.84851074 108.38221741 C-43.73364439 106.04608698 -43.73364439 106.04608698 -45 105 C-47.16611913 104.89702015 -49.33559336 104.86426415 -51.50415039 104.8581543 C-52.52384918 104.85294266 -52.52384918 104.85294266 -53.56414795 104.84762573 C-55.04612975 104.84025487 -56.52812269 104.83491661 -58.01011848 104.83133507 C-60.36063222 104.82417925 -62.710936 104.80851639 -65.06138611 104.78999329 C-71.74654125 104.73750468 -78.43158694 104.68961132 -85.11694336 104.67407227 C-89.2032036 104.6639507 -93.2889439 104.63451297 -97.37499809 104.59275246 C-98.92856334 104.58048776 -100.48220224 104.57531289 -102.03581429 104.57755089 C-119.27951183 104.5962648 -119.27951183 104.5962648 -126.375 97.6875 C-130.63346098 90.64466069 -130.24844926 83.56296156 -130.125 75.5625 C-130.11597656 74.44939453 -130.10695312 73.33628906 -130.09765625 72.18945312 C-130.0742224 69.45940977 -130.041414 66.7298199 -130 64 C-121.86351361 63.6503647 -113.73022577 63.38494745 -105.58805466 63.22281742 C-101.80565566 63.14494002 -98.02843816 63.03964815 -94.24902344 62.8684082 C-67.797987 61.70114474 -67.797987 61.70114474 -61.48632812 67.13330078 C-58.73991921 70.1991696 -56.72919269 73.52139147 -54.91223145 77.20333862 C-53.73538663 79.52116228 -52.22592102 81.43248608 -50.5625 83.421875 C-49.26161383 85.10806763 -47.96451513 86.79668511 -46.67578125 88.4921875 C-44.37657154 91.46113698 -42.25623822 94.07914836 -39 96 C-33.30713382 96.8157155 -33.30713382 96.8157155 -28.46875 94.1328125 C-25.0915518 89.84719074 -23.91614302 85.5791081 -22.4375 80.375 C-21.94757568 78.71936035 -21.94757568 78.71936035 -21.44775391 77.03027344 C-20.27455302 73.02670531 -19.13390443 69.01482968 -18 65 C-17.76867371 64.18366089 -17.53734741 63.36732178 -17.29901123 62.52624512 C-11.4045747 41.72022659 -5.63342065 20.87824759 0 0 Z " fill="#FDFEFD" transform="translate(188,155)"/>
<path d="M0 0 C7.26 0 14.52 0 22 0 C22 36.3 22 72.6 22 110 C15.07 110 8.14 110 1 110 C0.67 106.37 0.34 102.74 0 99 C-0.721875 99.7425 -1.44375 100.485 -2.1875 101.25 C-9.11813247 108.02661842 -15.98695592 112.137136 -25.875 112.5 C-35.60380778 112.12485317 -45.06027207 109.01735352 -52 102 C-62.41887155 88.99421046 -63.12719661 75.10324743 -62 59 C-61.21837645 54.91322542 -60.02734207 51.62025369 -58 48 C-57.56429688 47.20722656 -57.12859375 46.41445312 -56.6796875 45.59765625 C-51.97682872 37.87520235 -45.6496587 31.73917749 -37.0390625 28.66015625 C-27.13965977 26.50977185 -16.75163366 26.6360955 -8 32 C-5.69 33.98 -3.38 35.96 -1 38 C-0.67 25.46 -0.34 12.92 0 0 Z " fill="#2AB52C" transform="translate(1227,120)"/>
<path d="M0 0 C7.92 0 15.84 0 24 0 C24 15.18 24 30.36 24 46 C42.15 46 60.3 46 79 46 C79 30.82 79 15.64 79 0 C86.59 0 94.18 0 102 0 C102 36.3 102 72.6 102 110 C94.41 110 86.82 110 79 110 C79 95.15 79 80.3 79 65 C60.85 65 42.7 65 24 65 C24 79.85 24 94.7 24 110 C16.08 110 8.16 110 0 110 C0 73.7 0 37.4 0 0 Z " fill="#29B52B" transform="translate(442,120)"/>
<path d="M0 0 C9.42042824 8.42436145 13.75611366 15.1370542 15.1796875 27.94921875 C7.5896875 27.94921875 -0.0003125 27.94921875 -7.8203125 27.94921875 C-8.8103125 25.63921875 -9.8003125 23.32921875 -10.8203125 20.94921875 C-14.95099922 15.09741257 -19.70499492 11.38936586 -26.8203125 9.94921875 C-41.67504399 8.84624938 -41.67504399 8.84624938 -54.8203125 14.94921875 C-62.4562274 21.7696476 -66.44399256 30.34190903 -67.0234375 40.515625 C-67.17359974 53.31695579 -66.15685341 65.14036834 -57 74.88671875 C-49.05982111 82.3598283 -42.26490575 83.49490559 -31.4453125 83.2265625 C-22.62297951 82.55157797 -16.79057095 79.52495152 -10.8203125 72.94921875 C-8.11256686 68.61682572 -7.27249485 65.03185698 -5.8203125 59.94921875 C-15.0603125 59.94921875 -24.3003125 59.94921875 -33.8203125 59.94921875 C-33.8203125 54.66921875 -33.8203125 49.38921875 -33.8203125 43.94921875 C-17.3203125 43.94921875 -0.8203125 43.94921875 16.1796875 43.94921875 C16.1796875 75.6629734 16.1796875 75.6629734 3.078125 89.10546875 C-8.31327229 99.89308173 -22.17985904 103.50800708 -37.70849609 103.36865234 C-52.10471418 102.83083268 -65.41646698 98.11747821 -76.1328125 88.26171875 C-87.72633462 75.72818133 -91.14223569 61.91874272 -91.3203125 45.38671875 C-91.33892334 44.25097412 -91.35753418 43.11522949 -91.37670898 41.94506836 C-91.2685257 27.42645187 -85.96853581 15.33243314 -76.1328125 4.69921875 C-56.66814298 -13.67150617 -21.48751618 -16.67633831 0 0 Z " fill="#28B52A" transform="translate(1037.8203125,129.05078125)"/>
<path d="M0 0 C1.00482422 -0.01853027 2.00964844 -0.03706055 3.04492188 -0.05615234 C12.7146655 0.02437622 21.60388049 2.58074955 29.21484375 8.72265625 C34.56134933 14.23889216 37.01569941 20.83314272 37.12695312 28.40112305 C37.14367065 29.3728093 37.16038818 30.34449554 37.1776123 31.34562683 C37.19118774 32.39043716 37.20476318 33.4352475 37.21875 34.51171875 C37.23715942 35.59451614 37.25556885 36.67731354 37.27453613 37.79292297 C37.33325449 41.25772699 37.38603962 44.72258106 37.4375 48.1875 C37.50553084 52.73316806 37.57930815 57.27869384 37.65625 61.82421875 C37.66982544 62.85890793 37.68340088 63.89359711 37.6973877 64.9596405 C37.71410522 65.94708755 37.73082275 66.93453461 37.74804688 67.9519043 C37.76057495 68.8080986 37.77310303 69.66429291 37.78601074 70.5464325 C37.99105445 74.54414458 38.49544624 78.5215162 38.9375 82.5 C31.6775 82.5 24.4175 82.5 16.9375 82.5 C16.9375 79.2 16.9375 75.9 16.9375 72.5 C16.2775 72.5 15.6175 72.5 14.9375 72.5 C14.69257812 73.09554687 14.44765625 73.69109375 14.1953125 74.3046875 C11.31425458 79.33311778 5.44682991 81.94657903 0.1875 83.875 C-9.85375237 85.83915715 -21.24823615 85.47577587 -30.25 80.3125 C-35.05911463 77.07115674 -39.20835795 73.06242616 -41.0625 67.5 C-41.23681213 64.87960286 -41.33934435 62.30937916 -41.375 59.6875 C-41.41850586 58.63852539 -41.41850586 58.63852539 -41.46289062 57.56835938 C-41.52562122 52.40997397 -40.39046571 49.62351955 -37.0625 45.5 C-28.169961 36.39056981 -14.59966363 34.79788664 -2.4375 34.0625 C6.36715155 33.55016148 6.36715155 33.55016148 13.9375 29.5 C14.44636541 24.4474454 14.44636541 24.4474454 12.125 20.125 C8.24938554 17.24597212 4.82462116 17.31005906 0.125 17.25 C-1.07769531 17.22421875 -2.28039062 17.1984375 -3.51953125 17.171875 C-7.41523989 17.5326683 -9.77153968 18.41103991 -13.0625 20.5 C-13.59875 21.551875 -14.135 22.60375 -14.6875 23.6875 C-17.0625 26.5 -17.0625 26.5 -19.66015625 26.921875 C-22.82504302 26.93787948 -25.9101997 26.77941738 -29.0625 26.5 C-30.44115234 26.37818359 -30.44115234 26.37818359 -31.84765625 26.25390625 C-33.92347308 26.04007409 -35.99400432 25.77579942 -38.0625 25.5 C-38.90180377 20.04452548 -36.96946887 16.94685228 -33.8828125 12.67578125 C-24.91189212 1.95302878 -13.26676105 0.15232809 0 0 Z " fill="#29B52A" transform="translate(697.0625,147.5)"/>
<path d="M0 0 C9.43781358 6.40627346 15.58875983 14.50395609 18.1875 25.6875 C18.875 30.8125 18.875 30.8125 18.875 42.8125 C-1.585 42.8125 -22.045 42.8125 -43.125 42.8125 C-40.54461322 53.09648549 -40.54461322 53.09648549 -33.453125 59.4140625 C-27.18624604 62.04732854 -19.20088793 62.09236819 -12.69921875 60.05078125 C-10.10842798 58.6472051 -8.36029477 57.18058069 -6.7722168 54.69628906 C-5.125 52.8125 -5.125 52.8125 -2.76489258 52.35839844 C-1.85892334 52.3793457 -0.9529541 52.40029297 -0.01953125 52.421875 C1.45483398 52.44121094 1.45483398 52.44121094 2.95898438 52.4609375 C3.98314453 52.49445313 5.00730469 52.52796875 6.0625 52.5625 C7.09826172 52.58054688 8.13402344 52.59859375 9.20117188 52.6171875 C11.76004284 52.66435563 14.31705842 52.73015943 16.875 52.8125 C14.13755712 61.43126121 9.25128471 68.72174631 1.29296875 73.296875 C-11.48698119 79.37405399 -24.52962045 80.73174304 -38.2734375 76.8515625 C-48.96073045 72.95728863 -56.67078989 66.1178127 -62.08203125 56.21875 C-66.70721863 45.54790571 -67.23484014 30.658326 -63.5625 19.5625 C-58.54347953 8.45021257 -50.25781384 1.28637928 -39.203125 -3.42578125 C-27.0025183 -7.89780814 -11.16030226 -6.34059399 0 0 Z " fill="#29B52A" transform="translate(625.125,153.1875)"/>
<path d="M0 0 C7.26 0 14.52 0 22 0 C22.495 19.8 22.495 19.8 23 40 C25.475 37.03 25.475 37.03 28 34 C30.5703125 32.35546875 30.5703125 32.35546875 33.125 31.1875 C33.97320313 30.78917969 34.82140625 30.39085937 35.6953125 29.98046875 C43.59769048 26.61860964 54.39025423 26.60199998 62.5 29.5625 C70.38580796 33.34609473 75.98524557 38.73923222 79 47 C80.02283388 50.3416552 80.12097746 53.38254826 80.11352539 56.87011719 C80.11341209 58.64150055 80.11341209 58.64150055 80.11329651 60.44866943 C80.10813522 61.71857727 80.10297394 62.98848511 80.09765625 64.296875 C80.0962413 65.60078186 80.09482635 66.90468872 80.09336853 68.24810791 C80.08955867 71.70703055 80.07974151 75.16591091 80.06866455 78.62481689 C80.05841746 82.15742419 80.05386385 85.69003836 80.04882812 89.22265625 C80.03811782 96.14845658 80.02053346 103.0742219 80 110 C72.74 110 65.48 110 58 110 C57.9906543 108.46666016 57.98130859 106.93332031 57.97167969 105.35351562 C57.93168774 99.64293799 57.86590213 93.93289385 57.79248047 88.22265625 C57.7643244 85.75527826 57.74308332 83.28781097 57.72900391 80.8203125 C57.70750098 77.26516174 57.66080982 73.71107861 57.609375 70.15625 C57.60814636 69.06010376 57.60691772 67.96395752 57.60565186 66.83459473 C57.47854342 60.12758008 56.59968527 55.70847466 53 50 C47.97106726 46.07497932 42.10686324 46.3599794 36 47 C30.31087261 48.27606596 27.22558685 51.35136013 24 56 C22.99914675 59.02874436 22.85084234 61.86663356 22.79467773 65.04394531 C22.77473251 66.04468079 22.75478729 67.04541626 22.73423767 68.07647705 C22.70916893 69.68604279 22.70916893 69.68604279 22.68359375 71.328125 C22.66281265 72.43226746 22.64203156 73.53640991 22.62062073 74.67401123 C22.55526354 78.19927783 22.49630436 81.72461859 22.4375 85.25 C22.39430164 87.64063265 22.35068693 90.03125782 22.30664062 92.421875 C22.19881323 98.28117511 22.0996364 104.14053194 22 110 C14.74 110 7.48 110 0 110 C0 73.7 0 37.4 0 0 Z " fill="#2AB52B" transform="translate(851,120)"/>
<path d="M0 0 C38.64811912 0 38.64811912 0 46.62109375 7.24609375 C54.03686097 16.67861353 55.72484773 26.37559005 55 38 C53.65205521 46.0648222 50.1315658 53.42696069 43.890625 58.82421875 C30.64516369 68.25590068 16.44820765 65 0 65 C0 43.55 0 22.1 0 0 Z " fill="#020202" transform="translate(442,267)"/>
<path d="M0 0 C7.59 0 15.18 0 23 0 C23 7.59 23 15.18 23 23 C28.94 23 34.88 23 41 23 C41 28.28 41 33.56 41 39 C35.06 39 29.12 39 23 39 C23.09358014 44.90848268 23.19968486 50.81655781 23.31738281 56.72460938 C23.35565669 58.73431238 23.39051236 60.74408351 23.421875 62.75390625 C23.46755991 65.6434768 23.52554887 68.53257896 23.5859375 71.421875 C23.59748871 72.31992859 23.60903992 73.21798218 23.62094116 74.14324951 C23.64081085 74.98381897 23.66068054 75.82438843 23.68115234 76.69042969 C23.69447601 77.42767273 23.70779968 78.16491577 23.7215271 78.92449951 C24.04447447 81.3314749 24.72267215 82.94032752 26 85 C29.63757101 86.99783693 32.71114609 87.22382781 36.8125 87.125 C38.524375 87.08375 40.23625 87.0425 42 87 C42 92.28 42 97.56 42 103 C31.36623407 105.65844148 18.71700727 105.12770156 8.984375 99.921875 C3.50448699 96.09976824 1.76688121 90.50526265 0.35516357 84.18334961 C-0.9518907 76.14830143 -0.39176832 67.79571155 -0.25 59.6875 C-0.22989432 57.67514808 -0.21165078 55.66277666 -0.1953125 53.65039062 C-0.15166244 48.76643723 -0.08286198 43.88343904 0 39 C-3.96 39 -7.92 39 -12 39 C-12 33.39 -12 27.78 -12 22 C-8.04 22 -4.08 22 0 22 C0 14.74 0 7.48 0 0 Z " fill="#2CB62D" transform="translate(797,127)"/>
<path d="M0 0 C7.26 0 14.52 0 22 0 C22 36.3 22 72.6 22 110 C14.74 110 7.48 110 0 110 C0 73.7 0 37.4 0 0 Z " fill="#2BB62D" transform="translate(752,120)"/>
<path d="M0 0 C0 5.94 0 11.88 0 18 C-2.7225 17.9071875 -2.7225 17.9071875 -5.5 17.8125 C-11.56312675 17.83392448 -16.84505942 18.19202219 -21.52734375 22.359375 C-25.52123102 26.85105112 -27.22863427 31.21842289 -27.31884766 37.1574707 C-27.33871735 38.15813065 -27.35858704 39.15879059 -27.37905884 40.18977356 C-27.39061005 41.2576561 -27.40216125 42.32553864 -27.4140625 43.42578125 C-27.43342865 44.52850876 -27.4527948 45.63123627 -27.4727478 46.76737976 C-27.53242923 50.28234166 -27.57888375 53.79733651 -27.625 57.3125 C-27.66319026 59.69858183 -27.7022426 62.08465003 -27.7421875 64.47070312 C-27.83974065 70.31373034 -27.9194016 76.15661591 -28 82 C-35.26 82 -42.52 82 -50 82 C-50 55.6 -50 29.2 -50 2 C-43.07 2 -36.14 2 -29 2 C-28.67 5.63 -28.34 9.26 -28 13 C-27.34 11.948125 -26.68 10.89625 -26 9.8125 C-19.32564965 0.41120079 -10.73494267 -0.11542949 0 0 Z " fill="#28B42A" transform="translate(1119,148)"/>
<path d="M0 0 C3.63 0 7.26 0 11 0 C11.33 7.26 11.66 14.52 12 22 C14.97 19.525 14.97 19.525 18 17 C23.63714929 15.12095024 29.73224411 15.09856687 35.25 17.4375 C40.72671358 20.52578879 44.05219284 26.15657852 46 32 C47.22227546 50.95528824 47.22227546 50.95528824 42 58 C37.10620635 63.45071448 32.38032886 65.67806392 25.0625 66.375 C19.70635344 66.25163386 15.76230326 63.76230326 12 60 C11.505 62.475 11.505 62.475 11 65 C7.37 65 3.74 65 0 65 C0 43.55 0 22.1 0 0 Z " fill="#030303" transform="translate(656,267)"/>
<path d="M0 0 C3.63 0 7.26 0 11 0 C11 21.45 11 42.9 11 65 C7.37 65 3.74 65 0 65 C-0.33 63.35 -0.66 61.7 -1 60 C-1.721875 60.61875 -2.44375 61.2375 -3.1875 61.875 C-7.63730615 65.23707576 -11.21865416 66.49005721 -16.88671875 66.30859375 C-23.26934854 65.37656463 -27.65562599 61.82465493 -31.7734375 57.07421875 C-36.32342449 49.379814 -36.35748203 38.7469449 -34.34765625 30.23828125 C-31.90685857 24.06819613 -27.70820488 20.2097874 -22.0859375 16.859375 C-17.08164794 14.79768267 -11.50123322 15.42680186 -6.5625 17.3125 C-4 19 -4 19 -1 22 C-0.67 14.74 -0.34 7.48 0 0 Z " fill="#020202" transform="translate(879,267)"/>
<path d="M0 0 C31 0 31 0 41 5 C46.1999568 12.00402345 47.66547012 17.33633234 47 26 C45.9556619 31.99775828 43.91449742 36.11421679 38.984375 39.78125 C30.14677781 45.2090656 21.0630271 44.2377093 11 44 C11 50.93 11 57.86 11 65 C7.37 65 3.74 65 0 65 C0 43.55 0 22.1 0 0 Z " fill="#020202" transform="translate(923,267)"/>
<path d="M0 0 C5.85846272 3.76254718 9.54581511 9.2335875 11.37890625 15.8828125 C12.9158593 23.96912403 11.84647966 32.06853255 7.59375 39.2109375 C3.34050723 44.7401531 -2.01627343 47.58021116 -8.89453125 48.54296875 C-16.19452366 48.85947192 -22.31999278 47.43070974 -27.97265625 42.65625 C-33.55157928 36.76205614 -35.31095969 30.13663422 -35.625 22.1640625 C-35.42460108 15.01346457 -33.37908556 9.90354445 -28.9375 4.3515625 C-20.49375524 -2.36505265 -10.2500799 -4.56982729 0 0 Z " fill="#040404" transform="translate(744.1875,284.8359375)"/>
<path d="M0 0 C7.26 0 14.52 0 22 0 C22 26.4 22 52.8 22 80 C14.74 80 7.48 80 0 80 C0 53.6 0 27.2 0 0 Z " fill="#29B52A" transform="translate(1130,150)"/>
<path d="M0 0 C5.19450338 2.18770501 8.39239777 6.20953729 10.94921875 11.12109375 C13.42754069 19.20647889 13.25458323 30.13925666 9.6875 37.8125 C6.67161176 42.79042917 3.3402083 45.09493057 -2.1875 46.9375 C-8.90496551 47.69714877 -13.9839671 47.40073152 -19.53515625 43.359375 C-24.1685603 39.37223771 -26.70736744 35.13314415 -27.41064453 28.98754883 C-28.33308974 12.03013079 -28.33308974 12.03013079 -23.1875 5.9375 C-16.42381192 -1.04320481 -9.27055108 -2.88258978 0 0 Z " fill="#FDFEFD" transform="translate(1215.1875,167.0625)"/>
<path d="M0 0 C3.42785562 2.82344783 5.17106625 6.13819875 6.55078125 10.27734375 C6.63585204 13.00893935 6.6666969 15.71425818 6.6484375 18.4453125 C6.64702255 19.24012527 6.6456076 20.03493805 6.64414978 20.85383606 C6.63855503 23.390877 6.62600353 25.9278295 6.61328125 28.46484375 C6.60826557 30.1855456 6.60370278 31.90624883 6.59960938 33.62695312 C6.58858732 37.84378405 6.57132631 42.06054891 6.55078125 46.27734375 C3.25078125 46.27734375 -0.04921875 46.27734375 -3.44921875 46.27734375 C-3.94421875 43.80234375 -3.94421875 43.80234375 -4.44921875 41.27734375 C-5.15046875 41.89609375 -5.85171875 42.51484375 -6.57421875 43.15234375 C-11.77143575 46.99376501 -17.0471539 48.06986242 -23.44921875 47.27734375 C-28.63700485 45.63454482 -31.47478755 43.85339175 -34.44921875 39.27734375 C-36.18358066 34.07425803 -36.21903787 29.94528519 -33.94921875 25.02734375 C-27.81030665 18.27454045 -20.45375244 17.60681728 -11.7421875 16.671875 C-8.45030266 16.38944252 -8.45030266 16.38944252 -5.44921875 15.27734375 C-5.13023373 12.32673232 -5.00586065 10.83636049 -6.88671875 8.46484375 C-10.70224942 6.696671 -14.3166245 6.5421444 -18.44921875 7.27734375 C-19.06796875 7.93734375 -19.68671875 8.59734375 -20.32421875 9.27734375 C-23.09161813 11.88195493 -24.46632345 11.54634067 -28.19921875 11.52734375 C-29.95002634 11.46317803 -31.70060083 11.38587866 -33.44921875 11.27734375 C-32.68973299 6.51035868 -31.01036276 3.53004221 -27.44921875 0.27734375 C-19.71748144 -4.65780772 -7.88281194 -4.74319091 0 0 Z " fill="#060606" transform="translate(797.44921875,285.72265625)"/>
<path d="M0 0 C3.8845294 2.42783087 6.23944516 5.71052299 7.6875 10.0546875 C7.77268867 12.85895202 7.8033852 15.637651 7.78515625 18.44140625 C7.7837413 19.25841507 7.78232635 20.07542389 7.78086853 20.91719055 C7.77527294 23.52556018 7.76272129 26.13384384 7.75 28.7421875 C7.74498443 30.51106647 7.74042162 32.27994678 7.73632812 34.04882812 C7.72530496 38.38414769 7.70804338 42.71940302 7.6875 47.0546875 C4.3875 47.0546875 1.0875 47.0546875 -2.3125 47.0546875 C-2.8075 44.5796875 -2.8075 44.5796875 -3.3125 42.0546875 C-4.3953125 42.9828125 -4.3953125 42.9828125 -5.5 43.9296875 C-10.53333981 47.73265536 -15.01596211 48.83277678 -21.3125 48.0546875 C-25.96888982 46.50255756 -29.1476702 44.82813841 -32.3125 41.0546875 C-34.31440109 37.05088533 -33.94048549 32.39675859 -33.3125 28.0546875 C-31.23838332 23.99257664 -28.80208446 21.665033 -24.5859375 19.9375 C-20.26904894 18.77327946 -15.9612821 18.27074089 -11.52734375 17.75585938 C-7.80101853 17.34039399 -7.80101853 17.34039399 -4.3125 16.0546875 C-4.56811323 13.7115662 -4.90520772 11.37625347 -5.3125 9.0546875 C-8.76039854 7.33073823 -12.54210805 7.54535385 -16.3125 8.0546875 C-17.116875 8.7146875 -17.92125 9.3746875 -18.75 10.0546875 C-22.64522124 13.09486017 -26.54209168 12.38815294 -31.3125 12.0546875 C-31.04928471 8.28193504 -30.56026305 6.36803488 -28.1875 3.3671875 C-20.12245616 -3.11991298 -9.5767403 -4.18982388 0 0 Z " fill="#030303" transform="translate(1007.3125,284.9453125)"/>
<path d="M0 0 C6.15567345 3.50764699 8.96889873 8.37169553 10.875 15.0625 C11.5625 19 11.5625 19 11.5625 26 C0.0125 26 -11.5375 26 -23.4375 26 C-20.4527802 34.37933766 -20.4527802 34.37933766 -17.125 37.0625 C-12.53494758 38.66368108 -8.97170615 38.73375077 -4.5625 36.625 C-2.34085175 35.17239958 -2.34085175 35.17239958 -1.4375 33 C2.5225 33 6.4825 33 10.5625 33 C8.17010247 40.03646331 4.48567381 44.03841309 -2.1875 47.375 C-11.42940882 49.15229016 -18.53756338 48.33540496 -26.4375 43 C-31.94621121 37.7737868 -33.54273539 31.55458595 -33.89550781 24.18041992 C-34.04127285 16.82860763 -33.4978954 10.68991827 -28.4375 5 C-20.2157935 -2.51790283 -10.49383987 -4.69544186 0 0 Z " fill="#030303" transform="translate(1109.4375,285)"/>
<path d="M0 0 C4.91643692 5.16856189 5.13990836 8.82747376 5.09765625 15.7265625 C5.0962413 16.58937836 5.09482635 17.45219421 5.09336853 18.34115601 C5.08776188 21.1024723 5.07520827 23.86370812 5.0625 26.625 C5.05748586 28.4947905 5.0529228 30.36458226 5.04882812 32.234375 C5.03779029 36.82294777 5.0205212 41.41146023 5 46 C2.03 46 -0.94 46 -4 46 C-4.495 43.525 -4.495 43.525 -5 41 C-5.70125 41.61875 -6.4025 42.2375 -7.125 42.875 C-11.75617469 46.29804216 -16.12098703 47.47587559 -21.91015625 47.3203125 C-26.65428024 46.59317574 -30.67116257 44.41456887 -33.9375 40.9375 C-36.22443076 36.7672145 -36.6098787 32.65805906 -36 28 C-33.85066525 23.34310804 -31.19071351 20.89256526 -26.625 18.80859375 C-21.94815993 17.36795998 -17.14117269 16.91485003 -12.29296875 16.39453125 C-9.00108391 16.11209877 -9.00108391 16.11209877 -6 15 C-6.26656572 12.06556598 -6.26656572 12.06556598 -7 9 C-10.9842759 6.34381607 -14.30844176 6.25695394 -19 7 C-19.61875 7.66 -20.2375 8.32 -20.875 9 C-23.64239938 11.60461118 -25.0171047 11.26899692 -28.75 11.25 C-30.50080759 11.18583428 -32.25138208 11.10853491 -34 11 C-33.24097242 6.23589074 -31.56445776 3.24720236 -28 0 C-19.73519069 -5.16550582 -8.44331719 -4.45193088 0 0 Z " fill="#030303" transform="translate(540,286)"/>
<path d="M0 0 C3.63 0 7.26 0 11 0 C11.33 7.26 11.66 14.52 12 22 C14.97 19.525 14.97 19.525 18 17 C23.43617053 15.18794316 28.98215186 15.2900164 34.375 17.1875 C39.77548108 20.91640361 41.51951762 24.71015177 43 31 C43.15922382 33.74601164 43.23528395 36.38117747 43.1953125 39.12109375 C43.1924826 39.86585464 43.18965271 40.61061554 43.18673706 41.37794495 C43.17563917 43.73130101 43.1505551 46.08426109 43.125 48.4375 C43.11495672 50.04361425 43.10583324 51.64973454 43.09765625 53.25585938 C43.07573407 57.17072296 43.04127761 61.0852946 43 65 C39.37 65 35.74 65 32 65 C31.98541748 64.02651611 31.97083496 63.05303223 31.95581055 62.05004883 C31.89766704 58.42484524 31.82043623 54.8002524 31.73754883 51.17553711 C31.70437468 49.60923199 31.67631942 48.04280949 31.65356445 46.47631836 C31.61987884 44.21938237 31.56755951 41.96351474 31.51171875 39.70703125 C31.50532883 39.01100296 31.4989389 38.31497467 31.49235535 37.59785461 C31.36267317 33.27182732 30.71397686 30.41118195 28 27 C24.36217368 25.78739123 21.82264001 25.60455448 18 26 C15.36983839 28.1727422 13.52663106 29.94673788 12 33 C11.84391977 35.40560273 11.74195542 37.78702772 11.68359375 40.1953125 C11.66281265 40.90275604 11.64203156 41.61019958 11.62062073 42.33908081 C11.55518922 44.60095425 11.49627026 46.86294462 11.4375 49.125 C11.39430867 50.65756422 11.35069418 52.19011657 11.30664062 53.72265625 C11.19951445 57.48165073 11.0982291 61.24076292 11 65 C7.37 65 3.74 65 0 65 C0 43.55 0 22.1 0 0 Z " fill="#060606" transform="translate(603,267)"/>
<path d="M0 0 C19 0 19 0 27 5 C32.43963962 10.62096094 32.43364468 18.05147542 32.31640625 25.4453125 C31.75105736 31.79676294 30.04312613 36.90448602 25.5625 41.5 C16.39526613 46.86618568 12.81487565 45 0 45 C0 30.15 0 15.3 0 0 Z " fill="#FDFDFD" transform="translate(453,277)"/>
<path d="M0 0 C4.48703249 3.0981891 6.99410959 6.64860171 8.625 11.8125 C8.79057141 14.63629366 8.85853164 17.35578634 8.8203125 20.17578125 C8.8174826 20.96776413 8.81465271 21.75974701 8.81173706 22.57572937 C8.80058863 25.09230999 8.77549422 27.60852789 8.75 30.125 C8.73996329 31.83658338 8.73083864 33.54817237 8.72265625 35.25976562 C8.70066681 39.44414906 8.66617408 43.62826314 8.625 47.8125 C4.995 47.8125 1.365 47.8125 -2.375 47.8125 C-2.38958252 46.83901611 -2.40416504 45.86553223 -2.41918945 44.86254883 C-2.47733296 41.23734524 -2.55456377 37.6127524 -2.63745117 33.98803711 C-2.67062532 32.42173199 -2.69868058 30.85530949 -2.72143555 29.28881836 C-2.75512116 27.03188237 -2.80744049 24.77601474 -2.86328125 22.51953125 C-2.86967117 21.82350296 -2.8760611 21.12747467 -2.88264465 20.41035461 C-3.01266808 16.07294371 -3.72602356 13.27261129 -6.375 9.8125 C-9.92501512 8.03749244 -13.86062075 8.3918391 -17.625 9.4375 C-21.1682774 12.22150367 -22.2742156 15.99040431 -22.80737305 20.33935547 C-22.83355713 21.60666504 -22.85974121 22.87397461 -22.88671875 24.1796875 C-22.90466995 24.85927521 -22.92262115 25.53886292 -22.94111633 26.23904419 C-22.99486817 28.38846819 -23.02899936 30.53767477 -23.0625 32.6875 C-23.09570438 34.15367587 -23.1301969 35.61982317 -23.16601562 37.0859375 C-23.25057198 40.66124948 -23.31755006 44.23663792 -23.375 47.8125 C-26.675 47.8125 -29.975 47.8125 -33.375 47.8125 C-33.375 31.9725 -33.375 16.1325 -33.375 -0.1875 C-30.075 -0.1875 -26.775 -0.1875 -23.375 -0.1875 C-23.045 1.4625 -22.715 3.1125 -22.375 4.8125 C-21.446875 4.008125 -20.51875 3.20375 -19.5625 2.375 C-14.03296755 -2.41726145 -6.69237169 -2.35472337 0 0 Z " fill="#020202" transform="translate(1059.375,284.1875)"/>
<path d="M0 0 C4.22636249 3.20620603 5.70829468 6.09916334 6.5859375 11.203125 C4.81644655 11.31127725 3.04506263 11.38878583 1.2734375 11.453125 C-0.20576172 11.52273438 -0.20576172 11.52273438 -1.71484375 11.59375 C-4.4140625 11.203125 -4.4140625 11.203125 -5.921875 9.2109375 C-6.41429687 8.54835938 -6.90671875 7.88578125 -7.4140625 7.203125 C-10.08011702 6.64468722 -10.08011702 6.64468722 -12.9765625 6.828125 C-13.94722656 6.84101563 -14.91789063 6.85390625 -15.91796875 6.8671875 C-18.58443516 6.96918255 -18.58443516 6.96918255 -20.4140625 9.203125 C-20.09364853 11.80593068 -20.09364853 11.80593068 -19.4140625 14.203125 C-18.12313117 14.64279002 -16.83125414 15.07967799 -15.5390625 15.515625 C-14.72050781 15.79277344 -13.90195312 16.06992187 -13.05859375 16.35546875 C-11.31959617 16.9128727 -9.56618439 17.4274515 -7.80078125 17.89453125 C-2.13714899 19.39853071 1.41986653 21.03705403 5.5859375 25.203125 C7.44211957 28.91548914 7.03403731 33.15155588 6.5859375 37.203125 C4.3924994 41.67123966 2.09888613 44.11175856 -2.4140625 46.203125 C-10.62513675 48.18270487 -18.96117082 48.33097668 -26.5703125 44.40234375 C-30.5125557 41.83821522 -32.13404813 39.43985511 -33.1640625 34.890625 C-33.2465625 34.00375 -33.3290625 33.116875 -33.4140625 32.203125 C-29.7840625 32.203125 -26.1540625 32.203125 -22.4140625 32.203125 C-22.0840625 33.523125 -21.7540625 34.843125 -21.4140625 36.203125 C-18.32171722 37.10206258 -15.50608893 37.36661734 -12.2890625 37.390625 C-11.42023437 37.40480469 -10.55140625 37.41898437 -9.65625 37.43359375 C-7.21076524 37.42056105 -7.21076524 37.42056105 -5.4140625 35.203125 C-5.24718802 32.61958282 -5.24718802 32.61958282 -5.4140625 30.203125 C-9.74155086 28.13773283 -13.78354657 26.85088688 -18.4765625 25.828125 C-23.76336786 24.57598689 -26.6852698 23.13347406 -30.4140625 19.203125 C-32.40115536 15.22893927 -31.94506315 10.52437163 -31.4140625 6.203125 C-29.72079479 2.40656062 -26.90280263 0.50858758 -23.4140625 -1.671875 C-15.98253465 -4.38755367 -6.81309588 -4.08210808 0 0 Z " fill="#040404" transform="translate(587.4140625,285.796875)"/>
<path d="M0 0 C3.71194997 1.64975554 5.85325399 3.56520639 8 7 C10.00251433 13.00754298 9.9794752 19.7036305 7.3125 25.5 C5.38638313 28.78652109 3.65519054 30.6399291 0 32 C-4.22330997 32.53751218 -6.42749554 32.28625223 -10.25 30.375 C-14.30238222 26.87521535 -15.76131477 24.31318399 -16.31640625 18.93359375 C-16.66082943 9.16753009 -16.66082943 9.16753009 -14.25 5.375 C-13.5075 4.59125 -12.765 3.8075 -12 3 C-11.4225 2.38125 -10.845 1.7625 -10.25 1.125 C-6.87969757 -0.56015122 -3.64934342 -0.53795102 0 0 Z " fill="#FCFCFC" transform="translate(736,292)"/>
<path d="M0 0 C3.3 0 6.6 0 10 0 C10 21.45 10 42.9 10 65 C6.7 65 3.4 65 0 65 C0 43.55 0 22.1 0 0 Z " fill="#000000" transform="translate(1129,267)"/>
<path d="M0 0 C3.9037132 2.29491019 6.44786343 4.87172092 8.4375 8.9375 C9.87094356 16.74180383 8.74981547 22.8752768 4.375 29.4375 C0.75856249 31.8167352 -2.70618032 32.30563647 -7 32 C-10.62664867 30.32099599 -12.45475641 28.70881666 -14.875 25.5625 C-16.98875106 18.86895496 -17.29998438 11.79255904 -14.3125 5.375 C-9.86436225 0.80664231 -6.49003249 -1.00707401 0 0 Z " fill="#FAFAFA" transform="translate(683,292)"/>
<path d="M0 0 C3.52572637 2.22274054 5.48773668 4.14272923 7 8 C7.65260315 14.55993298 8.18379837 21.56106211 4 27 C0.82611558 29.74108199 -1.30885851 30.87433791 -5.4375 31.625 C-10.16276813 30.79600559 -12.89620164 28.6035625 -16 25 C-17.91485138 19.25544586 -18.21657213 11.63649277 -16.28125 5.8515625 C-12.24016383 -0.56855021 -6.94815791 -2.08163435 0 0 Z " fill="#FCFCFC" transform="translate(872,293)"/>
<path d="M0 0 C0 3.3 0 6.6 0 10 C-1.588125 10.2475 -3.17625 10.495 -4.8125 10.75 C-7.92901216 11.23569021 -9.51412941 11.51305209 -11.76171875 13.765625 C-14.16907135 18.10949153 -14.16037611 22.73176687 -14.31640625 27.61328125 C-14.35830078 28.86044922 -14.40019531 30.10761719 -14.44335938 31.39257812 C-14.48267578 32.68615234 -14.52199219 33.97972656 -14.5625 35.3125 C-14.60568359 36.62541016 -14.64886719 37.93832031 -14.69335938 39.29101562 C-14.79927227 42.52724288 -14.90134885 45.76354458 -15 49 C-18.3 49 -21.6 49 -25 49 C-25 33.16 -25 17.32 -25 1 C-21.7 1 -18.4 1 -15 1 C-14.67 2.32 -14.34 3.64 -14 5 C-13.21625 4.360625 -12.4325 3.72125 -11.625 3.0625 C-7.51092937 -0.16998406 -5.20565883 -0.09640109 0 0 Z " fill="#020202" transform="translate(839,283)"/>
<path d="M0 0 C0.56886257 14.20049517 0.56886257 14.20049517 -3 19 C-8.10954124 23.97144553 -13.49420576 25.28747931 -20.5 25.3125 C-25.36499487 25.22929028 -28.99718197 25.02915959 -33 22 C-34.78279682 19.64994965 -35.00113938 17.99234991 -35.4375 15.0625 C-34.83383497 10.83684477 -33.35528054 9.57000212 -30 7 C-25.1853825 5.37952728 -20.5390683 4.60909315 -15.5 4.0625 C-10.70590255 3.46917111 -4.38676006 0 0 0 Z " fill="#FBFDFB" transform="translate(712,191)"/>
<path d="M0 0 C5.34636401 2.48882463 8.67324204 6.28014618 11.25 11.5625 C12 14 12 14 12 18 C-0.87 18 -13.74 18 -27 18 C-25.86950147 10.08651026 -25.86950147 10.08651026 -22.75 6.75 C-22.16734375 6.10546875 -21.5846875 5.4609375 -20.984375 4.796875 C-14.5764195 -1.00560439 -8.34193133 -0.88222541 0 0 Z " fill="#FAFDFA" transform="translate(609,164)"/>
<path d="M0 0 C2.701875 -0.061875 5.40375 -0.12375 8.1875 -0.1875 C9.02949951 -0.21481201 9.87149902 -0.24212402 10.73901367 -0.27026367 C15.32319574 -0.32093869 18.29360873 0.00557089 22 3 C24.9744974 7.4617461 24.49796388 11.76754876 24 17 C22.80206143 19.93494951 21.98265298 21.29985975 19.4375 23.11328125 C15.73537141 24.46004918 12.15221414 24.20848167 8.25 24.125 C4.16625 24.063125 4.16625 24.063125 0 24 C0 16.08 0 8.16 0 0 Z " fill="#FBFBFB" transform="translate(934,277)"/>
<path d="M0 0 C2.81992717 1.82120296 4.50345478 3.00690956 6 6 C6.5364289 10.47610345 6.58328477 13.94560061 4.375 17.9375 C0.50878662 21.29500109 -2.47058383 22.08049559 -7.5625 21.8125 C-11.71936556 20.82996814 -14.70221027 19.73038631 -17.3125 16.25 C-18.61256399 11.99524512 -18.55961335 8.36794375 -16.875 4.25 C-12.18753562 -1.37495726 -6.71446824 -1.85482548 0 0 Z " fill="#29B42A" transform="translate(1147,118)"/>
<path d="M0 0 C7.26 0 14.52 0 22 0 C22 36.3 22 72.6 22 110 C14.74 110 7.48 110 0 110 C0 73.7 0 37.4 0 0 Z M2 2 C2 37.31 2 72.62 2 109 C8.27 109 14.54 109 21 109 C21 73.69 21 38.38 21 2 C14.73 2 8.46 2 2 2 Z " fill="#13AE15" transform="translate(752,120)"/>
<path d="M0 0 C7.26 0 14.52 0 22 0 C22 13.2 22 26.4 22 40 C21.67 40 21.34 40 21 40 C21 27.46 21 14.92 21 2 C14.73 2 8.46 2 2 2 C2 37.31 2 72.62 2 109 C8.27 109 14.54 109 21 109 C21 92.5 21 76 21 59 C21.33 59 21.66 59 22 59 C22 75.83 22 92.66 22 110 C14.74 110 7.48 110 0 110 C0 73.7 0 37.4 0 0 Z " fill="#19AE1A" transform="translate(851,120)"/>
<path d="M0 0 C7.26 0 14.52 0 22 0 C22 36.3 22 72.6 22 110 C15.4 110 8.8 110 2 110 C2.33 109.01 2.66 108.02 3 107 C3 107.66 3 108.32 3 109 C8.61 109 14.22 109 20 109 C20 73.69 20 38.38 20 2 C13.73 2 7.46 2 1 2 C1 14.21 1 26.42 1 39 C0.67 39 0.34 39 0 39 C0 26.13 0 13.26 0 0 Z " fill="#12AD14" transform="translate(1227,120)"/>
<path d="M0 0 C-0.25389158 5.82681177 -0.61116013 9.74415528 -5 14 C-8.70060504 15.85030252 -12.96036992 15.46185787 -17 15 C-19.6875 13.375 -19.6875 13.375 -21 11 C-21.0625 7.9375 -21.0625 7.9375 -20 5 C-16.25374517 2.19371457 -12.90584185 1.42529475 -8.3125 0.8125 C-7.17425781 0.65394531 -6.03601563 0.49539063 -4.86328125 0.33203125 C-2 0 -2 0 0 0 Z " fill="#F5F5F5" transform="translate(1005,309)"/>
<path d="M0 0 C0.66964286 7.76785714 0.66964286 7.76785714 -2.375 11.4375 C-5.78588774 14.76717613 -7.30054424 15.16829153 -11.9375 15.25 C-12.81277344 15.27578125 -13.68804688 15.3015625 -14.58984375 15.328125 C-17 15 -17 15 -18.79296875 13.671875 C-20.66250799 11.0823514 -20.38702178 9.09617422 -20 6 C-16.79911272 1.78064858 -12.97506693 1.62933269 -7.9375 0.9375 C-6.03291016 0.67259766 -6.03291016 0.67259766 -4.08984375 0.40234375 C-1 0 -1 0 0 0 Z " fill="#F9F9F9" transform="translate(535,309)"/>
<path d="M0 0 C0.29445076 5.00566288 0.11763863 7.99160747 -3 12 C-6.02966115 14.73263554 -7.99595101 15.41180135 -12.0625 15.375 C-12.91972656 15.38273437 -13.77695312 15.39046875 -14.66015625 15.3984375 C-17.45186693 14.92305438 -18.34475161 14.26731773 -20 12 C-20.6277666 6.9778672 -20.6277666 6.9778672 -18.984375 4.41796875 C-15.92989617 2.23533919 -12.50387042 1.89605298 -8.875 1.3125 C-8.13378906 1.18294922 -7.39257812 1.05339844 -6.62890625 0.91992188 C-1.30406746 0 -1.30406746 0 0 0 Z " fill="#F9F9F9" transform="translate(793,309)"/>
<path d="M0 0 C3.0625 1.5625 3.0625 1.5625 5 4 C5.33 6.31 5.66 8.62 6 11 C-1.26 11 -8.52 11 -16 11 C-15 5 -15 5 -13.0625 2.125 C-8.73153062 -0.88016243 -5.12022228 -0.89120454 0 0 Z " fill="#FBFBFB" transform="translate(1103,292)"/>
<path d="M0 0 C1.18613892 0.07069702 1.18613892 0.07069702 2.39624023 0.14282227 C3.67724609 0.21533203 3.67724609 0.21533203 4.98413086 0.28930664 C5.88196289 0.34538086 6.77979492 0.40145508 7.70483398 0.45922852 C8.6065332 0.51143555 9.50823242 0.56364258 10.43725586 0.61743164 C12.67259948 0.74753101 14.90754288 0.88250788 17.14233398 1.02172852 C17.14233398 1.35172852 17.14233398 1.68172852 17.14233398 2.02172852 C11.20233398 2.02172852 5.26233398 2.02172852 -0.85766602 2.02172852 C-0.85766602 14.89172852 -0.85766602 27.76172852 -0.85766602 41.02172852 C-1.18766602 41.02172852 -1.51766602 41.02172852 -1.85766602 41.02172852 C-2.02488198 35.34359015 -2.18548139 29.66531877 -2.33984375 23.98681641 C-2.39334382 22.05349643 -2.4486791 20.12022635 -2.50585938 18.18701172 C-2.58754776 15.41457892 -2.66271953 12.64203594 -2.73657227 9.86938477 C-2.76360733 8.99959488 -2.7906424 8.12980499 -2.8184967 7.23365784 C-2.87044765 5.16362536 -2.86955172 3.09237867 -2.85766602 1.02172852 C-1.85766602 0.02172852 -1.85766602 0.02172852 0 0 Z " fill="#44C046" transform="translate(820.857666015625,163.978271484375)"/>
<path d="M0 0 C1.19090644 4.76362576 0.41363766 6.51617984 -1.25 11.0625 C-1.68828125 12.29097656 -2.1265625 13.51945313 -2.578125 14.78515625 C-3.82023403 17.59355111 -4.64953868 19.11271782 -7 21 C-8.32 20.34 -9.64 19.68 -11 19 C-9.68 18.01 -8.36 17.02 -7 16 C-6.67 16.33 -6.34 16.66 -6 17 C-4.02 11.39 -2.04 5.78 0 0 Z " fill="#0CA90D" transform="translate(166,230)"/>
<path d="M0 0 C-0.66 0 -1.32 0 -2 0 C-2 0.66 -2 1.32 -2 2 C-3.093125 2.309375 -4.18625 2.61875 -5.3125 2.9375 C-7.55407994 3.58337897 -9.7869351 4.2623117 -12 5 C-11 2 -11 2 -7.6875 0.25 C-3.02436902 -1.33072237 -3.02436902 -1.33072237 0 0 Z " fill="#1BAF1B" transform="translate(893,150)"/>
<path d="M0 0 C1.98 0 3.96 0 6 0 C6.33 0.66 6.66 1.32 7 2 C4.69 2.33 2.38 2.66 0 3 C0 2.01 0 1.02 0 0 Z " fill="#32B533" transform="translate(1138,137)"/>
<path d="M0 0 C0.66 0.33 1.32 0.66 2 1 C0.68 2.65 -0.64 4.3 -2 6 C-3.32 5.34 -4.64 4.68 -6 4 C-4.68 3.01 -3.36 2.02 -2 1 C-1.67 1.33 -1.34 1.66 -1 2 C-0.67 1.34 -0.34 0.68 0 0 Z " fill="#1BAF1C" transform="translate(161,245)"/>
</svg>
