<svg version="1.1" xmlns="http://www.w3.org/2000/svg" width="1024px" height="1024px" transform="rotate(0) scale(1, 1)">
<path d="M0 0 C337.92 0 675.84 0 1024 0 C1024 337.92 1024 675.84 1024 1024 C686.08 1024 348.16 1024 0 1024 C0 686.08 0 348.16 0 0 Z " fill="#c3eca4" transform="translate(0,0)"/>
<path d="M0 0 C4.42127263 3.18331629 8.61844758 6.50789773 12.70532227 10.10449219 C34.60738589 29.33015142 71.78197379 59.20568874 102.828125 58.2421875 C106.42363522 57.84124931 108.91341268 56.87616092 112 55 C116.07111014 49.27761715 116.94960308 43.95062176 117.75 37.0625 C117.87503906 36.09248047 118.00007812 35.12246094 118.12890625 34.12304688 C118.43283638 31.75005397 118.72280938 29.37623894 119 27 C119.66 27 120.32 27 121 27 C122.46728516 28.49731445 122.46728516 28.49731445 124.1640625 30.55078125 C145.25535647 55.31699092 177.84479993 79.8985803 211.015625 84.41015625 C217.94978284 84.65476611 223.63297902 83.20563319 228.75 78.4375 C239.23557738 63.94066148 238.56927837 43.05514868 239 26 C243.43191398 29.24111827 247.66848741 32.49266694 251.625 36.3125 C275.58719072 58.13981044 305.21942413 62.07870302 336.39892578 61.17041016 C348.92178669 60.57780291 359.38451749 55.83610793 370.26269531 49.93310547 C372.81267806 48.56351103 375.40494866 47.28155612 378 46 C378.21503174 46.71615479 378.43006348 47.43230957 378.65161133 48.17016602 C389.38669266 83.75001707 401.48407676 119.16541576 417.9375 152.5625 C418.5552832 153.82719116 418.5552832 153.82719116 419.18554688 155.11743164 C423.42085346 163.42403714 428.87385769 172.79351757 438 176 C437.34 176.33 436.68 176.66 436 177 C436.02449219 178.18980469 436.04898438 179.37960937 436.07421875 180.60546875 C436.05322045 202.15392066 432.24164276 223.95562646 428 245 C427.78504883 246.09699219 427.57009766 247.19398438 427.34863281 248.32421875 C421.68202302 276.9537271 412.67693996 304.27635747 401 331 C400.65259766 331.8038916 400.30519531 332.6077832 399.94726562 333.43603516 C391.88840078 351.91993256 381.57623097 369.51107643 370 386 C369.50580566 386.70914551 369.01161133 387.41829102 368.50244141 388.14892578 C365.03432707 393.12286121 361.54687509 398.08187341 358 403 C357.46439453 403.75297363 356.92878906 404.50594727 356.37695312 405.28173828 C355.84521484 406.01505371 355.31347656 406.74836914 354.765625 407.50390625 C354.28383789 408.17365479 353.80205078 408.84340332 353.30566406 409.53344727 C352.87479492 410.01740967 352.44392578 410.50137207 352 411 C351.34 411 350.68 411 350 411 C349.61328125 412.09248047 349.61328125 412.09248047 349.21875 413.20703125 C345.13718257 422.56062328 335.61474135 432.32615689 327.15234375 437.86328125 C323.27133564 440.49390261 320.05663163 443.56795942 316.6875 446.8125 C309.54373247 453.584879 302.22142839 459.58588862 294 465 C293.34 465.66 292.68 466.32 292 467 C276.40809244 478.12755796 258.62047296 486.64127645 241 494 C240.04996094 494.40734375 239.09992188 494.8146875 238.12109375 495.234375 C220.14427672 502.73673845 200.57339699 506.47119599 181.28515625 508.60546875 C178.13996822 508.92968895 178.13996822 508.92968895 175.64672852 509.51635742 C172.83119547 510.03084603 170.22806727 510.12945184 167.3671875 510.1328125 C166.31402344 510.13410156 165.26085937 510.13539063 164.17578125 510.13671875 C163.08652344 510.13285156 161.99726563 510.12898438 160.875 510.125 C159.77800781 510.12886719 158.68101562 510.13273437 157.55078125 510.13671875 C156.50019531 510.13542969 155.44960938 510.13414062 154.3671875 510.1328125 C153.40925293 510.13168457 152.45131836 510.13055664 151.46435547 510.12939453 C149 510 149 510 146 509 C144.62566569 508.95721917 143.24940127 508.95942727 141.875 509 C140.59625 509 139.3175 509 138 509 C137.67 508.67 137.34 508.34 137 508 C134.06169032 507.71210963 131.12295773 507.55140599 128.17578125 507.37890625 C124.86436349 506.98381705 122.15167474 506.07474446 119 505 C117.0910969 504.44616314 115.17816392 503.90605349 113.26171875 503.37890625 C111.65973633 502.93514648 111.65973633 502.93514648 110.02539062 502.48242188 C107.81202217 501.87241805 105.59848219 501.2630362 103.38476562 500.65429688 C92.83556997 497.72995581 83.06722711 494.29410712 73.125 489.6875 C72.11308594 489.22666016 71.10117187 488.76582031 70.05859375 488.29101562 C60.57122469 483.9239104 51.43973097 479.19767923 42.875 473.19921875 C40.90791445 471.83332982 40.90791445 471.83332982 38 471 C38 470.34 38 469.68 38 469 C37.46375 468.731875 36.9275 468.46375 36.375 468.1875 C33.58333333 466.79166667 30.79166667 465.39583333 28 464 C28 463.34 28 462.68 28 462 C27.46117187 461.75894531 26.92234375 461.51789063 26.3671875 461.26953125 C17.11352275 456.30675725 9.13414842 448.48852649 1.58251953 441.29174805 C-0.86379332 438.96140277 -3.18085044 436.87943304 -6 435 C-6 434.34 -6 433.68 -6 433 C-6.89332031 432.60941406 -6.89332031 432.60941406 -7.8046875 432.2109375 C-10.15893043 430.91233375 -11.40351697 429.67520844 -13.125 427.625 C-13.71667969 426.92375 -14.30835938 426.2225 -14.91796875 425.5 C-15.60503906 424.675 -16.29210937 423.85 -17 423 C-17.8909966 421.95753733 -18.78297984 420.91591739 -19.67578125 419.875 C-20.59687312 418.79210787 -21.51744824 417.70877597 -22.4375 416.625 C-22.88689941 416.10115723 -23.33629883 415.57731445 -23.79931641 415.03759766 C-27 411.22879659 -27 411.22879659 -27 409 C-27.66 409 -28.32 409 -29 409 C-30.21875 407.5390625 -30.21875 407.5390625 -31.5 405.625 C-32.92246226 403.51732726 -34.19154973 401.80845027 -36 400 C-37.04566779 398.53828402 -38.0638783 397.05675213 -39.0625 395.5625 C-39.58972656 394.78003906 -40.11695313 393.99757813 -40.66015625 393.19140625 C-42 391 -42 391 -43 388 C-43.66 388 -44.32 388 -45 388 C-47.18929886 385.14211287 -48.96482918 381.99862551 -50.82958984 378.92138672 C-52.10684324 376.82460235 -53.40697658 374.74287375 -54.70703125 372.66015625 C-65.01978977 355.97926935 -74.40784875 338.55121338 -81.20898438 320.12109375 C-82.15210462 317.59213428 -83.13109929 315.0780661 -84.109375 312.5625 C-92.13107426 291.78063113 -98.54572091 270.83185426 -103 249 C-103.18159668 248.11521973 -103.36319336 247.23043945 -103.55029297 246.31884766 C-108.0029036 224.24921108 -111.33174716 201.24212738 -111.0625 178.6875 C-111.05798828 177.93533203 -111.05347656 177.18316406 -111.04882812 176.40820312 C-111.03734551 174.60543185 -111.01943033 172.80270314 -111 171 C-110.40832031 170.97164062 -109.81664062 170.94328125 -109.20703125 170.9140625 C-105.63794293 170.48321008 -102.9265221 170.06646554 -100.5 167.2734375 C-99.08894867 164.57201686 -98.02844703 161.87064844 -97 159 C-96.34837891 157.19595703 -96.34837891 157.19595703 -95.68359375 155.35546875 C-93.25397478 148.38538863 -91.09351051 141.33362497 -88.96875 134.265625 C-79.69984846 103.54020246 -68.40445394 73.86794184 -49 48 C-48.55301758 47.39897461 -48.10603516 46.79794922 -47.64550781 46.17871094 C-38.88472306 34.47874282 -29.32651675 23.2935522 -18 14 C-16.54207031 12.7625 -16.54207031 12.7625 -15.0546875 11.5 C-10.18814364 7.38301748 -5.35790294 3.45799374 0 0 Z " fill="#fee4cf" transform="translate(350,396)"/>
<path d="M0 0 C0.86432648 -0.00108765 1.72865295 -0.00217529 2.61917114 -0.0032959 C77.6713572 0.00741271 156.48079146 22.3043615 212.5859375 74.0234375 C214.15469481 75.46711117 215.74356886 76.88922337 217.3515625 78.2890625 C264.03713633 119.04630949 292.52400153 179.91181946 297.7434082 241.2890625 C300.42730044 281.36851984 301.7984566 350.19248641 275.9375 383.1875 C272.93777454 384.68736273 271.28235121 384.6923832 267.9375 384.1875 C260.62551145 379.49549798 256.79903442 370.66734882 252.9375 363.1875 C252.34243652 362.0442627 252.34243652 362.0442627 251.73535156 360.87792969 C239.21061406 336.51833548 229.88480014 310.57461409 221.25 284.625 C220.99960968 283.87264069 220.74921936 283.12028137 220.49124146 282.34512329 C217.73383947 274.02232279 215.11904358 265.68338138 212.9375 257.1875 C209.01709702 257.1875 206.67960529 258.96105269 203.4375 260.9375 C189.3889955 269.21180024 176.08331684 271.5889255 159.875 271.5 C158.84511963 271.49726578 158.84511963 271.49726578 157.79443359 271.49447632 C124.05853636 271.34362395 99.26177892 258.88642388 74.9375 236.1875 C74.90011719 237.50621094 74.86273437 238.82492187 74.82421875 240.18359375 C73.52438029 278.2279069 73.52438029 278.2279069 62.625 289.78125 C57.82911119 293.77782401 52.06223778 294.82325601 45.9375 294.58984375 C17.17783906 290.73275381 -7.34007647 272.203371 -28.0625 253.1875 C-29.11432079 252.22887852 -30.16641552 251.27055754 -31.21875 250.3125 C-32.2918783 249.33356528 -33.36479817 248.35440202 -34.4375 247.375 C-35.18749268 246.69087036 -35.18749268 246.69087036 -35.95263672 245.99291992 C-41.94076746 240.50531682 -41.94076746 240.50531682 -44.0625 238.1875 C-44.0625 237.5275 -44.0625 236.8675 -44.0625 236.1875 C-44.7225 236.1875 -45.3825 236.1875 -46.0625 236.1875 C-46.09988281 237.23808594 -46.13726562 238.28867187 -46.17578125 239.37109375 C-46.95507568 257.34410676 -46.95507568 257.34410676 -52.4375 264.125 C-56.8697643 267.60749338 -60.51941481 268.71944528 -66.234375 268.55859375 C-78.74725281 266.91671061 -90.10306415 261.11028187 -101.0625 255.1875 C-101.70654785 254.84734863 -102.3505957 254.50719727 -103.01416016 254.15673828 C-122.84619691 243.66504757 -141.5466551 230.46067093 -157.87890625 215.0625 C-160.14378512 213.1177024 -162.46460919 211.64852822 -165.0625 210.1875 C-172.58429999 215.58879255 -179.53559823 221.26132809 -186.2734375 227.609375 C-188.22583454 229.41411176 -190.16753571 231.1233124 -192.21875 232.8046875 C-195.97167511 235.94930881 -198.94410077 239.42571357 -202.0625 243.1875 C-202.49336914 243.70070801 -202.92423828 244.21391602 -203.36816406 244.74267578 C-227.81331078 273.96764672 -242.12496586 307.45674454 -253.11755371 343.60562134 C-254.91673929 349.52217391 -256.75770524 355.42030723 -258.6953125 361.29296875 C-259.08605957 362.47785889 -259.47680664 363.66274902 -259.87939453 364.88354492 C-264.19835919 376.94473946 -264.19835919 376.94473946 -269.0625 380.1875 C-272.3125 380.4375 -272.3125 380.4375 -276.0625 379.1875 C-300.0832516 357.49833377 -302.24497244 302.14040075 -303.91748047 272.19726562 C-305.34965992 242.47351438 -301.957415 212.34150422 -292.0625 184.1875 C-291.80017578 183.42453613 -291.53785156 182.66157227 -291.26757812 181.87548828 C-281.54734072 153.89893894 -267.33980441 128.40461642 -249.0625 105.1875 C-248.64484375 104.65125 -248.2271875 104.115 -247.796875 103.5625 C-241.59505638 95.6692763 -234.62819312 88.55533387 -227.5625 81.4375 C-226.69633057 80.56198486 -225.83016113 79.68646973 -224.93774414 78.78442383 C-208.81893568 62.74450271 -190.29025446 49.51049119 -170.0625 39.1875 C-169.1952832 38.74164551 -168.32806641 38.29579102 -167.43457031 37.83642578 C-152.73318744 30.34946484 -137.71864638 24.3645524 -122.0625 19.1875 C-120.61641357 18.70821045 -120.61641357 18.70821045 -119.14111328 18.21923828 C-80.28677669 5.51136584 -40.77209117 0.02752608 0 0 Z " fill="#4fbc2e" transform="translate(515.0625,186.8125)"/>
<path d="M0 0 C157.41 0 314.82 0 477 0 C477 157.41 477 314.82 477 477 C476.67 477 476.34 477 476 477 C475.88108398 475.46690186 475.88108398 475.46690186 475.75976562 473.90283203 C471.04611657 414.60448356 457.85285044 356.24729445 433 302 C432.2889209 300.44563232 432.2889209 300.44563232 431.56347656 298.85986328 C418.58201297 270.72468717 403.59411684 243.52171778 386 218 C385.31236572 216.99356445 385.31236572 216.99356445 384.61083984 215.96679688 C377.2433242 205.20598553 369.36492568 195.00114191 361 185 C360.51644043 184.41734375 360.03288086 183.8346875 359.53466797 183.234375 C353.3573041 175.7916651 346.96528597 168.58375675 340.38378906 161.49707031 C338.97389881 159.97176208 337.57530982 158.43680488 336.1796875 156.8984375 C328.8161259 148.78740348 321.34282245 140.8795666 313.01953125 133.73828125 C310.88058965 131.89721933 308.78460963 130.01351613 306.6875 128.125 C298.36869144 120.73208623 289.65811046 113.90263054 280.71875 107.28027344 C278.80535641 105.85501264 276.90217721 104.41675655 275 102.9765625 C274.30608154 102.45231689 273.61216309 101.92807129 272.8972168 101.38793945 C271.55362568 100.37257542 270.21124502 99.35560668 268.87036133 98.33666992 C264.03707472 94.69366572 259.05514499 91.32596659 254 88 C252.54134446 87.02131338 251.08301205 86.04214501 249.625 85.0625 C237.36973863 76.9108883 224.74735046 69.58582987 211.82666016 62.54248047 C209.38146609 61.20816227 206.94539466 59.859053 204.51171875 58.50390625 C192.39233529 51.83373946 179.72323276 46.40318865 167 41 C166.17757812 40.64583008 165.35515625 40.29166016 164.5078125 39.92675781 C112.34596938 17.56214504 56.32914894 5.94115342 0 1 C0 0.67 0 0.34 0 0 Z " fill="#c3eca4" transform="translate(547,0)"/>
<path d="M0 0 C157.41 0 314.82 0 477 0 C477 0.33 477 0.66 477 1 C476.20231201 1.06993164 475.40462402 1.13986328 474.58276367 1.21191406 C435.96256964 4.64678368 398.11886178 10.45851739 361 22 C359.96149902 22.32226562 358.92299805 22.64453125 357.85302734 22.9765625 C329.64209872 31.83552333 302.21315422 43.31915876 276 57 C275.03787598 57.50160645 274.07575195 58.00321289 273.08447266 58.52001953 C252.45867077 69.32701783 233.08736916 81.35688308 213.97509766 94.62988281 C212.33538928 95.76734182 210.68990625 96.89647102 209.04296875 98.0234375 C202.16472402 102.75709219 195.57324493 107.85617834 189 113 C187.73349609 113.98806641 187.73349609 113.98806641 186.44140625 114.99609375 C166.64951571 130.62811239 147.37900738 147.78368426 131 167 C130.04812171 168.08963202 129.09486616 169.17806166 128.140625 170.265625 C116.13521105 183.97090434 104.74921727 197.91944243 94.42333984 212.94140625 C93.07608905 214.88995148 91.70830753 216.82188839 90.33203125 218.75 C71.52553012 245.27475604 56.41439495 274.43436515 43 304 C42.47212891 305.13937012 42.47212891 305.13937012 41.93359375 306.30175781 C30.79321691 330.44922338 22.9402538 356.36576087 16 382 C15.66476318 383.22396484 15.66476318 383.22396484 15.32275391 384.47265625 C7.0149738 415.32116804 3.78329864 447.26939609 1 479 C0.67 479 0.34 479 0 479 C0 320.93 0 162.86 0 0 Z " fill="#c3eca4" transform="translate(0,0)"/>
<path d="M0 0 C0.33 0 0.66 0 1 0 C1.06993164 0.8029248 1.13986328 1.60584961 1.21191406 2.43310547 C8.56334589 85.55628878 31.81385645 168.12363616 77 239 C77.47373047 239.74491699 77.94746094 240.48983398 78.43554688 241.25732422 C82.23463844 247.20867542 86.10353577 253.11205953 90 259 C90.54736816 259.83176758 91.09473633 260.66353516 91.65869141 261.52050781 C98.79674915 272.3326595 106.33371694 282.3707966 115 292 C116.18979538 293.35215035 117.37767015 294.70599647 118.5625 296.0625 C119.10003906 296.67222656 119.63757813 297.28195312 120.19140625 297.91015625 C122.03522167 300.04069891 123.8368235 302.20404301 125.63891602 304.36987305 C137.04738503 318.03343316 149.2587336 331.48479366 162.79296875 343.0703125 C164.94604651 344.9528265 167.03646431 346.89329954 169.12353516 348.84838867 C175.5583934 354.85530268 182.30593989 360.3342468 189.29150391 365.68554688 C190.89491807 366.91915389 192.4850719 368.16994228 194.07421875 369.421875 C211.83506969 383.33946882 230.69639422 395.3676973 250 407 C250.90935303 407.55365234 251.81870605 408.10730469 252.75561523 408.67773438 C259.43929795 412.73188495 266.30396183 416.26919528 273.32714844 419.69238281 C276.42448739 421.20766847 279.51239909 422.74155579 282.6015625 424.2734375 C309.01077095 437.31488243 336.07945277 447.42279141 364.10406494 456.39129639 C365.75782148 456.92224684 367.40915743 457.460725 369.06005859 458.00048828 C403.482106 469.18233667 441.09004845 473.31909988 477 476 C477 476.33 477 476.66 477 477 C319.59 477 162.18 477 0 477 C0 319.59 0 162.18 0 0 Z " fill="#c3eca4" transform="translate(0,547)"/>
<path d="M0 0 C0.33 0 0.66 0 1 0 C1 157.41 1 314.82 1 477 C-156.41 477 -313.82 477 -476 477 C-476 476.67 -476 476.34 -476 476 C-474.86630981 475.90295776 -474.86630981 475.90295776 -473.7097168 475.80395508 C-427.64601561 471.7856689 -382.92140341 464.15736597 -339.12304688 448.74609375 C-337.72019931 448.25309672 -336.31526266 447.76600012 -334.90820312 447.28515625 C-275.99255226 427.11976234 -219.47731794 394.29963507 -173 353 C-171.75669922 351.90558594 -171.75669922 351.90558594 -170.48828125 350.7890625 C-157.84213635 339.54339976 -145.01259893 328.10450012 -133.97265625 315.25390625 C-132.03544787 313.04050183 -130.04928923 310.87817587 -128.04833984 308.72241211 C-122.44128448 302.67583285 -117.15401501 296.440389 -112 290 C-111.07759625 288.86916043 -110.15437804 287.73898485 -109.23046875 286.609375 C-97.42447207 272.10995781 -86.6016418 257.04625003 -77 241 C-76.4942041 240.16355957 -75.9884082 239.32711914 -75.46728516 238.46533203 C-60.68082709 213.94780391 -47.32125459 188.73218502 -37 162 C-36.6179541 161.02015137 -36.2359082 160.04030273 -35.84228516 159.03076172 C-33.13269668 152.05433699 -30.528678 145.04392622 -28 138 C-27.65727051 137.04722168 -27.31454102 136.09444336 -26.96142578 135.11279297 C-11.43884634 91.48758287 -3.61752414 46.03413126 0 0 Z " fill="#c3eca4" transform="translate(1023,547)"/>
<path d="M0 0 C3.53521336 1.83511465 6.66644094 4.21354712 9.85986328 6.57910156 C30.37322262 21.75363405 55.90772847 25.77913513 80.91113281 22.63378906 C95.54414351 19.98674952 108.6108894 13.50469856 120.3125 4.5 C125.35095363 0.65854275 129.21705528 -1.21187246 135.6640625 -0.53125 C142.15511359 0.94497566 146.44797641 4.27587437 150.19921875 9.75 C153.24817286 15.05624997 153.84249372 19.9604366 153 26 C151.75 29.3125 151.75 29.3125 150 32 C149.484375 32.804375 148.96875 33.60875 148.4375 34.4375 C144.74187828 38.32264078 140.48808352 41.09321016 136 44 C135.45408203 44.35642578 134.90816406 44.71285156 134.34570312 45.08007812 C105.60497347 63.66941395 69.7843102 70.34634175 36.0625 63.4375 C17.49175825 59.2044919 0.26533024 51.44714481 -15.1875 40.375 C-15.81172852 39.93188477 -16.43595703 39.48876953 -17.07910156 39.03222656 C-21.50101985 35.74313616 -24.88010047 32.23393446 -26.73046875 26.890625 C-27.75035928 19.73661029 -27.32742969 13.99279621 -23 8 C-16.39452477 1.0880062 -9.6570416 -2.11281131 0 0 Z " fill="#cd6a3b" transform="translate(449,754)"/>
<path d="M0 0 C1.61570641 -0.00430527 1.61570641 -0.00430527 3.26405334 -0.00869751 C5.53240487 -0.01073068 7.80077423 -0.00525336 10.0690918 0.00732422 C13.52107387 0.02337203 16.97188238 0.00745736 20.42382812 -0.01171875 C22.63672131 -0.00973588 24.84961377 -0.0058913 27.0625 0 C28.08464096 -0.00607269 29.10678192 -0.01214539 30.15989685 -0.0184021 C40.03832913 0.07745397 48.43198622 2.3136441 55.59765625 9.3984375 C59.93850821 14.75419288 60.217053 20.56688302 59.9765625 27.27734375 C59.10845727 34.42802495 55.92091992 38.64964772 50.4765625 43.171875 C46.32331476 45.88314276 42.66122353 46.65193236 37.7409668 46.68896484 C36.00842903 46.7081044 36.00842903 46.7081044 34.2408905 46.72763062 C33.00124039 46.72985626 31.76159027 46.73208191 30.484375 46.734375 C28.55909721 46.7443602 28.55909721 46.7443602 26.59492493 46.75454712 C23.88071327 46.76649853 21.16662867 46.77023026 18.45239258 46.76904297 C14.99244887 46.7688401 11.53332949 46.79611706 8.07358074 46.83058739 C4.752168 46.85831971 1.4309018 46.85700869 -1.890625 46.859375 C-3.12420242 46.87374603 -4.35777985 46.88811707 -5.6287384 46.90292358 C-13.54895687 46.86107221 -19.50671624 46.18125726 -25.42578125 40.43359375 C-25.87179687 39.78261719 -26.3178125 39.13164063 -26.77734375 38.4609375 C-27.23882812 37.81253906 -27.7003125 37.16414062 -28.17578125 36.49609375 C-31.66846516 30.52293687 -32.14945185 25.20861519 -31.40234375 18.3984375 C-29.59981202 11.83859101 -25.03751934 7.03551978 -19.40234375 3.3984375 C-12.79592862 0.37751726 -7.21204163 -0.04276313 0 0 Z " fill="#cd6a3b" transform="translate(498.40234375,661.6015625)"/>
<path d="M0 0 C6.07266627 3.51115066 10.49268074 8.8998879 12.75 15.5 C13.02415466 18.15995789 13.02415466 18.15995789 13.05639648 21.04956055 C13.07238388 22.13806808 13.08837128 23.22657562 13.10484314 24.34806824 C13.11020584 25.51582291 13.11556854 26.68357758 13.12109375 27.88671875 C13.13463646 29.70499931 13.13463646 29.70499931 13.14845276 31.56001282 C13.16295161 34.12453749 13.17184108 36.68909912 13.17553711 39.25366211 C13.18740445 43.15607989 13.23657384 47.05690148 13.28710938 50.95898438 C13.29657745 53.45572149 13.30381064 55.95246827 13.30859375 58.44921875 C13.32812607 59.60685226 13.34765839 60.76448578 13.36778259 61.9571991 C13.3201469 70.61217476 11.50799574 77.53886936 5.4375 83.9375 C-1.26534467 87.83450272 -7.44608005 89.59354292 -15.25 88.5 C-21.41883504 86.66247467 -25.75896643 82.84772977 -29.25 77.5 C-30.9942466 73.78060847 -31.50915014 70.83086853 -31.54052734 66.73510742 C-31.55328705 65.600103 -31.56604675 64.46509857 -31.57919312 63.29570007 C-31.58141876 62.07792374 -31.58364441 60.8601474 -31.5859375 59.60546875 C-31.5925943 58.34414627 -31.5992511 57.08282379 -31.60610962 55.78327942 C-31.61622948 53.11603674 -31.62179288 50.44920175 -31.62060547 47.78198242 C-31.62040261 44.38256678 -31.64767879 40.98399026 -31.68214989 37.58477306 C-31.70988616 34.32087072 -31.70857135 31.05697284 -31.7109375 27.79296875 C-31.72530853 26.58126511 -31.73967957 25.36956146 -31.75448608 24.12113953 C-31.71187893 16.19652263 -30.8315241 10.65040153 -25.50390625 4.4765625 C-24.94574219 4.03054688 -24.38757813 3.58453125 -23.8125 3.125 C-23.25691406 2.66351562 -22.70132812 2.20203125 -22.12890625 1.7265625 C-15.56697673 -2.55710874 -7.19771859 -3.17092476 0 0 Z " fill="#671c0c" transform="translate(409.25,528.5)"/>
<path d="M0 0 C4.59416255 3.99739504 7.66722938 8.57885756 8.26742554 14.74934387 C8.27504913 15.74447495 8.28267273 16.73960602 8.29052734 17.76489258 C8.30328705 18.899897 8.31604675 20.03490143 8.32919312 21.20429993 C8.33141876 22.42207626 8.33364441 23.6398526 8.3359375 24.89453125 C8.3425943 26.15585373 8.3492511 27.41717621 8.35610962 28.71672058 C8.36622948 31.38396326 8.37179288 34.05079825 8.37060547 36.71801758 C8.37040261 40.11743322 8.39767879 43.51600974 8.43214989 46.91522694 C8.45988616 50.17912928 8.45857135 53.44302716 8.4609375 56.70703125 C8.47530853 57.91873489 8.48967957 59.13043854 8.50448608 60.37886047 C8.45853652 68.92514049 7.41502277 74.50736308 1.25 80.8125 C-5.04649689 85.05052675 -11.35889775 87.30088187 -19 86 C-26.09253155 83.77888952 -30.12975866 80.41348845 -33.94140625 74.0859375 C-35.78509405 70.45298811 -36.14023445 67.57241456 -36.19287109 63.55395508 C-36.20893402 62.43882034 -36.22499695 61.32368561 -36.24154663 60.17475891 C-36.28608519 55.06989452 -36.32750621 49.96511809 -36.35009766 44.86010742 C-36.36340788 42.1703061 -36.39120747 39.4812687 -36.43212891 36.79174805 C-36.48699874 32.90911088 -36.5087898 29.02750437 -36.5234375 25.14453125 C-36.54610687 23.94842728 -36.56877625 22.7523233 -36.59213257 21.51997375 C-36.57074886 13.034911 -34.82830073 8.20139784 -29.15625 1.9765625 C-19.91890055 -5.56146323 -10.46761792 -6.07797169 0 0 Z " fill="#661b0c" transform="translate(638,531)"/>
<path d="M0 0 C0.66 0.33 1.32 0.66 2 1 C-11.7342742 25.33085851 -26.8692643 48.68075561 -45 70 C-45.45052734 70.53399414 -45.90105469 71.06798828 -46.36523438 71.61816406 C-52.94838556 79.41862691 -59.69475837 87.04132458 -66.63671875 94.5234375 C-68.02671345 96.02893319 -69.40540916 97.54406501 -70.78125 99.0625 C-78.41205866 107.47564708 -86.17448213 115.70768089 -94.81640625 123.09765625 C-97.00764234 125.006658 -99.14285901 126.96948855 -101.27246094 128.94677734 C-107.32083131 134.55599844 -113.53717966 139.86847224 -120 145 C-120.6098877 145.49306641 -121.21977539 145.98613281 -121.84814453 146.49414062 C-134.67329847 156.85448476 -148.15280018 166.06278427 -162 175 C-162.65838867 175.42506836 -163.31677734 175.85013672 -163.99511719 176.28808594 C-167.61654987 178.60790224 -171.29147309 180.8225959 -175 183 C-176.05743408 183.62406738 -176.05743408 183.62406738 -177.13623047 184.26074219 C-249.2578118 226.67115687 -327.5395599 250.48825013 -411 256 C-410.34 255.01 -409.68 254.02 -409 253 C-401.88896131 251.62366993 -395.16266374 252.21222818 -388 253 C-387.67 252.34 -387.34 251.68 -387 251 C-386.05125 251.020625 -385.1025 251.04125 -384.125 251.0625 C-381.09333717 251.22551826 -381.09333717 251.22551826 -379 250 C-376.39207808 249.7915978 -373.79945562 249.62559715 -371.1875 249.5 C-366.71034542 249.28120693 -362.38678724 248.96925741 -358 248 C-355.87610568 247.68007162 -353.75101477 247.36801994 -351.625 247.0625 C-346.92036602 246.35015994 -342.52631457 245.44456848 -338 244 C-335.94004877 243.47029826 -333.89827367 242.97965473 -331.8125 242.5625 C-331.214375 242.376875 -330.61625 242.19125 -330 242 C-329.67 241.34 -329.34 240.68 -329 240 C-328.67 240.99 -328.34 241.98 -328 243 C-326.989375 242.525625 -325.97875 242.05125 -324.9375 241.5625 C-321.32345129 240.00321286 -317.90903184 239.49751314 -314 239 C-312.948125 238.649375 -311.89625 238.29875 -310.8125 237.9375 C-308 237 -308 237 -304 237 C-303.67 236.34 -303.34 235.68 -303 235 C-302.01 235.33 -301.02 235.66 -300 236 C-299.67 235.34 -299.34 234.68 -299 234 C-296.31101174 233.29284066 -293.65735648 232.68403424 -290.9375 232.125 C-285.51388613 230.93994764 -280.74872103 229.72956671 -275.90234375 226.94921875 C-271.10072044 224.55333689 -265.36160948 223 -260 223 C-259.67 222.01 -259.34 221.02 -259 220 C-259 220.66 -259 221.32 -259 222 C-258.34 222 -257.68 222 -257 222 C-257 221.34 -257 220.68 -257 220 C-256.030625 219.87625 -255.06125 219.7525 -254.0625 219.625 C-253.051875 219.41875 -252.04125 219.2125 -251 219 C-250.67 218.34 -250.34 217.68 -250 217 C-248.14453125 216.25390625 -248.14453125 216.25390625 -245.8125 215.5625 C-241.9811953 214.3599296 -238.58135332 212.82877616 -235 211 C-233.67237227 210.48504137 -232.33856169 209.98582957 -231 209.5 C-227.52436375 208.22954963 -224.28625037 206.71158873 -221 205 C-218.94500177 203.98625326 -216.888808 202.97497671 -214.83203125 201.96484375 C-212.75544058 200.91140537 -212.75544058 200.91140537 -210 199 C-208.68 199 -207.36 199 -206 199 C-205.67 198.34 -205.34 197.68 -205 197 C-200.37869575 192.37869575 -197.50666545 191.33655166 -191 191 C-190.67 190.01 -190.34 189.02 -190 188 C-187.25 186.9375 -187.25 186.9375 -184 186 C-181.24743756 185.15020525 -181.24743756 185.15020525 -179 184 C-178.67 183.01 -178.34 182.02 -178 181 C-176.33972112 180.25329166 -174.67356938 179.51653611 -172.97851562 178.85253906 C-169.65667357 177.4211629 -166.7452663 175.38481072 -163.75 173.375 C-157.375 169.125 -157.375 169.125 -154 168 C-153.67 167.34 -153.34 166.68 -153 166 C-152.34 165.34 -151.68 164.68 -151 164 C-150.01 164 -149.02 164 -148 164 C-147.67 163.01 -147.34 162.02 -147 161 C-145.3364521 160.32558869 -143.66933058 159.6599679 -142 159 C-141.29875 158.29875 -140.5975 157.5975 -139.875 156.875 C-139.25625 156.25625 -138.6375 155.6375 -138 155 C-137.01 155 -136.02 155 -135 155 C-134.67 154.01 -134.34 153.02 -134 152 C-132.29758759 150.98510029 -130.58997041 149.97658248 -128.84375 149.0390625 C-125.74151737 147.29077038 -123.07595385 145.08183338 -120.5703125 142.5625 C-118.97997563 140.98007525 -117.33167542 139.51819374 -115.625 138.0625 C-115.01527344 137.54171875 -114.40554688 137.0209375 -113.77734375 136.484375 C-112.27353142 135.22844383 -110.73406937 134.01538729 -109.1875 132.8125 C-106.79990941 131.01055116 -106.79990941 131.01055116 -105 128 C-104.401875 127.71125 -103.80375 127.4225 -103.1875 127.125 C-99.30209926 125.12679391 -96.66852393 121.88417681 -94.0625 118.4375 C-92 116 -92 116 -89.1875 114.1875 C-85.68199303 111.78175992 -83.38171103 109.13054092 -80.67578125 105.890625 C-79 104 -79 104 -76.125 101.75 C-73.70443318 99.75659203 -73.68097711 98.91847332 -73 96 C-71.66782709 95.33101752 -70.33427829 94.6647734 -69 94 C-67.08183157 92.39551051 -67.08183157 92.39551051 -65.3125 90.5625 C-64.71050781 89.96566406 -64.10851562 89.36882812 -63.48828125 88.75390625 C-61.7802312 86.96183786 -61.7802312 86.96183786 -61 84 C-59.6318582 82.90548656 -58.26298124 81.81188074 -56.890625 80.72265625 C-51.71731142 76.00895524 -47.07030272 70.28873408 -44 64 C-42.37446717 62.29319053 -40.70884005 60.62339805 -39 59 C-36.69481185 57.05272884 -36.69481185 57.05272884 -36.25 53.625 C-34.70438703 49.14272238 -32.9916567 48.36240907 -29 46 C-27.35605149 44.1212017 -26.20654245 42.42783793 -25.125 40.1875 C-24.06218286 38.12091112 -22.87950008 36.42603519 -21.5 34.5625 C-19.9418008 32.43644394 -18.91647225 30.78872392 -17.9375 28.3125 C-16.79808139 25.50193409 -15.133536 24.133536 -13 22 C-11.93988057 20.03120677 -10.92529151 18.03564133 -10 16 C-9.34 16 -8.68 16 -8 16 C-8.0928125 14.824375 -8.0928125 14.824375 -8.1875 13.625 C-8.125625 12.75875 -8.06375 11.8925 -8 11 C-6.515 10.01 -6.515 10.01 -5 9 C-3.82065192 7.08623041 -3.82065192 7.08623041 -2.875 4.9375 C-1.07118644 1.07118644 -1.07118644 1.07118644 0 0 Z " fill="#f8fbf3" transform="translate(956,768)"/>
<path d="M0 0 C3.49962842 2.38999014 5.61227523 5.1066107 6.46875 9.2890625 C6.6550539 13.93113478 6.09898551 17.38451691 3 21 C-0.41723185 24.0917812 -2.94189446 25.34864515 -7.5 25.1875 C-11.89414635 24.42911941 -14.33268769 22.74014312 -16.95703125 19.16015625 C-18.92107373 15.09230798 -19.06733458 11.36002686 -18 7 C-13.73405424 -0.34912151 -8.12709292 -2.43259924 0 0 Z " fill="#fe9788" transform="translate(707,718)"/>
<path d="M0 0 C2.82424288 2.19022918 4.41508603 3.83017207 6 7 C6.37766377 12.00404498 6.11200434 14.99885156 3 19 C1.09180914 21.12836673 -0.2583174 21.88589498 -3.08203125 22.3203125 C-7.11881639 22.52114758 -9.4092612 22.3519295 -12.9375 20.25 C-15.78206465 17.14683856 -16.82909642 15.31026074 -17.375 11.125 C-16.89861498 7.15512486 -15.46959574 5.10463464 -13 2 C-8.7741215 -0.81725233 -4.96375312 -0.79958384 0 0 Z " fill="#fe9687" transform="translate(646,745)"/>
<path d="M0 0 C2.72451404 1.36225702 3.08525087 2.88341786 4.3828125 5.62109375 C4.82753906 6.55630859 5.27226563 7.49152344 5.73046875 8.45507812 C6.19066406 9.43927734 6.65085937 10.42347656 7.125 11.4375 C7.59292969 12.41783203 8.06085937 13.39816406 8.54296875 14.40820312 C12 21.73045736 12 21.73045736 12 24 C12.66 24.33 13.32 24.66 14 25 C16.61519395 27.92901722 17.28102298 30.19969288 18 34 C18.66 34.33 19.32 34.66 20 35 C21.125 37.0625 21.125 37.0625 22 39 C22.99 39 23.98 39 25 39 C24.66742188 39.81597656 24.66742188 39.81597656 24.328125 40.6484375 C23.85856643 44.01360725 25.09556733 45.70216895 26.75 48.625 C27.54664063 50.06746094 27.54664063 50.06746094 28.359375 51.5390625 C29.92317708 54.2265625 29.92317708 54.2265625 33 56 C33.33333333 57.66666667 33.66666667 59.33333333 34 61 C34.99 61.66 35.98 62.32 37 63 C37 63.66 37 64.32 37 65 C37.99 65.495 37.99 65.495 39 66 C39.625 69.0625 39.625 69.0625 40 72 C40.66 72 41.32 72 42 72 C42 72.99 42 73.98 42 75 C42.66 75 43.32 75 44 75 C46.59801953 77.77122083 48.34235148 80.59012786 49.9375 84 C51.70365689 87.72933527 53.99136142 90.15850801 57 93 C57 93.66 57 94.32 57 95 C57.99 95.33 58.98 95.66 60 96 C60.2475 96.680625 60.495 97.36125 60.75 98.0625 C62.86418154 103.03082661 66.78844314 106.81007206 70.59765625 110.58203125 C72 112 72 112 74 114.5625 C75.94393448 117.17306437 75.94393448 117.17306437 79 119 C80.02611949 120.65071396 81.02308143 122.31970006 82 124 C83.96262135 126.61682846 85.97145893 128.97155634 88.2890625 131.28125 C91.60255022 134.60428667 94.74435847 138.06240123 97.89453125 141.5390625 C100.84666969 144.78225684 103.88172082 147.9140905 107 151 C107.53625 151.5775 108.0725 152.155 108.625 152.75 C110.09616618 154.25659086 110.09616618 154.25659086 113 155 C114 156.33333333 115 157.66666667 116 159 C116.99 159.33 117.98 159.66 119 160 C119.680625 161.1446875 119.680625 161.1446875 120.375 162.3125 C122.79893752 166.32131974 126.15167331 168.43444888 130 171 C130.33 171.99 130.66 172.98 131 174 C127.17233639 172.39688442 124.57475217 169.94515468 121.5625 167.125 C120.49225008 166.12753702 119.42193532 165.1301436 118.3515625 164.1328125 C117.80016602 163.6162207 117.24876953 163.09962891 116.68066406 162.56738281 C115.03371647 161.03144389 113.37499193 159.50955935 111.7109375 157.9921875 C101.97985654 149.10936796 92.54967615 140.0446097 84 130 C82.49962923 128.26735874 80.99570189 126.53783892 79.49169922 124.80834961 C77.78903523 122.84798379 76.09149575 120.88326908 74.39453125 118.91796875 C72.26085789 116.44877026 70.11353982 113.9931403 67.94921875 111.55078125 C52.68469961 94.21675284 39.87895114 74.76802557 28 55 C27.62939453 54.39027344 27.25878906 53.78054688 26.87695312 53.15234375 C19.83202536 41.54755425 13.48570859 29.62090644 7.30078125 17.53857422 C6.17714431 15.34571068 5.04406086 13.15818238 3.90625 10.97265625 C3.3596875 9.90917969 2.813125 8.84570312 2.25 7.75 C1.80140625 6.87859375 1.3528125 6.0071875 0.890625 5.109375 C0 3 0 3 0 0 Z " fill="#f6fbef" transform="translate(47,729)"/>
<path d="M0 0 C2.69990662 1.79993774 4.5418865 3.083773 6 6 C6.36524972 10.45604661 6.53894975 12.94455674 4.5 16.9375 C1.60747503 19.3238331 -0.26947577 20.00796179 -3.96484375 20.27734375 C-7.70386972 19.76780278 -9.44430059 17.68036768 -12 15 C-13.45147903 12.09704195 -13.37239025 10.22738221 -13 7 C-9.59449772 1.49782654 -6.48697077 -0.63597753 0 0 Z " fill="#fe9788" transform="translate(649,700)"/>
<path d="M0 0 C10.13889851 1.84343609 10.13889851 1.84343609 14.33203125 4.44921875 C17.24696568 6.14355106 19.94799808 7.01812857 23.1875 7.9375 C27.34311068 9.16305298 31.36885072 10.47468736 35.375 12.125 C43.44053277 15.63853286 43.44053277 15.63853286 52 15 C52 15.66 52 16.32 52 17 C54.31 17.33 56.62 17.66 59 18 C59 18.33 59 18.66 59 19 C61.64 19.66 64.28 20.32 67 21 C67 21.66 67 22.32 67 23 C69.2910905 23.19441368 71.58290337 23.38033135 73.875 23.5625 C75.15117187 23.66691406 76.42734375 23.77132812 77.7421875 23.87890625 C80.88643942 24.25683367 80.88643942 24.25683367 83 23 C83 23.66 83 24.32 83 25 C98.67692673 28.91982844 98.67692673 28.91982844 114.68359375 30.8203125 C117 31 117 31 120.5 32.0625 C124.86382215 33.23138093 128.83388265 33.10383337 133.328125 32.97265625 C136 33 136 33 139 34 C140.89240998 34.20185706 142.78922831 34.36388833 144.6875 34.5 C151.52174864 35.02761389 158.24366853 35.81764199 165 37 C165 37.66 165 38.32 165 39 C107.57622142 34.6658244 53.89567492 22.3966088 0 2 C0 1.34 0 0.68 0 0 Z " fill="#f9fbf5" transform="translate(314,985)"/>
<path d="M0 0 C0.66 0 1.32 0 2 0 C2 0.66 2 1.32 2 2 C2.99 2 3.98 2 5 2 C5.61875 2.78375 6.2375 3.5675 6.875 4.375 C9.2089893 7.25816325 10.63452177 7.7055853 14 9 C15.0260734 10.31337396 16.02727325 11.64664105 17 13 C19.08334635 14.2516467 19.08334635 14.2516467 21 15 C21 15.66 21 16.32 21 17 C21.99 17 22.98 17 24 17 C25.6875 19 25.6875 19 27 21 C27.66 20.67 28.32 20.34 29 20 C29.33 20.99 29.66 21.98 30 23 C33.00007271 24.70855022 33.00007271 24.70855022 36 26 C36 26.66 36 27.32 36 28 C36.5775 28.28875 37.155 28.5775 37.75 28.875 C42.875 31.4375 42.875 31.4375 48 34 C48 34.66 48 35.32 48 36 C49.32 36 50.64 36 52 36 C52 36.99 52 37.98 52 39 C53.65 39.33 55.3 39.66 57 40 C57 40.66 57 41.32 57 42 C58.65 42.33 60.3 42.66 62 43 C62 43.66 62 44.32 62 45 C63.65 45 65.3 45 67 45 C67 45.99 67 46.98 67 48 C67.61488281 48.18175781 68.22976562 48.36351562 68.86328125 48.55078125 C70.07564453 48.92783203 70.07564453 48.92783203 71.3125 49.3125 C72.11300781 49.55613281 72.91351563 49.79976562 73.73828125 50.05078125 C76.17051836 51.0715647 77.18421831 52.12933322 79 54 C80.79968581 55.13835548 82.63707637 56.218381 84.5 57.25 C85.93859375 58.06210937 85.93859375 58.06210937 87.40625 58.890625 C90.03853765 60.35594306 90.03853765 60.35594306 93 59 C93.33 59.99 93.66 60.98 94 62 C95.95324533 63.20828966 95.95324533 63.20828966 98.3125 64.125 C99.09238281 64.45757813 99.87226563 64.79015625 100.67578125 65.1328125 C102.95292886 66.0439852 102.95292886 66.0439852 105.23046875 66.4921875 C105.81441406 66.65976562 106.39835937 66.82734375 107 67 C107.33 67.66 107.66 68.32 108 69 C111.02934491 69.65772428 111.02934491 69.65772428 114 70 C114 70.99 114 71.98 114 73 C114.928125 72.938125 115.85625 72.87625 116.8125 72.8125 C120 73 120 73 121.875 74.5 C122.431875 75.2425 122.431875 75.2425 123 76 C123.66 75.34 124.32 74.68 125 74 C125 74.99 125 75.98 125 77 C125.66 77 126.32 77 127 77 C127 77.66 127 78.32 127 79 C128.175625 79.185625 128.175625 79.185625 129.375 79.375 C132 80 132 80 134 82 C128.95524082 81.33007222 124.64367459 79.22215794 120.0625 77.125 C119.1856958 76.72571289 118.3088916 76.32642578 117.40551758 75.91503906 C80.15676068 58.802974 44.57517341 38.07004016 12.62109375 12.30371094 C10.98399228 10.98712632 9.33662589 9.68429012 7.6875 8.3828125 C6.676875 7.57585938 5.66625 6.76890625 4.625 5.9375 C3.73039063 5.22464844 2.83578125 4.51179687 1.9140625 3.77734375 C1.28242188 3.19082031 0.65078125 2.60429688 0 2 C0 1.34 0 0.68 0 0 Z " fill="#f8fbf3" transform="translate(179,903)"/>
<path d="M0 0 C2.9375 2.0625 2.9375 2.0625 5 5 C5.06625411 8.8427383 4.81899419 10.99200716 2.375 14 C-1.08383253 15.45635054 -3.41298371 14.91305869 -7 14 C-8.9375 12.875 -8.9375 12.875 -10 11 C-10.50030235 7.06905293 -10.5996142 4.8994213 -8.375 1.5625 C-5.24316508 -0.49791771 -3.68455227 -0.6767545 0 0 Z " fill="#fe9586" transform="translate(682,752)"/>
<path d="M0 0 C2.5 0.25 2.5 0.25 4.5 2.25 C4.75 4.75 4.75 4.75 4.5 7.25 C3.84 7.91 3.18 8.57 2.5 9.25 C-0.625 8.875 -0.625 8.875 -3.5 8.25 C-4.125 5.375 -4.125 5.375 -4.5 2.25 C-2.5 0.25 -2.5 0.25 0 0 Z " fill="#fe9284" transform="translate(659.5,725.75)"/>
<path d="M0 0 C7.57990281 0.05499325 12.05437685 3.76744257 17.5625 8.625 C13.53382081 8.625 11.80470658 6.92156299 8.5625 4.625 C4.93054504 2.20369669 3.17900652 2.41477215 -1.125 2.5 C-2.30449219 2.51804687 -3.48398437 2.53609375 -4.69921875 2.5546875 C-6.05466797 2.58949219 -6.05466797 2.58949219 -7.4375 2.625 C-4.8609465 0.0484465 -3.59734188 0.17776202 0 0 Z " fill="#c75d2a" transform="translate(442.4375,753.375)"/>
<path d="M0 0 C0 6.95220786 -5.40200109 14.06043546 -10 19 C-10.66 19 -11.32 19 -12 19 C-12 16 -12 16 -9.625 13.4375 C-8.75875 12.633125 -7.8925 11.82875 -7 11 C-4.69494955 9.02833247 -4.69494955 9.02833247 -4.0625 5.5 C-3 2 -3 2 0 0 Z " fill="#f0f8e7" transform="translate(924,816)"/>
<path d="M0 0 C2 1 2 1 2 1 Z M0 2 C-2.23775234 5.3566285 -2.93320048 5.57996014 -6.625 6.6875 C-7.44226563 6.93886719 -8.25953125 7.19023438 -9.1015625 7.44921875 C-9.72804688 7.63097656 -10.35453125 7.81273437 -11 8 C-10.67578125 6.11328125 -10.67578125 6.11328125 -10 4 C-6.45371784 1.71461816 -4.05371308 0.28496754 0 2 Z " fill="#c4efa0" transform="translate(278,56)"/>
<path d="M0 0 C-2.16070464 2.16070464 -4.38838937 3.43303362 -7 5 C-7.66 5.66 -8.32 6.32 -9 7 C-10.32 6.34 -11.64 5.68 -13 5 C-9.01056314 0.61161946 -5.91391458 -0.2688143 0 0 Z " fill="#c2efa0" transform="translate(296,49)"/>
<path d="M0 0 C0.99 0.33 1.98 0.66 3 1 C2.113125 1.556875 1.22625 2.11375 0.3125 2.6875 C-2.05098873 4.24639682 -3.70124018 5.70124018 -5.75 7.75 C-6.86375 8.86375 -6.86375 8.86375 -8 10 C-8.66 10 -9.32 10 -10 10 C-8.26548969 5.31682216 -4.40759243 2.20379621 0 0 Z " fill="#c75e2c" transform="translate(481,664)"/>
<path d="M0 0 C0.556875 0.226875 1.11375 0.45375 1.6875 0.6875 C1.0275 1.120625 0.3675 1.55375 -0.3125 2 C-0.9725 2.556875 -1.6325 3.11375 -2.3125 3.6875 C-2.3125 4.6775 -2.3125 5.6675 -2.3125 6.6875 C-6.3125 6.6875 -6.3125 6.6875 -9.3125 5.6875 C-8.6525 5.6875 -7.9925 5.6875 -7.3125 5.6875 C-7.3125 4.6975 -7.3125 3.7075 -7.3125 2.6875 C-3.28618421 -0.44407895 -3.28618421 -0.44407895 0 0 Z " fill="#c2f0a2" transform="translate(247.3125,73.3125)"/>
<path d="M0 0 C5.64942006 5.24589005 7.46381315 11.49338405 8 19 C5.85727214 15.7859082 4.37881715 12.47398867 2.875 8.9375 C2.59785156 8.30005859 2.32070313 7.66261719 2.03515625 7.00585938 C0 2.24880696 0 2.24880696 0 0 Z " fill="#f6fbef" transform="translate(37,707)"/>
<path d="M0 0 C1.4391134 0.28359887 2.87625518 0.57721399 4.3125 0.875 C5.11300781 1.03742187 5.91351562 1.19984375 6.73828125 1.3671875 C9 2 9 2 12 4 C12 4.66 12 5.32 12 6 C11.01 6 10.02 6 9 6 C9 5.34 9 4.68 9 4 C7.88625 4.020625 6.7725 4.04125 5.625 4.0625 C2 4 2 4 0 3 C0 2.01 0 1.02 0 0 Z " fill="#bfef9f" transform="translate(719,44)"/>
<path d="M0 0 C2.97 0.33 5.94 0.66 9 1 C9 1.66 9 2.32 9 3 C10.32 3.66 11.64 4.32 13 5 C7.28758534 4.61271765 4.26311718 4.12989477 0 0 Z " fill="#c1f0a1" transform="translate(674,27)"/>
<path d="M0 0 C-3.42346555 3.14958831 -6.44262737 3.56179109 -11 4 C-11 3.01 -11 2.02 -11 1 C-7.32589215 -0.17571451 -3.83070817 -0.07366746 0 0 Z " fill="#c3efa0" transform="translate(379,18)"/>
<path d="M0 0 C0.99 0 1.98 0 3 0 C3.33 2.97 3.66 5.94 4 9 C3.01 9.495 3.01 9.495 2 10 C1.34 6.7 0.68 3.4 0 0 Z " fill="#e5f2d8" transform="translate(44,720)"/>
<path d="M0 0 C0.598125 0.20625 1.19625 0.4125 1.8125 0.625 C-0.54027269 3.34926311 -2.81246331 4.4391763 -6.1875 5.625 C-5.875 3.75 -5.875 3.75 -5.1875 1.625 C-2.1875 -0.375 -2.1875 -0.375 0 0 Z " fill="#caf2aa" transform="translate(196.1875,108.375)"/>
<path d="M0 0 C0.66 0.33 1.32 0.66 2 1 C-0.31 3.31 -2.62 5.62 -5 8 C-5.66 7.34 -6.32 6.68 -7 6 C-4.69 4.02 -2.38 2.04 0 0 Z " fill="#c8602e" transform="translate(433,756)"/>
<path d="M0 0 C0 4.38968456 -2.12805101 5.76905739 -5 9 C-5.66 8.01 -6.32 7.02 -7 6 C-4.69 4.02 -2.38 2.04 0 0 Z " fill="#590f05" transform="translate(613,530)"/>
<path d="M0 0 C0.33 1.32 0.66 2.64 1 4 C-0.98 4.99 -2.96 5.98 -5 7 C-5 6.01 -5 5.02 -5 4 C-2.5 1.8125 -2.5 1.8125 0 0 Z " fill="#b9e99c" transform="translate(143,155)"/>
<path d="M0 0 C0.99 0.33 1.98 0.66 3 1 C3.33 3.31 3.66 5.62 4 8 C3.34 8 2.68 8 2 8 C2 7.34 2 6.68 2 6 C1.34 5.67 0.68 5.34 0 5 C0 3.35 0 1.7 0 0 Z " fill="#c9f2ac" transform="translate(920,201)"/>
<path d="M0 0 C1.9453125 -0.29296875 1.9453125 -0.29296875 4.125 -0.1875 C5.40375 -0.125625 6.6825 -0.06375 8 0 C7.67 0.66 7.34 1.32 7 2 C4.93359375 2.4140625 4.93359375 2.4140625 2.4375 2.625 C1.61121094 2.69976562 0.78492188 2.77453125 -0.06640625 2.8515625 C-1.02353516 2.92503906 -1.02353516 2.92503906 -2 3 C-1.34 2.01 -0.68 1.02 0 0 Z " fill="#c6f4a1" transform="translate(389,13)"/>
<path d="M0 0 C2.25 0.25 2.25 0.25 4 1 C2.8125 2.5 2.8125 2.5 1 4 C-1.6875 4.1875 -1.6875 4.1875 -4 4 C-2.25 1.9375 -2.25 1.9375 0 0 Z " fill="#f1f8eb" transform="translate(757,960)"/>
<path d="M0 0 C0.33 0.99 0.66 1.98 1 3 C1.66 3.33 2.32 3.66 3 4 C1.68 4.33 0.36 4.66 -1 5 C-1 5.99 -1 6.98 -1 8 C-1.66 8 -2.32 8 -3 8 C-1.125 2.25 -1.125 2.25 0 0 Z " fill="#dcf6c3" transform="translate(59,269)"/>
</svg>