<svg version="1.1" xmlns="http://www.w3.org/2000/svg" width="1024px" height="1024px" transform="rotate(0) scale(1, 1)">
<path d="M0 0 C337.92 0 675.84 0 1024 0 C1024 337.92 1024 675.84 1024 1024 C686.08 1024 348.16 1024 0 1024 C0 686.08 0 348.16 0 0 Z " fill="#c3eca4" transform="translate(0,0)"/>
<path d="M0 0 C337.92 0 675.84 0 1024 0 C1024 337.92 1024 675.84 1024 1024 C686.08 1024 348.16 1024 0 1024 C0 686.08 0 348.16 0 0 Z M441 23 C439.10386963 23.28085449 439.10386963 23.28085449 437.16943359 23.56738281 C376.14898725 32.92035129 316.27814114 53.69744226 263 85 C262.11634766 85.51788086 261.23269531 86.03576172 260.32226562 86.56933594 C241.71187983 97.5396012 223.89314786 109.52327622 207 123 C206.3714209 123.49854492 205.7428418 123.99708984 205.09521484 124.51074219 C196.98230077 130.95951902 189.10097824 137.55848582 181.55078125 144.66015625 C179 147 179 147 176.16796875 149.18359375 C175.45253906 149.78300781 174.73710937 150.38242188 174 151 C174 151.66 174 152.32 174 153 C173.42870361 153.2460498 172.85740723 153.49209961 172.26879883 153.74560547 C169.62007757 155.21005504 167.83314406 156.9243843 165.69921875 159.0703125 C164.88646484 159.885 164.07371094 160.6996875 163.23632812 161.5390625 C162.39521484 162.39242187 161.55410156 163.24578125 160.6875 164.125 C159.85798828 164.95515625 159.02847656 165.7853125 158.17382812 166.640625 C153.7900349 171.05555804 149.55202318 175.54530487 145.49487305 180.26220703 C143.56269189 182.50837158 141.56276205 184.68945848 139.5625 186.875 C135.16102325 191.759747 131.04058146 196.81471347 127 202 C126.24074219 202.96421875 125.48148437 203.9284375 124.69921875 204.921875 C107.37440585 227.13742456 91.91386898 250.72006353 78.40332031 275.43554688 C77.16470333 277.69901813 75.90935103 279.95203954 74.6484375 282.203125 C32.64716596 358.19555347 14.56961913 449.81939913 19.8125 536.125 C19.85634827 536.85756012 19.90019653 537.59012024 19.94537354 538.34487915 C23.17171371 591.50769979 34.29377798 643.1461883 53 693 C53.35400879 693.94423828 53.70801758 694.88847656 54.07275391 695.86132812 C73.59946716 747.21460012 102.84797513 794.74543708 139 836 C139.94746094 837.09828125 139.94746094 837.09828125 140.9140625 838.21875 C152.40283214 851.50434144 164.41959451 864.83096792 177.8828125 876.15625 C179.63397942 877.68125145 181.31563998 879.23874346 182.9921875 880.84375 C191.24537122 888.72429433 199.90787798 895.73050066 209.06005859 902.5390625 C211.70889142 904.5338543 214.2844119 906.61786464 216.875 908.6875 C239.09311408 925.74635163 263.56710103 940.95073842 288.85009766 952.96777344 C291.2805873 954.13471759 293.69248362 955.33635344 296.10546875 956.5390625 C311.06322742 963.93091679 326.34592743 970.23693523 342 976 C343.15790039 976.42667969 344.31580078 976.85335937 345.50878906 977.29296875 C387.61158773 992.56889347 431.42420921 1000.73090499 476 1004 C477.42481689 1004.10803955 477.42481689 1004.10803955 478.87841797 1004.21826172 C563.47437442 1010.38825119 653.16808167 994.55118953 738.5625 950.859375 C741.63442768 949.19774139 744.73164217 947.64542851 747.875 946.125 C764.31488952 937.9711674 780.53122526 928.02061823 795.23828125 917.05078125 C797.81135553 915.14008252 800.41531604 913.28581757 803.03564453 911.44116211 C813.69738017 903.91876413 823.9724226 896.02326281 833.57421875 887.17578125 C836.14434286 884.87053306 838.80243454 882.71677955 841.5 880.5625 C847.05671109 876.06833282 852.0289134 871.1237821 857 866 C859.97352233 863.01109738 862.96644246 860.04207113 865.9609375 857.07421875 C867.43234884 855.6120367 868.9037016 854.1497957 870.375 852.6875 C871.10460937 851.96626953 871.83421875 851.24503906 872.5859375 850.50195312 C877.27317366 845.83564212 881.6989368 841.0224771 886 836 C886.96105937 834.90521282 887.92324314 833.81141135 888.88671875 832.71875 C896.38344584 824.13596199 903.28486657 815.20317346 910 806 C910.42490723 805.42314453 910.84981445 804.84628906 911.28759766 804.25195312 C923.77401761 787.28665483 934.88496285 769.46934556 945 751 C945.4935498 750.09942871 945.98709961 749.19885742 946.49560547 748.27099609 C981.18800418 684.47446335 1001.59276213 613.65501216 1005.125 541.125 C1005.16669312 540.28516571 1005.20838623 539.44533142 1005.25134277 538.58004761 C1008.51483647 471.80666917 1000.84771614 404.76692659 977 342 C976.62262695 341.00629395 976.24525391 340.01258789 975.85644531 338.98876953 C959.57908906 296.53566472 938.26254767 256.44279331 911 220 C910.30648437 219.06285156 909.61296875 218.12570313 908.8984375 217.16015625 C900.76309876 206.22200645 892.55280137 195.45356993 883.2734375 185.45703125 C881.25815584 183.27900347 879.30727564 181.06390714 877.375 178.8125 C874.34180612 175.3132125 871.09810305 172.07323646 867.79296875 168.83203125 C866 167 866 167 863.625 164 C862.820625 163.01 862.820625 163.01 862 162 C861.34 162 860.68 162 860 162 C859.34 160.68 858.68 159.36 858 158 C857.34 158 856.68 158 856 158 C855.34 156.68 854.68 155.36 854 154 C853.34 154 852.68 154 852 154 C851.67 153.01 851.34 152.02 851 151 C849.47930027 149.41983233 849.47930027 149.41983233 847.5625 147.875 C844.43490898 145.22900264 841.38646468 142.52751618 838.375 139.75 C832.76849986 134.69817643 826.87601251 130.07178231 820.89941406 125.47119141 C819.01227156 124.00950494 817.14196646 122.52834704 815.2734375 121.04296875 C797.954041 107.39435412 779.25330561 94.76151993 760 84 C759.11151367 83.50113281 758.22302734 83.00226563 757.30761719 82.48828125 C732.39225467 68.58429358 706.81040467 56.75405928 680 47 C678.41155273 46.4124292 678.41155273 46.4124292 676.79101562 45.81298828 C660.12014588 39.66908872 643.29754978 35.02006535 626 31 C624.94095459 30.74508789 623.88190918 30.49017578 622.79077148 30.22753906 C614.80305782 28.32613501 606.78896185 26.82889276 598.6875 25.5 C597.38804443 25.28569336 596.08858887 25.07138672 594.74975586 24.85058594 C586.53908816 23.511499 578.31605628 22.29602712 570.0625 21.25 C569.16039795 21.13462891 568.2582959 21.01925781 567.32885742 20.90039062 C554.8859844 19.39782065 542.43159477 18.8408479 529.90625 18.76171875 C527.96477081 18.74709595 527.96477081 18.74709595 525.98406982 18.73217773 C521.82272238 18.70498622 517.66142633 18.69374966 513.5 18.6875 C512.43494484 18.68555319 512.43494484 18.68555319 511.34837341 18.68356705 C487.69989012 18.65084859 464.42015103 19.46912011 441 23 Z " fill="#c3eca4" transform="translate(0,0)"/>
<path d="M0 0 C0.74883453 -0.00570007 1.49766907 -0.01140015 2.26919556 -0.01727295 C3.85083631 -0.02667245 5.43249621 -0.0332367 7.01416016 -0.03710938 C9.37309514 -0.0467083 11.73111653 -0.07773414 14.08984375 -0.109375 C55.0274994 -0.39554925 91.58058388 18.15690796 120.26025391 46.42822266 C143.88297911 69.99907254 157.94826939 99.62322236 164.0390625 132.203125 C164.29768066 133.58310669 164.29768066 133.58310669 164.56152344 134.9909668 C166.85566196 150.42244966 166.22537911 166.44896586 166.22436523 182.00073242 C166.22656095 185.76297172 166.24481808 189.52492122 166.26367188 193.28710938 C166.29504798 206.40312958 165.9923822 219.22399386 164.0390625 232.203125 C163.86737549 233.34934326 163.69568848 234.49556152 163.51879883 235.67651367 C157.07087979 275.56567184 140.79765598 312.44453152 112.0390625 341.203125 C111.79349879 343.92312857 111.66549764 346.54886757 111.625 349.2734375 C111.59595078 350.46777908 111.59595078 350.46777908 111.5663147 351.68624878 C111.50645776 354.23343134 111.46010971 356.78065895 111.4140625 359.328125 C111.37588829 361.0534053 111.33683689 362.77866643 111.296875 364.50390625 C111.20075141 368.73682376 111.11674342 372.96983049 111.0390625 377.203125 C111.64999756 377.31414551 112.26093262 377.42516602 112.89038086 377.53955078 C138.5090064 382.39897425 162.87008721 394.17262639 184.0390625 409.203125 C185.08707031 409.93917969 186.13507813 410.67523437 187.21484375 411.43359375 C206.10408515 425.16894942 223.89373693 441.62099059 237.75195312 460.45849609 C239.09535914 462.27943301 240.4638141 464.07953201 241.8359375 465.87890625 C276.8623779 512.19036942 290.05903678 563.78237919 292.0390625 621.203125 C190.0690625 621.203125 88.0990625 621.203125 -16.9609375 621.203125 C-16.9609375 590.67419938 -16.9609375 590.67419938 -13.0859375 582.828125 C-12.77914062 582.18101562 -12.47234375 581.53390625 -12.15625 580.8671875 C-10.51613901 578.58389573 -9.74043679 577.85228437 -6.9609375 577.203125 C-4.10159282 578.2428867 -1.54639066 579.35773568 1.1640625 580.703125 C17.19191879 588.24198382 33.26929922 593.35223433 51.0390625 594.203125 C51.72645508 594.23712402 52.41384766 594.27112305 53.12207031 594.30615234 C77.81022428 595.36760287 102.38985081 589.28115233 121.2890625 572.765625 C122.88865747 571.26190481 124.47327107 569.7420128 126.0390625 568.203125 C126.66554688 567.58953125 127.29203125 566.9759375 127.9375 566.34375 C142.50041307 550.92419499 150.16678936 527.66288021 150.09765625 506.7109375 C149.50984757 487.06007513 143.841313 466.95672521 130.265625 452.21484375 C116.07972936 439.3977626 101.28832022 436.90764124 82.703125 436.40625 C66.81214004 435.93625702 66.81214004 435.93625702 60.0390625 431.203125 C57.13486095 426.32821525 55.90483105 422.16655324 55.94140625 416.54223633 C55.94636108 415.16609917 55.94636108 415.16609917 55.95141602 413.76216125 C55.95971436 412.7797496 55.9680127 411.79733795 55.9765625 410.78515625 C55.98224243 409.26567635 55.98224243 409.26567635 55.98803711 407.71549988 C56.00025184 404.48216505 56.01889193 401.24891941 56.0390625 398.015625 C56.06553526 393.75130468 56.08557666 389.48702728 56.1015625 385.22265625 C56.10986084 384.23417191 56.11815918 383.24568756 56.12670898 382.22724915 C56.13166382 380.86529671 56.13166382 380.86529671 56.13671875 379.47583008 C56.14195557 378.67293045 56.14719238 377.87003082 56.15258789 377.0428009 C56.24176536 375.18509055 56.24176536 375.18509055 55.0390625 374.203125 C54.92997109 371.74154965 54.88484002 369.30700252 54.88134766 366.84448242 C54.87626694 366.07357269 54.87118622 365.30266296 54.86595154 364.50839233 C54.85522012 362.82670937 54.8466109 361.14501188 54.83983231 359.46330833 C54.82805387 356.79246447 54.8085977 354.12178309 54.78671265 351.45100403 C54.72510471 343.85419224 54.67129165 336.25739156 54.63769531 328.66040039 C54.6166048 324.01660138 54.58117369 319.37308955 54.53693771 314.72945595 C54.52287437 312.96706873 54.51407738 311.2046306 54.51088333 309.44219017 C54.48252878 295.27782337 54.12401138 282.22398769 44.0390625 271.203125 C29.6280432 257.79573026 9.04959428 259.04257958 -9.33227539 259.09301758 C-10.81389364 259.09326047 -12.29551205 259.0929802 -13.77713013 259.09222412 C-16.93573089 259.09112881 -20.09431697 259.09252256 -23.25291634 259.09559059 C-28.24997552 259.09925724 -33.24696058 259.09001836 -38.2440033 259.07780457 C-39.51473815 259.07477167 -39.51473815 259.07477167 -40.81114441 259.07167751 C-42.54132915 259.06751038 -44.27151381 259.06330763 -46.00169837 259.05906999 C-57.61405263 259.03100374 -69.22623824 259.01088243 -80.83862305 259.02807617 C-88.70451669 259.03962644 -96.57007086 259.03008261 -104.43590349 258.99601859 C-108.58934481 258.97887427 -112.74217261 258.97256118 -116.89561653 258.992136 C-120.79242417 259.01034345 -124.68817028 259.00078573 -128.58488846 258.96987915 C-130.01313023 258.96350974 -131.44146019 258.96737547 -132.86963844 258.98227501 C-143.61730963 259.0860849 -143.61730963 259.0860849 -146.92261124 256.91401863 C-149.71298389 253.72629708 -150.57781486 250.8175161 -150.5625 246.65625 C-150.57796875 245.64691406 -150.5934375 244.63757813 -150.609375 243.59765625 C-150.60164063 242.55996094 -150.59390625 241.52226562 -150.5859375 240.453125 C-150.5859375 238.37495921 -150.59832484 236.29674458 -150.625 234.21875 C-150.61654053 232.84638184 -150.61654053 232.84638184 -150.60791016 231.44628906 C-150.72440918 230.70604492 -150.8409082 229.96580078 -150.9609375 229.203125 C-154.67955966 226.72404356 -156.57221809 226.97655487 -161.0078125 227 C-162.42448832 226.98944602 -163.8411556 226.97768862 -165.2578125 226.96484375 C-167.48088659 226.95456081 -169.70276289 226.95305111 -171.92578125 226.97314453 C-185.89074138 227.06960482 -185.89074138 227.06960482 -190.5390625 223.59375 C-192.7397216 221.13459616 -192.95064032 220.31365672 -193.26953125 216.890625 C-191.55389566 212.05611755 -189.02211773 208.33506174 -186.0234375 204.203125 C-184.82859795 202.5096993 -183.63459604 200.81568228 -182.44140625 199.12109375 C-181.8489209 198.28755371 -181.25643555 197.45401367 -180.64599609 196.59521484 C-178.30950767 193.2783627 -176.06748482 189.90356105 -173.8359375 186.515625 C-170.32009703 181.21238588 -166.7527221 175.94666011 -163.1484375 170.703125 C-162.70419434 170.05641846 -162.25995117 169.40971191 -161.80224609 168.7434082 C-159.63992873 165.60564906 -157.44781459 162.49847656 -155.19921875 159.421875 C-152.46201137 155.48564658 -151.85707104 152.6586136 -151.41748047 147.96362305 C-147.72628574 109.79946197 -130.3208829 77.3199898 -104.9609375 49.203125 C-104.28546875 48.45417969 -103.61 47.70523438 -102.9140625 46.93359375 C-86.04309679 29.23349939 -63.56914744 16.89859036 -40.9609375 8.203125 C-40.25453125 7.92984375 -39.548125 7.6565625 -38.8203125 7.375 C-33.75975432 5.55937989 -28.55972517 4.32268304 -23.3359375 3.078125 C-22.61897705 2.90724365 -21.9020166 2.7363623 -21.16333008 2.56030273 C-20.4648999 2.39860596 -19.76646973 2.23690918 -19.046875 2.0703125 C-18.4286084 1.92706543 -17.8103418 1.78381836 -17.17333984 1.63623047 C-11.44374799 0.5145911 -5.82984623 0.03549604 0 0 Z " fill="#fee1ce" transform="translate(468.9609375,180.796875)"/>
<path d="M0 0 C1.61230751 0.00424484 1.61230751 0.00424484 3.25718689 0.00857544 C6.65985677 0.01968976 10.06225464 0.04477803 13.46484375 0.0703125 C15.78450138 0.08035361 18.10416318 0.08947747 20.42382812 0.09765625 C26.08342472 0.11960038 31.74286479 0.15298985 37.40234375 0.1953125 C37.40781219 1.39229012 37.40781219 1.39229012 37.41339111 2.6134491 C37.4514916 10.18847905 37.50858998 17.7630291 37.58624649 25.33774853 C37.62550756 29.23063358 37.65779931 33.12329968 37.67333984 37.01635742 C37.68864925 40.78382817 37.7233409 44.55069604 37.77065277 48.31789589 C37.78532124 49.74450711 37.79337627 51.17120448 37.7942276 52.59789085 C37.8109924 66.62463931 40.25488085 79.33310331 49.90234375 89.9453125 C52.31870905 92.20294058 52.31870905 92.20294058 54.83984375 93.9453125 C60.06286803 98.5313826 64.10738174 104.55885234 64.67578125 111.56640625 C65.13560209 124.4637421 62.12875211 134.07700274 53.56640625 144.06640625 C45.66298939 151.84142826 36.21307269 153.09380691 25.58154297 153.47802734 C9.09684933 154.08857155 -5.0015262 158.31410572 -16.62109375 170.72265625 C-19.07124802 173.78777019 -21.25451306 176.94044294 -23.34765625 180.2578125 C-23.89510498 181.09505859 -23.89510498 181.09505859 -24.45361328 181.94921875 C-35.62049765 200.61014142 -32.1200578 225.1361778 -32.59765625 245.1953125 C-85.06765625 245.1953125 -137.53765625 245.1953125 -191.59765625 245.1953125 C-191.59765625 221.92527661 -191.59765625 221.92527661 -190.78515625 214.5078125 C-190.69387451 213.63737305 -190.60259277 212.76693359 -190.50854492 211.87011719 C-185.55351802 166.80944027 -167.87012537 124.27295428 -140.59765625 88.1953125 C-140.18225586 87.63714844 -139.76685547 87.07898438 -139.33886719 86.50390625 C-127.01935061 70.00270784 -112.64778343 55.06675341 -96.59765625 42.1953125 C-95.82808594 41.54691406 -95.05851562 40.89851562 -94.265625 40.23046875 C-86.54508076 33.79887398 -78.13813918 28.45865565 -69.59765625 23.1953125 C-68.93459473 22.78603516 -68.2715332 22.37675781 -67.58837891 21.95507812 C-53.04777912 13.09823154 -37.07576744 6.50136484 -20.59765625 2.1953125 C-19.67898773 1.94400574 -19.67898773 1.94400574 -18.74176025 1.68762207 C-12.44517383 0.10622847 -6.46919744 -0.06512689 0 0 Z " fill="#4fbc2e" transform="translate(459.59765625,556.8046875)"/>
<path d="M0 0 C47.96039514 -0.48004707 87.60724415 5.16264013 128 34 C129.04542969 34.73476563 130.09085938 35.46953125 131.16796875 36.2265625 C150.0630592 49.95483165 167.85479045 66.41802329 181.71289062 85.25537109 C183.05629664 87.07630801 184.4247516 88.87640701 185.796875 90.67578125 C220.8233154 136.98724442 234.01997428 188.57925419 236 246 C134.03 246 32.06 246 -73 246 C-73 215.47107438 -73 215.47107438 -69.125 207.625 C-68.81820313 206.97789062 -68.51140625 206.33078125 -68.1953125 205.6640625 C-66.55520151 203.38077073 -65.77949929 202.64915937 -63 202 C-60.14065532 203.0397617 -57.58545316 204.15461068 -54.875 205.5 C-38.84714371 213.03885882 -22.76976328 218.14910933 -5 219 C-3.96891113 219.05099854 -3.96891113 219.05099854 -2.91699219 219.10302734 C21.77116178 220.16447787 46.35078831 214.07802733 65.25 197.5625 C66.84959497 196.05877981 68.43420857 194.5388878 70 193 C70.62648438 192.38640625 71.25296875 191.7728125 71.8984375 191.140625 C86.46135057 175.72106999 94.12772686 152.45975521 94.05859375 131.5078125 C93.47078507 111.85695013 87.8022505 91.75360021 74.2265625 77.01171875 C60.04066686 64.1946376 45.24925772 61.70451624 26.6640625 61.203125 C10.77307754 60.73313202 10.77307754 60.73313202 4 56 C1.0936503 51.12148443 -0.12898523 46.95062394 -0.11352539 41.32324219 C-0.11341209 39.94226349 -0.11341209 39.94226349 -0.11329651 38.53338623 C-0.10813522 37.54783752 -0.10297394 36.56228882 -0.09765625 35.546875 C-0.0962413 34.53151672 -0.09482635 33.51615845 -0.09336853 32.47003174 C-0.08777516 29.22999108 -0.07522385 25.99001975 -0.0625 22.75 C-0.05748414 20.55208433 -0.05292139 18.35416758 -0.04882812 16.15625 C-0.0378079 10.77080971 -0.02107633 5.38540981 0 0 Z " fill="#4fbc2e" transform="translate(525,556)"/>
<path d="M0 0 C0.79002411 -0.00885223 1.58004822 -0.01770447 2.39401245 -0.02682495 C15.38501575 -0.12601621 32.01143685 0.31018918 42.125 9.5625 C49.78652495 17.59389167 52.26276839 27.56672398 52.23852539 38.47607422 C52.23844986 39.61680389 52.23837433 40.75753357 52.23829651 41.93283081 C52.23313522 43.14866852 52.22797394 44.36450623 52.22265625 45.6171875 C52.22053383 47.50221481 52.22053383 47.50221481 52.21836853 49.42532349 C52.21373074 52.7494194 52.2047618 56.07344542 52.19366455 59.39752197 C52.18339401 62.79625843 52.17880389 66.19500235 52.17382812 69.59375 C52.16366895 76.25003909 52.14409071 82.90620657 52.125 89.5625 C35.955 89.5625 19.785 89.5625 3.125 89.5625 C3.125 90.2225 3.125 90.8825 3.125 91.5625 C-2.815 92.5525 -2.815 92.5525 -8.875 93.5625 C-9.37 81.1875 -9.37 81.1875 -9.875 68.5625 C-12.040625 67.758125 -14.20625 66.95375 -16.4375 66.125 C-29.34631209 61.07762458 -40.52719347 53.7638166 -50.875 44.5625 C-51.39835937 44.0994043 -51.92171875 43.63630859 -52.4609375 43.15917969 C-62.06925504 34.61657342 -72.01183382 25.54356589 -78.875 14.5625 C-78.875 13.9025 -78.875 13.2425 -78.875 12.5625 C-52.75490728 5.83265257 -27.08924718 0.14055162 0 0 Z " fill="#fee1ce" transform="translate(444.875,466.4375)"/>
<path d="M0 0 C0.33 0 0.66 0 1 0 C1.33 7.92 1.66 15.84 2 24 C-99.97 24 -201.94 24 -307 24 C-307 16.74 -307 9.48 -307 2 C-306.67 2 -306.34 2 -306 2 C-306 8.6 -306 15.2 -306 22 C-205.02 22 -104.04 22 0 22 C0 14.74 0 7.48 0 0 Z " fill="#0c9238" transform="translate(759,778)"/>
<path d="M0 0 C0.33 0 0.66 0 1 0 C0.67 11.88 0.34 23.76 0 36 C51.15 36 102.3 36 155 36 C155 25.77 155 15.54 155 5 C155.33 5 155.66 5 156 5 C156 15.89 156 26.78 156 38 C103.86 38 51.72 38 -2 38 C-2 6.99159664 -2 6.99159664 0 0 Z " fill="#0b9036" transform="translate(270,764)"/>
<path d="M0 0 C5.2103644 -0.02495201 10.42069305 -0.04297787 15.63110352 -0.05493164 C17.39901334 -0.05992164 19.16691911 -0.06671601 20.93481445 -0.07543945 C39.77081595 -0.16597155 39.77081595 -0.16597155 49 1 C49 1.33 49 1.66 49 2 C33.49 2 17.98 2 2 2 C2 17.51 2 33.02 2 49 C-0.11931075 45.82103387 -0.2469603 45.07025468 -0.22705078 41.43676758 C-0.22689972 40.51603958 -0.22674866 39.59531158 -0.22659302 38.64668274 C-0.21627045 37.65597275 -0.20594788 36.66526276 -0.1953125 35.64453125 C-0.1924826 34.62775803 -0.18965271 33.6109848 -0.18673706 32.56340027 C-0.17553383 29.31298092 -0.15042886 26.06283619 -0.125 22.8125 C-0.11497039 20.61003002 -0.10584451 18.40755572 -0.09765625 16.20507812 C-0.07559405 10.80329157 -0.04211508 5.40166541 0 0 Z " fill="#0a9137" transform="translate(525,556)"/>
<path d="M0 0 C8.07029553 -0.11547323 15.97667603 0.09958689 24 1 C24 1.66 24 2.32 24 3 C17.73 3 11.46 3 5 3 C5 2.67 5 2.34 5 2 C3.35 1.67 1.7 1.34 0 1 C0 0.67 0 0.34 0 0 Z " fill="#d4f1d8" transform="translate(515,773)"/>
<path d="M0 0 C0.66 0.33 1.32 0.66 2 1 C-2.33333333 5.33333333 -6.66666667 9.66666667 -11 14 C-11 11 -11 11 -8.59375 8.30078125 C-7.5700032 7.29697757 -6.5383946 6.30114351 -5.5 5.3125 C-4.97535156 4.80138672 -4.45070313 4.29027344 -3.91015625 3.76367188 C-2.61339096 2.50227292 -1.30753883 1.25022788 0 0 Z " fill="#088b2e" transform="translate(349,611)"/>
<path d="M0 0 C0.33 0.66 0.66 1.32 1 2 C0.03523618 4.01723344 -0.96838392 6.01612292 -2 8 C-2.2165625 9.11375 -2.2165625 9.11375 -2.4375 10.25 C-2.623125 10.8275 -2.80875 11.405 -3 12 C-4.98 12.99 -4.98 12.99 -7 14 C-4.69 9.38 -2.38 4.76 0 0 Z " fill="#088b30" transform="translate(613,722)"/>
<path d="M0 0 C0.53625 0.391875 1.0725 0.78375 1.625 1.1875 C-4.66071429 3.61607143 -4.66071429 3.61607143 -8.375 2.1875 C-2.95961538 -1.0125 -2.95961538 -1.0125 0 0 Z " fill="#dcf5de" transform="translate(464.375,713.8125)"/>
</svg>