<svg version="1.1" xmlns="http://www.w3.org/2000/svg" width="1024px" height="1024px" transform="rotate(0) scale(1, 1)">
<path d="M0 0 C337.92 0 675.84 0 1024 0 C1024 337.92 1024 675.84 1024 1024 C686.08 1024 348.16 1024 0 1024 C0 686.08 0 348.16 0 0 Z " fill="#c3eca4" transform="translate(0,0)"/>
<path d="M0 0 C0.00586624 0.61148895 0.01173248 1.22297791 0.01777649 1.85299683 C0.08252207 8.31162109 0.16713136 14.76978366 0.26245117 21.22802734 C0.29537394 23.62705332 0.3235033 26.02615069 0.34643555 28.42529297 C0.65494861 59.86736888 5.20647432 90.15817728 26 115 C26.63550781 115.79792969 27.27101563 116.59585938 27.92578125 117.41796875 C41.31746307 133.5268034 63.31665989 144.57569282 84.125 146.6875 C87.47168463 147.19775685 88.60735063 147.52608334 90.79296875 150.1640625 C92.3125 152.8125 92.3125 152.8125 93.48828125 155.39453125 C94.89573987 158.24930443 94.89573987 158.24930443 98.05078125 160.09545898 C99.97040961 161.6639797 100.87212581 162.54540378 101.54862976 164.95039368 C101.74064454 167.34408726 101.7521372 169.67725449 101.69921875 172.078125 C101.70581009 172.9629657 101.71240143 173.8478064 101.7191925 174.75946045 C101.73664464 177.59040571 101.71478461 180.41916095 101.6875 183.25 C101.56677059 212.68742645 106.03473953 238.1741867 127.23828125 260.33984375 C143.5275556 275.93595749 165.93472875 283.59338856 188.25512695 283.41723633 C212.56863489 282.68923198 231.62030196 273.00381947 248.91796875 256.12890625 C266.99260885 236.89616564 270.35142004 211.13866111 270.6875 185.9375 C270.72078907 184.18422128 270.75528868 182.43096511 270.79101562 180.67773438 C270.87456198 176.45195125 270.941975 172.2262074 271 168 C272.24934326 167.49883667 272.24934326 167.49883667 273.52392578 166.98754883 C274.6117334 166.54435303 275.69954102 166.10115723 276.8203125 165.64453125 C277.90070801 165.20729736 278.98110352 164.77006348 280.09423828 164.31958008 C283.61742112 162.71961342 285.60180329 161.03301349 288 158 C288.48855469 157.44828125 288.97710938 156.8965625 289.48046875 156.328125 C295.76108047 148.8224063 298.81572646 139.56819879 298.37890625 129.7890625 C296.98366175 119.51891226 292.90450645 110.84254486 284.828125 104.21875 C277.23241288 98.8755594 270.03128941 96.40916884 260.75 96.4375 C259.91952148 96.43991699 259.08904297 96.44233398 258.23339844 96.44482422 C250.74322698 96.66734776 245.18763732 98.72005278 239 103 C238.31679688 103.44472656 237.63359375 103.88945313 236.9296875 104.34765625 C230.27621587 109.28735488 225.82708857 117.85181781 224.25 125.91796875 C222.97565698 136.53085668 224.58012244 145.54560595 230.875 154.375 C237.23901928 162.17092362 244.64903123 165.92096422 254 169 C254.10040413 174.26117662 254.17217623 179.52177117 254.21972656 184.78369141 C254.2395907 186.56601703 254.2666916 188.34827975 254.30175781 190.13037109 C254.70142504 210.99535126 251.15135547 230.31725979 236.18481445 245.94091797 C223.40199182 258.75201637 207.69990375 266.27227832 189.44799805 266.46850586 C188.35140869 266.45827393 187.25481934 266.44804199 186.125 266.4375 C184.97749268 266.42920166 183.82998535 266.42090332 182.64770508 266.41235352 C174.40392019 266.2476068 167.53761997 265.54835035 160 262 C158.90945313 261.50242187 157.81890625 261.00484375 156.6953125 260.4921875 C149.05126078 256.69664219 142.98115786 252.05309618 137 246 C136.29101562 245.31292969 135.58203125 244.62585938 134.8515625 243.91796875 C119.77287449 228.34821235 117.252043 207.59266871 117.25878906 186.95141602 C117.24991628 183.9087906 117.17667045 180.8717061 117.1015625 177.83007812 C117.08984377 175.87501951 117.08189321 173.91993385 117.078125 171.96484375 C117.0350119 170.61784645 117.0350119 170.61784645 116.99102783 169.24363708 C117.04759635 165.34219154 117.17004292 162.95088498 119.79644775 159.94180298 C121.97460938 158.08227539 121.97460938 158.08227539 124.15270996 156.50135803 C126.30897994 154.99566039 126.30897994 154.99566039 127.328125 151.71875 C129 149 129 149 131.13085938 148.16015625 C133.99284365 147.4850215 136.84785466 146.97322605 139.75 146.5 C164.29746778 141.82338289 185.58341498 129.71316773 199.82373047 108.79492188 C206.42993028 98.71422843 211.47757051 88.55190459 215 77 C215.30679687 75.99839844 215.61359375 74.99679687 215.9296875 73.96484375 C218.76700437 64.14232296 219.17783368 54.70821291 219.31640625 44.53125 C219.3475779 42.61717346 219.3475779 42.61717346 219.37937927 40.66442871 C219.43343672 37.29767965 219.4837599 33.93091805 219.53222656 30.56408691 C219.58276658 27.11819529 219.63828171 23.67238405 219.69335938 20.2265625 C219.80012466 13.48443934 219.901962 6.74225541 220 0 C221.58102532 0.47095929 223.16178376 0.94281454 224.74243164 1.41503906 C225.62274551 1.67770569 226.50305939 1.94037231 227.41004944 2.21099854 C229.65900604 2.89611974 231.89176868 3.61337482 234.12109375 4.359375 C249.37665592 9.33994603 265.05419512 12.18001435 280.78662109 15.19042969 C289.64456679 16.88724641 298.48376087 18.68049812 307.32470703 20.46337891 C309.82844344 20.96558849 312.33393767 21.45797627 314.83984375 21.94921875 C352.50938311 29.44977318 391.68757662 40.21501909 414.21826172 73.81689453 C439.77045692 114.26839035 440.96904681 174.05583775 441.40640259 220.29214478 C441.4269496 222.24649039 441.45542927 224.20077051 441.49227905 226.15487671 C441.70893086 238.60988307 441.48987544 247.82326122 433 257.625 C406.06583665 282.300169 360.3303651 289.39203957 325.8046875 296.42773438 C323.92585575 296.81108932 322.04824467 297.20047333 320.171875 297.59570312 C268.26461036 308.50324319 214.89381986 313.25214777 162 316 C161.28549683 316.03760437 160.57099365 316.07520874 159.83483887 316.11395264 C150.22577504 316.61221983 140.61995255 316.86741222 131 317 C129.68273926 317.0199704 129.68273926 317.0199704 128.33886719 317.04034424 C43.78511184 318.28963104 -40.37702481 310.11468356 -123 292 C-123.69961853 291.84722595 -124.39923706 291.6944519 -125.12005615 291.53704834 C-201.62142277 274.7414391 -201.62142277 274.7414391 -217.81640625 250.9765625 C-225.29296265 238.49096006 -221.85332881 221.6384026 -221.125 207.625 C-221.08020508 206.74692688 -221.03541016 205.86885376 -220.98925781 204.96417236 C-220.02845311 186.23316541 -218.97025234 167.53774513 -216 149 C-215.80396167 147.60445003 -215.610089 146.20859475 -215.41796875 144.8125 C-211.0586471 114.03575539 -203.93476774 84.73373851 -183 61 C-182.46117187 60.37738281 -181.92234375 59.75476563 -181.3671875 59.11328125 C-153.5419951 29.1208 -105.81793935 24.00215992 -67.82421875 16.33203125 C-63.17396325 15.39054785 -58.52428378 14.44626991 -53.875 13.5 C-52.72763367 13.26690125 -51.58026733 13.03380249 -50.39813232 12.79364014 C-34.54389283 9.55639883 -19.0339429 6.01724504 -3.77270508 0.55981445 C-2 0 -2 0 0 0 Z " fill="#4fbc2e" transform="translate(403,550)"/>
<path d="M0 0 C2.14115822 0.01071188 4.28147459 0.00004515 6.42260742 -0.01269531 C38.86284275 -0.04889546 69.63127518 11.87839367 94.7097168 32.26074219 C95.27964355 32.71852051 95.84957031 33.17629883 96.43676758 33.64794922 C120.14453006 52.79726534 132.13661937 77.61257191 137.7097168 107.26074219 C138.00313965 108.78308472 138.00313965 108.78308472 138.30249023 110.33618164 C139.6429324 118.52925686 139.81244266 126.45596864 139.6940918 134.74121094 C139.67852234 135.8509024 139.66295288 136.96059387 139.64691162 138.10391235 C139.57303941 142.73435706 139.48809195 147.36393817 139.36694336 151.9934082 C139.28257878 155.40946255 139.23554415 158.82440412 139.1940918 162.24121094 C139.15684998 163.28907272 139.11960815 164.33693451 139.08123779 165.41654968 C139.06174252 168.16039621 139.09049994 170.58722163 139.7097168 173.26074219 C142.47595515 175.85679024 142.47595515 175.85679024 145.7097168 177.26074219 C148.3532461 181.22603614 148.04988927 184.65519189 148.0222168 189.26074219 C148.02020264 190.17484863 148.01818848 191.08895508 148.01611328 192.03076172 C147.87570962 202.10451407 146.65523986 212.03374139 145.4284668 222.02246094 C144.82339361 227.00907278 144.47232378 231.9305595 144.2722168 236.94824219 C143.91109718 243.3673277 142.60730622 247.97158663 138.2644043 252.90136719 C135.15084228 255.6237782 131.95021255 255.3694539 128.0222168 255.32324219 C127.02834961 255.31421875 126.03448242 255.30519531 125.01049805 255.29589844 C124.25124023 255.28429687 123.49198242 255.27269531 122.7097168 255.26074219 C122.6459082 256.80181641 122.6459082 256.80181641 122.58081055 258.37402344 C121.72229329 265.15437551 118.53551107 271.26851484 115.7722168 277.44824219 C115.17669724 278.79996992 114.5817324 280.15194216 113.98730469 281.50415039 C110.29455141 289.86896828 106.45564417 298.15731137 102.46557617 306.38476562 C98.35007897 314.9001643 94.53781924 323.54653571 90.73095703 332.20288086 C90.25086182 333.29318604 89.7707666 334.38349121 89.27612305 335.50683594 C88.64105835 336.9559436 88.64105835 336.9559436 87.99316406 338.43432617 C86.7097168 341.26074219 86.7097168 341.26074219 85.0703125 344.22387695 C80.68150984 354.01973488 84.38285955 367.4423388 86.0847168 377.76074219 C86.30969114 379.16813224 86.53365217 380.57568464 86.7565918 381.98339844 C86.86645416 382.67532288 86.97631653 383.36724731 87.08950806 384.08013916 C87.31024503 385.47120315 87.53092782 386.86227574 87.7515564 388.25335693 C87.8594046 388.93222961 87.96725281 389.61110229 88.07836914 390.31054688 C88.18397156 390.97582397 88.28957397 391.64110107 88.39837646 392.32653809 C88.68960177 394.13577747 88.99338597 395.94298276 89.2980957 397.75 C90.85120824 407.50394242 91.15612237 417.15678588 91.3347168 427.01074219 C91.3699694 428.74202776 91.40537145 430.47331029 91.44091797 432.20458984 C91.50904018 435.63696143 91.57013185 439.06936498 91.6262207 442.50195312 C91.67507255 445.44320191 91.73439736 448.38360902 91.81274414 451.32421875 C92.16937648 464.90521286 91.97226511 477.27679568 87.7097168 490.26074219 C87.3590918 491.33066406 87.0084668 492.40058594 86.6472168 493.50292969 C80.00656533 511.25744924 66.42892561 525.63653131 49.7097168 534.26074219 C42.27047571 537.64771374 34.81788113 540.15104816 26.7097168 541.26074219 C25.6578418 541.42574219 24.6059668 541.59074219 23.5222168 541.76074219 C19.83127537 541.10457482 18.13531092 539.36672772 15.51831055 536.76855469 C10.98452327 532.98876659 6.17233535 532.8370559 0.50268555 532.93652344 C-4.25556925 533.48888029 -8.53168618 535.27522942 -11.7434082 538.90136719 C-13.2902832 540.26074219 -13.2902832 540.26074219 -15.2434082 540.47558594 C-35.60062006 538.01748723 -53.00493469 530.5217531 -66.41918945 514.65136719 C-73.52784275 505.56891246 -77.80649502 496.15514774 -81.2902832 485.26074219 C-81.63317383 484.22046875 -81.97606445 483.18019531 -82.3293457 482.10839844 C-91.6545605 447.55281278 -83.31071789 402.24347369 -76.9699707 367.72558594 C-75.13891285 357.40408721 -73.91204604 349.74919406 -78.6027832 340.19824219 C-79.13150024 339.06636475 -79.13150024 339.06636475 -79.67089844 337.91162109 C-80.44561043 336.25421402 -81.2272548 334.60003407 -82.01489258 332.94873047 C-84.34627026 328.03516457 -86.59083505 323.08154217 -88.8527832 318.13574219 C-89.32466064 317.11037354 -89.79653809 316.08500488 -90.28271484 315.02856445 C-93.22837182 308.62279918 -96.08399272 302.18600582 -98.86865234 295.70898438 C-100.69043602 291.51455607 -102.69379522 287.44884722 -104.7902832 283.38574219 C-107.57338548 277.90789009 -109.97881029 272.35341159 -112.2277832 266.63574219 C-112.68797852 265.47969482 -112.68797852 265.47969482 -113.1574707 264.30029297 C-113.43719727 263.57310059 -113.71692383 262.8459082 -114.00512695 262.09667969 C-114.3781897 261.13060791 -114.3781897 261.13060791 -114.75878906 260.14501953 C-115.2902832 258.26074219 -115.2902832 258.26074219 -115.2902832 254.26074219 C-116.01473633 254.30714844 -116.73918945 254.35355469 -117.4855957 254.40136719 C-123.61884183 254.63034171 -127.56259593 254.63385291 -132.2902832 250.26074219 C-135.83895528 245.67821371 -136.10762459 240.96213372 -136.67700195 235.37792969 C-136.78373734 234.40904816 -136.89047272 233.44016663 -137.0004425 232.44192505 C-137.22380894 230.38655825 -137.44112786 228.33052651 -137.65283203 226.27392578 C-137.97182638 223.19326961 -138.31400795 220.11587764 -138.65942383 217.03808594 C-139.6904998 207.57234839 -140.53308567 198.1037947 -140.74731445 188.58105469 C-140.78048264 187.80881561 -140.81365082 187.03657654 -140.8478241 186.24093628 C-140.86997535 182.23905624 -140.46963953 180.48470961 -137.9375 177.32275391 C-135.41536294 175.35817126 -133.32556929 174.21468924 -130.2902832 173.26074219 C-130.6202832 172.60074219 -130.9502832 171.94074219 -131.2902832 171.26074219 C-131.39464301 169.86614871 -131.43892043 168.46679629 -131.45141602 167.06835938 C-131.46102356 166.19854431 -131.4706311 165.32872925 -131.48052979 164.43255615 C-131.48477966 163.48382629 -131.48902954 162.53509644 -131.4934082 161.55761719 C-131.49910828 160.56940979 -131.50480835 159.58120239 -131.51068115 158.56304932 C-131.52015408 156.45464145 -131.52667418 154.34621862 -131.53051758 152.23779297 C-131.54003485 149.09280974 -131.57095199 145.94853517 -131.6027832 142.80371094 C-131.79618307 106.11224247 -124.59632653 69.35204053 -98.2902832 42.26074219 C-97.7643457 41.67292969 -97.2384082 41.08511719 -96.6965332 40.47949219 C-73.01237929 14.86193796 -34.26467068 -0.20328156 0 0 Z " fill="#fee8d7" transform="translate(509.290283203125,135.7392578125)"/>
<path d="M0 0 C158.07 0 316.14 0 479 0 C479 0.33 479 0.66 479 1 C478.38406982 1.03963867 477.76813965 1.07927734 477.13354492 1.12011719 C454.57862093 2.6228102 432.46260123 5.90475882 410.25 10 C408.30661743 10.35529785 408.30661743 10.35529785 406.32397461 10.71777344 C397.42015328 12.40047523 388.72904898 14.57875391 380 17 C377.51464644 17.66787177 375.02897013 18.33454365 372.54296875 19 C370.09096682 19.66600795 367.63914337 20.33267336 365.1875 21 C363.95580078 21.33 362.72410156 21.66 361.45507812 22 C355.21646684 23.70355679 349.20642014 25.57038337 343.24145508 28.07128906 C339.79848214 29.49782964 336.27593742 30.67251511 332.75 31.875 C326.13189788 34.16932431 319.73157441 36.74829807 313.3203125 39.57421875 C310.1192032 40.94881274 306.89456777 42.17401626 303.625 43.375 C290.51937647 48.35704091 278.20432885 55.39069079 265.86572266 62.00097656 C264.24968324 62.86630414 262.63094311 63.72658444 261.01171875 64.5859375 C242.79428531 74.35587958 225.68429209 85.82781206 209 98 C207.52466797 99.07507813 207.52466797 99.07507813 206.01953125 100.171875 C197.45616312 106.50483821 189.19888763 113.20459897 181 120 C180.10643799 120.74056641 180.10643799 120.74056641 179.19482422 121.49609375 C164.34458864 133.86919435 149.59003969 147.03874405 136.9921875 161.7265625 C135.43839896 163.49970942 133.8641161 165.23621698 132.2578125 166.9609375 C131.77223877 167.48333008 131.28666504 168.00572266 130.78637695 168.54394531 C129.82996845 169.56990216 128.87034958 170.59287916 127.90698242 171.61230469 C125.69374794 173.99168116 123.77490706 176.3404694 121.98046875 179.0546875 C119.91739255 182.12285211 117.63559589 184.41592704 115 187 C113.08037166 189.19829544 111.25508341 191.46697482 109.4375 193.75 C108.66140381 194.72356445 108.66140381 194.72356445 107.86962891 195.71679688 C87.82419393 221.1355473 69.18738319 249.49182716 55.79248047 278.9831543 C53.75371404 283.46325623 51.51986213 287.76421214 49.125 292.0625 C40.309892 308.12539111 34.06145769 325.74413936 28 343 C27.34257813 344.86591797 27.34257813 344.86591797 26.671875 346.76953125 C23.34303165 356.49270345 20.50137301 366.34526648 17.76611328 376.24951172 C17.02722503 378.90225711 16.26281395 381.54659617 15.49609375 384.19140625 C6.47434596 416.09687024 2.50933681 449.9507284 1 483 C0.67 483 0.34 483 0 483 C0 323.61 0 164.22 0 0 Z " fill="#c3eca4" transform="translate(0,0)"/>
<path d="M0 0 C157.74 0 315.48 0 478 0 C478 156.09 478 312.18 478 473 C477.67 473 477.34 473 477 473 C476.95625244 472.1013623 476.95625244 472.1013623 476.91162109 471.18457031 C474.82312216 431.790905 466.9840376 392.00431358 454.82080078 354.52978516 C454.26927085 352.82991806 453.72081371 351.12905118 453.17529297 349.42724609 C448.1795632 333.86194194 442.96782598 318.12758123 435.31640625 303.6328125 C433.90132056 300.80264112 432.65966795 297.92608451 431.41381836 295.01855469 C424.54098958 279.04898103 415.92781777 263.90258813 407 249 C406.45601562 248.08863281 405.91203125 247.17726562 405.3515625 246.23828125 C403.36743194 242.92333141 401.3839453 239.61090363 399.328125 236.33984375 C398 234 398 234 398 232 C397.34 232 396.68 232 396 232 C394.59765625 230.20703125 394.59765625 230.20703125 393.0625 227.8125 C392.53269531 226.98878906 392.00289062 226.16507813 391.45703125 225.31640625 C390.97621094 224.55199219 390.49539063 223.78757813 390 223 C389.13375 221.63875 389.13375 221.63875 388.25 220.25 C386.94139363 217.89450854 385.93750674 215.52405661 385 213 C384.34 213 383.68 213 383 213 C381.79833984 211.59814453 381.79833984 211.59814453 380.4609375 209.6328125 C379.96682373 208.91665771 379.47270996 208.20050293 378.96362305 207.46264648 C378.43937744 206.69122314 377.91513184 205.9197998 377.375 205.125 C371.1594932 196.14869717 364.63983971 187.64339683 357.25 179.59375 C356 178 356 178 356 176 C355.34 176 354.68 176 354 176 C352.73376779 174.57008411 351.53996684 173.07605731 350.375 171.5625 C339.58579605 158.06726594 327.27534829 145.11994139 314.15625 133.875 C311.6000761 131.65224009 309.11621559 129.35777728 306.625 127.0625 C302.43522088 123.24105311 298.14026607 119.64316397 293.6796875 116.14453125 C289.92331052 113.13833451 286.2767809 110.00644093 282.64111328 106.85571289 C279.24941389 103.94770946 275.74957949 101.42381724 272 99 C270.47520843 97.94318831 268.95425067 96.88082003 267.4375 95.8125 C266.13619141 94.90177734 266.13619141 94.90177734 264.80859375 93.97265625 C262.90056308 92.63252344 260.99705888 91.28592752 259.09765625 89.93359375 C250.65498659 83.98220366 241.92718619 78.59306193 233.08056641 73.26513672 C230.25818256 71.54892068 227.47691734 69.76916353 224.6875 68 C210.48529093 59.282166 195.58896436 52.11427801 180.15014648 45.88818359 C177.92136544 44.96751759 175.7200432 43.99793325 173.51953125 43.01171875 C158.58381051 36.32333744 143.25332349 30.88176954 127.68554688 25.86669922 C125.3751481 25.12107052 123.06970761 24.36249928 120.765625 23.59765625 C81.51519259 10.85348058 40.91252853 4.99867894 0 1 C0 0.67 0 0.34 0 0 Z " fill="#c3eca4" transform="translate(546,0)"/>
<path d="M0 0 C0.33 0 0.66 0 1 0 C1.06469482 0.86761963 1.12938965 1.73523926 1.19604492 2.62915039 C4.98780003 52.20187317 12.98996528 103.62153113 31.796875 149.94921875 C32.99958426 152.99894579 34.06830038 156.0717766 35.12353516 159.17456055 C37.91963479 167.36209985 41.19811004 175.13164412 44.99316406 182.90820312 C46.09270022 185.19259346 47.15355777 187.49267973 48.2109375 189.796875 C56.08415099 206.84090619 65.1652729 223.22886226 75.21875 239.0859375 C76.6799271 241.47637196 78.02935273 243.87844372 79.36328125 246.33984375 C81.85099456 250.84946977 84.67540072 255.01530542 87.6875 259.1875 C88.46806763 260.27998047 88.46806763 260.27998047 89.2644043 261.39453125 C90.3277179 262.88203652 91.39288673 264.36821746 92.45996094 265.85302734 C93.90054734 267.86135278 95.33132284 269.87617806 96.7578125 271.89453125 C101.3517148 278.38655438 106.01967902 284.7966356 111 291 C111.68578125 291.85980469 112.3715625 292.71960938 113.078125 293.60546875 C117.75304146 299.40007674 122.62191333 304.96457367 127.66015625 310.4453125 C129.65834848 312.62697815 131.62148889 314.83011309 133.5625 317.0625 C134.70811833 318.37518767 135.85395929 319.68768107 137 321 C137.639375 321.73347656 138.27875 322.46695312 138.9375 323.22265625 C147.97315842 333.43760098 157.58106112 343.19373166 168 352 C169.15634419 353.00621014 170.31113298 354.01420899 171.46484375 355.0234375 C178.51470492 361.1852469 185.60335798 367.25459611 193 373 C193.81742676 373.63711914 193.81742676 373.63711914 194.65136719 374.28710938 C196.43191365 375.67360849 198.21525124 377.05641523 200 378.4375 C200.84715576 379.09431763 200.84715576 379.09431763 201.71142578 379.7644043 C204.72124383 382.09025388 204.72124383 382.09025388 208 384 C208 384.66 208 385.32 208 386 C208.70125 386.2475 209.4025 386.495 210.125 386.75 C213.39514548 388.17180238 216.141122 389.87246288 219 392 C219 392.66 219 393.32 219 394 C219.99773437 394.3403125 219.99773437 394.3403125 221.015625 394.6875 C224.89094356 396.39182858 228.23550915 398.65552982 231.75 401 C254.50195215 415.93427414 278.43445612 429.28609319 303.54223633 439.80493164 C307.43469329 441.44022858 311.26818791 443.09939153 315.01953125 445.0390625 C319.4808925 447.31161025 324.10139474 449.0075241 328.8125 450.6875 C329.76116943 451.0278125 330.70983887 451.368125 331.68725586 451.71875 C334.78786383 452.82315177 337.89282854 453.91420666 341 455 C342.05251953 455.36818848 343.10503906 455.73637695 344.18945312 456.11572266 C377.88106187 467.81617711 411.53282965 476.11669787 447 480 C447 480.33 447 480.66 447 481 C299.49 481 151.98 481 0 481 C0 322.27 0 163.54 0 0 Z " fill="#c3eca4" transform="translate(0,543)"/>
<path d="M0 0 C0.33 0 0.66 0 1 0 C1 156.75 1 313.5 1 475 C-146.18 475 -293.36 475 -445 475 C-445 474.67 -445 474.34 -445 474 C-444.06824951 473.90295776 -444.06824951 473.90295776 -443.11767578 473.80395508 C-420.31372044 471.37689424 -397.97319697 467.64305955 -376 461 C-375.08992187 460.73445313 -374.17984375 460.46890625 -373.2421875 460.1953125 C-370.82133449 459.48423686 -368.41091162 458.7440635 -366 458 C-364.84886719 457.65453125 -363.69773437 457.3090625 -362.51171875 456.953125 C-347.74214253 452.47987198 -333.37934185 446.95925572 -319 441.375 C-317.60382446 440.83504395 -317.60382446 440.83504395 -316.17944336 440.28417969 C-309.67969334 437.74006954 -303.33281484 434.93255611 -297 432 C-295.66048124 431.39381258 -294.32066921 430.78827252 -292.98046875 430.18359375 C-274.52133549 421.74182881 -257.01098314 411.57230036 -239.65869141 401.08007812 C-238.55960449 400.41943359 -237.46051758 399.75878906 -236.328125 399.078125 C-235.3474707 398.48418945 -234.36681641 397.89025391 -233.35644531 397.27832031 C-231 396 -231 396 -229 396 C-229 395.34 -229 394.68 -229 394 C-226.91796875 392.52734375 -226.91796875 392.52734375 -224.1875 390.9375 C-223.29417969 390.41027344 -222.40085937 389.88304687 -221.48046875 389.33984375 C-219 388 -219 388 -216 387 C-216 386.34 -216 385.68 -216 385 C-213.55363037 383.17517359 -211.09209322 381.45291088 -208.5625 379.75 C-196.43877992 371.39531207 -185.18280136 362.04312279 -174.33984375 352.08984375 C-170.84935667 348.97229686 -167.20096615 346.05837772 -163.54296875 343.140625 C-160.86429276 340.8857641 -158.45130399 338.50096862 -156 336 C-154.68115816 334.68992408 -153.36069603 333.3814783 -152.0390625 332.07421875 C-150.56765116 330.6120367 -149.0962984 329.1497957 -147.625 327.6875 C-146.89539063 326.96626953 -146.16578125 326.24503906 -145.4140625 325.50195312 C-141.32085419 321.42701806 -137.41132318 317.26452741 -133.64404297 312.88696289 C-131.5989629 310.5397066 -129.46631892 308.28679335 -127.3215332 306.03100586 C-120.86695932 299.22948735 -114.96280249 292.14332138 -109.28662109 284.68505859 C-108.05272059 283.06904697 -106.80209807 281.46584489 -105.55078125 279.86328125 C-92.1604595 262.76943858 -92.1604595 262.76943858 -80.47265625 244.51171875 C-78.11768912 240.49515678 -75.54220476 236.61923799 -72.98144531 232.73144531 C-71.30741891 230.16305615 -69.97459111 227.92377333 -69 225 C-68.34 225 -67.68 225 -67 225 C-66.89558594 224.45472656 -66.79117187 223.90945313 -66.68359375 223.34765625 C-65.83869913 220.44604673 -64.52838179 218.08298549 -63.0625 215.4375 C-62.43730469 214.29539062 -61.81210937 213.15328125 -61.16796875 211.9765625 C-60.65049072 211.03151855 -60.65049072 211.03151855 -60.12255859 210.06738281 C-49.84066634 191.41305964 -49.84066634 191.41305964 -41.21484375 171.9765625 C-40.27923763 169.68417708 -39.29870155 167.45318216 -38.25390625 165.2109375 C-32.48561205 152.78050779 -28.14313574 140.05180653 -24 127 C-23.52128262 125.51548004 -23.04216309 124.03108966 -22.5625 122.546875 C-15.67499905 101.06206215 -10.57371263 79.47337797 -7.0078125 57.19921875 C-6.35943537 53.15098542 -5.66779796 49.11484709 -4.9296875 45.08203125 C-2.22588106 30.10195137 -0.8699738 15.19271322 0 0 Z " fill="#c3eca4" transform="translate(1023,549)"/>
<path d="M0 0 C8.91 0 17.82 0 27 0 C27 11.88 27 23.76 27 36 C39.54 36 52.08 36 65 36 C65 45.24 65 54.48 65 64 C52.46 64 39.92 64 27 64 C27 76.21 27 88.42 27 101 C17.76 101 8.52 101 -1 101 C-1.020625 97.308125 -1.04125 93.61625 -1.0625 89.8125 C-1.071604 88.6778833 -1.08070801 87.5432666 -1.09008789 86.37426758 C-1.09258545 85.43220459 -1.09508301 84.4901416 -1.09765625 83.51953125 C-1.10289307 82.58214111 -1.10812988 81.64475098 -1.11352539 80.67895508 C-0.94166526 75.10957791 -0.42735505 69.55561568 0 64 C-12.54 64 -25.08 64 -38 64 C-38 54.76 -38 45.52 -38 36 C-25.46 36 -12.92 36 0 36 C0 24.12 0 12.24 0 0 Z " fill="#dffbe4" transform="translate(324,669)"/>
<path d="M0 0 C4.59832209 3.75373232 7.5786213 7.25110019 8.47265625 13.25390625 C8.64227821 18.67443415 8.29422371 22.9755868 5.0625 27.5 C0.73603063 31.83858833 -3.47793711 34.76940674 -9.6875 34.9375 C-15.20971273 34.82347201 -18.77070066 33.04129828 -22.9375 29.5 C-27.94810647 23.97548517 -28.40464903 20.20395995 -28.34765625 12.84375 C-27.72477155 7.76575668 -25.67753803 4.87642322 -21.9375 1.5 C-16.10940369 -2.94045433 -6.57650595 -3.24498649 0 0 Z " fill="#020202" transform="translate(673.9375,666.5)"/>
<path d="M0 0 C8.77990493 -0.19046495 17.46876859 0.08276536 26.23046875 0.65625 C27.76302307 0.75622284 27.76302307 0.75622284 29.32653809 0.85821533 C31.4880231 0.99965908 33.64950161 1.14120231 35.81097412 1.28283691 C71.9854785 3.60941971 108.11957493 3.64540706 144.33203125 2.22265625 C154.55130249 1.84016481 164.77555748 1.90518066 175 2 C174.67 2.66 174.34 3.32 174 4 C173.41734375 3.98839844 172.8346875 3.97679687 172.234375 3.96484375 C166.41811554 3.90082832 160.73504513 4.24817999 154.9453125 4.78125 C151.47460336 5.0390215 148.04926305 5.0169299 144.57202148 4.96679688 C142.12432901 4.99839499 139.78443522 5.20958284 137.35546875 5.5 C132.02935478 6.0587796 126.78700086 6.07340571 121.4375 6 C113.68350691 5.93603187 106.00925223 6.10572195 98.27905273 6.73242188 C93.37799373 7.10189485 93.37799373 7.10189485 91.18774414 6.51147461 C88.30258902 5.83695168 85.62209557 5.90682619 82.66015625 5.9375 C80.8184082 5.94910156 80.8184082 5.94910156 78.93945312 5.9609375 C76.35872356 5.98693981 73.77799439 6.01298136 71.19726562 6.0390625 C69.96814453 6.04679688 68.73902344 6.05453125 67.47265625 6.0625 C66.35125244 6.07410156 65.22984863 6.08570313 64.07446289 6.09765625 C61.24406407 6.00775237 58.75773918 5.59715054 56 5 C53.60456711 4.9561978 51.20800409 4.9602818 48.8125 5 C43.5824748 5.0559497 38.49087237 4.84140426 33.296875 4.22265625 C29.52520552 3.85703523 25.78641588 3.93892878 22 4 C22 3.34 22 2.68 22 2 C20.86111328 2.10828125 20.86111328 2.10828125 19.69921875 2.21875 C18.70535156 2.3115625 17.71148437 2.404375 16.6875 2.5 C15.70136719 2.5928125 14.71523438 2.685625 13.69921875 2.78125 C11 3 11 3 8 3 C8 2.34 8 1.68 8 1 C7.01 1.33 6.02 1.66 5 2 C2.3125 1.5625 2.3125 1.5625 0 1 C0 0.67 0 0.34 0 0 Z " fill="#f2fbf4" transform="translate(414,863)"/>
<path d="M0 0 C12.21 0 24.42 0 37 0 C37 9.24 37 18.48 37 28 C24.46 28 11.92 28 -1 28 C-1 37.9 -1 47.8 -1 58 C-1.33 58 -1.66 58 -2 58 C-2 47.77 -2 37.54 -2 27 C10.21 27 22.42 27 35 27 C35 18.75 35 10.5 35 2 C23.12 2 11.24 2 -1 2 C-0.67 1.34 -0.34 0.68 0 0 Z " fill="#eaf9ed" transform="translate(352,705)"/>
<path d="M0 0 C0.66 0 1.32 0 2 0 C2 0.66 2 1.32 2 2 C2.66 2 3.32 2 4 2 C8.76744186 6.30232558 8.76744186 6.30232558 10 10 C10.66 10 11.32 10 12 10 C14.59607768 12.39112418 16.8603034 14.81664822 19 17.625 C21.14265613 20.16940415 23.13795671 21.35432511 26 23 C27.37562854 24.28965176 28.70766393 25.62689293 30 27 C33.17943305 30.43008507 33.17943305 30.43008507 37 33 C37 33.66 37 34.32 37 35 C37.66 35 38.32 35 39 35 C39 35.66 39 36.32 39 37 C41.97 37.495 41.97 37.495 45 38 C45 39.32 45 40.64 45 42 C46.32 42.33 47.64 42.66 49 43 C49 43.66 49 44.32 49 45 C49.61875 45.103125 50.2375 45.20625 50.875 45.3125 C53 46 53 46 55 49 C51.3879469 48.39389585 49.36460856 46.94040168 46.5625 44.625 C45.67949219 43.89667969 44.79648438 43.16835938 43.88671875 42.41796875 C42.93410156 41.62003906 41.98148438 40.82210937 41 40 C40.01644531 39.19175781 39.03289062 38.38351562 38.01953125 37.55078125 C26.48923882 28.01116096 15.65672064 17.68600846 5 7.1875 C4.48945068 6.69000244 3.97890137 6.19250488 3.45288086 5.67993164 C2.26201379 4.49199208 1.1248934 3.25059171 0 2 C0 1.34 0 0.68 0 0 Z " fill="#f4f8f5" transform="translate(139,866)"/>
<path d="M0 0 C0.99 0.33 1.98 0.66 3 1 C2.88152026 7.9194598 2.75671736 14.83878564 2.62768555 21.75805664 C2.58459016 24.10796577 2.5428993 26.45790112 2.50268555 28.80786133 C2.44436222 32.20141475 2.38085243 35.59483923 2.31640625 38.98828125 C2.29969376 40.02519608 2.28298126 41.0621109 2.26576233 42.13044739 C2.13292605 48.79188009 1.69347798 55.37350623 1 62 C0.67 62 0.34 62 0 62 C0 41.54 0 21.08 0 0 Z " fill="#3fbd71" transform="translate(623,550)"/>
<path d="M0 0 C2.7824349 1.39121745 3.55210065 3.30164212 5 6 C5 6.66 5 7.32 5 8 C6.32 8.33 7.64 8.66 9 9 C8.67 9.99 8.34 10.98 8 12 C8.66 12 9.32 12 10 12 C10 12.66 10 13.32 10 14 C10.99 14.33 11.98 14.66 13 15 C13.66666667 16.33333333 14.33333333 17.66666667 15 19 C16.32848691 20.00642948 17.66150329 21.00692179 19 22 C19.33 22.99 19.66 23.98 20 25 C21.98260426 26.68732277 23.9832342 28.35366057 26 30 C27.33333333 32 28.66666667 34 30 36 C32.99705917 40.0692549 32.99705917 40.0692549 37 43 C36.67 43.99 36.34 44.98 36 46 C30.96734073 41.25862004 26.59045515 36.14447648 22.2578125 30.76171875 C20.21034594 28.25729166 18.10460522 25.83831265 15.9375 23.4375 C9.60617833 16.37467104 3.84022101 9.16787296 -1 1 C-0.67 0.67 -0.34 0.34 0 0 Z " fill="#f3f8f4" transform="translate(101,819)"/>
<path d="M0 0 C-0.33 0.66 -0.66 1.32 -1 2 C-1.58265625 1.98839844 -2.1653125 1.97679687 -2.765625 1.96484375 C-8.58188446 1.90082832 -14.26495487 2.24817999 -20.0546875 2.78125 C-23.57572366 3.04275932 -27.0504138 3.01711125 -30.578125 2.9609375 C-33.05999819 3.00096771 -35.41717444 3.28841879 -37.875 3.625 C-43.75760196 4.30880564 -49.24469542 3.19654958 -55 2 C-55 1.67 -55 1.34 -55 1 C-36.65849264 0.31691692 -18.35747468 -0.17024338 0 0 Z " fill="#e7f8ec" transform="translate(589,865)"/>
<path d="M0 0 C0.66 0.33 1.32 0.66 2 1 C0.63701122 2.61438449 -0.7409939 4.21609692 -2.125 5.8125 C-3.27355469 7.15248047 -3.27355469 7.15248047 -4.4453125 8.51953125 C-7.14654186 11.14228453 -9.5905968 12.45699096 -13 14 C-13.99 14.680625 -14.98 15.36125 -16 16.0625 C-19.00037291 18.00024084 -21.61005795 18.94064311 -25 20 C-25.90363281 20.45761719 -26.80726563 20.91523437 -27.73828125 21.38671875 C-31.16325414 23.08074726 -34.59813985 24.44198023 -38.1875 25.75 C-39.39792969 26.19859375 -40.60835937 26.6471875 -41.85546875 27.109375 C-45 28 -45 28 -48 27 C-47.34257813 26.731875 -46.68515625 26.46375 -46.0078125 26.1875 C-42.66399153 24.81009949 -39.33033796 23.40958872 -36 22 C-35.2879541 21.6999707 -34.5759082 21.39994141 -33.84228516 21.09082031 C-21.20793766 15.73575663 -9.30342887 10.44651228 0 0 Z " fill="#effbf2" transform="translate(839,803)"/>
<path d="M0 0 C21.45 0 42.9 0 65 0 C65 0.33 65 0.66 65 1 C61.03551631 1.31388537 57.07034005 1.61654172 53.10424805 1.90942383 C51.10226257 2.05951888 49.10092293 2.21815003 47.09960938 2.37695312 C40.97674804 2.82421504 35.18983921 3.14010732 29.1081543 2.25561523 C25.04725752 1.76322856 20.95855783 1.93784539 16.875 2 C11.1218091 2.08677513 5.67758654 1.98473046 0 1 C0 0.67 0 0.34 0 0 Z " fill="#f7fdf9" transform="translate(476,867)"/>
<path d="M0 0 C0.495 0.99 0.495 0.99 1 2 C-0.175625 1.979375 -1.35125 1.95875 -2.5625 1.9375 C-6.46093779 1.9375 -10.14172421 2.41144946 -14 3 C-17.66252134 3.3833557 -21.33072366 3.68912421 -25 4 C-26.11761719 4.10570312 -27.23523438 4.21140625 -28.38671875 4.3203125 C-29.51722656 4.42085937 -30.64773438 4.52140625 -31.8125 4.625 C-33.36904297 4.76808594 -33.36904297 4.76808594 -34.95703125 4.9140625 C-38.11168335 5.00315409 -40.91198396 4.61852638 -44 4 C-44 3.67 -44 3.34 -44 3 C-39.66314437 2.56523523 -35.32559844 2.13837317 -30.98730469 1.71826172 C-29.5170486 1.57482993 -28.04698746 1.42938279 -26.57714844 1.28173828 C-17.68896076 0.39049436 -8.94698661 -0.23172052 0 0 Z " fill="#f1fbf4" transform="translate(635,861)"/>
<path d="M0 0 C0.99 0.66 1.98 1.32 3 2 C1.20972753 4.1881108 0.03915342 4.98725238 -2.6875 5.875 C-6.31069031 7.10551746 -9.02695381 8.83299017 -12.16796875 10.9765625 C-14 12 -14 12 -17 12 C-17 12.66 -17 13.32 -17 14 C-18.65 14.33 -20.3 14.66 -22 15 C-22 14.01 -22 13.02 -22 12 C-20.234375 10.60546875 -20.234375 10.60546875 -17.75 9.1875 C-16.85023438 8.67316406 -15.95046875 8.15882812 -15.0234375 7.62890625 C-10.07550502 4.96315968 -5.05751269 2.45054739 0 0 Z " fill="#c0ebc7" transform="translate(273,57)"/>
<path d="M0 0 C0 0.99 0 1.98 0 3 C-1.953125 2.93489583 -3.90625 2.86979167 -5.859375 2.8046875 C-8.01537401 2.85397155 -8.01537401 2.85397155 -9.71875 3.96875 C-13.27155659 5.57481325 -16.89203391 5.47144911 -20.75 5.625 C-21.93916016 5.68300781 -21.93916016 5.68300781 -23.15234375 5.7421875 C-25.10119416 5.836108 -27.05056451 5.91912822 -29 6 C-29 5.01 -29 4.02 -29 3 C-25.48026001 2.49209841 -21.95905958 1.99511477 -18.4375 1.5 C-17.44685547 1.35691406 -16.45621094 1.21382813 -15.43554688 1.06640625 C-10.23532412 0.34079377 -5.25047582 -0.17673411 0 0 Z " fill="#c1ecc9" transform="translate(461,2)"/>
<path d="M0 0 C0.66 0 1.32 0 2 0 C1.67 1.98 1.34 3.96 1 6 C0.34 6 -0.32 6 -1 6 C-1.13148438 6.79664063 -1.13148438 6.79664063 -1.265625 7.609375 C-2.26136507 10.85082672 -3.94323929 13.38363527 -5.75 16.25 C-6.10835937 16.82194092 -6.46671875 17.39388184 -6.8359375 17.9831543 C-7.88631891 19.65814426 -8.94305106 21.3291465 -10 23 C-11.00080217 24.60366633 -12.00096676 26.20773108 -13 27.8125 C-13.66 28.864375 -14.32 29.91625 -15 31 C-15.66 30.67 -16.32 30.34 -17 30 C-16.505 28.515 -16.505 28.515 -16 27 C-15.34 27 -14.68 27 -14 27 C-12.76737718 24.09453191 -11.81570311 21.30888665 -11 18.25 C-10.67 17.1775 -10.34 16.105 -10 15 C-9.34 14.67 -8.68 14.34 -8 14 C-7.67 13.34 -7.34 12.68 -7 12 C-6 10 -6 10 -4 9 C-3.27840576 7.35636866 -2.60648579 5.68949614 -2 4 C-1.34 4 -0.68 4 0 4 C0 2.68 0 1.36 0 0 Z " fill="#edf6ef" transform="translate(955,768)"/>
<path d="M0 0 C0.66 0.33 1.32 0.66 2 1 C-2.73429656 6.02514072 -7.83946539 10.39721424 -13.21484375 14.72265625 C-16.57943924 17.47379113 -19.81092637 20.35160788 -23.02734375 23.2734375 C-26.98786954 26.73987789 -26.98786954 26.73987789 -29 28 C-29.99 27.67 -30.98 27.34 -32 27 C-31.34 27 -30.68 27 -30 27 C-29.67 26.01 -29.34 25.02 -29 24 C-26.35509259 22.19032651 -24.04582887 21.01527629 -21 20 C-20.67 19.01 -20.34 18.02 -20 17 C-14.53488372 12 -14.53488372 12 -12 12 C-12 11.34 -12 10.68 -12 10 C-11.34 10 -10.68 10 -10 10 C-10 9.34 -10 8.68 -10 8 C-8.37946188 6.61096733 -6.70294787 5.28667172 -5 4 C-3.6078125 2.88625 -3.6078125 2.88625 -2.1875 1.75 C-1.465625 1.1725 -0.74375 0.595 0 0 Z " fill="#f8fcf9" transform="translate(858,891)"/>
<path d="M0 0 C0 0.33 0 0.66 0 1 C-4.72562751 2.77211032 -9.02187623 3.43795377 -14 4 C-14.598125 4.15210938 -15.19625 4.30421875 -15.8125 4.4609375 C-18.80878386 5.19930745 -21.82161541 5.61926675 -24.875 6.0625 C-26.06867187 6.23910156 -27.26234375 6.41570313 -28.4921875 6.59765625 C-31.70254049 6.96588159 -34.77300889 7.07401356 -38 7 C-34.23675675 3.23675675 -28.03300691 3.29320554 -22.9375 2.375 C-21.73416016 2.14554688 -20.53082031 1.91609375 -19.29101562 1.6796875 C-12.75040705 0.47944475 -6.64815628 -0.2719375 0 0 Z " fill="#effaf1" transform="translate(730,847)"/>
<path d="M0 0 C8.52825476 0.57524514 16.79995913 1.94829402 25.1875 3.5625 C26.42564453 3.79646484 27.66378906 4.03042969 28.93945312 4.27148438 C31.96054425 4.84304216 34.98065615 5.41929542 38 6 C35 8 35 8 32.6953125 7.7578125 C31.84710938 7.54898438 30.99890625 7.34015625 30.125 7.125 C26.63742574 6.28243619 23.58666619 5.9329025 20 6 C18.66158328 5.68770276 17.32860925 5.35169068 16 5 C13.66905466 4.6503582 11.33595238 4.31445513 9 4 C9 3.34 9 2.68 9 2 C8.2575 2.226875 7.515 2.45375 6.75 2.6875 C4 3 4 3 1.828125 1.51953125 C1.22484375 1.01808594 0.6215625 0.51664063 0 0 Z " fill="#f1fbf4" transform="translate(303,847)"/>
<path d="M0 0 C-3.90875207 2.13597735 -7.62571348 2.55942438 -12 3 C-13.50046637 3.18373058 -15.00049598 3.37107395 -16.5 3.5625 C-17.655 3.706875 -18.81 3.85125 -20 4 C-20.33 4.99 -20.66 5.98 -21 7 C-21.33 6.34 -21.66 5.68 -22 5 C-24.31 5.66 -26.62 6.32 -29 7 C-29 5.66666667 -29 4.33333333 -29 3 C-19.21174564 0.88905426 -10.07596838 -0.465841 0 0 Z " fill="#b9e5c2" transform="translate(428,8)"/>
<path d="M0 0 C0 0.66 0 1.32 0 2 C-1.90844727 3.35693359 -1.90844727 3.35693359 -4.56640625 4.8984375 C-5.52740234 5.46046875 -6.48839844 6.0225 -7.47851562 6.6015625 C-8.49623047 7.18679688 -9.51394531 7.77203125 -10.5625 8.375 C-11.55314453 8.9525 -12.54378906 9.53 -13.56445312 10.125 C-15.49605175 11.24930591 -17.43038925 12.36892192 -19.36767578 13.48339844 C-20.98561071 14.41556425 -22.59954611 15.35476572 -24.20654297 16.30566406 C-28.7845402 19 -28.7845402 19 -31 19 C-30 16 -30 16 -27.78515625 14.61328125 C-26.88667969 14.18402344 -25.98820313 13.75476563 -25.0625 13.3125 C-24.16660156 12.87550781 -23.27070312 12.43851563 -22.34765625 11.98828125 C-20 11 -20 11 -18 11 C-18 10.34 -18 9.68 -18 9 C-17.29875 8.7525 -16.5975 8.505 -15.875 8.25 C-12.62098172 6.83520944 -9.90903077 5.02367358 -7 3 C-2.5 0 -2.5 0 0 0 Z " fill="#f3f6f4" transform="translate(792,944)"/>
<path d="M0 0 C3 2 3 2 3.625 4.4375 C3.74875 5.283125 3.8725 6.12875 4 7 C4.33 7.99 4.66 8.98 5 10 C5.66 10.33 6.32 10.66 7 11 C7.625 14.0625 7.625 14.0625 8 17 C8.99 17.33 9.98 17.66 11 18 C11.37756808 19.32148827 11.7018576 20.65835921 12 22 C12.99414593 23.67016516 13.9935725 25.33720673 15 27 C15 27.66 15 28.32 15 29 C14.34 29 13.68 29 13 29 C10.84678992 25.08734539 8.70372416 21.16922495 6.5625 17.25 C5.95083984 16.13882813 5.33917969 15.02765625 4.70898438 13.8828125 C4.12568359 12.81289063 3.54238281 11.74296875 2.94140625 10.640625 C2.40201416 9.65610352 1.86262207 8.67158203 1.30688477 7.65722656 C0.18945816 5.38521626 -0.62966806 3.49644363 -1 1 C-0.67 0.67 -0.34 0.34 0 0 Z " fill="#eff8f1" transform="translate(56,745)"/>
<path d="M0 0 C7.76186957 1.17314725 13.90840362 6.08906249 18.71484375 12.140625 C21.90521716 16.75648441 24.72450459 21.20396331 24 27 C22 24 22 24 21.0625 20.375 C20.711875 19.26125 20.36125 18.1475 20 17 C19.01 16.67 18.02 16.34 17 16 C16.54367187 14.84371094 16.54367187 14.84371094 16.078125 13.6640625 C13.55685481 7.43396732 5.96306251 3.59928366 0 1 C0 0.67 0 0.34 0 0 Z " fill="#e5f8e9" transform="translate(676,648)"/>
<path d="M0 0 C0.33 0 0.66 0 1 0 C2.53959719 4.86913259 3.33918522 9.24091974 3.625 14.375 C3.66294678 15.05111328 3.70089355 15.72722656 3.73999023 16.42382812 C4.13689064 24.27903615 4.08757546 32.13767013 4 40 C3.67 40 3.34 40 3 40 C2.56613029 35.91131645 2.13919657 31.82196953 1.71826172 27.73193359 C1.57458877 26.34502354 1.42912816 24.95829732 1.28173828 23.57177734 C0.44656711 15.7029877 -0.25502083 7.92217477 0 0 Z " fill="#f0fbf2" transform="translate(840,702)"/>
<path d="M0 0 C-2.15864142 2.45229708 -3.68570619 3.44211615 -6.87109375 4.1328125 C-7.61037109 4.29910156 -8.34964844 4.46539063 -9.11132812 4.63671875 C-9.87896484 4.79785156 -10.64660156 4.95898438 -11.4375 5.125 C-12.20126953 5.29386719 -12.96503906 5.46273437 -13.75195312 5.63671875 C-15.17782688 5.95192496 -16.60473354 6.26252142 -18.03295898 6.56689453 C-20.04339711 6.97776937 -20.04339711 6.97776937 -22.12524414 7.67919922 C-22.74391357 7.78506348 -23.36258301 7.89092773 -24 8 C-24.66 7.34 -25.32 6.68 -26 6 C-21.52038624 4.46294551 -17.00754746 3.11262569 -12.4375 1.875 C-11.79103516 1.69324219 -11.14457031 1.51148438 -10.47851562 1.32421875 C-6.90075801 0.35607681 -3.70731675 -0.21347313 0 0 Z " fill="#e9f9ed" transform="translate(774,836)"/>
<path d="M0 0 C0.33 0.66 0.66 1.32 1 2 C1.66 2 2.32 2 3 2 C4.49047154 4.91319438 5.90131391 7.70394173 6.9375 10.8125 C7.288125 11.534375 7.63875 12.25625 8 13 C8.99 13.2165625 8.99 13.2165625 10 13.4375 C10.66 13.623125 11.32 13.80875 12 14 C13.0625 16.8125 13.0625 16.8125 14 20 C15.51553153 22.30166675 15.51553153 22.30166675 17 24 C16.67 24.66 16.34 25.32 16 26 C13.39004211 22.55556578 10.79329137 19.10184128 8.21484375 15.63378906 C7.09386244 14.1262314 5.96898266 12.62157464 4.84375 11.1171875 C3.90015625 9.82167969 3.90015625 9.82167969 2.9375 8.5 C2.36902344 7.7265625 1.80054687 6.953125 1.21484375 6.15625 C0 4 0 4 0 0 Z " fill="#f3fbf6" transform="translate(83,793)"/>
<path d="M0 0 C-2.5356056 2.5356056 -4.52769983 2.43102135 -7.98828125 2.78515625 C-10.09187063 2.97899403 -10.09187063 2.97899403 -12.5 3.5 C-22.64823261 5.52964652 -22.64823261 5.52964652 -27 3 C-17.93983713 1.28456475 -9.24494805 -0.16508836 0 0 Z " fill="#e8f9ed" transform="translate(689,854)"/>
<path d="M0 0 C6.39651259 -0.15366997 12.27698902 0.35153626 18.5625 1.5 C19.38041016 1.64308594 20.19832031 1.78617188 21.04101562 1.93359375 C23.02854504 2.28228312 25.01445896 2.64016085 27 3 C27 3.66 27 4.32 27 5 C25.741875 5.020625 24.48375 5.04125 23.1875 5.0625 C22.47980469 5.07410156 21.77210938 5.08570313 21.04296875 5.09765625 C19 5 19 5 16 4 C15.2575 4.020625 14.515 4.04125 13.75 4.0625 C8.75225816 3.94891496 4.38583293 2.28408805 0 0 Z " fill="#e9faee" transform="translate(342,854)"/>
<path d="M0 0 C4.12211793 0.62249295 7.34165592 2.02149403 11.0625 3.875 C17.24411909 6.8105634 23.31153407 8.62615294 30 10 C30 10.33 30 10.66 30 11 C22.61908094 11.47618833 17.67834473 10.02958023 11 7 C10.14535156 6.66871094 9.29070313 6.33742188 8.41015625 5.99609375 C5.3044943 4.71255437 2.71955642 2.96061044 0 1 C0 0.67 0 0.34 0 0 Z " fill="#f1fcf3" transform="translate(550,806)"/>
<path d="M0 0 C-1.75 5.75 -1.75 5.75 -4 8 C-4.7166207 10.31847874 -5.38242027 12.65319703 -6 15 C-6.33 15.99 -6.66 16.98 -7 18 C-7.99 18 -8.98 18 -10 18 C-9.54705135 16.24859857 -9.08741252 14.49892656 -8.625 12.75 C-8.36976562 11.77546875 -8.11453125 10.8009375 -7.8515625 9.796875 C-4.86871508 0 -4.86871508 0 0 0 Z " fill="#c6efcd" transform="translate(61,273)"/>
<path d="M0 0 C0.66 0 1.32 0 2 0 C0.58460683 3.20991748 -1.11962032 5.37654845 -3.58984375 7.85546875 C-4.29173828 8.55994141 -4.99363281 9.26441406 -5.71679688 9.99023438 C-6.44962891 10.71533203 -7.18246094 11.44042969 -7.9375 12.1875 C-9.03094727 13.29254883 -9.03094727 13.29254883 -10.14648438 14.41992188 C-10.84966797 15.12052734 -11.55285156 15.82113281 -12.27734375 16.54296875 C-12.91921631 17.18258545 -13.56108887 17.82220215 -14.22241211 18.48120117 C-16 20 -16 20 -19 21 C-19 20.34 -19 19.68 -19 19 C-18.34 19 -17.68 19 -17 19 C-17 18.01 -17 17.02 -17 16 C-15.34151823 14.98648336 -13.67334039 13.98879205 -12 13 C-10.65080468 11.34614767 -9.31866272 9.678298 -8 8 C-6.9779945 7.10211403 -5.93528904 6.22733889 -4.875 5.375 C-1.88146585 3.13441618 -1.88146585 3.13441618 0 0 Z " fill="#f8fbf9" transform="translate(881,868)"/>
<path d="M0 0 C0.96292969 0.19980469 1.92585937 0.39960938 2.91796875 0.60546875 C3.81128906 0.79753906 4.70460938 0.98960938 5.625 1.1875 C7.62407671 1.52632656 9.62355726 1.86294172 11.625 2.1875 C11.295 3.5075 10.965 4.8275 10.625 6.1875 C7.325 5.5275 4.025 4.8675 0.625 4.1875 C0.625 3.5275 0.625 2.8675 0.625 2.1875 C-2.675 1.8575 -5.975 1.5275 -9.375 1.1875 C-5.07384299 -0.96307851 -4.41936811 -0.95938664 0 0 Z " fill="#c2ebc9" transform="translate(610.375,8.8125)"/>
<path d="M0 0 C9.00726401 1.63768437 17.42639358 4.86979697 26 8 C20.7739584 9.74201387 16.20665745 7.4598466 11.18359375 5.71875 C9.13686873 5.0450516 7.09637817 4.49438397 5 4 C5 3.34 5 2.68 5 2 C3.35 2 1.7 2 0 2 C0 1.34 0 0.68 0 0 Z " fill="#effbf2" transform="translate(221,825)"/>
<path d="M0 0 C0.66 0.33 1.32 0.66 2 1 C-2.4313783 4.9722402 -6.84655133 7.71832493 -12.1875 10.3125 C-12.89841797 10.67150391 -13.60933594 11.03050781 -14.34179688 11.40039062 C-19.6053869 14 -19.6053869 14 -23 14 C-23 13.34 -23 12.68 -23 12 C-21.68 12 -20.36 12 -19 12 C-19 11.34 -19 10.68 -19 10 C-18.46632813 9.86464844 -17.93265625 9.72929688 -17.3828125 9.58984375 C-10.63035529 7.63887428 -5.55868602 4.23574196 0 0 Z " fill="#edfaef" transform="translate(640,815)"/>
<path d="M0 0 C2.38771735 2.38771735 2.31289224 3.22854514 2.5625 6.5 C2.81036169 9.87644563 2.81036169 9.87644563 4 13 C4.23274209 15.87910588 4.41972757 18.74146495 4.5625 21.625 C4.60568359 22.42679687 4.64886719 23.22859375 4.69335938 24.0546875 C4.79951457 26.0362511 4.90026855 28.01810271 5 30 C4.34 30.33 3.68 30.66 3 31 C2.49409633 26.95904957 1.99632438 22.91713726 1.5 18.875 C1.35691406 17.73289063 1.21382812 16.59078125 1.06640625 15.4140625 C0.93105469 14.30546875 0.79570313 13.196875 0.65625 12.0546875 C0.53056641 11.03874512 0.40488281 10.02280273 0.27539062 8.97607422 C-0.00315378 5.9659179 -0.04726727 3.02116606 0 0 Z " fill="#b7f2c6" transform="translate(646,237)"/>
<path d="M0 0 C0.33 0 0.66 0 1 0 C0.83285713 7.41506571 -0.62783621 12.05182368 -5 18 C-5.77564765 19.16347147 -6.54697637 20.32984244 -7.3125 21.5 C-8.1478125 22.7375 -8.1478125 22.7375 -9 24 C-9.66 23.67 -10.32 23.34 -11 23 C-10.62488281 22.42894531 -10.24976563 21.85789062 -9.86328125 21.26953125 C-5.58471425 14.49064298 -2.67229059 7.54389997 0 0 Z " fill="#ebfbee" transform="translate(655,766)"/>
<path d="M0 0 C0 0.99 0 1.98 0 3 C-1.58323688 3.027193 -3.16661062 3.04648306 -4.75 3.0625 C-6.07257812 3.07990234 -6.07257812 3.07990234 -7.421875 3.09765625 C-11.46958646 2.94433385 -14.44791198 1.90290429 -18 0 C-11.84098757 -1.23180249 -6.21324498 -0.73030908 0 0 Z " fill="#b0deb9" transform="translate(589,5)"/>
<path d="M0 0 C4.11920268 1.45383624 7.38918279 3.56662319 11 6 C11.99 6.33 12.98 6.66 14 7 C14 7.66 14 8.32 14 9 C15.7015625 9.433125 15.7015625 9.433125 17.4375 9.875 C18.613125 10.24625 19.78875 10.6175 21 11 C21.33 11.66 21.66 12.32 22 13 C13.66732272 11.73427687 6.04940738 6.72241239 0 1 C0 0.67 0 0.34 0 0 Z " fill="#ecfaef" transform="translate(535,814)"/>
<path d="M0 0 C0.66 0.33 1.32 0.66 2 1 C0.36980221 5.74239356 -2.31962506 12.65981253 -7 15 C-7.33 14.01 -7.66 13.02 -8 12 C-6.34765625 9.08203125 -6.34765625 9.08203125 -4.0625 5.8125 C-3.67642578 5.25369141 -3.29035156 4.69488281 -2.89257812 4.11914062 C-1.93757247 2.73968802 -0.96995907 1.36897944 0 0 Z " fill="#c5edce" transform="translate(82,231)"/>
<path d="M0 0 C3 2 3 2 4 5 C4.433125 5.433125 4.86625 5.86625 5.3125 6.3125 C7.66930703 8.66930703 9.3477774 11.10861045 11 14 C10.75 16.375 10.75 16.375 10 18 C6.12358085 13.67630171 0 6.04191557 0 0 Z " fill="#e7f2ea" transform="translate(71,775)"/>
<path d="M0 0 C1.32 0 2.64 0 4 0 C4 0.66 4 1.32 4 2 C1.41958904 3.00816056 -1.16386944 4.0067111 -3.75 5 C-4.47960937 5.28617188 -5.20921875 5.57234375 -5.9609375 5.8671875 C-7.02441406 6.27324219 -7.02441406 6.27324219 -8.109375 6.6875 C-8.75874023 6.93886719 -9.40810547 7.19023438 -10.07714844 7.44921875 C-12 8 -12 8 -16 8 C-16 7.34 -16 6.68 -16 6 C-15.28972656 5.79503906 -14.57945312 5.59007812 -13.84765625 5.37890625 C-12.92855469 5.10949219 -12.00945313 4.84007812 -11.0625 4.5625 C-10.14597656 4.29566406 -9.22945312 4.02882813 -8.28515625 3.75390625 C-6.0597507 3.20973949 -6.0597507 3.20973949 -5 2 C-3.33382885 1.95936168 -1.66611905 1.957279 0 2 C0 1.34 0 0.68 0 0 Z " fill="#f6f9f7" transform="translate(687,994)"/>
<path d="M0 0 C0.99 0.495 0.99 0.495 2 1 C2.309375 2.155 2.61875 3.31 2.9375 4.5 C3.288125 5.655 3.63875 6.81 4 8 C4.99 8.33 5.98 8.66 7 9 C7.79581572 11.69693106 8.4408648 14.26023754 9 17 C9.32736314 18.33481169 9.65892867 19.66862506 10 21 C6.54676315 17.82145244 4.94528497 14.20706471 3 10 C2.69578125 9.34902344 2.3915625 8.69804688 2.078125 8.02734375 C0.79310908 5.1724263 0 3.16605406 0 0 Z " fill="#eff8f2" transform="translate(41,716)"/>
<path d="M0 0 C0.33 0.99 0.66 1.98 1 3 C0.10375977 4.62573242 0.10375977 4.62573242 -1.30859375 6.35546875 C-2.05786133 7.28842773 -2.05786133 7.28842773 -2.82226562 8.24023438 C-3.35529297 8.88283203 -3.88832031 9.52542969 -4.4375 10.1875 C-4.96666016 10.84169922 -5.49582031 11.49589844 -6.04101562 12.16992188 C-7.35152928 13.78740269 -8.67460942 15.39468693 -10 17 C-11 14 -11 14 -10 11 C-9.34 11 -8.68 11 -8 11 C-7.67 10.34 -7.34 9.68 -7 9 C-6.525625 8.54625 -6.05125 8.0925 -5.5625 7.625 C-3.87118742 5.86603492 -3.05637107 4.18316688 -2 2 C-1.34 1.34 -0.68 0.68 0 0 Z " fill="#f1f9f4" transform="translate(931,808)"/>
<path d="M0 0 C0.66 0 1.32 0 2 0 C1.28400548 7.33894384 -2.3456818 12.51455355 -7 18 C-7 16.35 -7 14.7 -7 13 C-6.34 13 -5.68 13 -5 13 C-4.731875 11.96875 -4.46375 10.9375 -4.1875 9.875 C-3.19001103 6.3514958 -1.7338102 3.23119173 0 0 Z " fill="#e8f2eb" transform="translate(965,750)"/>
<path d="M0 0 C2.35953094 2.35953094 2.49141413 3.77895617 3 7 C3.99 7.33 4.98 7.66 6 8 C5.67 8.99 5.34 9.98 5 11 C5.66 11 6.32 11 7 11 C7.33 12.65 7.66 14.3 8 16 C7.01 16 6.02 16 5 16 C4.1605118 13.89828133 3.32860344 11.79353375 2.5 9.6875 C2.0359375 8.51574219 1.571875 7.34398437 1.09375 6.13671875 C0 3 0 3 0 0 Z " fill="#e7f3ea" transform="translate(32,693)"/>
<path d="M0 0 C7.26 0 14.52 0 22 0 C22 0.99 22 1.98 22 3 C14.74 2.34 7.48 1.68 0 1 C0 0.67 0 0.34 0 0 Z " fill="#0e110e" transform="translate(546,0)"/>
<path d="M0 0 C0.66 0.33 1.32 0.66 2 1 C-3.55637669 5.50547245 -9.12662475 9.91417374 -15 14 C-15.66 13.67 -16.32 13.34 -17 13 C-16.0409375 12.5978125 -16.0409375 12.5978125 -15.0625 12.1875 C-12.66868314 11.11332248 -12.66868314 11.11332248 -12 8 C-9.53125 6.2109375 -9.53125 6.2109375 -6.5 4.375 C-3.06452343 2.43360274 -3.06452343 2.43360274 0 0 Z " fill="#f8faf9" transform="translate(824,920)"/>
<path d="M0 0 C0 0.99 0 1.98 0 3 C-2.66666667 4.33333333 -5.33333333 5.66666667 -8 7 C-9.03640625 7.556875 -9.03640625 7.556875 -10.09375 8.125 C-12.48903913 9.22447698 -14.39576316 9.14467982 -17 9 C-15.49957144 5.99914288 -13.25703295 5.71742056 -10.1875 4.5 C-6.71768404 3.11376415 -3.31244392 1.73241619 0 0 Z " fill="#e7f9eb" transform="translate(626,806)"/>
<path d="M0 0 C4.46726639 3.82908547 6.49493657 9.44284274 8 15 C8.125 18.375 8.125 18.375 8 21 C5.93767301 18.93767301 5.43191516 17.84405969 4.4921875 15.15625 C4.22792969 14.40472656 3.96367188 13.65320313 3.69140625 12.87890625 C3.42199219 12.09386719 3.15257812 11.30882812 2.875 10.5 C2.59785156 9.71496094 2.32070313 8.92992187 2.03515625 8.12109375 C0 2.27628541 0 2.27628541 0 0 Z " fill="#ebfaed" transform="translate(823,635)"/>
<path d="M0 0 C0.66 0.99 1.32 1.98 2 3 C-2 10.71428571 -2 10.71428571 -6 12 C-6.33 11.01 -6.66 10.02 -7 9 C-5.02154932 5.60837026 -2.9244745 2.63202705 0 0 Z " fill="#c5eecc" transform="translate(70,253)"/>
<path d="M0 0 C7.63054095 0.61044328 14.70189474 2.79621821 22 5 C20.02 5.99 20.02 5.99 18 7 C18 6.34 18 5.68 18 5 C16.93072266 4.94392578 16.93072266 4.94392578 15.83984375 4.88671875 C9.9006577 4.47904918 5.30878253 3.71337774 0 1 C0 0.67 0 0.34 0 0 Z " fill="#f3fcf5" transform="translate(248,834)"/>
<path d="M0 0 C0.66 0.33 1.32 0.66 2 1 C-3.28 6.28 -8.56 11.56 -14 17 C-14.33 16.01 -14.66 15.02 -15 14 C-14.16855469 13.24074219 -13.33710937 12.48148438 -12.48046875 11.69921875 C-11.38277925 10.69534886 -10.28512484 9.6914406 -9.1875 8.6875 C-8.64029297 8.18798828 -8.09308594 7.68847656 -7.52929688 7.17382812 C-4.96878163 4.83056872 -2.42060466 2.48855146 0 0 Z " fill="#edfbef" transform="translate(643,791)"/>
<path d="M0 0 C3.96 1.98 7.92 3.96 12 6 C12 6.99 12 7.98 12 9 C11.34 9 10.68 9 10 9 C10 8.34 10 7.68 10 7 C8.7315625 6.5978125 8.7315625 6.5978125 7.4375 6.1875 C3.86145933 4.9521405 0.46139092 3.523012 -3 2 C-2.01 1.34 -1.02 0.68 0 0 Z " fill="#bee7c6" transform="translate(742,52)"/>
<path d="M0 0 C0 3 0 3 -2.58984375 5.62890625 C-3.69842128 6.61504785 -4.81467398 7.59261282 -5.9375 8.5625 C-9.99049021 11.85164908 -9.99049021 11.85164908 -13 16 C-13.66 15.67 -14.32 15.34 -15 15 C-10.39863498 9.46398272 -5.53601728 4.60136502 0 0 Z " fill="#3bba6d" transform="translate(231,601)"/>
<path d="M0 0 C0.33 0.66 0.66 1.32 1 2 C1.721875 1.979375 2.44375 1.95875 3.1875 1.9375 C5.94902933 1.99886732 8.33953493 2.26098193 11 3 C11.33 3.66 11.66 4.32 12 5 C14.52733235 5.65555119 14.52733235 5.65555119 17 6 C12.96927678 7.59401397 9.8478037 6.37091031 5.8125 5.1875 C3.93498047 4.65189453 3.93498047 4.65189453 2.01953125 4.10546875 C-1 3 -1 3 -2 1 C-1.34 0.67 -0.68 0.34 0 0 Z " fill="#f5f8f5" transform="translate(363,1003)"/>
<path d="M0 0 C4.66600443 5.27461371 4.11486662 11.33773626 4 18 C3.34 18 2.68 18 2 18 C2 14.7 2 11.4 2 8 C1.34 8 0.68 8 0 8 C0 5.36 0 2.72 0 0 Z " fill="#cde3d1" transform="translate(1018,437)"/>
<path d="M0 0 C0.66 0.33 1.32 0.66 2 1 C2 1.66 2 2.32 2 3 C-0.26807204 4.0067004 -2.53907754 5.00551766 -4.8125 6 C-5.77639648 6.42925781 -5.77639648 6.42925781 -6.75976562 6.8671875 C-9.67756469 8.13711041 -11.78265714 9 -15 9 C-15 8.34 -15 7.68 -15 7 C-14.030625 6.87625 -13.06125 6.7525 -12.0625 6.625 C-11.051875 6.41875 -10.04125 6.2125 -9 6 C-8.67 5.34 -8.34 4.68 -8 4 C-5.66666667 3.33333333 -3.33333333 2.66666667 -1 2 C-0.67 1.34 -0.34 0.68 0 0 Z " fill="#f1f3f2" transform="translate(707,986)"/>
<path d="M0 0 C2.7824349 1.39121745 3.55210065 3.30164212 5 6 C5 6.66 5 7.32 5 8 C6.32 8.33 7.64 8.66 9 9 C8.67 9.99 8.34 10.98 8 12 C8.66 12 9.32 12 10 12 C9.67 12.99 9.34 13.98 9 15 C7.70376621 13.42040347 6.41318673 11.83616587 5.125 10.25 C4.40570313 9.36828125 3.68640625 8.4865625 2.9453125 7.578125 C1.31557412 5.41823076 0.09215995 3.460234 -1 1 C-0.67 0.67 -0.34 0.34 0 0 Z " fill="#e7efe9" transform="translate(101,819)"/>
<path d="M0 0 C3.82792868 1.5595265 6.36359864 3.83631836 9 7 C8.8125 9.3125 8.8125 9.3125 8 11 C6.62437146 9.71034824 5.29233607 8.37310707 4 7 C4 6.34 4 5.68 4 5 C3.34 5 2.68 5 2 5 C2 4.01 2 3.02 2 2 C1.34 2 0.68 2 0 2 C0 1.34 0 0.68 0 0 Z " fill="#c4ebcc" transform="translate(884,159)"/>
<path d="M0 0 C1.32 0.66 2.64 1.32 4 2 C-5.22551253 6.59225513 -5.22551253 6.59225513 -11 6 C-10.34 5.01 -9.68 4.02 -9 3 C-7.68 3.33 -6.36 3.66 -5 4 C-5 3.34 -5 2.68 -5 2 C-3.35 2 -1.7 2 0 2 C0 1.34 0 0.68 0 0 Z " fill="#f0f2f1" transform="translate(657,1004)"/>
<path d="M0 0 C0.33 0.66 0.66 1.32 1 2 C1.66 2 2.32 2 3 2 C3.66 4.97 4.32 7.94 5 11 C5.66 11 6.32 11 7 11 C7.33 12.98 7.66 14.96 8 17 C3.80852647 12.35944002 0 6.40154244 0 0 Z " fill="#e7f9eb" transform="translate(510,778)"/>
<path d="M0 0 C1.26706235 3.80118706 0.57172296 5.3850372 -1 9 C-1.99 9.33 -2.98 9.66 -4 10 C-4.73323796 12.01508358 -4.73323796 12.01508358 -5 14 C-6.39195915 9.82412255 -4.82323219 7.86525224 -3 4 C-2.34 4 -1.68 4 -1 4 C-0.67 2.68 -0.34 1.36 0 0 Z " fill="#c5e9cc" transform="translate(40,313)"/>
<path d="M0 0 C0.99 0.33 1.98 0.66 3 1 C1.63055898 3.94956528 0.12169591 6.52468811 -2 9 C-2.66 9 -3.32 9 -4 9 C-4.33 8.01 -4.66 7.02 -5 6 C-3.59554165 3.7363436 -1.8032087 1.9791315 0 0 Z " fill="#c1e9c8" transform="translate(118,182)"/>
<path d="M0 0 C-2.12966005 2.12966005 -3.04068204 2.47624662 -5.875 3.1875 C-6.55304688 3.36667969 -7.23109375 3.54585937 -7.9296875 3.73046875 C-10.22818556 4.02970718 -11.80550964 3.69377386 -14 3 C-13.34 3 -12.68 3 -12 3 C-12 2.34 -12 1.68 -12 1 C-7.58774263 -0.47075246 -4.51718381 -1.36884358 0 0 Z " fill="#bae8c3" transform="translate(377,19)"/>
<path d="M0 0 C1.258125 -0.04125 2.51625 -0.0825 3.8125 -0.125 C4.52019531 -0.14820313 5.22789062 -0.17140625 5.95703125 -0.1953125 C8 0 8 0 11 2 C11 2.66 11 3.32 11 4 C11.66 4.33 12.32 4.66 13 5 C10.23723823 4.47731534 7.6739124 3.89130413 5 3 C4.01 3.495 4.01 3.495 3 4 C3 3.34 3 2.68 3 2 C2.01 1.67 1.02 1.34 0 1 C0 0.67 0 0.34 0 0 Z " fill="#b8e7c1" transform="translate(713,42)"/>
<path d="M0 0 C3.63 0.33 7.26 0.66 11 1 C11.33 1.99 11.66 2.98 12 4 C13.65 4.33 15.3 4.66 17 5 C12.92320841 6.6852084 10.16924407 5.16939007 6.25 3.5625 C5.07953125 3.08941406 3.9090625 2.61632812 2.703125 2.12890625 C1.81109375 1.75636719 0.9190625 1.38382813 0 1 C0 0.67 0 0.34 0 0 Z " fill="#f2f4f2" transform="translate(336,996)"/>
<path d="M0 0 C3.88296928 1.04541481 7.45367108 2.10018094 11 4 C11.99 4.33 12.98 4.66 14 5 C13.67 5.66 13.34 6.32 13 7 C11.39402675 6.54803755 9.79027492 6.08817673 8.1875 5.625 C7.29417969 5.36976563 6.40085937 5.11453125 5.48046875 4.8515625 C3 4 3 4 0 2 C0 1.34 0 0.68 0 0 Z " fill="#f7fbf8" transform="translate(300,980)"/>
<path d="M0 0 C0 3.50051525 -0.52511319 4.0126916 -2.75 6.5625 C-3.26046875 7.16191406 -3.7709375 7.76132812 -4.296875 8.37890625 C-6.08620137 10.08204947 -7.74733705 11.01568423 -10 12 C-10 9 -10 9 -7.8125 6.73828125 C-6.884375 5.93777344 -5.95625 5.13726563 -5 4.3125 C-4.071875 3.50425781 -3.14375 2.69601562 -2.1875 1.86328125 C-1.1046875 0.94095703 -1.1046875 0.94095703 0 0 Z " fill="#3dbb6f" transform="translate(595,669)"/>
<path d="M0 0 C0.66386719 0.144375 1.32773437 0.28875 2.01171875 0.4375 C2.89472656 0.623125 3.77773438 0.80875 4.6875 1 C5.99267578 1.2784375 5.99267578 1.2784375 7.32421875 1.5625 C9.93712964 1.98972047 12.35813038 2.07616201 15 2 C15 2.99 15 3.98 15 5 C13.06043186 4.744398 11.12334011 4.46995354 9.1875 4.1875 C8.10855469 4.03667969 7.02960938 3.88585937 5.91796875 3.73046875 C2.93559009 2.98387597 1.85776521 2.37924316 0 0 Z " fill="#f8faf9" transform="translate(424,1018)"/>
<path d="M0 0 C6.04801071 0.54981916 11.30601106 1.90429574 17 4 C17 4.33 17 4.66 17 5 C10.69732561 4.63223832 5.66748157 3.83374078 0 1 C0 0.67 0 0.34 0 0 Z " fill="#eefaf0" transform="translate(558,827)"/>
<path d="M0 0 C0 0.99 0 1.98 0 3 C-1.6210103 3.69685498 -3.24696066 4.38222861 -4.875 5.0625 C-5.77992188 5.44535156 -6.68484375 5.82820312 -7.6171875 6.22265625 C-10 7 -10 7 -12 6 C-12 5.34 -12 4.68 -12 4 C-8.04 2.68 -4.08 1.36 0 0 Z " fill="#eff3f1" transform="translate(729,978)"/>
<path d="M0 0 C0.77085937 0.3609375 1.54171875 0.721875 2.3359375 1.09375 C3.84027344 1.78984375 3.84027344 1.78984375 5.375 2.5 C6.37273437 2.9640625 7.37046875 3.428125 8.3984375 3.90625 C10.83692626 5.1291873 10.83692626 5.1291873 13 5 C13.33 5.99 13.66 6.98 14 8 C8.49897163 7.58742287 4.23798336 5.45277325 0 2 C0 1.34 0 0.68 0 0 Z " fill="#f4f8f6" transform="translate(266,963)"/>
<path d="M0 0 C0.33 0.66 0.66 1.32 1 2 C-0.375 4 -0.375 4 -2 6 C-2.66 6 -3.32 6 -4 6 C-4 7.32 -4 8.64 -4 10 C-4.99 10.33 -5.98 10.66 -7 11 C-6.67 9.02 -6.34 7.04 -6 5 C-5.38125 4.9175 -4.7625 4.835 -4.125 4.75 C-1.81562433 4.18741541 -1.81562433 4.18741541 -0.75 1.9375 C-0.5025 1.298125 -0.255 0.65875 0 0 Z " fill="#c0ecc8" transform="translate(95,215)"/>
<path d="M0 0 C-1.98440708 2.68478605 -3.15645412 3.03631971 -6.5 3.8125 C-10 4 -10 4 -13 2 C-8.46298506 0.54815522 -4.81938524 -0.23509196 0 0 Z " fill="#eefbf1" transform="translate(747,843)"/>
<path d="M0 0 C3.64775386 3.88309282 4.58525633 6.71201818 5 12 C4.01 11.67 3.02 11.34 2 11 C2 8.69 2 6.38 2 4 C1.01 4 0.02 4 -1 4 C-0.67 2.68 -0.34 1.36 0 0 Z " fill="#c5e9cc" transform="translate(955,252)"/>
<path d="M0 0 C0.99 0.33 1.98 0.66 3 1 C0.34345343 4.73884332 -1.58110387 6.64978174 -6 8 C-6 7.01 -6 6.02 -6 5 C-3.1875 2.25 -3.1875 2.25 0 0 Z " fill="#bfe7c7" transform="translate(177,122)"/>
<path d="M0 0 C0.99 0 1.98 0 3 0 C2.57405412 1.44096586 2.13373367 2.87768712 1.6875 4.3125 C1.44386719 5.11300781 1.20023438 5.91351562 0.94921875 6.73828125 C0 9 0 9 -3 12 C-2.01 8.04 -1.02 4.08 0 0 Z " fill="#edf8ef" transform="translate(987,702)"/>
<path d="M0 0 C0.33 0 0.66 0 1 0 C1.18451025 12.66970387 1.18451025 12.66970387 0 18 C-0.33 18 -0.66 18 -1 18 C-1.33 14.37 -1.66 10.74 -2 7 C-1.34 7 -0.68 7 0 7 C0 4.69 0 2.38 0 0 Z " fill="#f0fcf4" transform="translate(1020,569)"/>
<path d="M0 0 C0.33 0.99 0.66 1.98 1 3 C-1.25 3.75 -1.25 3.75 -4 4 C-6.3125 2.0625 -6.3125 2.0625 -8 0 C-4.71023192 -1.09658936 -3.28696233 -0.79953138 0 0 Z " fill="#b9e7c1" transform="translate(678,26)"/>
<path d="M0 0 C-3 2 -3 2 -5.0625 2.5 C-7.22063299 2.88197631 -7.22063299 2.88197631 -9 5 C-9.66 3.68 -10.32 2.36 -11 1 C-6.87831311 -0.62950412 -4.29299643 -1.26264601 0 0 Z " fill="#bbe5c2" transform="translate(360,24)"/>
<path d="M0 0 C0 0.99 0 1.98 0 3 C-6.625 3.25 -6.625 3.25 -10 1 C-6.52674819 -0.1577506 -3.63932552 -0.06866652 0 0 Z " fill="#b5dabd" transform="translate(461,2)"/>
<path d="M0 0 C1.98 0.495 1.98 0.495 4 1 C3.39301257 5.12751449 1.96189209 8.3321148 0 12 C-0.33 12 -0.66 12 -1 12 C-1 10.35 -1 8.7 -1 7 C-0.34 7 0.32 7 1 7 C0.67 4.69 0.34 2.38 0 0 Z " fill="#ebf6ef" transform="translate(969,738)"/>
<path d="M0 0 C2.31 0 4.62 0 7 0 C10.22265625 5.2734375 10.22265625 5.2734375 11 7 C10.67 7.66 10.34 8.32 10 9 C9.46375 8.05125 8.9275 7.1025 8.375 6.125 C5.7207791 2.63260408 4.19162145 1.95264124 0 1 C0 0.67 0 0.34 0 0 Z " fill="#39bb6c" transform="translate(485,698)"/>
<path d="M0 0 C4.21912747 0.4794463 6.79663178 1.16625119 10 4 C9.67 4.99 9.34 5.98 9 7 C8.01 6.34 7.02 5.68 6 5 C6 4.34 6 3.68 6 3 C5.195625 2.87625 4.39125 2.7525 3.5625 2.625 C2.716875 2.41875 1.87125 2.2125 1 2 C0.67 1.34 0.34 0.68 0 0 Z " fill="#c2edcb" transform="translate(780,75)"/>
<path d="M0 0 C-0.33 1.32 -0.66 2.64 -1 4 C-4.3 3.34 -7.6 2.68 -11 2 C-11 1.34 -11 0.68 -11 0 C-7.18243176 -1.37432457 -3.92744671 -0.67975039 0 0 Z " fill="#b8e7be" transform="translate(622,11)"/>
<path d="M0 0 C3.7910119 1.44950455 7.3874638 3.15172566 11 5 C11 5.66 11 6.32 11 7 C6.00724943 5.72278474 3.42388092 3.82669043 0 0 Z " fill="#f4f7f4" transform="translate(231,943)"/>
<path d="M0 0 C0.66 0.33 1.32 0.66 2 1 C2 1.66 2 2.32 2 3 C0.3203125 4.32421875 0.3203125 4.32421875 -1.875 5.6875 C-2.59429688 6.14511719 -3.31359375 6.60273437 -4.0546875 7.07421875 C-5.01761719 7.53248047 -5.01761719 7.53248047 -6 8 C-6.66 7.67 -7.32 7.34 -8 7 C-7.01 6.67 -6.02 6.34 -5 6 C-5 5.34 -5 4.68 -5 4 C-4.360625 3.896875 -3.72125 3.79375 -3.0625 3.6875 C-2.381875 3.460625 -1.70125 3.23375 -1 3 C-0.67 2.01 -0.34 1.02 0 0 Z " fill="#eef2ef" transform="translate(805,933)"/>
<path d="M0 0 C2.24298598 2.24298598 2.58421156 2.92316555 3 6 C2.72686657 8.34114367 2.40197001 10.67750658 2 13 C1.67 13 1.34 13 1 13 C0.63901937 11.02206479 0.28638652 9.04260427 -0.0625 7.0625 C-0.25972656 5.96035156 -0.45695313 4.85820313 -0.66015625 3.72265625 C-0.77230469 2.82417969 -0.88445313 1.92570313 -1 1 C-0.67 0.67 -0.34 0.34 0 0 Z " fill="#eaf9ed" transform="translate(682,673)"/>
<path d="M0 0 C0.33 1.32 0.66 2.64 1 4 C-0.9375 6.25 -0.9375 6.25 -3 8 C-3.99 7.67 -4.98 7.34 -6 7 C-4.02 4.69 -2.04 2.38 0 0 Z " fill="#b7d9bf" transform="translate(147,150)"/>
<path d="M0 0 C0.33 0.66 0.66 1.32 1 2 C2.65 2 4.3 2 6 2 C3 4 3 4 0.1875 3.6875 C-1.3903125 3.3471875 -1.3903125 3.3471875 -3 3 C-5 2.66666667 -7 2.33333333 -9 2 C-9 1.67 -9 1.34 -9 1 C-4.545 0.505 -4.545 0.505 0 0 Z " fill="#b1e5b8" transform="translate(563,2)"/>
<path d="M0 0 C4.8333472 -0.08333357 9.23692563 0.04738513 14 1 C14 1.66 14 2.32 14 3 C8.78020872 3.1799928 4.92737019 2.97094808 0 1 C0 0.67 0 0.34 0 0 Z " fill="#f6fbf8" transform="translate(355,856)"/>
<path d="M0 0 C4.12751449 0.60698743 7.3321148 2.03810791 11 4 C10.67 4.66 10.34 5.32 10 6 C6.00452264 5.38531118 3.22493358 3.34540624 0 1 C0 0.67 0 0.34 0 0 Z " fill="#e6f9ea" transform="translate(550,806)"/>
<path d="M0 0 C0.33 0 0.66 0 1 0 C2.97387813 4.76052962 3.0070238 7.96488101 2 13 C0.21590198 9.93753253 -0.22880021 7.77920727 -0.125 4.25 C-0.10695313 3.45078125 -0.08890625 2.6515625 -0.0703125 1.828125 C-0.04710937 1.22484375 -0.02390625 0.6215625 0 0 Z " fill="#ecfbef" transform="translate(838,688)"/>
<path d="M0 0 C0.66 0.66 1.32 1.32 2 2 C0.02 4.31 -1.96 6.62 -4 9 C-4.66 8.01 -5.32 7.02 -6 6 C-4.02 4.02 -2.04 2.04 0 0 Z " fill="#badbc1" transform="translate(154,143)"/>
<path d="M0 0 C0.33 0.66 0.66 1.32 1 2 C1.66 2 2.32 2 3 2 C3 2.66 3 3.32 3 4 C3.639375 4.103125 4.27875 4.20625 4.9375 4.3125 C5.618125 4.539375 6.29875 4.76625 7 5 C7.33 5.99 7.66 6.98 8 8 C5.0280615 6.87548273 2.66559313 5.77706209 0 4 C0 2.68 0 1.36 0 0 Z " fill="#f3f8f4" transform="translate(213,928)"/>
<path d="M0 0 C2.64 0 5.28 0 8 0 C8 0.99 8 1.98 8 3 C5.03 3 2.06 3 -1 3 C-0.67 2.01 -0.34 1.02 0 0 Z " fill="#e1f9e6" transform="translate(437,864)"/>
<path d="M0 0 C-2.61973266 2.61973266 -4.35166422 2.70813314 -8 3 C-10.375 2.0625 -10.375 2.0625 -12 1 C-8.0186217 -0.3271261 -4.14954773 -0.06915913 0 0 Z " fill="#f1fcf4" transform="translate(689,854)"/>
<path d="M0 0 C3 2 3 2 4 5 C4.515625 5.515625 5.03125 6.03125 5.5625 6.5625 C6.036875 7.036875 6.51125 7.51125 7 8 C7 8.66 7 9.32 7 10 C2.57320993 8.52440331 2.08567304 6.09942632 0 2 C0 1.34 0 0.68 0 0 Z " fill="#f5fcf7" transform="translate(71,775)"/>
<path d="M0 0 C1.98 1.65 3.96 3.3 6 5 C4.02 5.99 4.02 5.99 2 7 C0 4 0 4 0 0 Z " fill="#c5e8cc" transform="translate(907,184)"/>
<path d="M0 0 C1.11375 0.556875 1.11375 0.556875 2.25 1.125 C-0.3154594 3.6904594 -2.22686668 3.66546087 -5.75 4.125 C-6.08 3.135 -6.41 2.145 -6.75 1.125 C-4.02098495 -0.69434337 -3.21400584 -1.02263822 0 0 Z " fill="#b7e8c1" transform="translate(301.75,44.875)"/>
<path d="M0 0 C0.66 0 1.32 0 2 0 C2.69289369 3.72430357 3.11144596 7.21083746 3 11 C0.43383368 7.15075052 0.44902324 4.5650696 0 0 Z " fill="#ecfaee" transform="translate(831,657)"/>
<path d="M0 0 C0.99 0.66 1.98 1.32 3 2 C2.34 2 1.68 2 1 2 C1 2.99 1 3.98 1 5 C-0.65 5.33 -2.3 5.66 -4 6 C-1.125 1.125 -1.125 1.125 0 0 Z " fill="#c0ecc6" transform="translate(207,98)"/>
<path d="M0 0 C1.46015291 0.28241641 2.91809793 0.57626614 4.375 0.875 C5.18710937 1.03742187 5.99921875 1.19984375 6.8359375 1.3671875 C9 2 9 2 11 4 C10.34 4 9.68 4 9 4 C8.67 4.66 8.34 5.32 8 6 C8 5.34 8 4.68 8 4 C6.865625 3.71125 5.73125 3.4225 4.5625 3.125 C3.386875 2.75375 2.21125 2.3825 1 2 C0.67 1.34 0.34 0.68 0 0 Z " fill="#b5e0bc" transform="translate(755,61)"/>
<path d="M0 0 C-1.28650706 0.69710731 -2.57940665 1.38242876 -3.875 2.0625 C-4.95394531 2.63677734 -4.95394531 2.63677734 -6.0546875 3.22265625 C-6.69664062 3.47917969 -7.33859375 3.73570312 -8 4 C-8.66 3.67 -9.32 3.34 -10 3 C-8 0 -8 0 -5.5625 -0.75 C-3 -1 -3 -1 0 0 Z " fill="#f5f8f6" transform="translate(752,969)"/>
<path d="M0 0 C2.475 0.495 2.475 0.495 5 1 C5 1.99 5 2.98 5 4 C6.32 4.66 7.64 5.32 9 6 C5.21213403 5.4739075 2.82847776 4.61896089 0 2 C0 1.34 0 0.68 0 0 Z " fill="#f9fcfa" transform="translate(245,951)"/>
<path d="M0 0 C0.66 0 1.32 0 2 0 C1.6875 3.375 1.6875 3.375 1 7 C0.01 7.66 -0.98 8.32 -2 9 C-1.51421457 5.87709365 -1.0013988 3.00419641 0 0 Z " fill="#e2f9e6" transform="translate(197,645)"/>
<path d="M0 0 C2.60334924 2.71182212 2.99456691 3.89133813 3.1875 7.75 C3.0946875 9.35875 3.0946875 9.35875 3 11 C0.60236815 8.60236815 0.65719414 7.66726502 0.375 4.375 C0.30023438 3.55773437 0.22546875 2.74046875 0.1484375 1.8984375 C0.09945313 1.27195312 0.05046875 0.64546875 0 0 Z " fill="#edfaee" transform="translate(406,615)"/>
<path d="M0 0 C-0.33 0.99 -0.66 1.98 -1 3 C-4.0625 4.1875 -4.0625 4.1875 -7 5 C-7 4.01 -7 3.02 -7 2 C-4 0 -4 0 0 0 Z " fill="#bbe6c3" transform="translate(231,84)"/>
<path d="M0 0 C0.99 0.33 1.98 0.66 3 1 C3 1.66 3 2.32 3 3 C-1.455 3.495 -1.455 3.495 -6 4 C-4.03617993 2.49440461 -2.21736634 1.10868317 0 0 Z " fill="#b5ddbc" transform="translate(267,60)"/>
<path d="M0 0 C2.31 0.66 4.62 1.32 7 2 C7 2.66 7 3.32 7 4 C3.62537285 3.45276317 1.91765 2.9451 -1 1 C-0.67 0.67 -0.34 0.34 0 0 Z " fill="#e5e8e6" transform="translate(313,986)"/>
<path d="M0 0 C0.33 0.66 0.66 1.32 1 2 C3.02463255 2.65213292 3.02463255 2.65213292 5 3 C4.67 3.99 4.34 4.98 4 6 C3.01 6 2.02 6 1 6 C0.67 4.02 0.34 2.04 0 0 Z " fill="#e8faed" transform="translate(25,672)"/>
<path d="M0 0 C0 3 0 3 -1.875 5.1875 C-4 7 -4 7 -6 7 C-4.60667426 3.63279613 -3.0210714 2.0140476 0 0 Z " fill="#e4f9e7" transform="translate(642,652)"/>
<path d="M0 0 C1.98 0.66 3.96 1.32 6 2 C5.67 2.99 5.34 3.98 5 5 C3.68 4.67 2.36 4.34 1 4 C0.67 2.68 0.34 1.36 0 0 Z " fill="#bfebc8" transform="translate(702,35)"/>
<path d="M0 0 C-1.32 0.33 -2.64 0.66 -4 1 C-4 1.66 -4 2.32 -4 3 C-4.99 3.33 -5.98 3.66 -7 4 C-7.66 3.01 -8.32 2.02 -9 1 C-6.04335481 -0.4783226 -3.25770263 -0.06032783 0 0 Z " fill="#c3e9cb" transform="translate(402,12)"/>
</svg>