<?xml version="1.0" encoding="UTF-8"?>
<svg version="1.1" xmlns="http://www.w3.org/2000/svg" width="1315" height="461">
<path d="M0 0 C433.95 0 867.9 0 1315 0 C1315 152.13 1315 304.26 1315 461 C881.05 461 447.1 461 0 461 C0 308.87 0 156.74 0 0 Z " fill="#FEFEFE" transform="translate(0,0)"/>
<path d="M0 0 C1.36344629 -0.00462392 2.72688757 -0.01098672 4.09031868 -0.01890898 C7.79012807 -0.03542136 11.4895184 -0.02743985 15.18932819 -0.0149641 C19.19759602 -0.00584071 23.2057963 -0.01991913 27.21405029 -0.03088379 C35.04773071 -0.0485965 42.88125715 -0.04486154 50.71494341 -0.03323323 C57.08603705 -0.02417048 63.45708778 -0.02298714 69.82818604 -0.02732849 C70.73769205 -0.02794142 71.64719807 -0.02855436 72.58426487 -0.02918586 C74.43236591 -0.03046486 76.28046693 -0.03176172 78.12856793 -0.03307623 C95.42603097 -0.04446079 112.72340897 -0.03140174 130.02085805 -0.00987476 C144.83735287 0.00799428 159.65372229 0.00488958 174.47021484 -0.0135498 C191.70912932 -0.03499413 208.94796942 -0.04336235 226.18689537 -0.03110075 C228.02789687 -0.02982666 229.86889838 -0.02856917 231.7098999 -0.02732849 C233.06833124 -0.02640284 233.06833124 -0.02640284 234.45420563 -0.02545848 C240.81179421 -0.02201626 247.16933529 -0.02780952 253.5269165 -0.0372467 C261.28308816 -0.04850775 269.03909806 -0.04534084 276.79525137 -0.02412373 C280.74657427 -0.01366822 284.69762824 -0.0093965 288.64894867 -0.02272034 C292.27615078 -0.03476555 295.90283836 -0.02788584 299.52999473 -0.00681013 C301.44187302 -0.00032629 303.35378792 -0.01317084 305.26562691 -0.02703905 C323.6727734 0.13704853 339.75782625 6.36047474 352.76904297 19.50793457 C353.70683594 20.3954541 353.70683594 20.3954541 354.66357422 21.30090332 C358.68182637 25.40986093 361.38208064 30.07361825 364.01904297 35.13293457 C364.51331787 36.05441284 364.51331787 36.05441284 365.01757812 36.99450684 C370.32612209 47.71342106 371.2155045 59.54965669 371.1499939 71.32165527 C371.15467387 72.63864316 371.15935384 73.95563105 371.16417563 75.31252766 C371.17656951 78.92525517 371.17056904 82.53774152 371.16121697 86.1504693 C371.15437857 90.06329038 371.16493125 93.9760724 371.17315674 97.8888855 C371.18644556 105.53719146 371.18363808 113.18540873 371.17491882 120.83371806 C371.16812348 127.05371369 371.16723352 133.27368458 371.17049026 139.49368286 C371.17094996 140.3814102 371.17140966 141.26913754 371.17188329 142.18376571 C371.17284254 143.987578 371.17381518 145.79139029 371.17480107 147.59520257 C371.18334075 164.48058134 371.17354319 181.36591112 371.15739997 198.25128186 C371.14399808 212.71674009 371.14632658 227.18212608 371.16015625 241.64758301 C371.17623724 258.47555701 371.18251691 275.30348816 371.17331946 292.13146877 C371.17236389 293.9283746 371.17142077 295.72528044 371.17049026 297.52218628 C371.17002744 298.40612999 371.16956461 299.2900737 371.16908776 300.20080358 C371.16650542 306.40805968 371.1708525 312.61528842 371.17792892 318.82254028 C371.18637217 326.39465239 371.18400471 333.96667129 371.16808669 341.53877282 C371.16024179 345.39676428 371.15704719 349.25460073 371.16703415 353.11259079 C371.17772615 357.3065981 371.16489743 361.50021938 371.1499939 365.69421387 C371.15668606 366.89676976 371.16337823 368.09932566 371.17027318 369.33832264 C371.05197233 386.59060401 366.58419384 403.55016623 354.76904297 416.50793457 C354.10130859 417.26719238 353.43357422 418.0264502 352.74560547 418.80871582 C340.76849347 431.67222059 325.66160836 436.7218795 308.46571386 437.69484019 C304.98010797 437.76890005 301.49948709 437.78427021 298.0131073 437.77536011 C296.67685276 437.77910694 295.34060041 437.78371252 294.00435144 437.78909075 C290.37047719 437.8012083 286.73669576 437.80107376 283.10280597 437.798702 C279.1687989 437.79829097 275.23482047 437.80935995 271.30082703 437.81881714 C263.60828858 437.83536516 255.9157808 437.84092383 248.22322603 437.84204189 C241.96604127 437.84299512 235.70886654 437.84711907 229.45168495 437.85344315 C211.68017719 437.87103702 193.90869349 437.88028468 176.13717695 437.8787822 C175.1809442 437.87870229 174.22471145 437.87862237 173.23950195 437.87854004 C171.8033859 437.8784174 171.8033859 437.8784174 170.33825741 437.87829228 C154.82372118 437.87747944 139.30928205 437.89662138 123.7947739 437.92481677 C107.83398303 437.95359261 91.87323945 437.96735455 75.912422 437.96562922 C66.96385771 437.96496704 58.01539529 437.97038384 49.06685448 437.99198532 C41.44865149 438.0102589 33.83059658 438.01449385 26.21238109 438.00096647 C22.33181927 437.99446842 18.45154103 437.99420402 14.57100677 438.01167297 C-9.8937572 438.11475678 -32.23234083 437.21094947 -50.83251953 419.10168457 C-65.13682791 403.63253023 -69.72566421 385.03208214 -69.61190796 364.48457336 C-69.61537615 363.14374068 -69.62014841 361.80291086 -69.62608969 360.46208686 C-69.63846975 356.82495472 -69.63248965 353.18806249 -69.62313104 349.55093014 C-69.61628701 345.61021661 -69.62684791 341.66954168 -69.6350708 337.72883606 C-69.64835262 330.02853254 -69.64555563 322.32831716 -69.63683288 314.62801031 C-69.63003623 308.36702222 -69.62914814 302.1060587 -69.63240433 295.84506798 C-69.63286403 294.95134796 -69.63332373 294.05762794 -69.63379735 293.1368255 C-69.6347566 291.32084928 -69.63572924 289.50487306 -69.63671513 287.68889686 C-69.64525237 270.69484278 -69.63546034 253.7008374 -69.61931403 236.7067913 C-69.60590545 222.14349245 -69.60824663 207.58026534 -69.62207031 193.01696777 C-69.6381437 176.0758395 -69.64443581 159.13475378 -69.63523352 142.19361895 C-69.63427794 140.3855306 -69.63333483 138.57744224 -69.63240433 136.76935387 C-69.6319415 135.8798955 -69.63147867 134.99043714 -69.63100182 134.07402549 C-69.62841772 127.82323832 -69.63277024 121.57247829 -69.63984299 115.32169533 C-69.64827745 107.70050942 -69.64593677 100.07941615 -69.63000076 92.45824078 C-69.62214522 88.57416202 -69.61897984 84.69023742 -69.62894821 80.80615997 C-69.63795195 77.24395905 -69.63287004 73.6820538 -69.61701556 70.11987933 C-69.61212907 68.23560844 -69.621813 66.35131668 -69.63218725 64.46706802 C-69.51097833 46.75400479 -63.46283026 31.66696213 -50.99267578 19.13293457 C-36.44948206 5.30970094 -19.87864015 -0.14419682 0 0 Z " fill="#3BAD31" transform="translate(82.23095703125,11.4920654296875)"/>
<path d="M0 0 C0.78606628 -0.00671722 1.57213257 -0.01343445 2.38201904 -0.02035522 C4.9738197 -0.03931037 7.56536095 -0.04325847 10.15722656 -0.04541016 C11.96698105 -0.05184096 13.77673449 -0.05856953 15.58648682 -0.06558228 C19.37929696 -0.07754966 23.17201606 -0.08126377 26.96484375 -0.08007812 C31.80790946 -0.07987523 36.65038642 -0.10714904 41.49331284 -0.14162254 C45.23214357 -0.16394242 48.97083391 -0.16791407 52.70972443 -0.16685867 C54.4941841 -0.16920806 56.27864804 -0.17799404 58.06304169 -0.19352341 C77.54248316 -0.34714712 77.54248316 -0.34714712 85.20410156 6.10693359 C85.64753906 6.68314453 86.09097656 7.25935547 86.54785156 7.85302734 C87.01191406 8.43181641 87.47597656 9.01060547 87.95410156 9.60693359 C90.57169495 13.6361577 90.1861516 17.83606857 90.17382812 22.44628906 C90.17663033 23.69310959 90.17663033 23.69310959 90.17948914 24.96511841 C90.18349308 26.77065597 90.18556797 28.57619861 90.18595123 30.38174057 C90.18936567 34.21957712 90.21072527 38.05724409 90.2311821 41.89502144 C90.26921711 49.04169076 90.30046475 56.18817885 90.29833984 63.33496094 C90.29755326 68.30533628 90.32089256 73.27509082 90.36022186 78.24530411 C90.37069093 80.13908218 90.37219923 82.03293183 90.36457062 83.92672348 C90.35495859 86.57715902 90.37611073 89.22571115 90.40429688 91.87597656 C90.39410019 92.65745056 90.3839035 93.43892456 90.37339783 94.24407959 C90.44466603 97.98274354 90.94591701 100.13524512 93.00975037 103.27919006 C97.1969408 106.05126764 100.38067705 105.97107765 105.30102539 105.88647461 C106.22524796 105.89053314 107.14947052 105.89459167 108.10169983 105.89877319 C110.10472945 105.9042856 112.10781652 105.89829549 114.11078835 105.8821125 C117.28526432 105.85669029 120.4584418 105.86149224 123.63298035 105.87400818 C130.37558 105.89476074 137.11777837 105.87508109 143.86035156 105.85302734 C151.66506134 105.83190311 159.46935248 105.82741005 167.27405357 105.85352898 C170.3940061 105.85688161 173.51315353 105.8356923 176.63301086 105.81312561 C178.55750705 105.81563821 180.48200224 105.81919958 182.40649414 105.82397461 C183.69807434 105.80464622 183.69807434 105.80464622 185.01574707 105.78492737 C191.65799735 105.83965953 196.95043586 107.43415319 201.90568542 112.00378418 C205.6674711 118.01702334 205.70001637 123.48570721 205.53613281 130.44677734 C205.52905807 131.5896521 205.52198334 132.73252686 205.51469421 133.91003418 C205.48684777 137.53754893 205.42412322 141.16348411 205.36035156 144.79052734 C205.33525629 147.25925495 205.31244528 149.72800691 205.29199219 152.19677734 C205.23705297 158.22856049 205.15352322 164.25943103 205.04785156 170.29052734 C197.4761735 170.36023494 189.904529 170.41344357 182.3326025 170.44596386 C178.81610159 170.46157712 175.29982126 170.48273499 171.78344727 170.5168457 C167.73484252 170.55587069 163.68646717 170.57027235 159.63769531 170.58349609 C158.38327133 170.59897995 157.12884735 170.61446381 155.83641052 170.63041687 C148.38741182 170.63184644 142.75500272 170.45943514 136.89550781 165.45068359 C132.40342784 160.17224389 128.5534427 154.69316755 124.90722656 148.79443359 C123.01441166 146.24549587 122.0476611 145.21618286 119.04785156 144.29052734 C116.77741446 144.22454406 116.77741446 144.22454406 114.48535156 144.60302734 C113.7209375 144.70228516 112.95652344 144.80154297 112.16894531 144.90380859 C109.87025533 145.27142604 109.87025533 145.27142604 107.04785156 146.29052734 C105.9495928 148.50859959 105.9495928 148.50859959 105.04785156 151.29052734 C104.10509483 153.58194511 103.15946799 155.87218291 102.21191406 158.16162109 C94.36159395 177.15420619 86.63311458 196.1904897 79.04785156 215.29052734 C78.38785156 215.29052734 77.72785156 215.29052734 77.04785156 215.29052734 C71.62230115 196.11044652 67.13539519 176.79101711 63.04785156 157.29052734 C62.76911194 155.96166504 62.76911194 155.96166504 62.48474121 154.60595703 C61.02168066 147.62684046 59.56505874 140.64638925 58.11035156 133.66552734 C57.89782745 132.64634216 57.68530334 131.62715698 57.46633911 130.5770874 C55.3963623 120.64689815 53.33042681 110.71618287 51.32194519 100.77334595 C50.61214124 97.26574896 49.89409034 93.75986852 49.17477417 90.25421143 C48.8445419 88.63326832 48.51835758 87.01149437 48.19656372 85.38885498 C46.63126817 77.49926797 45.09347362 70.34808828 41.04785156 63.29052734 C41.04785156 62.63052734 41.04785156 61.97052734 41.04785156 61.29052734 C37.20962978 59.48430533 34.28419535 58.77179137 30.04785156 59.29052734 C23.83987747 62.14619543 22.31779164 66.2349507 20.04785156 72.29052734 C18.57953364 76.88648443 17.29847153 81.52703047 16.02832031 86.18115234 C15.6493875 87.54941236 15.26979802 88.91749066 14.88960266 90.28540039 C14.08281729 93.19282618 13.2801996 96.10135603 12.48095703 99.01086426 C11.22675821 103.57586034 9.96255694 108.13804606 8.69628906 112.69970703 C7.40597148 117.34929713 6.11593004 121.99896016 4.82894897 126.6494751 C1.09245507 140.1502314 -2.6799026 153.64053481 -6.48739624 167.12145996 C-7.43415994 170.47677638 -8.37645972 173.83332536 -9.31860352 177.18994141 C-9.89407997 179.22875984 -10.4698285 181.26750152 -11.04589844 183.30615234 C-11.29820724 184.20833496 -11.55051605 185.11051758 -11.81047058 186.04003906 C-13.28552507 191.235933 -14.98714991 196.25867555 -16.95214844 201.29052734 C-20.02806505 197.52323497 -22.89424859 193.633916 -25.70214844 189.66552734 C-26.58619934 188.42720063 -27.47031477 187.18891998 -28.35449219 185.95068359 C-29.98822753 183.65646359 -31.60215438 181.35213055 -33.20605469 179.03662109 C-34.22505859 177.58449219 -34.22505859 177.58449219 -35.26464844 176.10302734 C-35.85890625 175.24322266 -36.45316406 174.38341797 -37.06542969 173.49755859 C-39.57568663 170.56112967 -41.92296447 168.59270453 -45.85979652 168.00644875 C-48.2019801 167.88145502 -50.52774314 167.85411311 -52.87329102 167.8581543 C-54.2057486 167.84286682 -54.2057486 167.84286682 -55.56512451 167.82727051 C-58.49237381 167.79714967 -61.4192958 167.7878759 -64.34667969 167.77880859 C-66.37978706 167.76196125 -68.41288401 167.74381093 -70.44596863 167.72441101 C-75.79048407 167.67691106 -81.1349573 167.64710156 -86.47961426 167.62097168 C-91.93603859 167.59116623 -97.39231746 167.54463581 -102.84863281 167.49951172 C-113.5497286 167.41347858 -124.25085432 167.34613324 -134.95214844 167.29052734 C-135.05396352 160.60120717 -135.12378759 153.91208847 -135.171875 147.22216797 C-135.19193161 144.9486545 -135.21918382 142.67519225 -135.25390625 140.40185547 C-135.30268556 137.12503385 -135.32517741 133.8488971 -135.34277344 130.57177734 C-135.36341858 129.56312622 -135.38406372 128.5544751 -135.40533447 127.51525879 C-135.40730597 121.24827818 -134.82186367 116.36154575 -130.95214844 111.29052734 C-125.47175275 106.58383999 -120.53239581 105.56721958 -113.47851562 105.67871094 C-112.11114761 105.6702137 -112.11114761 105.6702137 -110.71615601 105.6615448 C-107.72668345 105.64812548 -104.7384415 105.66892469 -101.74902344 105.68896484 C-99.66252821 105.68346167 -97.57603839 105.67533436 -95.48956299 105.66470337 C-90.0133016 105.64186811 -84.53744027 105.64602179 -79.06115723 105.6585083 C-70.28242825 105.67685248 -61.503931 105.66690665 -52.72525787 105.63264847 C-49.66063294 105.62653784 -46.59650708 105.63980878 -43.53192139 105.65463257 C-41.65734731 105.65168547 -39.78277417 105.64803132 -37.90820312 105.64355469 C-37.05618317 105.652845 -36.20416321 105.66213531 -35.32632446 105.67170715 C-32.02013342 105.64932933 -29.50296321 105.51453798 -26.42254639 104.26176453 C-24.1384304 101.19964494 -24.4150493 98.06538889 -24.46972656 94.39770508 C-24.4638578 93.19219246 -24.4638578 93.19219246 -24.45787048 91.96232605 C-24.45188987 90.21573611 -24.45507566 88.46909643 -24.46629333 86.72253227 C-24.48354238 83.95099257 -24.47605227 81.18049747 -24.46203613 78.40895081 C-24.43236455 71.5197504 -24.44552839 64.63074762 -24.45721436 57.74151611 C-24.4654483 51.92942861 -24.45733912 46.11779605 -24.42808533 40.30577278 C-24.42103207 37.5881113 -24.43762403 34.87126821 -24.4552002 32.15367126 C-24.45346215 13.22107022 -24.45346215 13.22107022 -18.20202637 6.3735199 C-12.70065307 1.21247517 -7.44683739 -0.00918758 0 0 Z " fill="#FEFEFE" transform="translate(194.9521484375,66.70947265625)"/>
<path d="M0 0 C1.4096858 2.63106876 2.35440391 5.00486449 2.95800781 7.92529297 C3.118909 8.6902005 3.27981018 9.45510803 3.44558716 10.24319458 C3.61307465 11.06786224 3.78056213 11.89252991 3.953125 12.7421875 C4.22405472 14.04311844 4.22405472 14.04311844 4.50045776 15.37033081 C5.08906192 18.20412804 5.6695798 21.03951627 6.25 23.875 C6.65697391 25.84155737 7.06436613 27.80802821 7.47216797 29.77441406 C9.74410428 40.75572238 11.95454959 51.74824304 14.125 62.75 C16.16327164 73.07724299 18.36490837 83.358682 20.6875 93.625 C20.97318848 94.88795898 21.25887695 96.15091797 21.55322266 97.45214844 C24.6851775 112.24919738 24.6851775 112.24919738 29.4375 126.5625 C29.82808594 127.53316406 30.21867188 128.50382813 30.62109375 129.50390625 C32.14314631 132.25912321 33.25225728 133.48624356 36 135 C40.4769918 135.74252547 44.67840424 135.54587651 48.875 133.8125 C61.7817933 122.80376454 66.98296542 99.83289423 73.04052734 84.55834961 C74.28760024 81.4183728 75.54187743 78.28134734 76.796875 75.14453125 C77.36411285 73.70398125 77.36411285 73.70398125 77.94281006 72.23432922 C78.30038391 71.34207138 78.65795776 70.44981354 79.02636719 69.53051758 C79.33612488 68.74969315 79.64588257 67.96886871 79.96502686 67.16438293 C81.06792252 64.85795733 82.4039978 62.99040332 84 61 C84.53367187 61.66386719 85.06734375 62.32773438 85.6171875 63.01171875 C92.35687749 70.99906761 98.56891322 75.52270912 109 77 C111.15309312 77.10942225 113.30869662 77.17502184 115.46435547 77.20532227 C116.72520966 77.22526749 117.98606384 77.24521271 119.28512573 77.26576233 C120.64581177 77.28274134 122.00649906 77.29962033 123.3671875 77.31640625 C124.77109351 77.33700116 126.17499368 77.35799826 127.57888794 77.37937927 C131.2580082 77.43433821 134.93718197 77.4838619 138.61639404 77.53222656 C142.37712313 77.58263385 146.13777536 77.63821913 149.8984375 77.69335938 C157.26555975 77.8006203 164.6327463 77.90213521 172 78 C172.01641541 79.01775513 172.03283081 80.03551025 172.04974365 81.08410645 C172.06034946 81.73908867 172.07095528 82.39407089 172.08188248 83.06890106 C172.10486971 84.49934106 172.12751843 85.92978654 172.14983749 87.36023712 C172.19613715 90.30609646 172.24432134 93.25155561 172.31164551 96.19702148 C172.685529 112.66101392 172.685529 112.66101392 168 118 C161.92495559 122.52801652 156.57887845 123.71890161 149.13745117 123.56420898 C148.19646576 123.56505493 147.25548035 123.56590088 146.28598022 123.56677246 C144.259513 123.56560473 142.23302636 123.55316179 140.20668602 123.53045464 C136.99939185 123.49562046 133.7934765 123.4930212 130.58601379 123.49879456 C122.62899126 123.50707336 114.67242581 123.46541055 106.71557617 123.41589355 C99.97372407 123.37480787 93.23268459 123.35713693 86.49071693 123.37324715 C83.33036215 123.37111893 80.17161781 123.3339682 77.01152039 123.29600525 C75.07953657 123.29764245 73.14755318 123.30101174 71.21557617 123.30639648 C69.89782448 123.27628227 69.89782448 123.27628227 68.55345154 123.24555969 C64.2231688 123.2960899 62.62232969 123.3809229 59.45417786 126.53251648 C57.77768736 130.53010395 57.45259889 133.91221152 57.51757812 138.17333984 C57.51170937 139.3696981 57.51170937 139.3696981 57.50572205 140.59022522 C57.49976591 142.31384876 57.50288294 144.03752281 57.5141449 145.76111984 C57.53146294 148.49454724 57.52386844 151.22692219 57.5098877 153.96035767 C57.48029324 160.7485518 57.49340785 167.5365426 57.50506592 174.32476807 C57.51328821 180.06452306 57.50525366 185.80381697 57.47593689 191.54350662 C57.46887246 194.22692274 57.48548338 196.90951399 57.50305176 199.59286499 C57.4973403 201.25120478 57.49052126 202.90954125 57.48242188 204.56787109 C57.49939369 205.67475533 57.49939369 205.67475533 57.51670837 206.80400085 C57.45376147 212.22776358 56.0569971 216.48944359 53 221 C46.5961469 227.14876743 38.90713916 228.23998527 30.27392578 228.29052734 C29.54754913 228.29724457 28.82117249 228.30396179 28.07278442 228.31088257 C25.69688884 228.32971497 23.32127785 228.33377898 20.9453125 228.3359375 C19.27676279 228.34237492 17.60821417 228.34910397 15.93966675 228.35610962 C12.45145045 228.36804494 8.96333291 228.37179424 5.47509766 228.37060547 C1.02790991 228.37040232 -3.41863857 228.39771711 -7.86567497 228.43214989 C-11.30944674 228.45449662 -14.75306641 228.45844067 -18.19690323 228.45738602 C-19.83540171 228.4597298 -21.47390518 228.46848359 -23.11233139 228.48405075 C-42.79562654 228.65359109 -42.79562654 228.65359109 -49.92453003 222.27914429 C-55.37747063 216.55389995 -56.29720321 210.37620028 -56.27124023 202.65551758 C-56.27646698 201.84016037 -56.28169373 201.02480316 -56.28707886 200.18473816 C-56.29728113 198.42346421 -56.30309265 196.66216043 -56.30496025 194.90085793 C-56.30863347 192.11440138 -56.3253834 189.32829766 -56.34571838 186.54191589 C-56.40105897 178.62314393 -56.43189191 170.70432185 -56.45629883 162.78540039 C-56.47214748 157.93490123 -56.50232911 153.08465668 -56.54106331 148.23428917 C-56.55272804 146.38630557 -56.55864379 144.53827653 -56.55874443 142.69025612 C-56.55893587 140.1119983 -56.57715432 137.5344472 -56.59936523 134.95629883 C-56.59478806 134.19104889 -56.59021088 133.42579895 -56.585495 132.63735962 C-56.62382446 129.84745061 -56.72588595 127.54288394 -57.99632263 125.02677917 C-61.32342288 123.32181544 -64.80651611 123.58773246 -68.45947266 123.61523438 C-69.32327545 123.6098616 -70.18707825 123.60448883 -71.07705688 123.59895325 C-72.95459378 123.58916401 -74.83217598 123.58623455 -76.70973587 123.58930969 C-79.68670467 123.59378403 -82.66307775 123.57979561 -85.63998413 123.56091309 C-91.96831288 123.52408426 -98.29657989 123.51042633 -104.625 123.5 C-111.93898587 123.48790594 -119.2526831 123.46621527 -126.56653976 123.41999817 C-129.48959596 123.40647879 -132.41228274 123.41059115 -135.33535767 123.41540527 C-137.14496317 123.40605662 -138.95456467 123.39588579 -140.76416016 123.38476562 C-141.97090393 123.39398796 -141.97090393 123.39398796 -143.20202637 123.40339661 C-149.70114092 123.3337385 -156.18591751 122.28791014 -161.33984375 118.09765625 C-162.13068359 117.09025391 -162.13068359 117.09025391 -162.9375 116.0625 C-163.48277344 115.39347656 -164.02804688 114.72445312 -164.58984375 114.03515625 C-167.59285524 109.70117014 -168.2438336 106.82169574 -168.1953125 101.484375 C-168.18886719 100.23398437 -168.18242187 98.98359375 -168.17578125 97.6953125 C-168.15902344 96.39335937 -168.14226562 95.09140625 -168.125 93.75 C-168.11597656 92.43257813 -168.10695312 91.11515625 -168.09765625 89.7578125 C-168.07408533 86.50502538 -168.04118022 83.25260411 -168 80 C-157.334051 79.76775947 -146.66870834 79.59034786 -136.000741 79.48187828 C-131.04637586 79.4298024 -126.0937468 79.35923826 -121.14038086 79.24560547 C-116.35508255 79.13652191 -111.57144786 79.07707166 -106.78500175 79.05122757 C-104.96401217 79.03282456 -103.1431084 78.99688381 -101.32283211 78.94269943 C-87.09870488 78.53633297 -87.09870488 78.53633297 -81.94421387 82.13114929 C-79.64466046 84.64566512 -77.81310545 87.12151766 -76 90 C-74.84910873 91.53854092 -73.69154988 93.07214901 -72.5234375 94.59765625 C-71.46853803 96.08210049 -70.41904549 97.57040194 -69.375 99.0625 C-68.26007592 100.62698762 -67.14420049 102.19079773 -66.02734375 103.75390625 C-65.5051123 104.48754395 -64.98288086 105.22118164 -64.44482422 105.97705078 C-62.63782054 108.5071002 -60.80876363 111.01705449 -58.9375 113.5 C-58.45152344 114.1496875 -57.96554688 114.799375 -57.46484375 115.46875 C-55.1785335 117.85870632 -53.16929059 118.93622051 -49.8515625 119.1171875 C-44.59901631 118.54585791 -40.98933128 117.71733142 -37 114 C-31.42478617 105.39352177 -28.99069097 95.02714268 -26.0625 85.3125 C-25.5019237 83.47661672 -24.94071209 81.64092732 -24.37890625 79.80541992 C-19.41182925 63.53265133 -14.56486058 47.2223756 -9.75805664 30.90161133 C-6.69692372 20.53028873 -3.51894834 10.22619892 0 0 Z " fill="#FDFEFD" transform="translate(228,178)"/>
<path d="M0 0 C7.26 0 14.52 0 22 0 C22 39.93 22 79.86 22 121 C15.07 121 8.14 121 1 121 C0.505 116.545 0.505 116.545 0 112 C-0.9590625 113.36125 -0.9590625 113.36125 -1.9375 114.75 C-5.98393722 119.64040841 -11.93916977 121.65906496 -18 123 C-31.58905204 123.81427522 -42.01825862 123.10304996 -52.89453125 114.11328125 C-58.9978021 107.98736375 -62.95024441 100.35669586 -65 92 C-65.18175781 91.28585937 -65.36351562 90.57171875 -65.55078125 89.8359375 C-68.06435784 73.96761919 -66.00380444 58.77232438 -56.8515625 45.375 C-50.95459372 37.81095566 -43.14821513 33.58536515 -34 31 C-20.7860213 29.79999771 -11.40151987 31.33206677 -1 40 C-0.67 26.8 -0.34 13.6 0 0 Z " fill="#3AAD30" transform="translate(1281,168)"/>
<path d="M0 0 C9.88960931 8.31585593 17.08900295 17.7840177 19.25 30.75 C11 30.75 2.75 30.75 -5.75 30.75 C-7.07 28.11 -8.39 25.47 -9.75 22.75 C-14.7514295 16.9588711 -20.90356882 12.42308212 -28.68188477 11.52758789 C-37.23312929 11.05550803 -45.40450772 10.81159293 -52.75 15.75 C-53.37003906 16.13929688 -53.99007813 16.52859375 -54.62890625 16.9296875 C-62.31937927 22.5438989 -66.18365673 32.6186393 -67.75 41.75 C-68.03498154 45.00585409 -68.08413229 48.23289722 -68.0625 51.5 C-68.05758545 52.37889893 -68.0526709 53.25779785 -68.04760742 54.16333008 C-67.84638818 65.37691752 -65.70611406 76.18133154 -57.96484375 84.71875 C-49.89578676 92.29050924 -42.43086777 94.38937887 -31.56396484 94.29101562 C-23.23039584 93.95150627 -15.43568598 91.84394956 -9.3125 85.875 C-5.21608244 80.44147285 -3.66865486 73.12670585 -1.75 66.75 C-11.32 66.75 -20.89 66.75 -30.75 66.75 C-30.75 60.48 -30.75 54.21 -30.75 47.75 C-13.59 47.75 3.57 47.75 21.25 47.75 C21.25 85.43739952 21.25 85.43739952 6.5625 101.1875 C1.34581628 106.04903884 -4.13235006 109.1593696 -10.75 111.75 C-11.60335938 112.08902344 -12.45671875 112.42804688 -13.3359375 112.77734375 C-27.18924744 117.1852151 -46.52626028 117.10792891 -59.75 110.75 C-73.68520619 103.5104447 -83.74801709 92.43992444 -88.890625 77.62109375 C-89.17421875 76.67363281 -89.4578125 75.72617188 -89.75 74.75 C-90.10835937 73.63109375 -90.46671875 72.5121875 -90.8359375 71.359375 C-92.25182211 65.53600075 -92.12202819 59.57785937 -92.12060547 53.6159668 C-92.12495484 51.5836038 -92.16129311 49.5534615 -92.19921875 47.52148438 C-92.32870072 32.55482445 -87.90914312 17.64444852 -77.55859375 6.43359375 C-70.20617847 -0.41066324 -62.22575934 -5.00379673 -52.75 -8.25 C-52.03714844 -8.49621094 -51.32429688 -8.74242187 -50.58984375 -8.99609375 C-34.13744929 -13.59262014 -13.64899981 -10.12516165 0 0 Z " fill="#3AAD30" transform="translate(1088.75,176.25)"/>
<path d="M0 0 C7.59 0 15.18 0 23 0 C23 16.17 23 32.34 23 49 C41.15 49 59.3 49 78 49 C78 32.83 78 16.66 78 0 C85.92 0 93.84 0 102 0 C102 39.93 102 79.86 102 121 C94.08 121 86.16 121 78 121 C78 104.17 78 87.34 78 70 C59.85 70 41.7 70 23 70 C23 86.83 23 103.66 23 121 C15.41 121 7.82 121 0 121 C0 81.07 0 41.14 0 0 Z " fill="#39AC2F" transform="translate(506,168)"/>
<path d="M0 0 C1.49273438 -0.0309375 1.49273438 -0.0309375 3.015625 -0.0625 C12.83699171 -0.11378651 22.16252504 1.82845433 29.875 8.25 C35.38952585 14.18117892 38.09414752 20.00901609 38.17797852 28.2043457 C38.19462051 29.35606766 38.21126251 30.50778961 38.22840881 31.69441223 C38.23682297 32.92576401 38.24523712 34.15711578 38.25390625 35.42578125 C38.2798777 37.38150491 38.30585359 39.33722852 38.3320837 41.29294872 C38.36638727 44.02443267 38.39201211 46.75597146 38.41760254 49.48754883 C38.46331778 54.2548354 38.51906216 59.02199779 38.58030701 63.78910828 C38.61198178 66.32226471 38.63895638 68.85548563 38.66053772 71.38874817 C38.67402756 72.54992661 38.6875174 73.71110504 38.70141602 74.9074707 C38.71092789 75.91751663 38.72043976 76.92756256 38.73023987 77.96821594 C38.91143038 82.07589473 39.42094167 86.16347506 39.875 90.25 C32.615 90.25 25.355 90.25 17.875 90.25 C17.215 87.61 16.555 84.97 15.875 82.25 C14.4828125 83.61125 14.4828125 83.61125 13.0625 85 C3.92934498 92.6472052 -6.70452305 93.28052564 -18.14453125 92.47314453 C-26.62742184 91.51735533 -33.20573178 85.96416205 -38.51171875 79.58203125 C-42.6202942 73.0515587 -41.99937874 64.63279792 -41.125 57.25 C-38.67547802 50.21413901 -32.92639962 45.45868495 -26.33984375 42.26953125 C-19.97619102 39.49907558 -13.25747638 38.70689254 -6.4375 37.6875 C-3.86970443 37.2994491 -1.30321722 36.9026169 1.26171875 36.49609375 C2.95107544 36.24363892 2.95107544 36.24363892 4.67456055 35.98608398 C8.14976375 35.18680581 10.8373242 34.11704157 13.875 32.25 C15.21160145 28.89407137 15.21160145 28.89407137 14.875 25.25 C12.73945195 21.69075326 10.70877614 19.75161769 6.875 18.25 C0.23403025 17.58933505 -6.52523387 17.16368418 -12.125 21.25 C-14.47855339 24.36785113 -14.47855339 24.36785113 -15.125 29.25 C-22.715 29.25 -30.305 29.25 -38.125 29.25 C-36.92720776 18.46986985 -34.52317157 13.60018778 -26.3125 6.7890625 C-17.96927156 0.91900535 -9.91539157 0.05020451 0 0 Z " fill="#39AC2F" transform="translate(758.125,198.75)"/>
<path d="M0 0 C1.23748592 1.04990911 2.44667406 2.13410192 3.625 3.25 C4.54732422 4.09498047 4.54732422 4.09498047 5.48828125 4.95703125 C16.4141506 16.07006753 16.625 30.44830639 16.625 45.25 C-4.495 45.25 -25.615 45.25 -47.375 45.25 C-43.09444694 57.68898676 -43.09444694 57.68898676 -34.875 65.0625 C-28.25052068 67.3100912 -21.13061315 67.53278543 -14.75 64.5625 C-12.27259613 62.40498381 -12.27259613 62.40498381 -11.07299805 59.63598633 C-9.375 57.25 -9.375 57.25 -6.83129883 56.68237305 C-5.84154053 56.70855713 -4.85178223 56.73474121 -3.83203125 56.76171875 C-2.75888672 56.77783203 -1.68574219 56.79394531 -0.58007812 56.81054688 C1.09924805 56.87338867 1.09924805 56.87338867 2.8125 56.9375 C3.94365234 56.96005859 5.07480469 56.98261719 6.24023438 57.00585938 C9.03647976 57.06485189 11.83008097 57.1471176 14.625 57.25 C11.42306201 67.6451289 4.80077166 76.27112661 -4.8125 81.6015625 C-16.63523218 87.00735123 -32.33462782 87.5957315 -44.625 83.3125 C-55.4688518 78.2662108 -62.872731 69.79884559 -67.3671875 58.828125 C-72.4654595 44.35874351 -71.53090121 28.97083576 -65.1875 15.0625 C-59.94110166 5.29226117 -52.42665653 -1.66471496 -42.0625 -5.5625 C-28.56605254 -9.18654608 -11.61011626 -8.09390962 0 0 Z " fill="#39AC2F" transform="translate(691.375,205.75)"/>
<path d="M0 0 C7.26 0 14.52 0 22 0 C22.33 13.86 22.66 27.72 23 42 C25.64 39.69 28.28 37.38 31 35 C39.50178567 29.8989286 48.48194958 29.62478087 58.12890625 31.66015625 C66.15486741 34.23873348 72.53097342 38.66017693 76.4375 46.25 C78.48747994 50.84636759 79.12286565 54.52968351 79.11352539 59.58276367 C79.11367142 60.24644455 79.11381744 60.91012543 79.1139679 61.59391785 C79.11327182 63.78530152 79.1054937 65.97659995 79.09765625 68.16796875 C79.09579099 69.68825738 79.09436759 71.20854661 79.09336853 72.72883606 C79.08955188 76.72864443 79.07972885 80.72841644 79.06866455 84.72821045 C79.05843213 88.81033842 79.05386698 92.89247227 79.04882812 96.97460938 C79.03810583 104.98309145 79.02051591 112.99153701 79 121 C71.74 121 64.48 121 57 121 C56.9906543 119.28490234 56.98130859 117.56980469 56.97167969 115.80273438 C56.93603598 110.11084904 56.88216478 104.41932753 56.81609726 98.72771454 C56.77673097 95.27972114 56.7444901 91.83197896 56.72900391 88.38378906 C56.71084338 84.41178185 56.66084425 80.44047054 56.609375 76.46875 C56.60814636 75.24136108 56.60691772 74.01397217 56.60565186 72.74938965 C56.48608839 65.71212077 55.80976252 60.97533047 52 55 C47.64188469 50.90601289 43.23783554 50.69679647 37.5 50.796875 C33.92520057 51.08732745 31.88736314 51.85126464 29 54 C24.33377862 59.85813662 22.9166464 65.08456935 22.79467773 72.5246582 C22.77473251 73.60540115 22.75478729 74.6861441 22.73423767 75.79963684 C22.71752518 76.9550145 22.70081268 78.11039215 22.68359375 79.30078125 C22.66281265 80.49229294 22.64203156 81.68380463 22.62062073 82.91142273 C22.55531821 86.71172403 22.49632982 90.51209352 22.4375 94.3125 C22.39429644 96.89128305 22.35068156 99.47005924 22.30664062 102.04882812 C22.19965652 108.36581581 22.09833459 114.68287199 22 121 C14.74 121 7.48 121 0 121 C0 81.07 0 41.14 0 0 Z " fill="#3AAD2F" transform="translate(908,168)"/>
<path d="M0 0 C7.26 0 14.52 0 22 0 C22 7.59 22 15.18 22 23 C28.27 23 34.54 23 41 23 C41 28.61 41 34.22 41 40 C34.73 40 28.46 40 22 40 C22.0935361 46.6205306 22.1996313 53.24069557 22.31738281 59.86083984 C22.35567157 62.11306236 22.39052461 64.365346 22.421875 66.61767578 C22.46752737 69.85471447 22.52552215 73.09133236 22.5859375 76.328125 C22.60326431 77.83925873 22.60326431 77.83925873 22.62094116 79.38092041 C22.64081085 80.32159363 22.66068054 81.26226685 22.68115234 82.23144531 C22.69447601 83.05751282 22.70779968 83.88358032 22.7215271 84.73468018 C23.02949009 87.23989579 23.66388158 88.86662355 25 91 C28.04112998 92.52056499 31.28197797 92.3741161 34.625 92.5625 C37.05875 92.706875 39.4925 92.85125 42 93 C42 98.94 42 104.88 42 111 C37.83293647 111.08129387 33.66747577 111.14064936 29.5 111.1875 C28.32695313 111.21263672 27.15390625 111.23777344 25.9453125 111.26367188 C18.45936931 111.32675567 12.07023371 111.24518634 5.9765625 106.38671875 C5.53054688 105.82597656 5.08453125 105.26523437 4.625 104.6875 C4.16351562 104.13449219 3.70203125 103.58148438 3.2265625 103.01171875 C-0.7480428 96.49285974 -0.26032914 89.7652145 -0.1953125 82.3828125 C-0.1924826 81.17051971 -0.18965271 79.95822693 -0.18673706 78.709198 C-0.17556667 74.84769711 -0.15046737 70.98643047 -0.125 67.125 C-0.11496616 64.50260752 -0.10584102 61.8802114 -0.09765625 59.2578125 C-0.07563754 52.83845178 -0.04112886 46.41926558 0 40 C-4.29 40 -8.58 40 -13 40 C-13 34.39 -13 28.78 -13 23 C-8.71 23 -4.42 23 0 23 C0 15.41 0 7.82 0 0 Z " fill="#38AC2E" transform="translate(857,178)"/>
<path d="M0 0 C7.26 0 14.52 0 22 0 C22.33 39.93 22.66 79.86 23 121 C15.41 121 7.82 121 0 121 C0 81.07 0 41.14 0 0 Z " fill="#39AC2F" transform="translate(812,168)"/>
<path d="M0 0 C0 6.93 0 13.86 0 21 C-2.784375 21.1546875 -2.784375 21.1546875 -5.625 21.3125 C-12.17137842 21.88876571 -16.42830498 23.17830498 -21.125 27.875 C-29.95223347 39.38911676 -28.65725869 54.5943347 -28.75 68.3125 C-28.77820959 70.42124793 -28.80814383 72.52997353 -28.83984375 74.63867188 C-28.91630148 79.75932801 -28.95737419 84.87850881 -29 90 C-36.26 90 -43.52 90 -51 90 C-51 60.96 -51 31.92 -51 2 C-43.74 2 -36.48 2 -29 2 C-28.67 5.96 -28.34 9.92 -28 14 C-27.05125 12.783125 -26.1025 11.56625 -25.125 10.3125 C-18.31525108 2.50620246 -10.09857471 0 0 0 Z " fill="#39AC2E" transform="translate(1172,199)"/>
<path d="M0 0 C5.88487072 2.59804354 10.30188676 7.01367144 12.6875 13 C15.4430519 23.10943105 14.5937955 33.65606577 9.75 42.9375 C6.75390707 47.76847825 3.43723233 50.82546341 -2.046875 52.5 C-8.72391422 53.82593687 -14.52304955 53.64169925 -20.5 50.1953125 C-25.88440866 46.32526878 -28.51106682 41.19087998 -30.25 34.9375 C-30.69217121 31.8000774 -30.77488643 28.72818096 -30.75 25.5625 C-30.74500488 24.72831543 -30.74000977 23.89413086 -30.73486328 23.03466797 C-30.52335578 15.55605463 -28.92630954 9.86767235 -23.72265625 4.3046875 C-16.81738615 -1.84504414 -8.75681489 -2.77071096 0 0 Z " fill="#FDFEFD" transform="translate(1268.25,219.0625)"/>
<path d="M0 0 C7.26 0 14.52 0 22 0 C22 29.04 22 58.08 22 88 C14.74 88 7.48 88 0 88 C0 58.96 0 29.92 0 0 Z " fill="#38AB2D" transform="translate(1179,201)"/>
<path d="M0 0 C0.49257799 7.55286248 -0.96449136 14.81410948 -5.625 20.9375 C-10.46191271 25.98885711 -16.46606773 27.12262157 -23.25 27.375 C-28.17281151 27.21472242 -30.84902729 25.79774925 -34.59375 22.66796875 C-36.84637649 19.99610344 -36.6003892 17.5974894 -36.46875 14.21875 C-35.8393358 11.23952278 -34.37286454 9.6714814 -31.87109375 7.984375 C-24.58368536 4.15049835 -16.50183822 3.05096937 -8.4765625 1.6484375 C-5.59413045 1.11081534 -2.91213753 0 0 0 Z " fill="#FAFDFA" transform="translate(775,247)"/>
<path d="M0 0 C6.06432468 4.8299931 6.40868551 9.04342754 8 17 C-5.2 17 -18.4 17 -32 17 C-30.95435203 9.68046423 -29.49196684 6.03576716 -24.0625 1.25 C-16.57447188 -4.25140842 -8.0779112 -4.67317177 0 0 Z " fill="#FBFDFB" transform="translate(677,219)"/>
<path d="M0 0 C3.17852316 1.64448689 5.37801764 3.75603527 7 7 C7.43032996 11.21226823 7.42629046 14.91059104 5.875 18.875 C2.56215197 22.6295611 -0.62915982 23.85570103 -5.5625 24.375 C-10.45452127 23.84132495 -12.75154625 22.14722777 -16.3125 18.875 C-18.65931898 14.87671581 -18.94718129 11.52895926 -18 7 C-13.79077145 -0.47099237 -7.95212515 -1.03041622 0 0 Z " fill="#37AB2D" transform="translate(1196,167)"/>
<path d="M0 0 C17.16 0 34.32 0 52 0 C52 5.94 52 11.88 52 18 C51.67 18 51.34 18 51 18 C51 12.72 51 7.44 51 2 C34.83 2 18.66 2 2 2 C2 7.28 2 12.56 2 18 C10.91 18 19.82 18 29 18 C29 18.33 29 18.66 29 19 C19.43 19 9.86 19 0 19 C0 12.73 0 6.46 0 0 Z " fill="#2CA823" transform="translate(1058,224)"/>
<path d="M0 0 C0.33 0 0.66 0 1 0 C1 2.31 1 4.62 1 7 C0.34 7 -0.32 7 -1 7 C-1.12375 8.093125 -1.2475 9.18625 -1.375 10.3125 C-2 14 -2 14 -4 17 C-3.45018084 10.95198929 -2.09570426 5.69398894 0 0 Z " fill="#2CA723" transform="translate(209,159)"/>
<path d="M0 0 C0.33 0.66 0.66 1.32 1 2 C0.06553465 4.03144641 -0.93224776 6.03533587 -2 8 C-2.66 8 -3.32 8 -4 8 C-4.33 8.66 -4.66 9.32 -5 10 C-4.25 3.25 -4.25 3.25 -2 1 C-1.34 0.67 -0.68 0.34 0 0 Z " fill="#34A929" transform="translate(220,130)"/>
<path d="M0 0 C0.68835938 0.59748047 0.68835938 0.59748047 1.390625 1.20703125 C4.52271585 3.91142062 7.63877459 6.57991771 11 9 C6.16592748 8.58565093 4.10462326 6.62206046 1 3 C0.67 2.01 0.34 1.02 0 0 Z " fill="#2AA620" transform="translate(328,228)"/>
<path d="M0 0 C0.66 0.33 1.32 0.66 2 1 C1.01 2.485 1.01 2.485 0 4 C-0.66 4 -1.32 4 -2 4 C-2.66 5.65 -3.32 7.3 -4 9 C-4.33 8.01 -4.66 7.02 -5 6 C-2.66666667 1.33333333 -2.66666667 1.33333333 0 0 Z " fill="#2AA620" transform="translate(304,212)"/>
<path d="M0 0 C0.33 1.32 0.66 2.64 1 4 C0.34 4 -0.32 4 -1 4 C-1 4.66 -1 5.32 -1 6 C-1.66 6 -2.32 6 -3 6 C-3.33 6.99 -3.66 7.98 -4 9 C-4.33 8.34 -4.66 7.68 -5 7 C-1.125 1.125 -1.125 1.125 0 0 Z " fill="#26A21D" transform="translate(1148,208)"/>
<path d="M0 0 C0.99 0.33 1.98 0.66 3 1 C2.67 3.31 2.34 5.62 2 8 C1.34 8 0.68 8 0 8 C0 5.36 0 2.72 0 0 Z " fill="#31A927" transform="translate(1216,231)"/>
</svg>
