<?xml version="1.0" encoding="UTF-8"?>
<svg version="1.1" xmlns="http://www.w3.org/2000/svg" width="1432" height="438">
<path d="M0 0 C472.56 0 945.12 0 1432 0 C1432 144.54 1432 289.08 1432 438 C959.44 438 486.88 438 0 438 C0 293.46 0 148.92 0 0 Z " fill="#FEFEFE" transform="translate(0,0)"/>
<path d="M0 0 C2.7642556 -0.00406978 5.52849392 -0.01257593 8.29273987 -0.02079773 C14.99521809 -0.03790982 21.69760226 -0.03884163 28.40009664 -0.03358483 C33.8530101 -0.0295277 39.30589597 -0.0310049 44.75880814 -0.03633308 C45.53771894 -0.03708151 46.31662975 -0.03782993 47.11914391 -0.03860103 C48.70198174 -0.04013266 50.28481956 -0.041671 51.86765738 -0.043216 C66.67908814 -0.05691355 81.49046593 -0.05152269 96.30189545 -0.04003078 C109.82145565 -0.03010104 123.34087893 -0.04303947 136.86041801 -0.06696498 C150.77818542 -0.09140765 164.6958892 -0.1009512 178.61367762 -0.09431225 C186.41309951 -0.09083152 194.2124162 -0.09297594 202.01182175 -0.11056328 C208.65102496 -0.12535012 215.29004886 -0.12583671 221.92924879 -0.10849237 C225.30965841 -0.10003273 228.68948848 -0.09991173 232.06992149 -0.11314392 C248.79215258 -0.17357286 264.76005372 0.00031823 279.93603516 7.96655273 C280.58878418 8.30098389 281.2415332 8.63541504 281.9140625 8.97998047 C288.83688164 12.72215915 294.27490066 17.75469219 299.68603516 23.40405273 C300.29962891 24.03311523 300.91322266 24.66217773 301.54541016 25.31030273 C315.19114842 40.22214042 319.01921533 59.70720663 318.94673157 79.30648804 C318.95055711 80.42998897 318.95438266 81.55348991 318.95832413 82.71103632 C318.9685559 86.43606872 318.96468079 90.16094414 318.96069336 93.88598633 C318.96504526 96.57289633 318.97016638 99.25979525 318.97618103 101.94670105 C318.98887225 108.46381013 318.99072875 114.98087791 318.98838077 121.49799727 C318.98659129 126.79981314 318.98836068 132.10161655 318.99260521 137.40343094 C318.9932004 138.16056307 318.99379559 138.9176952 318.99440881 139.69777072 C318.99562067 141.23631981 318.99683481 142.7748689 318.99805119 144.31341799 C319.0089051 158.71276779 319.00677436 173.11209413 319.00066634 187.51144524 C318.99549827 200.65666296 319.00675358 213.80180655 319.02576456 226.94700961 C319.04518075 240.47713907 319.0533924 254.00723353 319.04964131 267.537377 C319.0477351 275.12046667 319.05016003 282.70349327 319.06435585 290.2865715 C319.07631891 296.74171321 319.07761967 303.19675299 319.06556568 309.65189622 C319.05971149 312.93890354 319.06013462 316.2256882 319.07056808 319.51268959 C319.14743668 345.62361723 315.93429222 368.18695144 297.43603516 388.15405273 C275.96984375 407.99550947 251.00269682 409.86419845 223.04711914 409.79223633 C220.37946514 409.79630788 217.71183602 409.80154589 215.04418945 409.8081665 C208.58562152 409.8214219 202.12715888 409.81866313 195.66858702 409.80992858 C190.41451239 409.80312047 185.16046702 409.80224874 179.90638924 409.80550003 C178.77962683 409.80618958 178.77962683 409.80618958 177.63010155 409.80689306 C176.10355106 409.80785235 174.57700057 409.80882499 173.05045009 409.80981083 C158.77697165 409.81834056 144.50355126 409.8085684 130.23008234 409.79240973 C118.0123273 409.779006 105.7946578 409.78133979 93.5769043 409.79516602 C79.3487999 409.81125998 65.12074621 409.81751969 50.89263397 409.80832922 C49.37237776 409.80737369 47.85212154 409.80643058 46.33186531 409.80550003 C45.58409369 409.8050372 44.83632207 409.80457438 44.06589071 409.80409753 C38.82439089 409.80151926 33.58292354 409.8058533 28.34142876 409.81293869 C21.94490881 409.82139635 15.54849915 409.81898458 9.15199166 409.80309646 C5.89534711 409.79527101 2.63892134 409.79366797 -0.61772728 409.80204391 C-27.8310062 409.86555241 -50.11137351 406.23062291 -70.31396484 386.40405273 C-71.255625 385.49913086 -71.255625 385.49913086 -72.21630859 384.57592773 C-81.81416908 374.56455399 -86.47881216 361.69883648 -89.31396484 348.40405273 C-89.49057201 347.61334696 -89.66717918 346.82264118 -89.84913808 346.00797462 C-90.30714188 343.4422744 -90.44039655 341.10240214 -90.4425993 338.49911499 C-90.44582374 337.53227626 -90.44904819 336.56543753 -90.45237035 335.56930065 C-90.45082174 334.51493974 -90.44927314 333.46057882 -90.44767761 332.37426758 C-90.44994317 331.24802381 -90.45220873 330.12178003 -90.45454293 328.96140766 C-90.46088401 325.17925816 -90.46005348 321.39714448 -90.45922852 317.61499023 C-90.46167624 314.90631474 -90.4655942 312.19764177 -90.46940613 309.4889679 C-90.4777113 302.88855707 -90.48046095 296.28815517 -90.48101851 289.68773955 C-90.48149395 284.31897555 -90.48355013 278.95021449 -90.48671913 273.58145142 C-90.49552715 258.34834891 -90.50013855 243.11525345 -90.49938866 227.88214839 C-90.4993487 227.06099303 -90.49930875 226.23983768 -90.49926758 225.39379883 C-90.4992267 224.57163608 -90.49918582 223.74947333 -90.4991437 222.90239656 C-90.4987377 209.59367336 -90.50829505 196.28497852 -90.52240594 182.97626352 C-90.53679212 169.29950036 -90.54367482 155.62275099 -90.54281217 141.94598007 C-90.54248086 134.2723038 -90.5451986 126.59865723 -90.55599022 118.92498779 C-90.56512498 112.38763619 -90.56724633 105.85032773 -90.5604808 99.31297249 C-90.55722986 95.98173998 -90.55820721 92.65065712 -90.56583405 89.31942177 C-90.5735896 85.6961107 -90.56888544 82.07301373 -90.561203 78.44970703 C-90.56634657 77.41319189 -90.57149013 76.37667675 -90.57678956 75.30875206 C-90.47878288 54.25948742 -84.35741769 36.29510052 -69.81396484 20.81811523 C-61.5665216 12.85417785 -52.33693993 6.77016038 -41.31396484 3.40405273 C-40.07961732 3.02392737 -40.07961732 3.02392737 -38.82033348 2.6361227 C-26.07754275 -0.65382239 -13.06540033 -0.02438467 0 0 Z " fill="#2EA4E8" transform="translate(141.31396484375,13.595947265625)"/>
<path d="M0 0 C1.20660782 -0.0076664 1.20660782 -0.0076664 2.43759155 -0.01548767 C5.07321805 -0.02928627 7.70858016 -0.02843422 10.34423828 -0.02612305 C12.19214981 -0.03001544 14.04006046 -0.03435122 15.88796997 -0.03910828 C19.75281683 -0.04654967 23.61757231 -0.04629443 27.48242188 -0.04101562 C32.41376543 -0.03522504 37.34473289 -0.05215225 42.27601433 -0.0753603 C46.09036412 -0.09015475 49.90462454 -0.09096157 53.71899796 -0.08785057 C55.53611114 -0.08836095 57.3532297 -0.09354506 59.17031479 -0.10366249 C81.57268807 -0.2130991 81.57268807 -0.2130991 87.45724487 4.96073914 C92.61763018 10.46882268 93.83677903 15.77313389 93.79492188 23.21435547 C93.80035255 24.39087173 93.80035255 24.39087173 93.80589294 25.59115601 C93.81276764 27.2880646 93.815296 28.98499521 93.81394577 30.68191719 C93.81297867 33.36776265 93.82594297 36.05321 93.84292603 38.73899841 C93.88915313 46.37284305 93.9138175 54.00664513 93.92041016 61.640625 C93.92541982 66.31496994 93.94963674 70.9888961 93.98573685 75.66309929 C93.99554284 77.44327215 93.99786243 79.22350255 93.99256516 81.00369453 C93.98550809 83.49103865 94.00274573 85.97712983 94.02539062 88.46435547 C94.01721817 89.19952896 94.00904572 89.93470245 94.00062561 90.69215393 C94.05270104 93.90393969 94.36041477 95.98801566 96.07504272 98.73165894 C99.49339111 100.87184632 102.57629509 100.82379624 106.48583984 100.77294922 C107.28311996 100.77846802 108.08040009 100.78398682 108.90184021 100.78967285 C110.63093861 100.79898901 112.36010562 100.79910115 114.08921051 100.79107857 C116.83087849 100.77844602 119.57153993 100.78974196 122.31317139 100.80711365 C127.15002352 100.83383781 131.98662939 100.83940889 136.82354736 100.8380127 C144.55090018 100.83578648 152.27794653 100.85003612 160.00518036 100.89359856 C162.69732402 100.90339935 165.38898238 100.89473672 168.08111572 100.88490295 C169.74597484 100.89105192 171.41083137 100.89796523 173.07568359 100.90576172 C173.8167485 100.89804245 174.55781342 100.89032318 175.32133484 100.88237 C180.94507281 100.93638209 186.79442558 101.79512356 191.10780716 105.69118595 C194.64113693 109.77733217 195.66637003 112.92741656 195.65307617 118.20507812 C195.65300064 119.20588913 195.65292511 120.20670013 195.65284729 121.23783875 C195.647686 122.31604385 195.64252472 123.39424896 195.63720703 124.50512695 C195.63508461 126.16346306 195.63508461 126.16346306 195.63291931 127.8553009 C195.62731592 131.39094738 195.61476283 134.92653083 195.60205078 138.4621582 C195.59703622 140.85733958 195.59247324 143.25252195 195.58837891 145.64770508 C195.57734539 151.52337767 195.56060394 157.39901343 195.53955078 163.2746582 C187.6742659 163.37616654 179.80915028 163.44616979 171.94335938 163.49438477 C169.26791703 163.51222645 166.59333062 163.54176869 163.91796875 163.57641602 C160.07036507 163.62499326 156.22334291 163.64764185 152.37548828 163.6652832 C151.18152435 163.68592834 149.98756042 163.70657349 148.75741577 163.72784424 C142.37945501 163.72956363 138.35111417 163.64216316 133.53955078 159.2746582 C131.66845703 157.2668457 131.66845703 157.2668457 130.10205078 155.1496582 C129.51939453 154.37235352 128.93673828 153.59504883 128.33642578 152.79418945 C125.88740708 149.36023931 123.52808007 145.8681432 121.21533203 142.34106445 C119.42041693 140.12775422 118.20816991 139.21957782 115.53955078 138.2746582 C111.37525669 138.35037264 109.23559518 138.68785814 106.02270508 141.39648438 C103.35312815 144.4907369 101.76602056 147.52341492 100.24658203 151.26293945 C99.9562056 151.95164627 99.66582916 152.64035309 99.36665344 153.34992981 C95.48221711 162.65092004 91.86083285 172.06126641 88.22705078 181.4621582 C87.50536403 183.32230783 86.78336038 185.18233454 86.06103516 187.04223633 C85.04824979 189.65021833 84.03589972 192.25835846 83.02604675 194.86747742 C81.55099638 198.67833829 80.06863017 202.48503505 78.53955078 206.2746582 C77.87955078 206.2746582 77.21955078 206.2746582 76.53955078 206.2746582 C76.32975586 205.2851416 76.11996094 204.295625 75.90380859 203.27612305 C71.02830102 180.30485522 66.03291033 157.36271847 60.90591431 134.44622803 C58.0200333 121.54631567 55.17474807 108.63987974 52.43408203 95.70825195 C52.18358093 94.53001358 51.93307983 93.35177521 51.67498779 92.13783264 C50.47476807 86.49090325 49.28255233 80.84251183 48.10449219 75.19091797 C47.67564441 73.16667356 47.24646365 71.14249966 46.81689453 69.1184082 C46.6298848 68.20534409 46.44287506 67.29227997 46.25019836 66.35154724 C45.06011126 60.79579607 43.77401561 55.66872766 39.78955078 51.3996582 C36.46393569 49.73685066 34.20516892 49.76018548 30.53955078 50.2746582 C25.03502981 54.38598065 23.9414228 59.31930386 22.28955078 65.6652832 C21.99836365 66.72577881 21.70717651 67.78627441 21.40716553 68.87890625 C20.77179375 71.1994814 20.14400237 73.52214207 19.52282715 75.84655762 C17.99783456 81.5510333 16.42719998 87.24295175 14.86153412 92.93636322 C14.29737915 94.99054704 13.73534484 97.04530229 13.17364502 99.10015869 C8.59962424 115.80986803 3.79149118 132.45239115 -1.01074219 149.09764099 C-1.93493785 152.30332377 -2.85674765 155.50969024 -3.77846146 158.71608734 C-4.65644683 161.76961904 -5.53562436 164.82280645 -6.41518402 167.87588501 C-6.8222785 169.28930882 -7.22907581 170.70281827 -7.63553619 172.11642456 C-10.15226861 180.86530759 -12.75105295 189.58340037 -15.46044922 198.2746582 C-19.68886995 196.42787517 -21.12686886 193.86926542 -23.21044922 189.8996582 C-23.90773741 188.63094908 -24.60833156 187.36405201 -25.31201172 186.09887695 C-25.8442334 185.14053955 -25.8442334 185.14053955 -26.38720703 184.1628418 C-33.01539628 172.4089795 -33.01539628 172.4089795 -43.46044922 164.2746582 C-46.17522237 164.1521253 -48.86601928 164.08895004 -51.58203125 164.06933594 C-52.42113037 164.05943634 -53.26022949 164.04953674 -54.12475586 164.03933716 C-56.90589551 164.00768028 -59.68705226 163.9829482 -62.46826172 163.95825195 C-64.3935491 163.93768604 -66.31883193 163.91668967 -68.24411011 163.89527893 C-73.3174064 163.8400208 -78.39074369 163.79062804 -83.46411133 163.74243164 C-88.6387091 163.69224391 -93.81324715 163.63654362 -98.98779297 163.58129883 C-109.14529407 163.4736715 -119.30284696 163.3722367 -129.46044922 163.2746582 C-129.53663015 156.2638242 -129.58910417 149.25309731 -129.62524414 142.24194336 C-129.64031322 139.8577882 -129.66077212 137.47366067 -129.68676758 135.08959961 C-129.72323259 131.65902883 -129.74019474 128.2288252 -129.75341797 124.7980957 C-129.76890182 123.73537445 -129.78438568 122.6726532 -129.80033875 121.57772827 C-129.80158985 116.05313112 -129.63905481 112.0169751 -126.46044922 107.2746582 C-121.35054696 102.16475595 -115.44449668 101.06104537 -108.36665344 101.00679016 C-107.62199326 101.01091415 -106.87733307 101.01503815 -106.11010742 101.01928711 C-105.30596405 101.01566666 -104.50182068 101.0120462 -103.67330933 101.00831604 C-101.93933046 101.00145836 -100.20533017 100.99890975 -98.47133827 101.00026321 C-95.72652825 101.00123296 -92.98210495 100.98823584 -90.23735046 100.97128296 C-82.43796701 100.9251287 -74.63862682 100.90038463 -66.83911133 100.89379883 C-62.05872312 100.88879016 -57.27874463 100.86458259 -52.4984951 100.82847214 C-50.67924646 100.818668 -48.85994155 100.81634554 -47.04067421 100.82164383 C-44.50087057 100.82869857 -41.96229491 100.81146927 -39.42260742 100.78881836 C-38.67187454 100.79699081 -37.92114166 100.80516327 -37.1476593 100.81358337 C-33.89463363 100.76189895 -31.77072726 100.46918422 -28.9929657 98.72769165 C-26.88876716 95.35959123 -26.91839873 92.36155133 -26.97802734 88.51196289 C-26.97215858 87.34530342 -26.97215858 87.34530342 -26.96617126 86.15507507 C-26.96020004 84.46852172 -26.96335954 82.78191682 -26.97459412 81.09539032 C-26.9918646 78.42092231 -26.98434276 75.74753462 -26.97033691 73.07305908 C-26.94069076 66.42842919 -26.95384871 59.78400532 -26.96551514 53.13934326 C-26.97373843 47.52760425 -26.96569153 41.91633684 -26.93638611 36.30466461 C-26.92931985 33.67886061 -26.94593783 31.05389915 -26.96350098 28.42816162 C-26.95778887 26.80374712 -26.95096951 25.179336 -26.94287109 23.55493164 C-26.95984291 22.47138649 -26.95984291 22.47138649 -26.97715759 21.36595154 C-26.89557563 14.47634206 -24.45221243 9.35695611 -19.71044922 4.3996582 C-13.57353851 0.38706274 -7.1292209 -0.02383577 0 0 Z " fill="#FDFEFE" transform="translate(222.46044921875,54.725341796875)"/>
<path d="M0 0 C0.66 0 1.32 0 2 0 C7.03278196 19.98570365 11.7196874 40.01336923 15.9375 60.1875 C19.24050408 75.96574015 22.70624065 91.69216737 26.4375 107.375 C26.75169388 108.70427017 26.75169388 108.70427017 27.07223511 110.06039429 C27.66678862 112.57015295 28.26759598 115.07831619 28.87109375 117.5859375 C29.04257935 118.30887497 29.21406494 119.03181244 29.39074707 119.7766571 C30.29714401 123.4990369 31.31016593 127.17902132 32.44555664 130.83837891 C32.78219078 131.92525497 32.78219078 131.92525497 33.12562561 133.03408813 C34.44073809 135.99093964 36.12745734 137.56372867 39 139 C45.15573329 139.4351171 45.15573329 139.4351171 51 138 C51.72202463 136.35655768 52.37608454 134.68313746 53 133 C53.40589355 131.97011963 53.81178711 130.94023926 54.22998047 129.87915039 C54.68775879 128.71375732 55.14553711 127.54836426 55.6171875 126.34765625 C62.60310522 108.57617701 69.64481712 90.82834356 76.75439453 73.10595703 C78.5059104 68.73849625 80.25335775 64.36941173 82 60 C82.66 60 83.32 60 84 60 C85.19303945 61.70434207 86.30532251 63.46564716 87.375 65.25 C90.70101549 70.78847513 93.16445107 74.85610858 99.65368652 76.59008789 C105.04721908 77.53236365 110.56764217 77.36548175 116.02734375 77.4140625 C117.38498582 77.43279754 118.74261654 77.45237266 120.10023499 77.4727478 C123.65273304 77.52382867 127.20526875 77.56358202 130.75793457 77.60089111 C134.39145029 77.64108262 138.02481265 77.69210542 141.65820312 77.7421875 C148.77202281 77.83866146 155.88593896 77.92315641 163 78 C163.07460234 82.42908378 163.12881371 86.8578269 163.16479492 91.28735352 C163.17980722 92.79165017 163.20022353 94.29590361 163.22631836 95.80004883 C163.26303816 97.97227696 163.27980161 100.14392251 163.29296875 102.31640625 C163.3086792 103.62037354 163.32438965 104.92434082 163.34057617 106.26782227 C162.83950061 111.7588202 161.22827759 115.54546075 157.625 119.8125 C148.85241554 126.34277919 133.210946 124.32520586 122.703125 124.37890625 C120.97531222 124.39511709 119.24750833 124.41230071 117.51971436 124.43040466 C113.01578867 124.47567032 108.51185062 124.51071164 104.0078125 124.54260254 C96.75806837 124.59490903 89.50845265 124.65949054 82.25887299 124.73081779 C79.72998763 124.75366357 77.20111912 124.76991131 74.67218018 124.78553772 C73.13724569 124.79893265 71.60231309 124.81254642 70.06738281 124.82641602 C69.36204407 124.82902939 68.65670532 124.83164276 67.92999268 124.83433533 C64.6843699 124.59545258 64.6843699 124.59545258 62 126 C61.89158964 128.26730566 61.85367994 130.53799395 61.84228516 132.80786133 C61.83720444 133.52024963 61.83212372 134.23263794 61.82688904 134.96661377 C61.8161583 136.52061023 61.80754881 138.07462241 61.80076981 139.62864113 C61.78898696 142.0978614 61.76952912 144.56690626 61.74765015 147.03605652 C61.68606128 154.05937737 61.63225758 161.08268662 61.59863281 168.10620117 C61.57752278 172.39988377 61.54207582 176.69325693 61.49787521 180.98676109 C61.48382578 182.6151734 61.4750181 184.24364059 61.47182083 185.87211037 C61.42599595 207.00450709 61.42599595 207.00450709 56.25 216.0625 C49.39707135 221.963633 40.82306524 222.1547251 32.18798828 222.12939453 C31.44064423 222.13114685 30.69330017 222.13289917 29.92330933 222.13470459 C27.4722862 222.13907704 25.02133626 222.13620082 22.5703125 222.1328125 C20.85309841 222.133487 19.13588442 222.13445825 17.41867065 222.13571167 C13.82614225 222.13718253 10.23363878 222.1350543 6.64111328 222.13037109 C2.05615813 222.12468282 -2.52873835 222.127951 -7.11369133 222.13394356 C-10.65862462 222.13757306 -14.20354421 222.13639949 -17.74847794 222.13381577 C-19.43802014 222.13315265 -21.12756363 222.13395321 -22.81710434 222.13629532 C-47.07133224 222.16253676 -47.07133224 222.16253676 -54 217 C-58.52158259 211.09033279 -59.14747408 205.53096158 -59.17358398 198.32568359 C-59.180271 197.55778 -59.18695801 196.7898764 -59.19384766 195.998703 C-59.20787215 194.33506209 -59.21977443 192.67140223 -59.22979546 191.00773239 C-59.24622637 188.37720535 -59.269462 185.74681999 -59.29469299 183.11636353 C-59.36543343 175.6388454 -59.42573816 168.16127176 -59.47680664 160.68359375 C-59.50853309 156.10775481 -59.54978338 151.53208297 -59.59700203 146.95637894 C-59.61305008 145.21084203 -59.62535864 143.4652667 -59.63390923 141.71967697 C-59.64601451 139.28478675 -59.67014051 136.85029269 -59.69702148 134.41552734 C-59.69761063 133.69029373 -59.69819977 132.96506012 -59.69880676 132.21784973 C-59.64408654 128.15948851 -59.64408654 128.15948851 -62 125 C-64.53196017 124.67492551 -64.53196017 124.67492551 -67.52172852 124.69702148 C-68.68217178 124.68037949 -69.84261505 124.66373749 -71.03822327 124.64659119 C-72.30564865 124.63817703 -73.57307404 124.62976288 -74.87890625 124.62109375 C-76.88904111 124.59509654 -78.89917594 124.56909586 -80.90930843 124.5429163 C-83.74647626 124.50843455 -86.58369943 124.48296198 -89.42095947 124.45739746 C-105.64407035 124.30666545 -121.87322978 124.15116573 -138.08984375 123.66015625 C-139.09849991 123.6393248 -140.10715607 123.61849335 -141.14637756 123.59703064 C-147.86834235 123.35884126 -152.83071964 122.39837432 -158.3125 118.25 C-162.03316283 113.28911623 -162.24517962 107.54414459 -162.1953125 101.53515625 C-162.1924826 100.85698349 -162.18965271 100.17881073 -162.18673706 99.48008728 C-162.17565416 97.34070234 -162.1505736 95.2017557 -162.125 93.0625 C-162.11495476 91.60091756 -162.10583163 90.13932847 -162.09765625 88.67773438 C-162.07575425 85.11835021 -162.04130866 81.55921797 -162 78 C-151.78615505 77.88411692 -141.57246665 77.79529012 -131.35809803 77.74093914 C-126.61504193 77.71485234 -121.8724358 77.67947125 -117.12963867 77.62280273 C-112.5519691 77.56844991 -107.97473213 77.53857256 -103.39676476 77.52561378 C-101.65081662 77.51637973 -99.904892 77.49834739 -98.15912819 77.47134972 C-95.71209301 77.43501437 -93.26684191 77.43005629 -90.81958008 77.43237305 C-90.09884811 77.41439667 -89.37811615 77.39642029 -88.63554382 77.37789917 C-84.75430638 77.41762122 -83.15849022 77.86913212 -80.12586975 80.37321472 C-78.03714712 82.95409995 -76.21215946 85.52175214 -74.4765625 88.3515625 C-73.8475 89.36863281 -73.2184375 90.38570313 -72.5703125 91.43359375 C-71.60738281 93.01333984 -71.60738281 93.01333984 -70.625 94.625 C-68.7137128 97.72889933 -66.80113046 100.83199468 -64.88769531 103.93457031 C-63.62037081 105.99257942 -62.35937865 108.05450037 -61.10449219 110.12011719 C-60.50024414 111.09883789 -59.89599609 112.07755859 -59.2734375 113.0859375 C-58.73895996 113.96040527 -58.20448242 114.83487305 -57.65380859 115.73583984 C-55.18885873 119.11049958 -52.95024025 120.68325325 -49 122 C-45.4659761 122.26177955 -42.69205083 122.22531887 -39.3125 121.125 C-31.79021611 114.21263102 -29.92966632 99.04603339 -27.1328125 89.4765625 C-26.57041409 87.56565698 -26.00756997 85.65488258 -25.44430542 83.74423218 C-23.96611755 78.7259497 -22.49362717 73.70601371 -21.02246094 68.68566895 C-19.25111858 62.64474579 -17.47313075 56.60577617 -15.69611931 50.56651878 C-14.3095221 45.85363677 -12.92383484 41.14049475 -11.54129028 36.42642212 C-10.28738096 32.15199796 -9.02996856 27.87862278 -7.76902008 23.60626984 C-7.23441155 21.79443925 -6.7006332 19.98236359 -6.16750336 18.17009735 C-5.3414412 15.36548041 -4.51090053 12.5622265 -3.67919922 9.75927734 C-3.29796496 8.46148566 -3.29796496 8.46148566 -2.90902901 7.13747597 C-1.11436759 1.11436759 -1.11436759 1.11436759 0 0 Z " fill="#FDFEFE" transform="translate(255,161)"/>
<path d="M0 0 C7.92 0 15.84 0 24 0 C24 41.58 24 83.16 24 126 C16.41 126 8.82 126 1 126 C0.67 122.7 0.34 119.4 0 116 C-0.928125 117.0725 -1.85625 118.145 -2.8125 119.25 C-10.56086598 126.81424639 -19.63611448 127.58510201 -30.00415039 127.47290039 C-42.37884041 127.01841043 -51.24573365 122.18997042 -59.6875 113.3125 C-70.00622888 100.94416059 -71.09779112 85.41979873 -70 70 C-68.31184341 58.31057956 -62.34770584 47.29253647 -53 40 C-41.82093019 33.0219819 -29.56991533 31.05955634 -16.609375 33.6875 C-9.59570982 35.80217292 -7.00747469 37.85073598 -1 43 C-0.67 28.81 -0.34 14.62 0 0 Z " fill="#0B427B" transform="translate(1348,157)"/>
<path d="M0 0 C11.15373486 8.12413931 16.47652922 17.56362489 19 31 C19 31.33 19 31.66 19 32 C10.42 32 1.84 32 -7 32 C-8.32 29.36 -9.64 26.72 -11 24 C-16.39077515 17.72002482 -22.87880049 14.33039593 -31 13 C-41.8214161 12.24559271 -50.03867366 13.1022097 -59.25 19.125 C-69.4752454 29.81502928 -72.37643162 43.00044878 -72.2109375 57.3984375 C-71.47502852 69.96340188 -68.5890289 81.9461103 -59.3125 90.9375 C-50.20925141 98.08269135 -40.26526969 98.99399438 -29 98 C-20.45496792 96.60653789 -13.99630064 92.7848008 -8.625 86 C-5.68596461 80.57408851 -4.88638838 76.20471863 -4 70 C-14.56 70 -25.12 70 -36 70 C-36 63.4 -36 56.8 -36 50 C-17.52 50 0.96 50 20 50 C20 89.54507576 20 89.54507576 5.1875 105.375 C-9.47092846 118.93615646 -27.45650145 120.68755336 -46.53613281 120.13183594 C-61.91925752 119.30871987 -74.67995538 111.21604942 -84.77734375 100.03125 C-91.62075049 91.53358463 -94.767254 81.53011289 -97 71 C-97.17200928 70.22027832 -97.34401855 69.44055664 -97.52124023 68.63720703 C-100.76651276 50.76090215 -98.13577969 29.29810227 -88 14 C-67.38241265 -13.39667046 -28.5432075 -17.58343524 0 0 Z " fill="#0B4079" transform="translate(1139,165)"/>
<path d="M0 0 C8.25 0 16.5 0 25 0 C25 15.84 25 31.68 25 48 C42.82 48 60.64 48 79 48 C79 32.16 79 16.32 79 0 C87.58 0 96.16 0 105 0 C105 41.58 105 83.16 105 126 C96.75 126 88.5 126 80 126 C80 108.18 80 90.36 80 72 C61.85 72 43.7 72 25 72 C25 89.82 25 107.64 25 126 C16.75 126 8.5 126 0 126 C0 84.42 0 42.84 0 0 Z " fill="#0D467E" transform="translate(518,157)"/>
<path d="M0 0 C0.88478027 0.00563965 1.76956055 0.0112793 2.68115234 0.01708984 C13.94061794 0.22686775 23.29181694 3.34654805 31.91015625 10.87109375 C43.81927584 23.57212411 43.125 39.88121038 43.125 56.3125 C21.675 56.3125 0.225 56.3125 -21.875 56.3125 C-19.1037857 65.549881 -17.59767646 70.44185352 -9.6875 75.25 C-1.84840887 77.43466474 5.8796429 77.20626334 13.125 73.3125 C16.73005103 70.83242122 16.73005103 70.83242122 19.125 67.3125 C26.715 67.3125 34.305 67.3125 42.125 67.3125 C38.63429961 78.94816797 35.4235083 84.91303384 25.04296875 91.0234375 C17.21944817 94.47961125 9.90945432 95.87217093 1.375 95.8125 C0.41634033 95.80677979 -0.54231934 95.80105957 -1.5300293 95.79516602 C-13.65721219 95.49231784 -24.09120238 91.99131199 -32.875 83.3125 C-44.17629544 71.4258785 -45.3657255 57.49896833 -45.1484375 41.859375 C-44.73522989 29.72498128 -40.34984329 20.05983168 -31.92578125 11.28125 C-22.67019794 2.69846941 -12.4189936 -0.0826516 0 0 Z " fill="#0C4179" transform="translate(681.875,189.6875)"/>
<path d="M0 0 C7.24310494 6.04868172 11.2397361 12.95521026 12.5625 22.25 C12.64584898 24.43412195 12.68034497 26.62044489 12.67602539 28.80615234 C12.67591209 30.72746475 12.67591209 30.72746475 12.67579651 32.68759155 C12.67069105 34.07037394 12.66547508 35.45315592 12.66015625 36.8359375 C12.65828917 38.26225739 12.65686664 39.68857792 12.65586853 41.11489868 C12.65206615 44.85326942 12.64225552 48.59160078 12.63116455 52.32995605 C12.62090124 56.15095487 12.6163604 59.9719601 12.61132812 63.79296875 C12.60063103 71.27866579 12.58305289 78.76432234 12.5625 86.25 C5.6325 86.25 -1.2975 86.25 -8.4375 86.25 C-8.7675 82.62 -9.0975 78.99 -9.4375 75.25 C-10.2625 76.3225 -11.0875 77.395 -11.9375 78.5 C-15.26350676 82.382956 -18.71091937 84.41671229 -23.4375 86.25 C-24.34242188 86.60578125 -25.24734375 86.9615625 -26.1796875 87.328125 C-36.05360722 90.12218382 -46.87672572 89.1230531 -56.046875 84.67578125 C-59.05652352 82.88081113 -61.24779341 80.98713324 -63.4375 78.25 C-64.159375 77.445625 -64.88125 76.64125 -65.625 75.8125 C-70.42008111 69.0332474 -70.15907403 61.23298361 -69.4375 53.25 C-67.57158351 46.16622124 -62.63148294 41.75958411 -56.51171875 38.09765625 C-41.57072274 30.64122698 -24.63035023 31.89122193 -8.4375 32.25 C-8.72522434 30.31392151 -9.02265475 28.37928364 -9.32421875 26.4453125 C-9.5711145 24.82906982 -9.5711145 24.82906982 -9.82299805 23.18017578 C-10.57877468 19.57634936 -11.63702649 17.65040587 -14.4375 15.25 C-18.62857276 13.12803343 -22.27432689 12.95148952 -26.9375 12.9375 C-28.87109375 12.91236328 -28.87109375 12.91236328 -30.84375 12.88671875 C-34.61614318 13.2680585 -36.45679604 13.96551886 -39.4375 16.25 C-40.99351559 18.5284514 -42.20711817 20.78923634 -43.4375 23.25 C-50.3675 23.25 -57.2975 23.25 -64.4375 23.25 C-63.41719872 14.06728852 -61.91468567 7.9071075 -55.4375 1.25 C-40.81333255 -10.38680783 -15.243157 -10.48683358 0 0 Z " fill="#0A3F78" transform="translate(805.4375,196.75)"/>
<path d="M0 0 C7.92 0 15.84 0 24 0 C24.33 15.18 24.66 30.36 25 46 C27.31 43.36 29.62 40.72 32 38 C41.56821927 32.51234483 51.41732443 31.47242215 62.21875 33.6484375 C71.5492977 36.71493773 77.51387161 42.19554193 82.08984375 50.7890625 C83.99292529 55.41199878 84.12272451 59.8514906 84.11352539 64.80981445 C84.11367142 65.47378738 84.11381744 66.13776031 84.1139679 66.82185364 C84.11327483 69.00236349 84.10551099 71.18278644 84.09765625 73.36328125 C84.09578992 74.8807114 84.09436703 76.39814215 84.09336853 77.91557312 C84.08956032 81.89891235 84.07974459 85.8822148 84.06866455 89.86553955 C84.05841389 93.93444318 84.05386309 98.00335279 84.04882812 102.07226562 C84.03812074 110.04819579 84.02053774 118.02408908 84 126 C76.74 126 69.48 126 62 126 C61.970271 123.51823242 61.970271 123.51823242 61.93994141 120.98632812 C61.86368064 114.82862524 61.77499454 108.67115233 61.68261719 102.51367188 C61.64335922 99.85222447 61.6095454 97.19086667 61.578125 94.52929688 C61.53229105 90.69643269 61.47432585 86.8639112 61.4140625 83.03125 C61.40251129 81.84760864 61.39096008 80.66396729 61.37905884 79.44445801 C61.26293741 67.15195406 61.26293741 67.15195406 55 57 C48.63119464 53.87050081 41.23476063 53.94135107 34.5625 56.125 C29.13802438 60.0941285 26.1603623 64.41611119 25 71 C24.67806244 75.23699375 24.62798677 79.46693278 24.5859375 83.71484375 C24.56657135 84.92572159 24.5472052 86.13659943 24.5272522 87.38417053 C24.46767962 91.23520967 24.42115984 95.08627905 24.375 98.9375 C24.33679973 101.55535127 24.29774682 104.17319024 24.2578125 106.79101562 C24.16039868 113.19394489 24.08065081 119.59675002 24 126 C16.08 126 8.16 126 0 126 C0 84.42 0 42.84 0 0 Z " fill="#0B427A" transform="translate(944,157)"/>
<path d="M0 0 C7.59 0 15.18 0 23 0 C23 7.92 23 15.84 23 24 C30.92 24 38.84 24 47 24 C47 30.27 47 36.54 47 43 C39.08 43 31.16 43 23 43 C23.07427285 48.95975622 23.15734968 54.91808651 23.26245117 60.87719727 C23.29555228 62.90120874 23.32362957 64.92530924 23.34643555 66.94946289 C23.38025537 69.87163973 23.43258341 72.79301158 23.48828125 75.71484375 C23.49467117 76.60896469 23.5010611 77.50308563 23.50764465 78.42430115 C23.64205824 84.26563337 24.40517809 89.69308119 27 95 C30.29625296 96.64812648 33.99458475 96.38249331 37.625 96.5625 C40.38875 96.706875 43.1525 96.85125 46 97 C46 102.94 46 108.88 46 115 C16.59653053 117.86863117 16.59653053 117.86863117 7.09375 110.52734375 C-0.21409273 102.95083033 -0.43461494 92.58154359 -0.29296875 82.6484375 C-0.28872391 81.50839264 -0.28447906 80.36834778 -0.28010559 79.1937561 C-0.26344334 75.58725387 -0.22581395 71.98133057 -0.1875 68.375 C-0.17243709 65.91537271 -0.15875151 63.45573657 -0.14648438 60.99609375 C-0.11358057 54.99717608 -0.06188465 48.99868586 0 43 C-4.95 43 -9.9 43 -15 43 C-15 36.73 -15 30.46 -15 24 C-10.05 24 -5.1 24 0 24 C0 16.08 0 8.16 0 0 Z " fill="#0B3F78" transform="translate(885,168)"/>
<path d="M0 0 C7.59 0 15.18 0 23 0 C23 41.58 23 83.16 23 126 C15.41 126 7.82 126 0 126 C0 84.42 0 42.84 0 0 Z " fill="#0A3E77" transform="translate(835,157)"/>
<path d="M0 0 C0 7.92 0 15.84 0 24 C-2.10375 23.896875 -4.2075 23.79375 -6.375 23.6875 C-13.30098678 23.70850906 -18.49778241 24.64407774 -24 29 C-28.13002537 33.91396537 -30.09650428 38.69375244 -30.20532227 45.11401367 C-30.22526749 46.15486618 -30.24521271 47.19571869 -30.26576233 48.26811218 C-30.29083107 49.95104118 -30.29083107 49.95104118 -30.31640625 51.66796875 C-30.33718735 52.81791824 -30.35796844 53.96786774 -30.37937927 55.15266418 C-30.44483342 58.83088125 -30.50374074 62.50917048 -30.5625 66.1875 C-30.60568913 68.67904396 -30.64930355 71.17058059 -30.69335938 73.66210938 C-30.8013119 79.77466665 -30.90041666 85.88727767 -31 92 C-38.59 92 -46.18 92 -54 92 C-54 62.3 -54 32.6 -54 2 C-46.41 2 -38.82 2 -31 2 C-31 6.29 -31 10.58 -31 15 C-30.34 15 -29.68 15 -29 15 C-28.7525 14.278125 -28.505 13.55625 -28.25 12.8125 C-25.54145693 6.71827808 -21.86585142 3.76757841 -15.94921875 0.9375 C-10.6172813 -0.75742051 -5.54807935 -0.2951106 0 0 Z " fill="#0B447C" transform="translate(1229,191)"/>
<path d="M0 0 C7.92 0 15.84 0 24 0 C24 30.03 24 60.06 24 91 C16.08 91 8.16 91 0 91 C0 60.97 0 30.94 0 0 Z " fill="#0A457D" transform="translate(1240,192)"/>
<path d="M0 0 C6.29427074 6.65394335 7.38673901 14.21200307 7.4375 23 C7.458125 23.87333984 7.47875 24.74667969 7.5 25.64648438 C7.54271183 32.7953777 6.56766657 38.4938817 1.8125 44.125 C-5.71722902 50.39977418 -12.21883936 50.95454679 -21.8125 50.3125 C-27.84467 49.29527066 -31.56710424 46.33881407 -35.3359375 41.59765625 C-40.9131505 32.96625518 -41.16922001 22.07050156 -39.19140625 12.21875 C-37.08945939 5.41778415 -33.76519075 1.1957006 -27.8125 -2.6875 C-18.86576777 -7.16086611 -8.2545116 -4.95270696 0 0 Z " fill="#FCFDFD" transform="translate(1341.8125,214.6875)"/>
<path d="M0 0 C2.74094897 0.00252395 5.48189029 0.00050102 8.22283936 -0.00132751 C14.10053513 -0.00289251 19.97813018 0.00643508 25.85580063 0.023386 C34.35366922 0.04787736 42.85148963 0.05559158 51.34938969 0.05934998 C65.14018055 0.06589865 78.93091786 0.0858166 92.72167969 0.11425781 C106.10969782 0.14183954 119.49770134 0.16305293 132.88574219 0.17578125 C133.71244883 0.17656942 134.53915547 0.17735759 135.39091383 0.17816965 C139.53869666 0.18208506 143.6864796 0.18587611 147.83426261 0.18960536 C182.18658469 0.2206519 216.53884319 0.27344426 250.89111328 0.34057617 C250.89111328 0.67057617 250.89111328 1.00057617 250.89111328 1.34057617 C249.60950978 1.34480811 248.32790628 1.34904005 247.00746632 1.35340023 C216.54736179 1.45419482 186.08727881 1.55992655 155.62721272 1.67169311 C151.87362697 1.68546179 148.12004107 1.69918902 144.36645508 1.71289062 C143.24560367 1.71698308 143.24560367 1.71698308 142.1021088 1.72115821 C130.02172822 1.76516744 117.94133859 1.80582366 105.86094222 1.84522878 C93.4544595 1.88577266 81.04799349 1.92994756 68.64153546 1.97745472 C60.99338781 2.00662794 53.3452412 2.03300876 45.69707169 2.05575515 C39.82078925 2.07353607 33.94453315 2.09638229 28.06827545 2.12106705 C25.66619381 2.13037717 23.26410525 2.13807371 20.86201286 2.14399529 C4.98933647 2.1296222 4.98933647 2.1296222 -10.83408833 3.22670078 C-13.10888672 3.34057617 -13.10888672 3.34057617 -16.10888672 2.34057617 C-16.43888672 3.00057617 -16.76888672 3.66057617 -17.10888672 4.34057617 C-17.10888672 3.68057617 -17.10888672 3.02057617 -17.10888672 2.34057617 C-17.78951172 2.50557617 -18.47013672 2.67057617 -19.17138672 2.84057617 C-22.10888672 3.34057617 -22.10888672 3.34057617 -25.67138672 3.27807617 C-29.00035046 3.33860279 -30.30194407 3.78116359 -33.10888672 5.34057617 C-33.76888672 5.01057617 -34.42888672 4.68057617 -35.10888672 4.34057617 C-35.10888672 5.00057617 -35.10888672 5.66057617 -35.10888672 6.34057617 C-36.68669922 6.52620117 -36.68669922 6.52620117 -38.29638672 6.71557617 C-41.63433293 7.26278047 -44.13740671 7.77229506 -47.10888672 9.34057617 C-47.52138672 9.97995117 -47.93388672 10.61932617 -48.35888672 11.27807617 C-50.38449093 13.66539543 -51.16108454 13.72862563 -54.10888672 14.46557617 C-59.94776511 16.14341479 -63.60760286 20.11357558 -67.82373047 24.25854492 C-70.10888672 26.34057617 -70.10888672 26.34057617 -72.10888672 26.34057617 C-72.20169922 27.45432617 -72.20169922 27.45432617 -72.29638672 28.59057617 C-73.10888672 31.34057617 -73.10888672 31.34057617 -75.42138672 33.15307617 C-78.93937853 36.01655788 -80.62063069 39.08251031 -82.10888672 43.34057617 C-82.14969455 45.34015981 -82.15143028 47.34102871 -82.10888672 49.34057617 C-82.85871636 51.02201234 -83.60857223 52.70343682 -84.35864258 54.38476562 C-85.6028773 57.62835963 -85.99460316 60.97310268 -86.35888672 64.40307617 C-86.44259521 65.13824463 -86.52630371 65.87341309 -86.61254883 66.63085938 C-87.21400026 72.63566243 -86.98326486 78.28683147 -86.30029297 84.28979492 C-86.09929256 87.49349528 -86.56316692 90.1889386 -87.10888672 93.34057617 C-86.98271221 95.77914111 -86.98271221 95.77914111 -86.60888672 98.21557617 C-86.08466615 103.22553221 -86.29293142 107.92760499 -86.70263672 112.93945312 C-87.37472092 122.32601373 -87.1552334 131.75321527 -87.0715332 141.15771484 C-87.06733871 141.84052521 -87.06314423 142.52333557 -87.05882263 143.22683716 C-87.04709897 145.10535674 -87.02935925 146.983836 -87.01123047 148.86230469 C-87.11123784 152.42431722 -87.53811812 155.82579884 -88.10888672 159.34057617 C-87.44888672 159.67057617 -86.78888672 160.00057617 -86.10888672 160.34057617 C-86.35251953 162.22389648 -86.35251953 162.22389648 -86.60107422 164.14526367 C-87.35398066 171.70891385 -87.25795955 179.2857556 -87.23925781 186.87866211 C-87.23394201 189.43894494 -87.23920478 191.99904898 -87.24560547 194.55932617 C-87.2484763 203.70718207 -86.99840683 212.76571656 -86.27441406 221.88623047 C-86.06493538 226.2577849 -86.41301013 230.45438581 -86.95263672 234.78979492 C-87.11897224 237.50522223 -86.66151683 239.68967863 -86.10888672 242.34057617 C-86.37001486 244.26639622 -86.63344751 246.19201946 -86.92138672 248.11401367 C-87.12705189 250.55628754 -86.91740549 252.72349087 -86.60888672 255.15307617 C-86.18352215 258.67296798 -86.17345322 261.76195065 -86.60888672 265.27807617 C-87.47069104 272.93613483 -86.69380402 280.56225998 -86.22753906 288.2277832 C-85.90015124 294.057442 -86.01569498 299.72327134 -86.60888672 305.52807617 C-87.62656677 315.83572129 -87.2819612 326.13948069 -86.32763672 336.43823242 C-86.10888672 339.34057617 -86.10888672 339.34057617 -86.14013672 342.52416992 C-86.25148591 345.42224967 -86.25148591 345.42224967 -85.10888672 348.34057617 C-85.43888672 349.33057617 -85.76888672 350.32057617 -86.10888672 351.34057617 C-85.44888672 351.67057617 -84.78888672 352.00057617 -84.10888672 352.34057617 C-84.10888672 353.33057617 -84.10888672 354.32057617 -84.10888672 355.34057617 C-83.85602623 356.72323883 -83.56172358 358.09874866 -83.23388672 359.46557617 C-83.07146484 360.1694043 -82.90904297 360.87323242 -82.74169922 361.59838867 C-82.25796451 363.55270645 -82.25796451 363.55270645 -80.10888672 364.34057617 C-79.71124409 366.3287893 -79.38459811 368.33182175 -79.10888672 370.34057617 C-78.79214097 371.67794711 -78.46618608 373.01346425 -78.10888672 374.34057617 C-86.72559949 366.59802267 -89.4628123 351.57416489 -90.33516264 340.45691013 C-90.70231104 332.37123028 -90.63218146 324.28104311 -90.59472656 316.18920898 C-90.59465795 313.47875585 -90.60060018 310.76832307 -90.60623169 308.05787659 C-90.61624099 301.49914131 -90.60512835 294.94061004 -90.58653109 288.38190016 C-90.56561754 280.72733203 -90.56590727 273.07280633 -90.56687625 265.41821501 C-90.5678743 251.7537836 -90.5496391 238.0894463 -90.52050781 224.42504883 C-90.4923173 211.19488817 -90.47816751 197.96481024 -90.47949219 184.73461914 C-90.47961206 183.51124729 -90.47961206 183.51124729 -90.47973435 182.26316085 C-90.47981506 181.448925 -90.47989576 180.63468914 -90.47997892 179.79577947 C-90.48136165 164.68617209 -90.46956404 149.57659953 -90.45167249 134.46700348 C-90.44566375 129.14291054 -90.44351625 123.81882404 -90.44260788 118.49472809 C-90.44123783 112.00157002 -90.43222813 105.50847072 -90.41394226 99.01533756 C-90.40476586 95.70834909 -90.39966754 92.40144944 -90.40113068 89.09444618 C-90.40211939 85.49803419 -90.39072986 81.90185969 -90.37631226 78.30548096 C-90.37940946 77.27715125 -90.38250666 76.24882155 -90.38569772 75.18933034 C-90.24734982 54.15897494 -84.14210129 36.22072851 -69.60888672 20.75463867 C-61.36144005 12.79069798 -52.13185395 6.70669842 -41.10888672 3.34057617 C-40.28360914 3.08642283 -39.45833157 2.8322695 -38.60804558 2.57041454 C-25.92610328 -0.7050157 -13.00201732 -0.05638108 0 0 Z " fill="#0469D5" transform="translate(141.10888671875,13.659423828125)"/>
<path d="M0 0 C0.66 0 1.32 0 2 0 C2 40.92 2 81.84 2 124 C9.26 124 16.52 124 24 124 C23.99214478 121.59956421 23.99214478 121.59956421 23.98413086 119.15063477 C23.96608886 113.23739171 23.95457093 107.32415111 23.94506836 101.41088867 C23.9400263 98.84708243 23.93319286 96.28327909 23.92456055 93.71948242 C23.91248936 90.04344979 23.90677058 86.36745502 23.90234375 82.69140625 C23.89718246 81.53725723 23.89202118 80.38310822 23.88670349 79.19398499 C23.88659019 77.6024485 23.88659019 77.6024485 23.88647461 75.97875977 C23.884254 75.03944107 23.88203339 74.10012238 23.87974548 73.13233948 C24 71 24 71 25 70 C26.74382535 69.90112208 28.49165543 69.87200968 30.23828125 69.87060547 C31.35614014 69.86745331 32.47399902 69.86430115 33.62573242 69.86105347 C35.45068237 69.86408981 35.45068237 69.86408981 37.3125 69.8671875 C38.55169189 69.86623077 39.79088379 69.86527405 41.06762695 69.86428833 C43.69388281 69.86360626 46.32004633 69.86496462 48.94628906 69.86962891 C52.31928714 69.87532619 55.69220565 69.87204698 59.06520081 69.86605644 C62.27263677 69.8615823 65.480063 69.86471118 68.6875 69.8671875 C69.9041333 69.86516327 71.1207666 69.86313904 72.37426758 69.86105347 C74.05105591 69.86578171 74.05105591 69.86578171 75.76171875 69.87060547 C76.75131592 69.87140106 77.74091309 69.87219666 78.76049805 69.87301636 C81 70 81 70 82 71 C82.09346915 72.65738443 82.11744977 74.31874644 82.11352539 75.97875977 C82.11341209 77.57029625 82.11341209 77.57029625 82.11329651 79.19398499 C82.10813522 80.348134 82.10297394 81.50228302 82.09765625 82.69140625 C82.0962413 83.86638168 82.09482635 85.04135712 82.09336853 86.25193787 C82.08774992 90.02215064 82.07519426 93.79230504 82.0625 97.5625 C82.0574874 100.11132727 82.05292408 102.66015547 82.04882812 105.20898438 C82.03777444 111.4726789 82.02049734 117.73632954 82 124 C88.93 124 95.86 124 103 124 C103 83.74 103 43.48 103 2 C95.74 2 88.48 2 81 2 C81 17.18 81 32.36 81 48 C80.67 48 80.34 48 80 48 C80 32.49 80 16.98 80 1 C87.92 1 95.84 1 104 1 C104 42.25 104 83.5 104 126 C96.08 126 88.16 126 80 126 C80 108.18 80 90.36 80 72 C61.85 72 43.7 72 25 72 C25 89.82 25 107.64 25 126 C16.75 126 8.5 126 0 126 C0 84.42 0 42.84 0 0 Z " fill="#15255E" transform="translate(518,157)"/>
<path d="M0 0 C3.67384925 2.8854347 6.10674272 6.46457802 7.25 11 C7.25 13.64 7.25 16.28 7.25 19 C-6.61 19 -20.47 19 -34.75 19 C-32.84057715 9.45288573 -31.79175402 5.50285349 -24.9375 -0.4375 C-18.17007167 -3.86593285 -6.58013885 -3.65563269 0 0 Z " fill="#F6F9FA" transform="translate(694.75,209)"/>
<path d="M0 0 C1.74120117 0.02030273 1.74120117 0.02030273 3.51757812 0.04101562 C6.36637052 0.0761859 9.21418844 0.12540713 12.0625 0.1875 C11.42383504 8.49796027 9.69822307 13.6450006 3.625 19.5625 C-2.58260749 23.49903158 -8.7443399 23.88326697 -15.9375 23.1875 C-20.06580872 21.71310403 -22.98664841 20.19758383 -24.9375 16.1875 C-25.55561457 11.31984778 -25.7923371 9.35318696 -22.875 5.375 C-15.3729504 -0.21163268 -9.12728114 -0.20236723 0 0 Z " fill="#F7F9FB" transform="translate(783.9375,244.8125)"/>
<path d="M0 0 C1.54115541 0.04295401 1.54115541 0.04295401 3.11344528 0.08677578 C34.85476498 0.95476219 66.58586063 1.20347516 98.3378191 1.30332303 C104.44786945 1.32335636 110.55790316 1.34734588 116.66793939 1.37124526 C128.7283226 1.4182969 140.78871579 1.46171912 152.84912109 1.50268555 C164.52849088 1.54236585 176.20785202 1.58386341 187.88720703 1.62768555 C188.61343511 1.63040982 189.33966318 1.63313409 190.08789816 1.63594092 C193.73305596 1.64962568 197.37821362 1.6633449 201.02337122 1.67708123 C231.01556249 1.79005892 261.00777266 1.89701075 291 2 C291 2.33 291 2.66 291 3 C287.65923906 3.74807669 284.57299501 4.12570076 281.15194511 4.12863445 C280.19780657 4.1318589 279.24366802 4.13508335 278.26061618 4.1384055 C277.22045482 4.1368569 276.18029346 4.1353083 275.10861206 4.13371277 C273.44163102 4.1371111 273.44163102 4.1371111 271.74097359 4.14057809 C268.00943413 4.14691855 264.27793098 4.14608868 260.54638672 4.14526367 C257.87387455 4.14825519 255.20136525 4.15162935 252.52885437 4.15544128 C246.01734738 4.16374567 239.50584944 4.16649606 232.9943376 4.16705366 C227.69897365 4.16752906 222.40361268 4.16958503 217.10824966 4.17275429 C202.08636593 4.18156144 187.06448934 4.18617374 172.042603 4.18542381 C171.23287018 4.18538386 170.42313736 4.1853439 169.58886719 4.18530273 C168.37277982 4.18524141 168.37277982 4.18524141 167.13212503 4.18517885 C154.00311329 4.1847727 140.87413027 4.19433437 127.74512683 4.2084411 C114.25595535 4.22282008 100.76679786 4.2297104 87.27761853 4.22884732 C79.70796377 4.22851581 72.1383391 4.2312428 64.56869125 4.24202538 C58.12131288 4.25115056 51.67397821 4.25328921 45.22659616 4.24651595 C41.94018107 4.24326048 38.65386677 4.24425475 35.36745644 4.2518692 C31.7959933 4.25960649 28.22474836 4.25493258 24.65328979 4.24723816 C23.62651276 4.25238172 22.59973573 4.25752529 21.54184425 4.26282471 C4.18049585 4.18049585 4.18049585 4.18049585 0 0 Z " fill="#13A5EC" transform="translate(105,419)"/>
<path d="M0 0 C0.66 0.33 1.32 0.66 2 1 C2.44921875 3.94921875 2.44921875 3.94921875 2.6875 7.6875 C2.77386719 8.90824219 2.86023437 10.12898438 2.94921875 11.38671875 C2.99666545 14.76273364 2.56806644 17.68703652 2 21 C2.12617451 23.43856494 2.12617451 23.43856494 2.5 25.875 C3.02422057 30.88495604 2.8159553 35.58702882 2.40625 40.59887695 C1.7341658 49.98543756 1.95365332 59.4126391 2.03735352 68.81713867 C2.041548 69.49994904 2.04574249 70.1827594 2.05006409 70.88626099 C2.06178775 72.76478057 2.07952747 74.64325983 2.09765625 76.52172852 C1.99764888 80.08374104 1.5707686 83.48522267 1 87 C1.66 87.33 2.32 87.66 3 88 C2.83757813 89.25554687 2.67515625 90.51109375 2.5078125 91.8046875 C1.75490606 99.36833768 1.85092717 106.94517943 1.86962891 114.53808594 C1.87494471 117.09836877 1.86968194 119.6584728 1.86328125 122.21875 C1.86041042 131.3666059 2.11047988 140.42514039 2.83447266 149.5456543 C3.04395134 153.91720872 2.69587659 158.11380964 2.15625 162.44921875 C1.98991448 165.16464605 2.44736989 167.34910246 3 170 C2.73887186 171.92582005 2.47543921 173.85144328 2.1875 175.7734375 C1.98183483 178.21571137 2.19148123 180.3829147 2.5 182.8125 C2.92536457 186.33239181 2.9354335 189.42137447 2.5 192.9375 C1.63819568 200.59555866 2.4150827 208.22168381 2.88134766 215.88720703 C3.20873547 221.71686583 3.09319173 227.38269517 2.5 233.1875 C1.48231995 243.49514511 1.82692552 253.79890452 2.78125 264.09765625 C3 267 3 267 2.96875 270.18359375 C2.85740081 273.0816735 2.85740081 273.0816735 4 276 C3.67 276.99 3.34 277.98 3 279 C3.66 279.33 4.32 279.66 5 280 C5 280.99 5 281.98 5 283 C5.25286049 284.38266266 5.54716314 285.75817249 5.875 287.125 C6.03742187 287.82882812 6.19984375 288.53265625 6.3671875 289.2578125 C6.85092221 291.21213028 6.85092221 291.21213028 9 292 C9.39764263 293.98821313 9.72428861 295.99124558 10 298 C10.31674575 299.33737094 10.64270064 300.67288808 11 302 C2.39844948 294.27107055 -0.37433634 279.24745539 -1.21681881 268.14190936 C-1.55080895 260.16125768 -1.44011334 252.17818175 -1.36230469 244.19311523 C-1.35129536 241.52068045 -1.34190498 238.84828494 -1.33451843 236.17584229 C-1.31552465 230.45526445 -1.28182763 224.73493125 -1.2377243 219.01449394 C-1.17398292 210.74405483 -1.13306808 202.47362217 -1.09746507 194.20301975 C-1.03907318 180.77984838 -0.96259183 167.3568449 -0.87451172 153.93383789 C-0.78906314 140.90588362 -0.71227255 127.87792502 -0.64697266 114.84985352 C-0.64293477 114.04484401 -0.63889688 113.23983451 -0.63473663 112.41043078 C-0.61452969 108.37134895 -0.59449136 104.3322663 -0.5745368 100.29318321 C-0.40915666 66.86195241 -0.21432525 33.43095271 0 0 Z " fill="#1284DB" transform="translate(52,86)"/>
<path d="M0 0 C3.1025883 2.14226335 4.2715856 3.27858463 5.625 6.8125 C6.27809753 11.70670001 6.39833039 15.48679076 3.875 19.8125 C-0.9916714 24.13843014 -5.15758394 24.24129881 -11.51953125 24.1328125 C-15.2414635 23.71530437 -16.98329421 22.68254695 -19.375 19.8125 C-21.658827 16.76739733 -21.79654114 13.60367271 -21.69140625 9.83984375 C-21.00754344 5.4580561 -18.44651738 2.73094347 -15.1875 -0.0625 C-9.98427436 -2.14379025 -5.23870411 -1.84324774 0 0 Z " fill="#0B3E77" transform="translate(1259.375,157.1875)"/>
<path d="M0 0 C2.44513844 2.44513844 2.25286186 3.07264164 2.26450634 6.42761517 C2.27258853 7.36431378 2.28067072 8.3010124 2.28899783 9.26609582 C2.28774521 10.30216039 2.2864926 11.33822496 2.28520203 12.40568542 C2.29169999 13.5009309 2.29819796 14.59617637 2.30489284 15.7246111 C2.32434373 19.41953958 2.32946651 23.11435217 2.3347168 26.80932617 C2.34564465 29.44848384 2.35735447 32.08762736 2.37002563 34.72677612 C2.39911384 41.16715357 2.41752639 47.60751999 2.43236574 54.04794433 C2.45002603 61.54708042 2.47805291 69.04616683 2.50649796 76.54526845 C2.55689482 89.92867802 2.59763222 103.31209983 2.63305664 116.69555664 C2.66743516 129.68126545 2.7088487 142.66692669 2.75805664 155.65258789 C2.76108359 156.45160643 2.76411054 157.25062497 2.76722922 158.0738562 C2.77025126 158.87149205 2.7732733 159.66912791 2.77638692 160.49093455 C2.83231441 175.26899735 2.88148133 190.04707609 2.92758697 204.82517257 C2.9440498 210.05122684 2.96253478 215.27727177 2.98166466 220.50331688 C3.00486518 226.87693323 3.02418583 233.25054834 3.03869756 239.62419059 C3.04617351 242.87564079 3.05579119 246.12705872 3.06874657 249.37849236 C3.08249461 252.90546727 3.08993585 256.43240072 3.0957489 259.95939636 C3.10118845 260.98430732 3.106628 262.00921829 3.11223239 263.06518716 C3.1136206 268.1566719 2.88207117 272.98277741 2 278 C1.01 278 0.02 278 -1 278 C-0.94670532 276.75911621 -0.94670532 276.75911621 -0.89233398 275.49316406 C-0.73474124 271.7456664 -0.58602118 267.99786768 -0.4375 264.25 C-0.38142578 262.94804687 -0.32535156 261.64609375 -0.26757812 260.3046875 C-0.21923828 259.05429687 -0.17089844 257.80390625 -0.12109375 256.515625 C-0.0739624 255.36352539 -0.02683105 254.21142578 0.02172852 253.02441406 C0.00299047 250.41624617 -0.35547587 248.48758738 -1 246 C-0.505 245.01 -0.505 245.01 0 244 C-0.66 243.67 -1.32 243.34 -2 243 C-1.8582988 242.14876053 -1.7165976 241.29752106 -1.57060242 240.42048645 C-0.25078751 231.9685078 0.28303401 223.80753272 0.23046875 215.26171875 C0.23001053 214.01550247 0.22955231 212.76928619 0.2290802 211.48530579 C0.2260842 208.87618038 0.21827877 206.26705632 0.20581055 203.65795898 C0.18746592 199.68011094 0.18530198 195.7024955 0.18554688 191.72460938 C0.18063344 189.17447717 0.17480589 186.62434652 0.16796875 184.07421875 C0.16685593 182.89590988 0.1657431 181.71760101 0.16459656 180.50358582 C0.12881007 174.24733302 -0.24561177 168.20786652 -1 162 C-0.95254457 159.21469471 -0.75094381 156.46122998 -0.5 153.6875 C-0.13965521 149.58953637 0.12658431 145.99981097 -1 142 C-0.87890625 139.94921875 -0.87890625 139.94921875 -0.5625 137.6875 C0.31348998 130.03112002 0.86029314 121.80560247 -0.50244141 114.19335938 C-1.84141743 105.59973507 -1.03497312 96.60691549 -0.64404297 87.94384766 C-0.02284583 74.17011716 0.11198816 60.4110435 0.125 46.625 C0.12749756 45.69441772 0.12999512 44.76383545 0.13256836 43.80505371 C0.1384708 41.13301894 0.13696729 38.46109861 0.1328125 35.7890625 C0.13479645 34.99015594 0.1367804 34.19124939 0.13882446 33.36813354 C0.12124345 29.1250773 -0.2299132 25.18691683 -1 21 C-1 18.66666667 -1 16.33333333 -1 14 C-1.20625 13.21625 -1.4125 12.4325 -1.625 11.625 C-2.2038448 7.57308642 -1.03275486 3.91764032 0 0 Z " fill="#37B9F2" transform="translate(457,85)"/>
<path d="M0 0 C7.92 0 15.84 0 24 0 C24 15.51 24 31.02 24 47 C23.34 47 22.68 47 22 47 C22 32.15 22 17.3 22 2 C15.4 2 8.8 2 2 2 C2 42.26 2 82.52 2 124 C8.6 124 15.2 124 22 124 C21.98952637 122.47600586 21.97905273 120.95201172 21.96826172 119.38183594 C21.93208018 113.73130642 21.90910614 108.08078715 21.89013672 102.43017578 C21.88007496 99.98386921 21.86642419 97.53757467 21.84912109 95.09130859 C21.82488081 91.57646718 21.81351862 88.0617847 21.8046875 84.546875 C21.79436493 83.4519574 21.78404236 82.35703979 21.77340698 81.22894287 C21.77325592 80.20818665 21.77310486 79.18743042 21.77294922 78.13574219 C21.768508 77.23861511 21.76406677 76.34148804 21.75949097 75.41717529 C22 73 22 73 24 69 C24 87.81 24 106.62 24 126 C16.08 126 8.16 126 0 126 C0 84.42 0 42.84 0 0 Z " fill="#042267" transform="translate(944,157)"/>
<path d="M0 0 C7.92 0 15.84 0 24 0 C24 41.58 24 83.16 24 126 C16.41 126 8.82 126 1 126 C1 122.37 1 118.74 1 115 C1.99 114.505 1.99 114.505 3 114 C3 117.3 3 120.6 3 124 C9.27 124 15.54 124 22 124 C22 83.74 22 43.48 22 2 C15.07 2 8.14 2 1 2 C1 15.86 1 29.72 1 44 C0.67 44 0.34 44 0 44 C0 29.48 0 14.96 0 0 Z " fill="#072066" transform="translate(1348,157)"/>
<path d="M0 0 C0.66 0 1.32 0 2 0 C2 28.71 2 57.42 2 87 C8.6 87 15.2 87 22 87 C22 58.29 22 29.58 22 0 C22.66 0 23.32 0 24 0 C24 29.37 24 58.74 24 89 C16.08 89 8.16 89 0 89 C0 59.63 0 30.26 0 0 Z " fill="#021D62" transform="translate(1240,194)"/>
<path d="M0 0 C0.495 0.99 0.495 0.99 1 2 C2.98 1.34 4.96 0.68 7 0 C6.2575 0.70125 5.515 1.4025 4.75 2.125 C-1.25014377 8.39787758 -3.15014522 13.19340838 -3.12597656 21.69677734 C-3.1278447 22.47922318 -3.12971283 23.26166901 -3.13163757 24.06782532 C-3.13564062 25.76695807 -3.13771632 27.46609619 -3.13809967 29.16523361 C-3.14151544 32.77763895 -3.16287679 36.38986434 -3.18333054 40.0022068 C-3.22135751 46.72838348 -3.25261349 53.45436761 -3.25048828 60.18066406 C-3.24970149 64.85928207 -3.27304962 69.53724089 -3.3123703 74.2156868 C-3.32283604 75.99781964 -3.32435009 77.78002851 -3.31671906 79.56217575 C-3.30710161 82.0569879 -3.32826813 84.5498019 -3.35644531 87.04443359 C-3.34624863 87.7791539 -3.33605194 88.51387421 -3.32554626 89.27085876 C-3.40007286 92.95394754 -3.93447523 94.9048397 -6.03747559 97.95898438 C-9.75507877 100.52020755 -12.68269096 100.69000746 -17.04394531 100.61181641 C-18.23767509 100.62031364 -18.23767509 100.62031364 -19.45552063 100.62898254 C-22.08020473 100.64245996 -24.70350159 100.62155123 -27.328125 100.6015625 C-29.16030825 100.60706536 -30.99248533 100.61519239 -32.824646 100.62582397 C-37.64803091 100.64871151 -42.4709628 100.64449295 -47.29437256 100.63201904 C-54.99958906 100.61372065 -62.70453736 100.62381 -70.40969086 100.65787888 C-73.09130879 100.66395083 -75.77234615 100.65075978 -78.45391846 100.63589478 C-90.0336302 100.5883717 -90.0336302 100.5883717 -101 104 C-103.47208796 106.35832772 -103.47208796 106.35832772 -105 109 C-105.66 109.99 -106.32 110.98 -107 112 C-106.80146068 107.73140463 -106.30469743 106.29792637 -103.1875 103.25 C-96.26985707 98.36695793 -90.20005493 97.8577734 -81.80737305 97.81054688 C-81.00831039 97.80225357 -80.20924774 97.79396027 -79.38597107 97.78541565 C-77.66070663 97.76809176 -75.93541967 97.75290447 -74.21011925 97.73963928 C-71.48310226 97.71852847 -68.75619968 97.69151749 -66.0292511 97.66296387 C-59.26323176 97.59330782 -52.49713184 97.53358271 -45.73101807 97.47393799 C-40.00068384 97.42309281 -34.27041442 97.36832826 -28.54017067 97.30812073 C-25.84733097 97.28147866 -23.15448535 97.26071324 -20.46159363 97.2401123 C-18.82294418 97.22351972 -17.18429752 97.20664881 -15.5456543 97.18945312 C-14.79191528 97.18526871 -14.03817627 97.18108429 -13.26159668 97.17677307 C-9.8417028 97.43829253 -9.8417028 97.43829253 -7 96 C-6.88567453 93.60892624 -6.83518206 91.24554109 -6.82641602 88.85327148 C-6.8163855 87.7311602 -6.8163855 87.7311602 -6.80615234 86.58638 C-6.79206609 84.95544017 -6.78018354 83.3244802 -6.77020454 81.69351006 C-6.7538219 79.10777974 -6.73058088 76.52219645 -6.70530701 73.9365387 C-6.63448697 66.58236008 -6.57463022 59.22811836 -6.52319336 51.8737793 C-6.4912746 47.37917925 -6.44995589 42.88474279 -6.40299797 38.39027596 C-6.38704176 36.68039989 -6.37469095 34.97048606 -6.36609077 33.26055717 C-6.35384036 30.85770105 -6.32964744 28.45522372 -6.30297852 26.05249023 C-6.30238937 25.35346588 -6.30180023 24.65444153 -6.30119324 23.93423462 C-6.20596314 17.40949239 -4.91672612 11.83345224 -2 6 C-2.495 5.01 -2.495 5.01 -3 4 C-2.34 4 -1.68 4 -1 4 C-0.67 2.68 -0.34 1.36 0 0 Z " fill="#1584DD" transform="translate(200,56)"/>
<path d="M0 0 C1.44161499 0.03758423 1.44161499 0.03758423 2.91235352 0.07592773 C22.43986516 0.57811611 41.96781891 0.98910435 61.5 1.25390625 C62.26063185 1.26426847 63.02126369 1.2746307 63.80494499 1.28530693 C71.44214012 1.38894519 79.0793709 1.48866899 86.71671581 1.58062649 C107.81903801 1.83695117 128.90659387 2.33459974 150 3 C150 3.33 150 3.66 150 4 C132.32740555 4.04681698 114.65483059 4.08203623 96.98218822 4.10362434 C88.77562061 4.11391657 80.56909164 4.12793744 72.36254883 4.15087891 C65.20586171 4.17087588 58.04920259 4.18373135 50.8924883 4.18817699 C47.10658094 4.19077373 43.32075364 4.19683394 39.53487206 4.21146011 C35.96361262 4.22514394 32.39246541 4.22920108 28.82118225 4.22621536 C26.90171366 4.22701866 24.982257 4.23772332 23.06282043 4.24884033 C4.20444473 4.20444473 4.20444473 4.20444473 0 0 Z " fill="#038DE2" transform="translate(105,419)"/>
<path d="M0 0 C7.59 0 15.18 0 23 0 C23 4.62 23 9.24 23 14 C22.67 14 22.34 14 22 14 C22 9.71 22 5.42 22 1 C15.07 1 8.14 1 1 1 C1 29.71 1 58.42 1 88 C7.6 88 14.2 88 21 88 C20.96519531 83.28396484 20.96519531 83.28396484 20.9296875 78.47265625 C20.91405946 75.40454511 20.90193267 72.33643853 20.89013672 69.26831055 C20.88012156 67.14719638 20.86650554 65.02609587 20.84912109 62.9050293 C20.82467475 59.84420384 20.81347175 56.78356203 20.8046875 53.72265625 C20.79436493 52.78478775 20.78404236 51.84691925 20.77340698 50.88063049 C20.7720903 43.03385347 21.33775762 35.56952336 26 29 C26.33 29.66 26.66 30.32 27 31 C26.5361792 31.9475415 26.0723584 32.89508301 25.59448242 33.87133789 C23.23420957 39.08606597 23.52096966 44.42472421 23.48828125 50.05859375 C23.47033005 51.20288345 23.45237885 52.34717316 23.43388367 53.52613831 C23.37991547 57.16322195 23.34592731 60.80017534 23.3125 64.4375 C23.27931513 66.91082536 23.24482439 69.38413357 23.20898438 71.85742188 C23.12175044 77.90496529 23.06156343 83.95192332 23 90 C15.41 90 7.82 90 0 90 C0 60.3 0 30.6 0 0 Z " fill="#041255" transform="translate(1175,193)"/>
<path d="M0 0 C7.92 0 15.84 0 24 0 C24 0.66 24 1.32 24 2 C23.34 2 22.68 2 22 2 C22 30.71 22 59.42 22 89 C15.4 89 8.8 89 2 89 C2 60.29 2 31.58 2 2 C1.34 2 0.68 2 0 2 C0 1.34 0 0.68 0 0 Z M3 3 C3 31.05 3 59.1 3 88 C8.94 88 14.88 88 21 88 C21 59.95 21 31.9 21 3 C15.06 3 9.12 3 3 3 Z " fill="#114F84" transform="translate(1240,192)"/>
<path d="M0 0 C1.06675461 0.00135956 1.06675461 0.00135956 2.15505981 0.00274658 C3.27979958 -0.00732925 3.27979958 -0.00732925 4.42726135 -0.01760864 C6.91512624 -0.03666058 9.40272214 -0.04051712 11.89065552 -0.04266357 C13.61980806 -0.04908905 15.3489595 -0.05581722 17.07810974 -0.06283569 C20.70892861 -0.07482822 24.33965222 -0.07851475 27.9704895 -0.07733154 C32.61318997 -0.07712882 37.25527508 -0.10437355 41.89783001 -0.13887596 C45.47274044 -0.16117059 49.04750375 -0.16516822 52.62247658 -0.16411209 C54.33323083 -0.1664664 56.04398923 -0.17528037 57.75467491 -0.19077682 C60.1554937 -0.21047905 62.55499895 -0.204582 64.95584106 -0.19256592 C65.65688965 -0.20380493 66.35793823 -0.21504395 67.08023071 -0.22662354 C72.46643252 -0.15847535 75.49383306 1.41886131 79.87893677 4.29327393 C79.87893677 4.95327393 79.87893677 5.61327393 79.87893677 6.29327393 C80.51831177 6.45827393 81.15768677 6.62327393 81.81643677 6.79327393 C83.87893677 8.29327393 83.87893677 8.29327393 84.36721802 10.20733643 C84.60653457 12.22902548 84.74786705 14.26169332 84.87893677 16.29327393 C81.45953313 13.25380403 79.30618685 9.91202487 77.02737427 6.00030518 C75.97760572 4.1374097 75.97760572 4.1374097 73.87893677 3.29327393 C71.37771347 3.17111908 68.9024569 3.10764111 66.39993286 3.08795166 C65.62910873 3.07805206 64.85828461 3.06815247 64.06410217 3.05795288 C61.51022437 3.02630563 58.95632794 3.00156775 56.40237427 2.97686768 C54.63402822 2.95630093 52.86568712 2.93530453 51.09735107 2.91389465 C46.43834434 2.85864511 41.77929302 2.80924856 37.12020874 2.76104736 C32.36786929 2.71085336 27.61559475 2.65515634 22.86331177 2.59991455 C13.5352401 2.49229771 4.20711344 2.39136897 -5.12106323 2.29327393 C-5.12106323 13.18327393 -5.12106323 24.07327393 -5.12106323 35.29327393 C-7.5545077 31.64310723 -7.37870577 29.85485168 -7.38668823 25.50811768 C-7.38860168 24.85122452 -7.39051514 24.19433136 -7.39248657 23.51753235 C-7.3938455 22.13149634 -7.39016942 20.74544748 -7.38180542 19.35943604 C-7.37108395 17.23487906 -7.38171864 15.11116431 -7.39450073 12.9866333 C-7.39317942 11.63962622 -7.39061761 10.29261967 -7.38668823 8.94561768 C-7.38443237 7.71834961 -7.38217651 6.49108154 -7.37985229 5.22662354 C-6.92687266 0.09214211 -4.63277451 0.0608956 0 0 Z " fill="#3192E0" transform="translate(98.12106323242188,236.70672607421875)"/>
<path d="M0 0 C0 0.99 0 1.98 0 3 C-5.25714286 7 -5.25714286 7 -8 7 C-8.33 7.66 -8.66 8.32 -9 9 C-13.91788763 9.99080463 -18.68828956 10.10865118 -23.69189453 10.06591797 C-24.79328766 10.05890869 -24.79328766 10.05890869 -25.91693115 10.05175781 C-27.49869438 10.04131925 -29.08044434 10.0286785 -30.66217422 10.01403427 C-33.16767859 9.99187919 -35.67310592 9.97788734 -38.17868042 9.96633911 C-45.29810036 9.93286105 -52.41739156 9.89099497 -59.53662109 9.82861328 C-63.90186108 9.79094337 -68.26697262 9.76793911 -72.63235092 9.75430679 C-74.29174269 9.74626402 -75.95111735 9.73267132 -77.61041641 9.71337509 C-79.92940396 9.6868611 -82.24777409 9.67900039 -84.56689453 9.67529297 C-85.88480988 9.66561493 -87.20272522 9.65593689 -88.56057739 9.64596558 C-92.23153275 10.02383265 -94.13262807 10.70566001 -97 13 C-97.78182537 15.98361467 -97.78182537 15.98361467 -97.70703125 19.41796875 C-97.73603516 20.67158203 -97.76503906 21.92519531 -97.79492188 23.21679688 C-97.80072266 24.52712891 -97.80652344 25.83746094 -97.8125 27.1875 C-97.83564287 28.52282731 -97.86100781 29.85811808 -97.88867188 31.19335938 C-97.94768232 34.46253823 -97.98386229 37.73037372 -98 41 C-98.33 41 -98.66 41 -99 41 C-99.04938149 36.62176083 -99.0857104 32.24366854 -99.10986328 27.86523438 C-99.11993043 26.3752968 -99.13358518 24.88537903 -99.15087891 23.39550781 C-99.17509653 21.25580972 -99.18647564 19.11637247 -99.1953125 16.9765625 C-99.21102295 15.04417725 -99.21102295 15.04417725 -99.22705078 13.07275391 C-99 10 -99 10 -97 8 C-94.53289357 7.78284399 -92.17450218 7.6886374 -89.70458984 7.68115234 C-88.95327286 7.67110672 -88.20195587 7.6610611 -87.4278717 7.65071106 C-84.93890159 7.61976449 -82.45003957 7.60281235 -79.9609375 7.5859375 C-78.23742739 7.56723505 -76.51392652 7.54766234 -74.79043579 7.5272522 C-70.24981119 7.47582735 -65.70915686 7.43625722 -61.168396 7.39910889 C-56.53666774 7.35913396 -51.90506422 7.308012 -47.2734375 7.2578125 C-38.18237916 7.16093073 -29.09125055 7.07656533 -20 7 C-20 6.67 -20 6.34 -20 6 C-18.67935547 5.83564453 -18.67935547 5.83564453 -17.33203125 5.66796875 C-15.58986328 5.43013672 -15.58986328 5.43013672 -13.8125 5.1875 C-12.66394531 5.03667969 -11.51539063 4.88585937 -10.33203125 4.73046875 C-6.95850476 3.99090315 -4.83724934 2.92005683 -2 1 C-1.34 0.67 -0.68 0.34 0 0 Z " fill="#4DC0F4" transform="translate(416,278)"/>
<path d="M0 0 C18.48 0 36.96 0 56 0 C57.28355258 2.56710516 57.0818427 4.31195967 57.02172852 7.18408203 C57.00163223 8.26505157 56.98153595 9.34602112 56.96083069 10.45974731 C56.92027809 12.21603958 56.92027809 12.21603958 56.87890625 14.0078125 C56.84348976 15.8014473 56.84348976 15.8014473 56.80735779 17.63131714 C56.73058708 21.46266154 56.64662032 25.29381059 56.5625 29.125 C56.50929275 31.71743825 56.45655228 34.30988613 56.40429688 36.90234375 C56.27495381 43.26835088 56.13969726 49.63421213 56 56 C55.67 56 55.34 56 55 56 C55 38.18 55 20.36 55 2 C36.85 2 18.7 2 0 2 C0 1.34 0 0.68 0 0 Z " fill="#1F3E77" transform="translate(543,227)"/>
<path d="M0 0 C7.92 0 15.84 0 24 0 C24 0.66 24 1.32 24 2 C23.34 2 22.68 2 22 2 C22 19.16 22 36.32 22 54 C21.67 54 21.34 54 21 54 C21 37.17 21 20.34 21 3 C14.73 3 8.46 3 2 3 C1.34 2.67 0.68 2.34 0 2 C0 1.34 0 0.68 0 0 Z " fill="#194980" transform="translate(1240,192)"/>
<path d="M0 0 C9.52744095 -0.09284025 19.05472523 -0.16383586 28.58252048 -0.20724869 C33.00708095 -0.22808885 37.43133103 -0.25634072 41.85571289 -0.30175781 C46.12863639 -0.34534372 50.40126208 -0.36916396 54.67439079 -0.37950897 C56.30143863 -0.38687756 57.92847088 -0.40126678 59.55539131 -0.42292023 C61.8413986 -0.45212497 64.12618853 -0.45594908 66.41235352 -0.45410156 C67.71141129 -0.46298401 69.01046906 -0.47186646 70.34889221 -0.48101807 C74.83784793 0.11038293 77.23562739 1.54710301 81 4 C81 4.66 81 5.32 81 6 C81.639375 6.165 82.27875 6.33 82.9375 6.5 C85 8 85 8 85.48828125 9.9140625 C85.7275978 11.93575155 85.86893028 13.96841939 86 16 C82.60386342 12.98121193 80.57968049 9.75341693 78.44140625 5.8046875 C76.50940365 3.38575742 74.95223693 2.93689038 72 2 C68.58480882 1.67409192 68.58480882 1.67409192 64.82299805 1.68115234 C64.12001083 1.67110672 63.41702362 1.6610611 62.69273376 1.65071106 C60.38240331 1.61996192 58.07218829 1.60286728 55.76171875 1.5859375 C54.15459709 1.56721916 52.54748519 1.54764525 50.94038391 1.5272522 C46.72038535 1.47599519 42.50035495 1.43633516 38.2802124 1.39910889 C33.96993169 1.35902883 29.6597827 1.30795477 25.34960938 1.2578125 C16.89982967 1.1611294 8.44998461 1.07670038 0 1 C0 0.67 0 0.34 0 0 Z " fill="#006AD7" transform="translate(97,237)"/>
<path d="M0 0 C0.33 0 0.66 0 1 0 C2.9613085 9.33393804 -1.40907649 16.96673162 -6.265625 24.7265625 C-12.58873176 34.32483485 -12.58873176 34.32483485 -17 36 C-17.99 36.495 -17.99 36.495 -19 37 C-18.67 35.68 -18.34 34.36 -18 33 C-17.34 33 -16.68 33 -16 33 C-15.67 32.01 -15.34 31.02 -15 30 C-14.34 29.34 -13.68 28.68 -13 28 C-13.66 27.67 -14.32 27.34 -15 27 C-14.030625 26.7525 -13.06125 26.505 -12.0625 26.25 C-8.92337281 25.3868058 -8.92337281 25.3868058 -8.25 23.25 C-8.1675 22.5075 -8.085 21.765 -8 21 C-7.05098899 17.56896018 -6.32527674 15.36470423 -3.9375 12.6875 C-1.5352334 9.35532375 -1.40877464 6.91142513 -1.17578125 2.890625 C-1 1 -1 1 0 0 Z " fill="#3DBDF5" transform="translate(455,364)"/>
<path d="M0 0 C0 0.33 0 0.66 0 1 C-2.10348074 1.19504458 -4.20782585 1.38078496 -6.3125 1.5625 C-7.48425781 1.66691406 -8.65601563 1.77132813 -9.86328125 1.87890625 C-13 2 -13 2 -16 1 C-16.33 1.66 -16.66 2.32 -17 3 C-17 2.34 -17 1.68 -17 1 C-17.680625 1.165 -18.36125 1.33 -19.0625 1.5 C-22 2 -22 2 -25.5625 1.9375 C-28.89146374 1.99802661 -30.19305735 2.44058742 -33 4 C-33.66 3.67 -34.32 3.34 -35 3 C-35 3.66 -35 4.32 -35 5 C-37.31 5 -39.62 5 -42 5 C-41.67 4.01 -41.34 3.02 -41 2 C-28.64230394 -3.50201309 -13.05015061 -0.80627959 0 0 Z M-45 5 C-44.01 5.33 -43.02 5.66 -42 6 C-43.98 6.99 -43.98 6.99 -46 8 C-46.33 7.34 -46.66 6.68 -47 6 C-46.34 5.67 -45.68 5.34 -45 5 Z " fill="#1C83DB" transform="translate(141,15)"/>
<path d="M0 0 C0.33 0 0.66 0 1 0 C1.6875 2.75 1.6875 2.75 2 6 C1.55664307 6.58128662 1.11328613 7.16257324 0.65649414 7.76147461 C-1.52515739 10.70967842 -2.21359718 13.53594379 -3.19140625 17.06640625 C-3.38218246 17.74170883 -3.57295868 18.41701141 -3.76951599 19.11277771 C-4.3753566 21.26049282 -4.96980567 23.41112313 -5.5625 25.5625 C-6.15991247 27.71708261 -6.75985844 29.87084513 -7.36619568 32.02293396 C-7.9150154 33.97265106 -8.4549273 35.92486905 -8.99438477 37.87719727 C-10 41 -10 41 -12 44 C-13.32 43.34 -14.64 42.68 -16 42 C-15.67 41.34 -15.34 40.68 -15 40 C-14.01 40.66 -13.02 41.32 -12 42 C-11.90855713 41.4644751 -11.81711426 40.9289502 -11.72290039 40.37719727 C-10.32456011 32.79590008 -8.22802405 25.44354143 -6.05883789 18.0559082 C-5.43000252 15.91193786 -4.80933629 13.76571444 -4.18945312 11.61914062 C-3.79214246 10.25506966 -3.39437336 8.89113212 -2.99609375 7.52734375 C-2.63700928 6.29749756 -2.2779248 5.06765137 -1.90795898 3.80053711 C-1 1 -1 1 0 0 Z " fill="#1284DF" transform="translate(219,211)"/>
<path d="M0 0 C21.78 0.495 21.78 0.495 44 1 C44 1.33 44 1.66 44 2 C34.1 2.495 34.1 2.495 24 3 C24 3.33 24 3.66 24 4 C16.54059376 4.25970853 9.22544245 4.06441213 2 2 C1.34 1.34 0.68 0.68 0 0 Z " fill="#238CDE" transform="translate(105,419)"/>
<path d="M0 0 C0.103125 0.639375 0.20625 1.27875 0.3125 1.9375 C0.539375 2.618125 0.76625 3.29875 1 4 C1.99 4.33 2.98 4.66 4 5 C3.67 6.65 3.34 8.3 3 10 C3.66 10.33 4.32 10.66 5 11 C5 11.99 5 12.98 5 14 C5.25286049 15.38266266 5.54716314 16.75817249 5.875 18.125 C6.03742187 18.82882812 6.19984375 19.53265625 6.3671875 20.2578125 C6.85092221 22.21213028 6.85092221 22.21213028 9 23 C9.39764263 24.98821313 9.72428861 26.99124558 10 29 C10.31674575 30.33737094 10.64270064 31.67288808 11 33 C3.76116864 26.5818501 0.54697614 14.03934516 -0.1796875 4.6875 C-0.18599248 3.12386513 -0.10636539 1.56002569 0 0 Z " fill="#1274D6" transform="translate(52,355)"/>
<path d="M0 0 C0.33 0 0.66 0 1 0 C1 3.3 1 6.6 1 10 C7.27 10 13.54 10 20 10 C20 8.35 20 6.7 20 5 C20.33 5 20.66 5 21 5 C21.33 7.31 21.66 9.62 22 12 C14.41 12 6.82 12 -1 12 C-1 1 -1 1 0 0 Z " fill="#072365" transform="translate(1350,271)"/>
<path d="M0 0 C0.33 0.66 0.66 1.32 1 2 C1.99 2.33 2.98 2.66 4 3 C3.83701416 3.95592041 3.67402832 4.91184082 3.50610352 5.89672852 C2.85392085 10.48558956 2.87459613 15.02515063 2.90234375 19.65234375 C2.9037587 20.55247696 2.90517365 21.45261017 2.90663147 22.38002014 C2.9121934 25.23254837 2.92473873 28.08499581 2.9375 30.9375 C2.94251992 32.88085824 2.94708197 34.82421771 2.95117188 36.76757812 C2.96215034 41.5117495 2.97938847 46.25586109 3 51 C2.34 51 1.68 51 1 51 C0.67 34.17 0.34 17.34 0 0 Z " fill="#49BBF1" transform="translate(419,167)"/>
<path d="M0 0 C1.9375 1.5 1.9375 1.5 3 3 C0.69 2.34 -1.62 1.68 -4 1 C-4.33 1.99 -4.66 2.98 -5 4 C-5.928125 4.474375 -6.85625 4.94875 -7.8125 5.4375 C-12.80056331 8.45437685 -13.58716927 14.71435091 -15 20 C-17.03775752 14.49540825 -14.23968592 9.09084164 -12 4 C-8.42546607 -0.25079711 -5.44553113 -0.70590218 0 0 Z " fill="#147BDA" transform="translate(260,104)"/>
<path d="M0 0 C0 0.99 0 1.98 0 3 C-5.25714286 7 -5.25714286 7 -8 7 C-8.33 7.66 -8.66 8.32 -9 9 C-12.3125 9.875 -12.3125 9.875 -16 10 C-18.23046875 8.0078125 -18.23046875 8.0078125 -20 6 C-18.67935547 5.83564453 -18.67935547 5.83564453 -17.33203125 5.66796875 C-15.58986328 5.43013672 -15.58986328 5.43013672 -13.8125 5.1875 C-12.66394531 5.03667969 -11.51539063 4.88585937 -10.33203125 4.73046875 C-6.95850476 3.99090315 -4.83724934 2.92005683 -2 1 C-1.34 0.67 -0.68 0.34 0 0 Z " fill="#3BB7F2" transform="translate(416,278)"/>
<path d="M0 0 C0.78375 0.639375 1.5675 1.27875 2.375 1.9375 C4.79539281 3.98142313 4.79539281 3.98142313 7 5 C7 5.66 7 6.32 7 7 C7.66 7.33 8.32 7.66 9 8 C9.27972656 8.59683594 9.55945313 9.19367188 9.84765625 9.80859375 C11.28932485 12.5502076 13.08563363 14.05820009 15.4375 16.0625 C18.04840022 18.30348685 20.60496193 20.52795106 23 23 C14.25088336 20.04211359 6.24460862 11.4900068 1 4 C0.31640625 1.76953125 0.31640625 1.76953125 0 0 Z " fill="#0F6BD4" transform="translate(63,388)"/>
<path d="M0 0 C1.43791516 0.14168137 2.8753237 0.28851043 4.3125 0.4375 C5.11300781 0.51871094 5.91351563 0.59992188 6.73828125 0.68359375 C9 1 9 1 12 2 C12 2.66 12 3.32 12 4 C14.97 4.495 14.97 4.495 18 5 C18 5.99 18 6.98 18 8 C11.02013687 7.68978386 5.92708478 4.5048042 0 1 C0 0.67 0 0.34 0 0 Z " fill="#1981DA" transform="translate(86,411)"/>
<path d="M0 0 C0.6875 1.5625 0.6875 1.5625 1 4 C0.5359375 5.03125 0.071875 6.0625 -0.40625 7.125 C-2.22097605 11.17209781 -2.75030062 15.05347324 -3.1875 19.4375 C-3.26935547 20.16904297 -3.35121094 20.90058594 -3.43554688 21.65429688 C-3.63341885 23.43514466 -3.81810707 25.21744927 -4 27 C-4.33 27 -4.66 27 -5 27 C-6.58703242 10.52917706 -6.58703242 10.52917706 -4 4 C-1.875 1.5 -1.875 1.5 0 0 Z " fill="#1D82D9" transform="translate(58,59)"/>
<path d="M0 0 C1.08054231 3.67066578 0.65430878 6.23772454 0 10 C0.33 10.66 0.66 11.32 1 12 C0.01 13.485 0.01 13.485 -1 15 C-2.64815909 17.99436537 -3.67554355 20.97005954 -4.625 24.25 C-5.01558594 25.58804688 -5.01558594 25.58804688 -5.4140625 26.953125 C-5.60742188 27.62859375 -5.80078125 28.3040625 -6 29 C-6.33 29 -6.66 29 -7 29 C-6.4476391 22.12695233 -5.01284333 16.00059271 -2.9375 9.4375 C-2.65583984 8.52419922 -2.37417969 7.61089844 -2.08398438 6.66992188 C-1.39648178 4.44427788 -0.70174718 2.22118518 0 0 Z " fill="#167EDC" transform="translate(243,125)"/>
<path d="M0 0 C2 1 2 1 3.3125 3.375 C6.22611553 7.90729082 9.73851371 9.04047641 14.8125 10.1875 C16.20657858 10.46722539 17.60190528 10.74109357 19 11 C19 11.33 19 11.66 19 12 C10.25 13.59090909 10.25 13.59090909 5.5625 11.375 C3.01170295 9.01084664 1.42408256 7.16462791 0 4 C0 2.68 0 1.36 0 0 Z " fill="#157CDA" transform="translate(93,273)"/>
<path d="M0 0 C2.625 0.375 2.625 0.375 5 1 C4 3 4 3 0 5 C-0.33 14.24 -0.66 23.48 -1 33 C-1.33 33 -1.66 33 -2 33 C-2.04938149 28.62176083 -2.0857104 24.24366854 -2.10986328 19.86523438 C-2.11993043 18.3752968 -2.13358518 16.88537903 -2.15087891 15.39550781 C-2.17509653 13.25580972 -2.18647564 11.11637247 -2.1953125 8.9765625 C-2.21102295 7.04417725 -2.21102295 7.04417725 -2.22705078 5.07275391 C-2 2 -2 2 0 0 Z " fill="#41B8F0" transform="translate(319,286)"/>
<path d="M0 0 C0.33 0.66 0.66 1.32 1 2 C2.98 1.34 4.96 0.68 7 0 C6.2575 0.70125 5.515 1.4025 4.75 2.125 C-0.92926669 8.06241518 -2.80305893 13.03089238 -4 21 C-4.66 20.67 -5.32 20.34 -6 20 C-5.71572583 18.41532272 -5.42225182 16.8322943 -5.125 15.25 C-4.96257812 14.36828125 -4.80015625 13.4865625 -4.6328125 12.578125 C-4 10 -4 10 -2.8671875 7.796875 C-2.58101562 7.20390625 -2.29484375 6.6109375 -2 6 C-2.33 5.34 -2.66 4.68 -3 4 C-2.34 4 -1.68 4 -1 4 C-0.67 2.68 -0.34 1.36 0 0 Z " fill="#0E7DDC" transform="translate(200,56)"/>
<path d="M0 0 C1.27617188 0.00483398 1.27617188 0.00483398 2.578125 0.00976562 C3.46757813 0.01814453 4.35703125 0.02652344 5.2734375 0.03515625 C6.170625 0.03966797 7.0678125 0.04417969 7.9921875 0.04882812 C10.21100398 0.06063034 12.42968768 0.0770947 14.6484375 0.09765625 C14.6484375 0.42765625 14.6484375 0.75765625 14.6484375 1.09765625 C12.9984375 1.42765625 11.3484375 1.75765625 9.6484375 2.09765625 C9.6484375 2.42765625 9.6484375 2.75765625 9.6484375 3.09765625 C7.73260103 3.29345715 5.81571211 3.47897839 3.8984375 3.66015625 C2.29742187 3.81677734 2.29742187 3.81677734 0.6640625 3.9765625 C-1.99297454 4.08325699 -3.85116822 3.9169602 -6.3515625 3.09765625 C-6.3515625 2.43765625 -6.3515625 1.77765625 -6.3515625 1.09765625 C-4.00303722 -0.07660639 -2.61382185 -0.01742548 0 0 Z " fill="#3D9EE2" transform="translate(116.3515625,283.90234375)"/>
<path d="M0 0 C0.33 0 0.66 0 1 0 C2.25117038 5.62665062 1.59968634 9.26748129 -0.8125 14.375 C-1.08642578 15.00277344 -1.36035156 15.63054687 -1.64257812 16.27734375 C-3.70226481 20.8511324 -3.70226481 20.8511324 -6 22 C-4 16 -4 16 -2.9375 13.1875 C-1.91697688 9.71772138 -1.54101156 6.44865106 -1.24609375 2.85546875 C-1 1 -1 1 0 0 Z " fill="#2DB7F4" transform="translate(455,364)"/>
<path d="M0 0 C0.66 0.66 1.32 1.32 2 2 C2.66 1.67 3.32 1.34 4 1 C3.95875 2.299375 3.9175 3.59875 3.875 4.9375 C3.85493751 9.17737298 4.52504309 12.88397814 5.66015625 16.95703125 C6.04668366 19.28063854 5.62508042 20.75468771 5 23 C4.15854044 19.91882573 3.32826938 16.83474379 2.5 13.75 C2.26152344 12.87730469 2.02304687 12.00460938 1.77734375 11.10546875 C1.55175781 10.26113281 1.32617188 9.41679687 1.09375 8.546875 C0.88427734 7.77182617 0.67480469 6.99677734 0.45898438 6.19824219 C0 4 0 4 0 0 Z " fill="#1181DE" transform="translate(258,165)"/>
<path d="M0 0 C0.33 0 0.66 0 1 0 C1 8.91 1 17.82 1 27 C-0.86039126 23.27921748 -1.22831252 22.38945304 -1.0625 18.5625 C-0.99089455 15.97206768 -0.99330904 14.02676385 -1.625 11.5 C-2.22286577 7.51422823 -1.01642166 3.85568216 0 0 Z " fill="#3FB8F1" transform="translate(457,85)"/>
<path d="M0 0 C3.96 1.98 3.96 1.98 8 4 C8 4.66 8 5.32 8 6 C8.9590625 6.2475 8.9590625 6.2475 9.9375 6.5 C12 8 12 8 12.48828125 9.9140625 C12.7275978 11.93575155 12.86893028 13.96841939 13 16 C10.22932688 13.53717945 8.39191252 11.05910407 6.5625 7.875 C4.85214909 5.01733294 4.21469373 4.11450332 1.1875 2.5 C0.1046875 2.2525 0.1046875 2.2525 -1 2 C-0.67 1.34 -0.34 0.68 0 0 Z " fill="#1486DE" transform="translate(170,237)"/>
<path d="M0 0 C0.33 0 0.66 0 1 0 C1.6875 2.75 1.6875 2.75 2 6 C0.6875 7.9375 0.6875 7.9375 -1 10 C-1.73260159 12.31347872 -2.411438 14.645752 -3 17 C-3.66 17 -4.32 17 -5 17 C-4.35841048 14.35307023 -3.71195217 11.70750071 -3.0625 9.0625 C-2.88009766 8.30775391 -2.69769531 7.55300781 -2.50976562 6.77539062 C-1.11328125 1.11328125 -1.11328125 1.11328125 0 0 Z " fill="#1B8AE2" transform="translate(219,211)"/>
<path d="M0 0 C0.33 0.66 0.66 1.32 1 2 C0.01 3.485 0.01 3.485 -1 5 C-1.66 5 -2.32 5 -3 5 C-6.04395069 7.73955562 -8.44396229 10.18063472 -10 14 C-10.99 13.67 -11.98 13.34 -13 13 C-11.58791833 11.39179588 -10.17013964 9.78859292 -8.75 8.1875 C-7.96109375 7.29417969 -7.1721875 6.40085938 -6.359375 5.48046875 C-4.34120555 3.35871775 -2.40083295 1.65745577 0 0 Z " fill="#051D5B" transform="translate(1065,165)"/>
<path d="M0 0 C6.93 0 13.86 0 21 0 C21 0.33 21 0.66 21 1 C20.01257812 1.06058594 19.02515625 1.12117188 18.0078125 1.18359375 C16.72648437 1.26738281 15.44515625 1.35117187 14.125 1.4375 C12.84882812 1.51871094 11.57265625 1.59992188 10.2578125 1.68359375 C7.11699848 1.79206027 7.11699848 1.79206027 5 3 C3.00039988 3.039992 0.99952758 3.04346799 -1 3 C-0.67 2.01 -0.34 1.02 0 0 Z " fill="#144D83" transform="translate(1091,282)"/>
<path d="M0 0 C0.92565097 3.04838441 1.04155806 5.46489969 0.6875 8.625 C0.60886719 9.40101563 0.53023437 10.17703125 0.44921875 10.9765625 C0 13 0 13 -2 15 C-2.22162329 13.37675914 -2.42689803 11.751279 -2.625 10.125 C-2.74101563 9.22007812 -2.85703125 8.31515625 -2.9765625 7.3828125 C-2.98429688 6.59648437 -2.99203125 5.81015625 -3 5 C-2.34 4.34 -1.68 3.68 -1 3 C-0.67 2.01 -0.34 1.02 0 0 Z " fill="#114981" transform="translate(640,221)"/>
<path d="M0 0 C0.78375 0.639375 1.5675 1.27875 2.375 1.9375 C4.79539281 3.98142313 4.79539281 3.98142313 7 5 C7 5.66 7 6.32 7 7 C7.66 7.33 8.32 7.66 9 8 C7.68 8.33 6.36 8.66 5 9 C4.16094435 7.87926138 3.32892169 6.75325453 2.5 5.625 C2.0359375 4.99851562 1.571875 4.37203125 1.09375 3.7265625 C0 2 0 2 0 0 Z " fill="#177CD8" transform="translate(63,388)"/>
<path d="M0 0 C1.485 0.99 1.485 0.99 3 2 C3.29296875 4.6015625 3.29296875 4.6015625 3.1875 7.625 C3.16042969 8.62789062 3.13335937 9.63078125 3.10546875 10.6640625 C3.07066406 11.43492187 3.03585937 12.20578125 3 13 C0.89172945 9.83759418 0.66182535 8.49342531 0.375 4.8125 C0.30023438 3.91144531 0.22546875 3.01039063 0.1484375 2.08203125 C0.09945313 1.39496094 0.05046875 0.70789063 0 0 Z " fill="#168FE2" transform="translate(274,235)"/>
<path d="M0 0 C0.66 0.99 1.32 1.98 2 3 C0.55746343 6.36591866 -1.33264727 8.51047079 -4 11 C-4.36997319 5.45040214 -4.36997319 5.45040214 -2.5625 3.25 C-2.046875 2.8375 -1.53125 2.425 -1 2 C-0.67 1.34 -0.34 0.68 0 0 Z " fill="#39B1ED" transform="translate(327,198)"/>
<path d="M0 0 C0.33 0.66 0.66 1.32 1 2 C2.98 1.34 4.96 0.68 7 0 C2.25 4.875 2.25 4.875 0 6 C-0.99 5.34 -1.98 4.68 -3 4 C-2.34 4 -1.68 4 -1 4 C-0.67 2.68 -0.34 1.36 0 0 Z " fill="#1F8EE0" transform="translate(200,56)"/>
<path d="M0 0 C3.3 0 6.6 0 10 0 C8.68 1.32 7.36 2.64 6 4 C3.53199953 2.84826645 1.95216435 1.95216435 0 0 Z " fill="#28B1F1" transform="translate(396,284)"/>
<path d="M0 0 C0.433125 0.495 0.86625 0.99 1.3125 1.5 C2.99740483 3.33218192 2.99740483 3.33218192 6 3 C6 5.31 6 7.62 6 10 C2.51668565 6.98112756 1.20842856 4.43090471 0 0 Z " fill="#1585DE" transform="translate(191,266)"/>
<path d="M0 0 C3.0234375 3.609375 3.0234375 3.609375 2.8125 7.125 C2 10 2 10 0 12 C-1.31157516 9.37684968 -0.89649988 7.76966564 -0.5625 4.875 C-0.46066406 3.96492187 -0.35882813 3.05484375 -0.25390625 2.1171875 C-0.17011719 1.41851562 -0.08632812 0.71984375 0 0 Z " fill="#2B99E3" transform="translate(235,152)"/>
<path d="M0 0 C2.56687367 3.8503105 1.83288724 5.58569763 1 10 C-1.56687367 6.1496895 -0.83288724 4.41430237 0 0 Z " fill="#2298E5" transform="translate(270,210)"/>
</svg>
