<svg version="1.1" xmlns="http://www.w3.org/2000/svg" width="1024px" height="1024px" transform="rotate(0) scale(1, 1)">
<path d="M0 0 C337.92 0 675.84 0 1024 0 C1024 337.92 1024 675.84 1024 1024 C686.08 1024 348.16 1024 0 1024 C0 686.08 0 348.16 0 0 Z " fill="#c3eca4" transform="translate(0,0)"/>
<path d="M0 0 C0.69553986 0.00060425 1.39107971 0.0012085 2.10769653 0.00183105 C50.98453201 0.11621341 102.69040355 10.97700038 144.5 37.1875 C145.18239746 37.61369629 145.86479492 38.03989258 146.56787109 38.47900391 C169.74595281 53.10394529 191.06658583 71.28738916 207.28076172 93.51953125 C208.51303898 95.20533787 209.77206555 96.86844705 211.03515625 98.53125 C217.80034837 107.56800451 223.25635915 117.20639509 228.5 127.1875 C228.86367676 127.87634277 229.22735352 128.56518555 229.60205078 129.27490234 C242.17247267 153.24977713 250.35461119 178.62473225 255.5 205.1875 C255.66516113 206.00895508 255.83032227 206.83041016 256.00048828 207.67675781 C261.50192836 236.29334893 260.35070833 268.57541944 255.5 297.1875 C255.32839355 298.27772461 255.15678711 299.36794922 254.97998047 300.49121094 C246.10547874 356.84707268 225.21737692 408.97332706 187.5 452.1875 C186.88511719 452.90292969 186.27023437 453.61835937 185.63671875 454.35546875 C182.20684271 458.32561166 178.67251696 462.19760231 175.125 466.0625 C174.41234985 466.84040894 174.41234985 466.84040894 173.68530273 467.6340332 C171.54039967 469.97356162 169.38940579 472.30508905 167.21484375 474.6171875 C117.05975172 528.68637927 120.67823525 591.30573688 118.5 663.1875 C33.69 663.1875 -51.12 663.1875 -138.5 663.1875 C-138.83 630.8475 -139.16 598.5075 -139.5 565.1875 C-141.55758624 556.41004767 -141.55758624 556.41004767 -146.5 550.1875 C-154.14542542 546.92988395 -161.8633611 546.3874872 -170.0526123 545.79397583 C-172.40881379 545.62253972 -174.76343064 545.43633532 -177.11816406 545.24584961 C-180.20379756 544.99674401 -183.28966824 544.75134533 -186.37597656 544.51074219 C-223.91605644 541.57635393 -223.91605644 541.57635393 -235.25 530.5 C-240.21495773 523.80230534 -241.79596995 516.44629007 -242.9296875 508.34375 C-243.05657959 507.44345566 -243.18347168 506.54316132 -243.31420898 505.61558533 C-245.09294252 492.42639397 -246.15858598 479.15447081 -247.3125 465.89910889 C-247.86751704 459.5375513 -248.43423388 453.17701526 -249 446.81640625 C-249.06121033 446.1270763 -249.12242065 445.43774635 -249.18548584 444.72752762 C-250.05566795 434.9425514 -250.96244058 425.16165645 -251.92895508 415.3856945 C-252.12003007 413.45262363 -252.30906574 411.51935152 -252.49804688 409.58607483 C-252.61470703 408.42192551 -252.73136719 407.25777618 -252.8515625 406.05834961 C-252.95291504 405.04131454 -253.05426758 404.02427948 -253.15869141 402.97642517 C-253.48115071 400.34152265 -253.94123592 397.78152588 -254.5 395.1875 C-255.20906494 395.0016333 -255.91812988 394.8157666 -256.64868164 394.62426758 C-301.83759754 382.73630389 -301.83759754 382.73630389 -308.5 372.1875 C-312.09471152 360.78783265 -308.06977103 350.38463777 -303.00195312 340.16723633 C-301.40292714 337.18607352 -299.74863122 334.24524282 -298.0625 331.3125 C-297.44979248 330.23299072 -296.83708496 329.15348145 -296.20581055 328.04125977 C-291.64677411 320.05959333 -286.92481183 312.18334264 -282.1081543 304.35498047 C-277.35732608 296.63217895 -272.72591511 288.8435553 -268.11508179 281.0368042 C-261.14271072 269.23344734 -254.08598204 257.50521474 -246.640625 245.99145508 C-246.26421875 245.3961499 -245.8878125 244.80084473 -245.5 244.1875 C-244.69937134 243.12897827 -244.69937134 243.12897827 -243.88256836 242.04907227 C-241.91445966 237.97557729 -242.09614295 234.3500813 -242.12890625 229.8828125 C-242.11472882 228.0112262 -242.09997748 226.13964418 -242.0847168 224.26806641 C-242.08176605 223.2942804 -242.07881531 222.32049438 -242.07577515 221.31719971 C-242.00187024 204.5895465 -241.59129474 188.48869367 -237.5 172.1875 C-237.21253906 170.96675781 -236.92507813 169.74601563 -236.62890625 168.48828125 C-235.71662108 164.99726998 -234.64760548 161.60852645 -233.5 158.1875 C-233.24798828 157.41180664 -232.99597656 156.63611328 -232.73632812 155.83691406 C-225.9572647 135.16311903 -216.34683373 115.77683248 -203.5 98.1875 C-203.08508301 97.61854004 -202.67016602 97.04958008 -202.24267578 96.46337891 C-197.32628382 89.78532708 -192.10549813 83.45182483 -186.4765625 77.35546875 C-184.7604353 75.47315532 -183.14947912 73.55318434 -181.5625 71.5625 C-180.881875 70.77875 -180.20125 69.995 -179.5 69.1875 C-178.84 69.1875 -178.18 69.1875 -177.5 69.1875 C-177.5 68.5275 -177.5 67.8675 -177.5 67.1875 C-176.20703125 65.84765625 -176.20703125 65.84765625 -174.3125 64.25 C-173.57902344 63.62867188 -172.84554687 63.00734375 -172.08984375 62.3671875 C-171.23519531 61.64789063 -170.38054687 60.92859375 -169.5 60.1875 C-168.04787109 58.92292969 -168.04787109 58.92292969 -166.56640625 57.6328125 C-128.53490714 24.61248083 -79.60252051 5.40933675 -29.5 1.1875 C-28.50790527 1.10282471 -27.51581055 1.01814941 -26.49365234 0.9309082 C-17.65755481 0.23076665 -8.86173557 -0.01440998 0 0 Z " fill="#fee4cf" transform="translate(535.5,194.8125)"/>
<path d="M0 0 C337.92 0 675.84 0 1024 0 C1024 337.92 1024 675.84 1024 1024 C686.08 1024 348.16 1024 0 1024 C0 686.08 0 348.16 0 0 Z M305.21435547 54.95019531 C302.74703916 56.11992631 300.26674226 57.25930469 297.78515625 58.3984375 C284.25110601 64.66685206 271.38504913 71.75172962 258.60742188 79.43847656 C256.36902206 80.7790014 254.12024531 82.09634786 251.859375 83.3984375 C241.12730441 89.61525499 231.06535045 96.76684945 221 104 C220.16823242 104.59538574 219.33646484 105.19077148 218.47949219 105.80419922 C207.88243663 113.4118616 197.75776774 121.3437067 188 130 C186.58384449 131.22975555 185.16726131 132.45901902 183.75 133.6875 C179.1307734 137.7524194 174.54959819 141.85727644 170 146 C169.17387207 146.74830078 169.17387207 146.74830078 168.33105469 147.51171875 C155.66425169 159.01559921 143.68838292 171.11506161 133.0234375 184.515625 C131.0172037 186.97887731 128.9125156 189.29853917 126.75 191.625 C120.33339767 198.68771854 114.69581933 206.35509105 109 214 C108.45794922 214.72251953 107.91589844 215.44503906 107.35742188 216.18945312 C82.54875201 249.3572416 62.35806179 286.59586421 47 325 C46.4129126 326.44197754 46.4129126 326.44197754 45.81396484 327.91308594 C15.14245 403.63134627 6.75263652 490.26783646 17 571 C17.14453613 572.15081055 17.28907227 573.30162109 17.43798828 574.48730469 C29.86287744 669.73102867 71.52387647 763.67993974 136.83984375 834.62890625 C138.68669493 836.65610095 140.49355192 838.70826641 142.29296875 840.77734375 C166.18925522 868.13870302 193.51053827 891.86954814 223 913 C224.30517578 913.93585938 224.30517578 913.93585938 225.63671875 914.890625 C228.07623181 916.61642928 230.53432778 918.311792 233 920 C234.02351562 920.7115625 235.04703125 921.423125 236.1015625 922.15625 C270.51916889 945.80609042 308.68038261 964.18762452 348 978 C349.58334566 978.56897613 351.16668031 979.13798286 352.75 979.70703125 C364.80236727 983.95647324 377.16569638 987.07911491 389.5625 990.14746094 C391.77263167 990.69559871 393.98112897 991.25039229 396.1875 991.81347656 C409.50359616 995.2055503 422.84861153 997.77141876 436.4375 999.75 C437.11570801 999.85105042 437.79391602 999.95210083 438.49267578 1000.05621338 C462.01199352 1003.51573429 485.64228225 1004.33886787 509.37963867 1004.26074219 C512.8670485 1004.24933744 516.35415321 1004.25614549 519.84155273 1004.2676239 C537.30558226 1004.31629122 554.60928684 1003.6916646 572 1002 C572.70943756 1001.9338147 573.41887512 1001.86762939 574.14981079 1001.79943848 C607.98568408 998.60508317 641.90584487 989.96627988 674 979 C675.04494629 978.65146973 676.08989258 978.30293945 677.16650391 977.94384766 C728.49254167 960.76053949 776.04472351 933.70665287 819 901 C819.63583008 900.51724609 820.27166016 900.03449219 820.92675781 899.53710938 C830.28061694 892.40323282 839.20786524 884.81223677 848 877 C848.97582031 876.13761719 849.95164062 875.27523437 850.95703125 874.38671875 C858.84270379 867.26111103 866.35107827 859.75302722 873.875 852.25 C874.69457184 851.43444641 874.69457184 851.43444641 875.53070068 850.60241699 C881.57094407 844.58463311 887.51860445 838.53963343 893 832 C893.81645996 831.03562012 893.81645996 831.03562012 894.64941406 830.05175781 C959.50753272 753.01619647 997.80636998 659.80715764 1011 468 C1007.24002692 425.89685905 999.66906052 385.09463456 986 345 C985.65743164 343.98373535 985.31486328 342.9674707 984.96191406 341.92041016 C973.86475431 309.2132641 958.77364145 278.55013968 941 249 C940.53561523 248.2260791 940.07123047 247.4521582 939.59277344 246.65478516 C930.39170263 231.40221402 920.01641794 216.98671492 909 203 C908.34773437 202.1646875 907.69546875 201.329375 907.0234375 200.46875 C893.77155525 183.67212558 879.21536794 168.14569709 864.125 153 C863.24529541 152.11562256 862.36559082 151.23124512 861.45922852 150.32006836 C856.46614636 145.33928794 851.36410337 140.5768702 846 136 C844.91686218 135.05074031 843.83478139 134.10027278 842.75390625 133.1484375 C834.4796294 125.93192979 825.90440358 119.19329488 817.12597656 112.60253906 C815.06155802 111.0464018 813.00985192 109.47491049 810.9609375 107.8984375 C801.61931374 100.74178031 792.01712416 94.17425725 782 88 C781.04786621 87.41234863 780.09573242 86.82469727 779.11474609 86.21923828 C724.83687297 52.93507281 665.84660068 29.19091493 603 18 C601.48647949 17.72760498 601.48647949 17.72760498 599.94238281 17.44970703 C506.89495044 1.04092746 404.84036825 11.15189761 305.21435547 54.95019531 Z " fill="#c3eca4" transform="translate(0,0)"/>
<path d="M0 0 C8.32989554 6.03615619 12.24220639 13.65320376 15.1875 23.3125 C15.5175 24.3025 15.8475 25.2925 16.1875 26.3125 C16.49236441 29.43736016 16.69591216 32.56278111 16.90625 35.6953125 C16.90246985 38.23663861 16.90246985 38.23663861 18.1875 39.3125 C20.6875 39.47916667 20.6875 39.47916667 23.1875 39.3125 C24.43585071 38.28537282 24.43585071 38.28537282 24.3203125 36.08984375 C24.31773437 35.15269531 24.31515625 34.21554687 24.3125 33.25 C24.31443359 31.75726563 24.31443359 31.75726563 24.31640625 30.234375 C24.2033933 27.67274821 23.82289977 25.48417042 23.25 23 C23.1875 19.3125 23.1875 19.3125 24.2578125 17.6640625 C32.17068652 10.13345293 42.27815346 7.59247622 52.89013672 7.79125977 C64.66980597 8.37243248 73.89080867 12.5368657 81.93359375 21.19140625 C90.63770527 31.93588306 91.12627086 43.03966462 89.9140625 56.3046875 C89.67725686 58.30793519 89.4333786 60.31034567 89.1875 62.3125 C90.25395115 63.60883621 90.25395115 63.60883621 92.75 63.375 C93.554375 63.354375 94.35875 63.33375 95.1875 63.3125 C97.23051154 58.78868873 98.19706295 54.14878305 99.1875 49.3125 C109.0247436 48.65055464 115.68407106 50.23655408 123.375 56.5 C130.1384473 62.81883822 135.7945883 71.00135823 136.30322266 80.46582031 C136.43458454 85.75233495 136.34143347 91.02745072 136.1875 96.3125 C135.10210938 95.98636719 134.01671875 95.66023438 132.8984375 95.32421875 C129.42692579 94.37777503 126.75567447 94.05763039 123.1875 94.3125 C121.89116379 95.37895115 121.89116379 95.37895115 122.125 97.875 C122.1559375 99.0815625 122.1559375 99.0815625 122.1875 100.3125 C122.73277344 100.53164063 123.27804687 100.75078125 123.83984375 100.9765625 C136.87930245 106.45982205 145.75190661 113.58660007 152.0234375 126.34765625 C156.2738415 137.17334965 154.7025502 148.85793305 150.1875 159.3125 C144.95463036 168.45525644 136.82719322 177.28683088 126.5 180.4375 C124.8603125 180.870625 124.8603125 180.870625 123.1875 181.3125 C123.14495644 183.31204746 123.14669217 185.31291636 123.1875 187.3125 C123.5175 187.6425 123.8475 187.9725 124.1875 188.3125 C125.87891656 188.22286938 127.56709602 188.06672324 129.25 187.875 C130.16910156 187.77316406 131.08820313 187.67132813 132.03515625 187.56640625 C132.74542969 187.48261719 133.45570313 187.39882813 134.1875 187.3125 C138.71896986 196.60381619 138.56991533 206.93500436 135.5625 216.75 C131.16227216 228.1198195 123.36024219 237.76931058 112.41015625 243.34765625 C106.37857076 245.96593677 100.70931725 246.54542204 94.1875 246.3125 C94.04054688 245.44109375 93.89359375 244.5696875 93.7421875 243.671875 C91.21539153 230.25371708 86.34368279 220.85631377 76.87109375 211.1015625 C66.96901763 200.81032181 63.59069405 190.47009964 62.1875 176.3125 C58.7225 177.3025 58.7225 177.3025 55.1875 178.3125 C54.47099244 190.78503902 58.17085758 203.34839051 66.58691406 212.90087891 C68.61923472 214.98888856 70.71919751 216.99677698 72.83349609 219.0012207 C81.48095945 227.27753065 86.03026609 237.25939693 86.625 249.25 C86.20520789 260.28703419 81.20835851 270.5044369 73.30859375 278.125 C64.00270807 285.64490762 52.9321242 288.16723006 41.1875 287.3125 C30.39626606 285.388987 21.77068433 279.97458464 15.1875 271.3125 C15.55101562 270.87421875 15.91453125 270.4359375 16.2890625 269.984375 C24.19397507 260.01202375 30.38843054 248.3272356 29.1875 235.3125 C28.12104885 234.01616379 28.12104885 234.01616379 25.625 234.25 C24.4184375 234.2809375 24.4184375 234.2809375 23.1875 234.3125 C22.96835937 235.33988281 22.74921875 236.36726562 22.5234375 237.42578125 C19.86847602 249.26779778 16.30216347 260.68668088 6.1875 268.3125 C-4.37988359 274.70406266 -15.58948766 277.40162506 -27.84765625 274.625 C-39.77048843 270.6004153 -48.84394421 263.41252377 -54.625 252.1875 C-57.36997359 246.47270857 -59.07108917 241.43000587 -59.0078125 235.0390625 C-58.99814453 233.30849609 -58.99814453 233.30849609 -58.98828125 231.54296875 C-58.97152344 230.35316406 -58.95476562 229.16335938 -58.9375 227.9375 C-58.92847656 226.72449219 -58.91945313 225.51148438 -58.91015625 224.26171875 C-58.88666588 221.27844227 -58.85381682 218.29557406 -58.8125 215.3125 C-61.1225 214.6525 -63.4325 213.9925 -65.8125 213.3125 C-66.7566974 216.50561246 -66.94132394 219.38313781 -66.9453125 222.70703125 C-66.94724609 224.26454102 -66.94724609 224.26454102 -66.94921875 225.85351562 C-66.94535156 226.93310547 -66.94148437 228.01269531 -66.9375 229.125 C-66.94136719 230.19298828 -66.94523438 231.26097656 -66.94921875 232.36132812 C-66.94251024 237.78515646 -66.77261193 242.97092492 -65.8125 248.3125 C-76.12456942 253.05605193 -87.91921944 254.36248159 -98.8125 250.5625 C-108.35102734 246.56022318 -115.93002417 240.59787717 -120.02294922 230.97192383 C-121.51035987 225.96191634 -121.2248329 220.92904394 -121.0625 215.75 C-121.04445313 214.64591797 -121.02640625 213.54183594 -121.0078125 212.40429688 C-120.96109048 209.70610019 -120.8956014 207.00977965 -120.8125 204.3125 C-123.24967258 204.58284634 -123.24967258 204.58284634 -125.8125 205.3125 C-127.85300077 208.37325115 -127.95841055 209.17948383 -128.25 212.625 C-128.91417024 215.84125746 -129.46086722 217.02513753 -132.03515625 219.12890625 C-134.9041558 220.73893553 -137.76677027 222.07032003 -140.8125 223.3125 C-141.62332031 223.6528125 -142.43414062 223.993125 -143.26953125 224.34375 C-153.32055199 227.94411564 -164.1512635 227.38720528 -174.05859375 223.640625 C-183.78167537 218.95147925 -190.84163109 211.362548 -195.05078125 201.5234375 C-196.83162989 196.35441015 -196.93803596 191.42594158 -196.875 186 C-196.87048828 185.25943359 -196.86597656 184.51886719 -196.86132812 183.75585938 C-196.84962175 181.94137101 -196.83168898 180.12692466 -196.8125 178.3125 C-198.1325 177.9825 -199.4525 177.6525 -200.8125 177.3125 C-202.4752026 179.98728244 -203.81233813 182.3120144 -204.8125 185.3125 C-214.58076895 185.27404225 -222.61356789 182.66789677 -230.171875 176.3359375 C-238.20887136 168.02701269 -241.51719504 158.51292648 -241.41992188 147.13061523 C-241.11781709 141.02410012 -239.19156652 136.3328274 -235.8125 131.3125 C-231.8125 131.3125 -231.8125 131.3125 -230.09375 132.6328125 C-229.5059375 133.22835937 -228.918125 133.82390625 -228.3125 134.4375 C-222.78437638 139.5109742 -215.3416733 144.67172074 -207.5625 144.6875 C-206.655 144.56375 -205.7475 144.44 -204.8125 144.3125 C-204.8125 142.6625 -204.8125 141.0125 -204.8125 139.3125 C-205.34617187 139.10496094 -205.87984375 138.89742187 -206.4296875 138.68359375 C-217.81803586 133.97457081 -225.84190105 127.99419545 -231.02734375 116.65625 C-235.23569291 106.47234456 -236.56363898 97.27818167 -232.75 86.625 C-228.38700811 76.42437371 -222.34578254 69.93195888 -212.8125 64.3125 C-211.91144531 63.76916016 -211.91144531 63.76916016 -210.9921875 63.21484375 C-201.84782025 58.80668465 -187.96545936 60.53379097 -178.53515625 63.2578125 C-173.11676928 65.35675724 -168.25082116 68.34625981 -163.734375 71.98828125 C-161.06838914 73.82521053 -158.97000109 73.52778417 -155.8125 73.3125 C-155.75971906 69.97606927 -155.75971906 69.97606927 -156.8125 66.3125 C-159.20466751 64.32309539 -161.12267822 62.99670627 -163.8125 61.5625 C-164.50021484 61.17763428 -165.18792969 60.79276855 -165.89648438 60.39624023 C-175.59551448 55.08622693 -184.92525241 53.53175698 -195.8125 52.3125 C-195.49457546 42.45683916 -191.23445185 34.74303078 -184.0703125 27.98046875 C-175.13468134 21.37923258 -165.91221257 18.14448487 -154.875 18.0625 C-153.83956055 18.0315625 -153.83956055 18.0315625 -152.78320312 18 C-148.02996335 17.96395648 -144.88299958 18.89185862 -140.8125 21.3125 C-140.83570313 22.36050781 -140.85890625 23.40851563 -140.8828125 24.48828125 C-140.90157303 25.86718037 -140.91977293 27.2460872 -140.9375 28.625 C-140.96263672 29.66043945 -140.96263672 29.66043945 -140.98828125 30.71679688 C-141.02467794 34.48385396 -140.95628864 36.09681704 -138.8125 39.3125 C-137.4925 39.3125 -136.1725 39.3125 -134.8125 39.3125 C-133.58069922 36.84889844 -133.63538276 35.00020405 -133.5 32.25 C-132.64232775 22.29580391 -127.98221129 14.26007526 -120.8125 7.3984375 C-110.65213278 -1.12901356 -99.83754566 -2.95117163 -86.92626953 -1.94921875 C-77.00055895 -0.72025574 -69.31124029 5.00430807 -62.8125 12.3125 C-58.24869248 18.59957094 -55.16119013 24.79907222 -54.3125 32.5625 C-54.19605023 36.33391651 -54.19605023 36.33391651 -51.8125 38.3125 C-49.27059998 38.5625773 -49.27059998 38.5625773 -46.8125 38.3125 C-46.4825 37.9825 -46.1525 37.6525 -45.8125 37.3125 C-46.32637464 26.86371569 -49.88671539 17.46038571 -54.8125 8.3125 C-39.43726092 -7.50203162 -19.57389212 -11.89006307 0 0 Z " fill="#5ac156" transform="translate(584.8125,269.6875)"/>
<path d="M0 0 C0.80179688 0.6084375 1.60359375 1.216875 2.4296875 1.84375 C3.4196875 2.58882813 4.4096875 3.33390625 5.4296875 4.1015625 C8.85309819 6.98914448 10.98348927 10.43061122 13.3046875 14.21875 C19.1553644 23.33853394 25.68134555 29.97259813 36.203125 33.42578125 C47.42064094 35.53152547 57.83603638 33.55152789 68.4296875 29.84375 C67.8464032 25.19237795 67.8464032 25.19237795 65.3671875 21.28125 C63.4296875 18.84375 63.4296875 18.84375 63.0546875 16.15625 C63.4296875 13.84375 63.4296875 13.84375 65.4296875 11.84375 C67.6796875 11.28125 67.6796875 11.28125 70.4296875 11.84375 C79.33601778 18.75817608 81.67481674 32.36539124 83.4296875 42.84375 C83.90130224 47.89130239 84.0019003 52.22248039 82.3046875 57.03125 C80.4296875 58.84375 80.4296875 58.84375 77.3671875 59.28125 C74.4296875 58.84375 74.4296875 58.84375 72.4296875 56.84375 C72.28461055 54.09889407 72.24316327 51.45894457 72.3046875 48.71875 C72.31371094 47.96464844 72.32273437 47.21054687 72.33203125 46.43359375 C72.3556188 44.57017746 72.39149031 42.70692407 72.4296875 40.84375 C67.14098193 41.2903518 62.438527 41.97999577 57.4296875 43.84375 C47.69930464 46.92355008 36.46058725 45.40764099 27.33203125 41.390625 C17.56923748 36.18730558 10.67409707 28.65704208 4.9921875 19.28125 C-1.04629032 9.54959602 -9.06174733 4.3445846 -19.8828125 1.09375 C-35.18274773 -2.44448153 -49.89493046 -1.02942068 -63.24609375 7.24609375 C-72.59626071 13.67335137 -79.43127986 23.55939217 -81.5703125 34.84375 C-82.77653874 47.71473043 -82.77653874 47.71473043 -79.5703125 59.84375 C-79.9453125 62.59375 -79.9453125 62.59375 -80.5703125 64.84375 C-83.8828125 65.15625 -83.8828125 65.15625 -87.5703125 64.84375 C-91.21397352 60.47135678 -91.69865489 55.94538062 -91.66796875 50.421875 C-91.66313477 48.88466797 -91.66313477 48.88466797 -91.65820312 47.31640625 C-91.64563477 45.72119141 -91.64563477 45.72119141 -91.6328125 44.09375 C-91.62830078 43.01480469 -91.62378906 41.93585938 -91.61914062 40.82421875 C-91.60736977 38.16400617 -91.59092649 35.50390635 -91.5703125 32.84375 C-90.9103125 32.84375 -90.2503125 32.84375 -89.5703125 32.84375 C-89.44785156 32.13863281 -89.32539063 31.43351562 -89.19921875 30.70703125 C-88.53626049 27.68871817 -87.58855675 24.92485558 -86.5078125 22.03125 C-86.14558594 21.05542969 -85.78335938 20.07960938 -85.41015625 19.07421875 C-84.99443359 17.97013672 -84.99443359 17.97013672 -84.5703125 16.84375 C-85.08368164 17.05813721 -85.59705078 17.27252441 -86.12597656 17.4934082 C-93.56299059 20.31556277 -100.52618706 20.18658697 -108.39453125 19.93164062 C-113.86474186 19.83173938 -113.86474186 19.83173938 -118.34960938 22.53759766 C-120.12257829 25.28162953 -121.3262984 27.80904089 -122.07714844 30.99291992 C-122.79870893 33.70091502 -124.57080159 34.89978106 -126.5703125 36.84375 C-131.11642248 42.41273472 -133.36444644 48.02897944 -135.5703125 54.84375 C-138.4453125 55.03125 -138.4453125 55.03125 -141.5703125 54.84375 C-143.81813709 51.47201311 -143.77459948 49.94764091 -143.16259766 46.02832031 C-142.10937784 42.14364968 -139.98766567 39.03003411 -137.7578125 35.71875 C-137.31888672 35.04199219 -136.87996094 34.36523438 -136.42773438 33.66796875 C-135.56526712 32.34287047 -134.69425636 31.02328575 -133.81396484 29.70996094 C-133.00080793 28.48974667 -132.20344242 27.25882122 -131.42431641 26.01660156 C-130.52346041 24.59243886 -129.55322036 23.21257179 -128.5703125 21.84375 C-127.9103125 21.84375 -127.2503125 21.84375 -126.5703125 21.84375 C-127.13315938 18.93049622 -127.96449677 17.26484631 -130.41992188 15.55810547 C-132.85717206 14.22883795 -135.32100658 12.98980824 -137.8203125 11.78125 C-153.86181307 3.80933229 -153.86181307 3.80933229 -156.5703125 -1.15625 C-156.8203125 -3.84375 -156.8203125 -3.84375 -156.5703125 -6.15625 C-156.2403125 -6.48625 -155.9103125 -6.81625 -155.5703125 -7.15625 C-150.24105963 -6.80357885 -146.96606265 -5.4960919 -142.5703125 -2.53125 C-137.70790689 0.63656074 -132.77576832 3.34462695 -127.5078125 5.78125 C-126.87681641 6.07531738 -126.24582031 6.36938477 -125.59570312 6.67236328 C-113.85516998 12.01386258 -97.06842757 12.16806465 -84.85913086 8.15209961 C-78.12120263 5.52620718 -71.99066076 1.88136588 -65.8828125 -1.96069336 C-45.61555755 -14.63586499 -19.59600818 -13.27269563 0 0 Z " fill="#c3eca4" transform="translate(548.5703125,378.15625)"/>
<path d="M0 0 C3.5625 -0.25 3.5625 -0.25 7 0 C9.20454716 2.20454716 8.89552593 6.83733932 9.3046875 9.82421875 C11.51459587 19.91778902 19.7244131 27.96714729 27.96875 33.7578125 C37.35740705 39.49933739 46.68681456 41.2150612 57.54125977 41.57104492 C62.78975848 41.78975848 62.78975848 41.78975848 65 44 C65.1875 47.0625 65.1875 47.0625 65 50 C62.41782147 52.58217853 55.47418289 51.30785822 52.00756836 51.33007812 C45.30073234 51.25851946 39.91413142 50.28531272 33.62890625 47.875 C30.8301647 46.94347235 28.92063702 46.56386461 26 47 C24.38201837 48.4871734 24.38201837 48.4871734 23.1875 50.5625 C16.87216966 59.64179171 8.86933974 64.79249386 -2 67 C-3.68477425 67.11444754 -5.37389101 67.17476539 -7.0625 67.1875 C-7.91972656 67.20167969 -8.77695312 67.21585937 -9.66015625 67.23046875 C-12 67 -12 67 -15 65 C-15.3125 62 -15.3125 62 -15 59 C-12.29521182 56.29521182 -10.71224066 56.73978744 -6.9375 56.625 C3.32687842 55.92412835 8.73661775 52.97162728 15.56640625 45.31640625 C17.3044026 42.50814511 17.65122494 41.24097993 17 38 C15.01959643 35.56367877 15.01959643 35.56367877 12.375 33.3125 C7.45639971 28.63739477 4.0850132 24.01730298 1 18 C0.66097656 17.37222656 0.32195313 16.74445313 -0.02734375 16.09765625 C-2.25875648 11.56284974 -2.41122563 7.93470758 -2 3 C-1.34 2.01 -0.68 1.02 0 0 Z " fill="#b9dfa9" transform="translate(571,309)"/>
<path d="M0 0 C2.5 -0.3125 2.5 -0.3125 5 0 C7.68614422 2.68614422 7.25907017 4.18761596 7.375 7.9375 C8.02179858 17.86969508 10.88541974 26.81192201 18 34 C31.48059094 45.40826407 45.40369694 48.11851763 62.609375 50.375 C65.3224182 51.08429234 66.37837499 51.72759127 68 54 C68.25 57.625 68.25 57.625 68 61 C67 62 67 62 63.6875 62.25 C59.68041115 61.97833296 59.01388587 61.333331 56 59 C52.83267579 58.74913276 52.83267579 58.74913276 50 59 C49.79246094 59.57105469 49.58492187 60.14210938 49.37109375 60.73046875 C46.53965174 68.18225547 42.87683827 75.0521831 39 82 C36.625 82.125 36.625 82.125 34 82 C33.01 81.01 33.01 81.01 32 80 C32.29759891 74.80784887 33.76634824 70.87487304 36.0625 66.25 C38.36705168 61.82365951 38.36705168 61.82365951 39 57 C38.18917969 56.72027344 37.37835937 56.44054687 36.54296875 56.15234375 C22.30190867 50.9963837 9.71645558 43.71634884 2.5625 29.875 C-1.53710808 20.83542096 -2.85070477 12.95825001 -2 3 C-1.34 2.01 -0.68 1.02 0 0 Z " fill="#b9dfa9" transform="translate(531,416)"/>
<path d="M0 0 C3.41505373 0.83310234 6.2353723 2.47020638 9.12866211 4.39428711 C9.73315186 4.79139893 10.3376416 5.18851074 10.96044922 5.59765625 C20.86152461 12.45817074 28.63405865 24.78873001 30.84741211 36.70678711 C32.29586842 51.19135017 31.37111404 62.29683502 23.12866211 74.51928711 C22.46866211 75.65366211 21.80866211 76.78803711 21.12866211 77.95678711 C19.12866211 80.51928711 19.12866211 80.51928711 16.50366211 81.51928711 C15.71991211 81.51928711 14.93616211 81.51928711 14.12866211 81.51928711 C12.12866211 79.51928711 12.12866211 79.51928711 11.75366211 77.20678711 C12.24866416 73.6592724 13.86422815 72.28692862 16.12866211 69.51928711 C21.46044503 59.17154115 22.9487463 47.64132405 20.44116211 36.14428711 C16.53309376 25.35057453 11.83491545 16.97427825 1.44897461 11.57006836 C-0.79549664 10.55363273 -3.03660592 9.73921521 -5.37133789 8.95678711 C-7.10383789 8.24522461 -7.10383789 8.24522461 -8.87133789 7.51928711 C-9.67993164 5.57397461 -9.67993164 5.57397461 -9.87133789 3.51928711 C-7.17966659 -0.81079281 -4.80725634 -0.73466194 0 0 Z " fill="#bbe0ac" transform="translate(657.871337890625,367.480712890625)"/>
<path d="M0 0 C-0.33 1.65 -0.66 3.3 -1 5 C-3.31 4.67 -5.62 4.34 -8 4 C-8.495 2.515 -8.495 2.515 -9 1 C-18.23455499 -1.59866874 -27.504975 -1.18617696 -37 -1 C-37 -0.34 -37 0.32 -37 1 C-37.56847656 1.12375 -38.13695312 1.2475 -38.72265625 1.375 C-45.43439134 3.167784 -49.17739697 6.21148685 -53 12 C-54.31131626 15.2582888 -54.31131626 15.2582888 -55 18 C-57.82883747 19.41441874 -59.87376745 19.31900332 -63 19 C-65.68237572 16.7646869 -65.97771065 15.11813355 -66.625 11.6875 C-65.52801466 5.21528648 -61.20960796 2.60888009 -56.09765625 -1.11328125 C-37.32586574 -13.5595472 -17.93761323 -12.99827046 0 0 Z " fill="#b3dda4" transform="translate(521,330)"/>
<path d="M0 0 C3.1243444 2.59448482 4.20305715 5.49886243 5.625 9.25 C6.05039062 10.34828125 6.47578125 11.4465625 6.9140625 12.578125 C8 16 8 16 9 23 C13.95 22.34 18.9 21.68 24 21 C23.67 21.66 23.34 22.32 23 23 C17.47570753 24.74451341 12.77149626 25.20612487 7 25 C6.82984375 24.09378906 6.6596875 23.18757812 6.484375 22.25390625 C5.17721124 15.68332244 3.78283918 9.67591926 0.76953125 3.671875 C0 2 0 2 0 0 Z " fill="#41bd4b" transform="translate(672,491)"/>
<path d="M0 0 C-2.64 0.99 -5.28 1.98 -8 3 C-8 4.98 -8 6.96 -8 9 C-6.02 9.66 -4.04 10.32 -2 11 C-2.66 11.66 -3.32 12.32 -4 13 C-6.5 12.8125 -6.5 12.8125 -9 12 C-11.31282587 8.53076119 -11.42478586 7.07794425 -11 3 C-9.40240167 0.56156044 -8.29454917 0.08836475 -5.5 -0.75 C-3 -1 -3 -1 0 0 Z " fill="#41be51" transform="translate(716,448)"/>
<path d="M0 0 C0 3 0 3 -1.79296875 4.8671875 C-2.58316406 5.52976562 -3.37335938 6.19234375 -4.1875 6.875 C-7.61235348 9.80287159 -10.86637415 12.76528945 -14 16 C-12.22072835 9.67370081 -7.38812994 4.62596081 -2.0625 1 C-1.381875 0.67 -0.70125 0.34 0 0 Z " fill="#4cbe4d" transform="translate(470,273)"/>
<path d="M0 0 C0 0.33 0 0.66 0 1 C-1.7015625 1.2165625 -1.7015625 1.2165625 -3.4375 1.4375 C-6.80777201 1.61171478 -6.80777201 1.61171478 -8 3 C-8.04063832 4.66617115 -8.042721 6.33388095 -8 8 C-6.02 8.99 -4.04 9.98 -2 11 C-2 11.33 -2 11.66 -2 12 C-5.375 11.75 -5.375 11.75 -9 11 C-10.5 9.25 -10.5 9.25 -11 7 C-10.68393897 4.34508736 -10.19397377 2.38794754 -9 0 C-5.52176885 -1.15941038 -3.54104422 -0.70820884 0 0 Z " fill="#47bd4c" transform="translate(715,362)"/>
<path d="M0 0 C0.33 0.66 0.66 1.32 1 2 C2.97888961 2.72693904 4.97954558 3.39816251 7 4 C6.67 4.99 6.34 5.98 6 7 C3.625 7.625 3.625 7.625 1 8 C-1 6 -1 6 -1.1875 3.4375 C-1 1 -1 1 0 0 Z " fill="#91d083" transform="translate(671,441)"/>
<path d="M0 0 C0 0.33 0 0.66 0 1 C-5.61 1 -11.22 1 -17 1 C-17.66 2.32 -18.32 3.64 -19 5 C-20.31542376 7.01182457 -21.6459068 9.01399663 -23 11 C-23.33 10.34 -23.66 9.68 -24 9 C-19.89641984 -2.8862322 -10.61226992 -0.90104179 0 0 Z " fill="#8dcd7f" transform="translate(450,398)"/>
<path d="M0 0 C-0.65690619 3.78239671 -1.720131 7.21841526 -3.0625 10.8125 C-3.42472656 11.78832031 -3.78695313 12.76414062 -4.16015625 13.76953125 C-4.57587891 14.87361328 -4.57587891 14.87361328 -5 16 C-6.25127906 12.45332822 -5.72285053 10.27746562 -4.5625 6.75 C-4.27503906 5.85796875 -3.98757813 4.9659375 -3.69140625 4.046875 C-3.46324219 3.37140625 -3.23507812 2.6959375 -3 2 C-4.98 2.33 -6.96 2.66 -9 3 C-5.87496336 0.91664224 -3.72863529 0 0 0 Z " fill="#8dcc7e" transform="translate(464,395)"/>
<path d="M0 0 C1.3340394 4.00211819 0.40012984 6.07963644 -1 10 C-2.625 11.9375 -2.625 11.9375 -4 13 C-4.66 12.67 -5.32 12.34 -6 12 C-4.02 8.04 -2.04 4.08 0 0 Z " fill="#3dbd4d" transform="translate(613,520)"/>
<path d="M0 0 C2.99220268 1.36370299 5.29026529 2.94908083 7.75 5.125 C8.67039062 5.93324219 8.67039062 5.93324219 9.609375 6.7578125 C10.06828125 7.16773438 10.5271875 7.57765625 11 8 C10.01 8.33 9.02 8.66 8 9 C6.28125 7.78515625 6.28125 7.78515625 4.5 6.0625 C1.80173363 3.32159799 1.80173363 3.32159799 -2 3 C-1.34 2.01 -0.68 1.02 0 0 Z " fill="#53be4a" transform="translate(350,400)"/>
<path d="M0 0 C0.433125 0.495 0.86625 0.99 1.3125 1.5 C2.99740483 3.33218192 2.99740483 3.33218192 6 3 C6.66 2.34 7.32 1.68 8 1 C8 2.32 8 3.64 8 5 C7 6 7 6 4.5625 6.1875 C2 6 2 6 0 4 C0 2.68 0 1.36 0 0 Z " fill="#dfd9b5" transform="translate(601,304)"/>
<path d="M0 0 C4.35522853 0.50642192 7.44239635 1.38411497 11 4 C11 4.66 11 5.32 11 6 C7.2089881 4.55049545 3.6125362 2.84827434 0 1 C0 0.67 0 0.34 0 0 Z " fill="#89cc7b" transform="translate(508,322)"/>
<path d="M0 0 C0.625 1.8125 0.625 1.8125 1 4 C0.01 5.485 0.01 5.485 -1 7 C-3.4375 6.625 -3.4375 6.625 -6 6 C-6.33 5.34 -6.66 4.68 -7 4 C-3.535 3.505 -3.535 3.505 0 3 C0 2.01 0 1.02 0 0 Z " fill="#e6d9bb" transform="translate(451,303)"/>
<path d="M0 0 C0.99 0.33 1.98 0.66 3 1 C3.33 3.97 3.66 6.94 4 10 C2 7 2 7 2 3 C0.68 2.34 -0.64 1.68 -2 1 C-1.34 0.67 -0.68 0.34 0 0 Z " fill="#3aba47" transform="translate(717,457)"/>
<path d="M0 0 C0.99 0.33 1.98 0.66 3 1 C1.35 2.65 -0.3 4.3 -2 6 C-2.99 5.67 -3.98 5.34 -5 5 C-3.35 3.35 -1.7 1.7 0 0 Z " fill="#f0e3cd" transform="translate(711,501)"/>
<path d="M0 0 C0.66 0 1.32 0 2 0 C2.268125 0.61875 2.53625 1.2375 2.8125 1.875 C3.95556848 4.2995233 3.95556848 4.2995233 7 6 C4.625 6.125 4.625 6.125 2 6 C1.34 5.34 0.68 4.68 0 4 C0 2.68 0 1.36 0 0 Z " fill="#b3dba2" transform="translate(563,492)"/>
</svg>